<?xml version="1.0" encoding="utf-8"?>
<!-- Generator: Adobe Illustrator 21.0.0, SVG Export Plug-In . SVG Version: 6.00 Build 0)  -->
<svg version="1.1" id="icons" xmlns="http://www.w3.org/2000/svg" xmlns:xlink="http://www.w3.org/1999/xlink" x="0px" y="0px"
	 width="32px" height="32px" viewBox="0 0 32 32" style="enable-background:new 0 0 32 32;" xml:space="preserve">
<style type="text/css">
	.st0{fill:#5057FB;}
	.st1{fill:#C93789;}
	.st2{fill:#ED5C36;}
	.st3{fill:#AFB224;}
	.st4{fill:#15B2CC;}
</style>
<g id="air-conditioning_1_">
	<path class="st4" d="M20.5,14.5h-9c-0.276,0-0.5,0.224-0.5,0.5s0.224,0.5,0.5,0.5h9c0.276,0,0.5-0.224,0.5-0.5
		S20.776,14.5,20.5,14.5z"/>
	<path class="st4" d="M16,0C7.163,0,0,7.163,0,16s7.163,16,16,16s16-7.163,16-16S24.837,0,16,0z M11,8.5h10v2.446
		c0,0.3-0.366,0.554-0.8,0.554h-8.4c-0.434,0-0.8-0.254-0.8-0.554V8.5z M11,21.5c0,0.276-0.224,0.5-0.5,0.5S10,21.776,10,21.5v-2
		c0-0.276,0.224-0.5,0.5-0.5s0.5,0.224,0.5,0.5V21.5z M13,22.5c0,0.276-0.224,0.5-0.5,0.5S12,22.776,12,22.5v-3
		c0-0.276,0.224-0.5,0.5-0.5s0.5,0.224,0.5,0.5V22.5z M15,23.5c0,0.276-0.224,0.5-0.5,0.5S14,23.776,14,23.5v-4
		c0-0.276,0.224-0.5,0.5-0.5s0.5,0.224,0.5,0.5V23.5z M21.5,22.268h-1.134l0.567,0.982c0.138,0.239,0.056,0.545-0.183,0.683
		s-0.545,0.056-0.683-0.183L19.5,22.768l-0.567,0.982c-0.138,0.239-0.444,0.321-0.683,0.183s-0.321-0.444-0.183-0.683l0.567-0.982
		H17.5c-0.276,0-0.5-0.224-0.5-0.5s0.224-0.5,0.5-0.5h1.134l-0.567-0.982c-0.138-0.239-0.056-0.545,0.183-0.683
		s0.545-0.056,0.683,0.183l0.567,0.982l0.567-0.982c0.138-0.239,0.444-0.321,0.683-0.183s0.321,0.444,0.183,0.683l-0.567,0.982H21.5
		c0.276,0,0.5,0.224,0.5,0.5S21.776,22.268,21.5,22.268z M24,15.5c0,0.992-1.008,2-2,2H10c-0.992,0-2-1.008-2-2v-5
		c0-0.992,1.008-2,2-2v2.446c0,0.857,0.808,1.554,1.8,1.554h8.4c0.992,0,1.8-0.697,1.8-1.554V8.5c0.992,0,2,1.008,2,2V15.5z"/>
</g>
</svg>
