<?xml version="1.0" encoding="utf-8"?>
<!-- Generator: Adobe Illustrator 21.0.0, SVG Export Plug-In . SVG Version: 6.00 Build 0)  -->
<svg version="1.1" id="icons" xmlns="http://www.w3.org/2000/svg" xmlns:xlink="http://www.w3.org/1999/xlink" x="0px" y="0px"
	 width="16px" height="16px" viewBox="0 0 16 16" style="enable-background:new 0 0 16 16;" xml:space="preserve">
<style type="text/css">
	.st0{fill:#5057FB;}
	.st1{fill:#C93789;}
	.st2{fill:#ED5C36;}
	.st3{fill:#AFB224;}
	.st4{fill:#15B2CC;}
</style>
<g id="air-conditioning_3_">
	<path d="M13.5,13.268h-1.134l0.567-0.982c0.138-0.239,0.056-0.545-0.183-0.683s-0.545-0.056-0.683,0.183L11.5,12.768l-0.567-0.982
		c-0.138-0.239-0.444-0.321-0.683-0.183s-0.321,0.444-0.183,0.683l0.567,0.982H9.5c-0.276,0-0.5,0.224-0.5,0.5s0.224,0.5,0.5,0.5
		h1.134l-0.567,0.982c-0.138,0.239-0.056,0.545,0.183,0.683s0.545,0.056,0.683-0.183l0.567-0.982l0.567,0.982
		c0.138,0.239,0.444,0.321,0.683,0.183s0.321-0.444,0.183-0.683l-0.567-0.982H13.5c0.276,0,0.5-0.224,0.5-0.5
		S13.776,13.268,13.5,13.268z"/>
	<path d="M3.8,3h8.4C12.634,3,13,2.746,13,2.446V0H3v2.446C3,2.746,3.366,3,3.8,3z"/>
	<path d="M14,0v2.446C14,3.303,13.192,4,12.2,4H3.8C2.808,4,2,3.303,2,2.446V0C1.008,0,0,1.008,0,2v5c0,0.992,1.008,2,2,2h12
		c0.992,0,2-1.008,2-2V2C16,1.008,14.992,0,14,0z M12.5,7h-9C3.224,7,3,6.776,3,6.5S3.224,6,3.5,6h9C12.776,6,13,6.224,13,6.5
		S12.776,7,12.5,7z"/>
	<path d="M6.5,11C6.776,11,7,11.224,7,11.5v4C7,15.776,6.776,16,6.5,16S6,15.776,6,15.5v-4C6,11.224,6.224,11,6.5,11z"/>
	<path d="M4.5,11C4.776,11,5,11.224,5,11.5v3C5,14.776,4.776,15,4.5,15S4,14.776,4,14.5v-3C4,11.224,4.224,11,4.5,11z"/>
	<path d="M2.5,11C2.776,11,3,11.224,3,11.5v2C3,13.776,2.776,14,2.5,14S2,13.776,2,13.5v-2C2,11.224,2.224,11,2.5,11z"/>
</g>
</svg>
