<?xml version="1.0" encoding="utf-8"?>
<!-- Generator: Adobe Illustrator 21.0.0, SVG Export Plug-In . SVG Version: 6.00 Build 0)  -->
<svg version="1.1" id="icons" xmlns="http://www.w3.org/2000/svg" xmlns:xlink="http://www.w3.org/1999/xlink" x="0px" y="0px"
	 width="16px" height="16px" viewBox="0 0 16 16" style="enable-background:new 0 0 16 16;" xml:space="preserve">
<style type="text/css">
	.st0{fill:#5057FB;}
	.st1{fill:#C93789;}
	.st2{fill:#ED5C36;}
	.st3{fill:#AFB224;}
	.st4{fill:#15B2CC;}
</style>
<g id="automatic-transmission_4_">
	<path class="st2" d="M9.002,9.996v3.464c0,0.278-0.224,0.503-0.5,0.503s-0.5-0.225-0.5-0.503V9.996h-2V14.2
		c0,0.992,0.808,1.8,1.8,1.8h1.399c0.993,0,1.801-0.808,1.801-1.8V9.996H9.002z"/>
	<path class="st2" d="M2.999,10.996L2.999,10.996c-0.553,0-1-0.447-1-1s0.447-1,1-1l0,0c0.553,0,1,0.447,1,1
		S3.552,10.996,2.999,10.996z"/>
	<path class="st2" d="M3.002,2.996L3.002,2.996c-0.552,0-0.999-0.447-0.999-0.999s0.447-0.999,0.999-0.999l0,0
		c0.552,0,0.999,0.447,0.999,0.999S3.554,2.996,3.002,2.996z"/>
	<path class="st2" d="M3,14.996L3,14.996c-0.553,0-1-0.447-1-1s0.447-1,1-1l0,0c0.553,0,1,0.447,1,1S3.553,14.996,3,14.996z"/>
	<path class="st2" d="M11.003,1.996V1.8c0-0.992-0.808-1.8-1.801-1.8H7.803c-0.992,0-1.8,0.808-1.8,1.8v0.196H11.003z"/>
	<path class="st2" d="M12.001,2.996h-3h-3c-1.105,0-2,0.895-2,2V5h-1c-0.552,0-1,0.448-1,1c0,0.552,0.448,1,1,1h1l0,0
		c0.002,1.103,0.896,1.996,2,1.996h3h3c1.105,0,2-0.895,2-2v-2C14.001,3.891,13.105,2.996,12.001,2.996z"/>
</g>
</svg>
