<?xml version="1.0" encoding="utf-8"?>
<!-- Generator: Adobe Illustrator 21.0.0, SVG Export Plug-In . SVG Version: 6.00 Build 0)  -->
<svg version="1.1" id="icons" xmlns="http://www.w3.org/2000/svg" xmlns:xlink="http://www.w3.org/1999/xlink" x="0px" y="0px"
	 width="32px" height="32px" viewBox="0 0 32 32" style="enable-background:new 0 0 32 32;" xml:space="preserve">
<style type="text/css">
	.st0{fill:#5057FB;}
	.st1{fill:#C93789;}
	.st2{fill:#ED5C36;}
	.st3{fill:#AFB224;}
	.st4{fill:#15B2CC;}
</style>
<path id="automatic-transmission_1_" class="st2" d="M16,0C7.163,0,0,7.163,0,16s7.163,16,16,16s16-7.163,16-16S24.837,0,16,0z
	 M14.002,9.8c0-0.992,0.808-1.8,1.8-1.8h1.399c0.993,0,1.801,0.808,1.801,1.8v0.196h-5V9.8z M11.001,8.998
	C11.553,8.998,12,9.445,12,9.997c0,0.552-0.447,0.999-0.999,0.999c-0.552,0-0.999-0.447-0.999-0.999
	C10.002,9.445,10.449,8.998,11.001,8.998z M11,22.996c-0.553,0-1-0.447-1-1s0.447-1,1-1c0.553,0,1,0.447,1,1
	S11.553,22.996,11,22.996z M9.999,17.996c0-0.553,0.447-1,1-1s1,0.447,1,1s-0.447,1-1,1S9.999,18.549,9.999,17.996z M19.002,22.2
	c0,0.992-0.808,1.8-1.801,1.8h-1.399c-0.992,0-1.8-0.808-1.8-1.8v-4.204h2v3.464c0,0.278,0.224,0.503,0.5,0.503s0.5-0.225,0.5-0.503
	v-3.464h2V22.2z M22,14.996c0,1.105-0.895,2-2,2h-3h-3c-1.103,0-1.998-0.893-2-1.996l0,0h-1c-0.552,0-1-0.448-1-1
	c0-0.552,0.448-1,1-1h1v-0.004c0-1.105,0.895-2,2-2h3h3c1.105,0,2,0.895,2,2V14.996z"/>
</svg>
