<?xml version="1.0" encoding="utf-8"?>
<!-- Generator: Adobe Illustrator 21.0.0, SVG Export Plug-In . SVG Version: 6.00 Build 0)  -->
<svg version="1.1" id="icons" xmlns="http://www.w3.org/2000/svg" xmlns:xlink="http://www.w3.org/1999/xlink" x="0px" y="0px"
	 width="16px" height="16px" viewBox="0 0 16 16" style="enable-background:new 0 0 16 16;" xml:space="preserve">
<style type="text/css">
	.st0{fill:#5057FB;}
	.st1{fill:#C93789;}
	.st2{fill:#ED5C36;}
	.st3{fill:#AFB224;}
	.st4{fill:#15B2CC;}
</style>
<g id="automatic-transmission_2_">
	<path d="M3.5,10L3.5,10C3.224,10,3,9.776,3,9.5S3.224,9,3.5,9l0,0C3.776,9,4,9.224,4,9.5S3.776,10,3.5,10z"/>
	<path d="M3.5,2L3.5,2C3.224,2,3,1.776,3,1.5S3.224,1,3.5,1l0,0C3.776,1,4,1.224,4,1.5S3.776,2,3.5,2z"/>
	<path d="M3.5,15L3.5,15C3.224,15,3,14.776,3,14.5S3.224,14,3.5,14l0,0C3.776,14,4,14.224,4,14.5S3.776,15,3.5,15z"/>
	<path d="M11,2.996h-0.002V1.8c0-0.992-0.808-1.8-1.801-1.8H7.798c-0.992,0-1.8,0.808-1.8,1.8v1.196C4.896,2.997,4,3.894,4,4.996V5
		H3.5C3.224,5,3,5.223,3,5.5S3.224,6,3.5,6H4c0.002,1.1,0.899,1.995,2,1.996V14.2C6,15.192,6.806,16,7.798,16h1.399
		c0.993,0,1.801-0.808,1.801-1.8V7.996H11c1.103,0,2-0.897,2-2v-1C13,3.893,12.103,2.996,11,2.996z M6.998,1.8
		c0-0.441,0.358-0.8,0.8-0.8h1.399c0.441,0,0.801,0.358,0.801,0.8v1.196h-1v-0.53c0-0.278-0.224-0.503-0.5-0.503
		s-0.5,0.225-0.5,0.503v0.53h-1V1.8z M10,14.2c0,0.441-0.361,0.8-0.803,0.8H7.798c-0.441,0-0.8-0.358-0.8-0.8V7.996H8v5.464
		c0,0.278,0.221,0.503,0.498,0.503S9,13.738,9,13.46V7.996h1V14.2z M12,5.996c0,0.276-0.112,0.526-0.293,0.707S11.276,7,11,7h-0.002
		H6C5.999,7,5.999,7,5.998,7C5.723,6.999,5.473,6.884,5.293,6.703C5.112,6.522,5,6.272,5,5.996v-1C5,4.72,5.112,4.47,5.293,4.289
		c0.181-0.181,0.43-0.292,0.705-0.293c0.001,0,0.001,0,0.002,0h4.998H11c0.552,0,1,0.448,1,1V5.996z"/>
</g>
</svg>
