<?xml version="1.0" encoding="utf-8"?>
<!-- Generator: Adobe Illustrator 21.0.0, SVG Export Plug-In . SVG Version: 6.00 Build 0)  -->
<svg version="1.1" id="icons" xmlns="http://www.w3.org/2000/svg" xmlns:xlink="http://www.w3.org/1999/xlink" x="0px" y="0px"
	 width="16px" height="16px" viewBox="0 0 16 16" style="enable-background:new 0 0 16 16;" xml:space="preserve">
<style type="text/css">
	.st0{fill:#5057FB;}
	.st1{fill:#C93789;}
	.st2{fill:#ED5C36;}
	.st3{fill:#AFB224;}
	.st4{fill:#15B2CC;}
</style>
<g id="belt_3_">
	<path d="M12.897,5.379l0.002-0.004l-9.322-4.13L3.574,1.252C3.247,1.095,2.886,1,2.5,1C1.122,1,0,2.122,0,3.5
		c0,0.628,0.241,1.195,0.624,1.635l-0.01,0.008l6.651,8.18l0.016-0.013C8.198,14.339,9.517,15,11,15c2.757,0,5-2.243,5-5
		C16,7.915,14.715,6.128,12.897,5.379z M2.5,2C3.327,2,4,2.673,4,3.5S3.327,5,2.5,5S1,4.327,1,3.5S1.673,2,2.5,2z M2.592,5.991
		C3.927,5.941,5,4.847,5,3.5c0-0.194-0.027-0.381-0.069-0.563l4.958,2.197C7.667,5.642,6,7.626,6,10
		c0,0.071,0.018,0.137,0.021,0.207L2.592,5.991z M11,14c-2.206,0-4-1.794-4-4s1.794-4,4-4s4,1.794,4,4S13.206,14,11,14z"/>
	<circle cx="2.5" cy="3.5" r="0.5"/>
	<path d="M11,7.5c-1.378,0-2.5,1.122-2.5,2.5s1.122,2.5,2.5,2.5s2.5-1.122,2.5-2.5S12.378,7.5,11,7.5z M11,11.5
		c-0.827,0-1.5-0.673-1.5-1.5s0.673-1.5,1.5-1.5s1.5,0.673,1.5,1.5S11.827,11.5,11,11.5z"/>
	<circle cx="11" cy="10" r="0.5"/>
</g>
</svg>
