<?xml version="1.0" encoding="utf-8"?>
<!-- Generator: Adobe Illustrator 21.0.0, SVG Export Plug-In . SVG Version: 6.00 Build 0)  -->
<svg version="1.1" id="icons" xmlns="http://www.w3.org/2000/svg" xmlns:xlink="http://www.w3.org/1999/xlink" x="0px" y="0px"
	 width="16px" height="16px" viewBox="0 0 16 16" style="enable-background:new 0 0 16 16;" xml:space="preserve">
<style type="text/css">
	.st0{fill:#5057FB;}
	.st1{fill:#C93789;}
	.st2{fill:#ED5C36;}
	.st3{fill:#AFB224;}
	.st4{fill:#15B2CC;}
</style>
<g id="belt_1_">
	<path class="st4" d="M12.9,5.37c-0.011-0.004-0.023-0.006-0.033-0.01L3.578,1.244L3.576,1.248C3.247,1.09,2.888,1,2.5,1
		C1.12,1,0,2.12,0,3.5c0,0.63,0.23,1.21,0.61,1.64c0.002,0.002,0.004,0.003,0.005,0.005l6.65,8.178L7.27,13.32l0,0
		C8.17,14.35,9.51,15,11,15c2.76,0,5-2.24,5-5C16,7.91,14.72,6.12,12.9,5.37z M6.01,10.19c0,0.002,0,0.003,0,0.005L2.6,6h0
		C3.93,5.95,5,4.85,5,3.5c0-0.19-0.02-0.379-0.06-0.559l4.937,2.187C9.875,5.129,9.872,5.129,9.87,5.13C7.65,5.64,6,7.63,6,10
		C6,10.06,6,10.13,6.01,10.19z M2.5,3C2.78,3,3,3.22,3,3.5S2.78,4,2.5,4C2.22,4,2,3.78,2,3.5S2.22,3,2.5,3z M11,12.5
		c-1.38,0-2.5-1.12-2.5-2.5S9.62,7.5,11,7.5s2.5,1.12,2.5,2.5S12.38,12.5,11,12.5z"/>
	<path class="st4" d="M11,8.5c-0.83,0-1.5,0.67-1.5,1.5s0.67,1.5,1.5,1.5c0.83,0,1.5-0.67,1.5-1.5S11.83,8.5,11,8.5z M11,10.5
		c-0.28,0-0.5-0.22-0.5-0.5s0.22-0.5,0.5-0.5c0.28,0,0.5,0.22,0.5,0.5S11.28,10.5,11,10.5z"/>
</g>
</svg>
