<?xml version="1.0" encoding="utf-8"?>
<!-- Generator: Adobe Illustrator 21.0.0, SVG Export Plug-In . SVG Version: 6.00 Build 0)  -->
<svg version="1.1" id="icons" xmlns="http://www.w3.org/2000/svg" xmlns:xlink="http://www.w3.org/1999/xlink" x="0px" y="0px"
	 width="32px" height="32px" viewBox="0 0 32 32" style="enable-background:new 0 0 32 32;" xml:space="preserve">
<style type="text/css">
	.st0{fill:#5057FB;}
	.st1{fill:#C93789;}
	.st2{fill:#ED5C36;}
	.st3{fill:#AFB224;}
	.st4{fill:#15B2CC;}
</style>
<g id="belt_2_">
	<path class="st4" d="M17.877,13.114l-4.937-2.187c0.04,0.18,0.06,0.369,0.06,0.559c0,1.35-1.07,2.45-2.4,2.5h0l3.411,4.195
		c0-0.002,0-0.003,0-0.005C14,18.115,14,18.045,14,17.985c0-2.37,1.65-4.36,3.87-4.87C17.872,13.115,17.874,13.115,17.877,13.114z"
		/>
	<circle class="st4" cx="19" cy="17.985" r="0.5"/>
	<circle class="st4" cx="10.5" cy="11.485" r="0.5"/>
	<path class="st4" d="M19,15.485c-1.38,0-2.5,1.12-2.5,2.5s1.12,2.5,2.5,2.5s2.5-1.12,2.5-2.5S20.38,15.485,19,15.485z M19,19.485
		c-0.83,0-1.5-0.67-1.5-1.5s0.67-1.5,1.5-1.5c0.83,0,1.5,0.67,1.5,1.5S19.83,19.485,19,19.485z"/>
	<path class="st4" d="M16,0C7.163,0,0,7.163,0,16s7.163,16,16,16s16-7.163,16-16S24.837,0,16,0z M19,22.985
		c-1.49,0-2.83-0.65-3.73-1.68l0,0l-0.005,0.004l-6.65-8.178c-0.002-0.002-0.004-0.003-0.005-0.005C8.23,12.695,8,12.115,8,11.485
		c0-1.38,1.12-2.5,2.5-2.5c0.388,0,0.747,0.09,1.076,0.248l0.002-0.004l9.289,4.116c0.011,0.004,0.023,0.006,0.033,0.01
		c1.82,0.75,3.1,2.54,3.1,4.63C24,20.745,21.76,22.985,19,22.985z"/>
</g>
</svg>
