<?xml version="1.0" encoding="utf-8"?>
<!-- Generator: Adobe Illustrator 21.0.0, SVG Export Plug-In . SVG Version: 6.00 Build 0)  -->
<svg version="1.1" id="icons" xmlns="http://www.w3.org/2000/svg" xmlns:xlink="http://www.w3.org/1999/xlink" x="0px" y="0px"
	 width="16px" height="16px" viewBox="0 0 16 16" style="enable-background:new 0 0 16 16;" xml:space="preserve">
<style type="text/css">
	.st0{fill:#5057FB;}
	.st1{fill:#C93789;}
	.st2{fill:#ED5C36;}
	.st3{fill:#AFB224;}
	.st4{fill:#15B2CC;}
</style>
<g id="body-type_3_">
	<path d="M2.854,3.147c-0.195-0.195-0.512-0.195-0.707,0L1,4.293V4c0-0.276-0.224-0.5-0.5-0.5S0,3.724,0,4v1.5
		C0,5.776,0.224,6,0.5,6H2c0.276,0,0.5-0.224,0.5-0.5S2.277,5,2,5H1.707l1.146-1.146C3.049,3.658,3.049,3.342,2.854,3.147z"/>
	<path d="M15.854,3.151l-1-1.004c-0.195-0.195-0.512-0.195-0.707,0c-0.195,0.195-0.195,0.512,0,0.707l0.15,0.151l-9.796,0
		c-0.276,0-0.5,0.224-0.5,0.5s0.224,0.5,0.5,0.5l9.789,0l-0.143,0.142c-0.195,0.195-0.195,0.512,0,0.707
		c0.195,0.195,0.512,0.195,0.707,0l1-0.995C16.049,3.663,16.049,3.346,15.854,3.151z"/>
	<g>
		<path d="M15.957,10.85l-0.528-1.197c-0.064-0.147-0.197-0.255-0.355-0.287L10.887,8.5L8.598,7.298C8.222,7.055,7.558,7,7.356,7
			H4.463C3.977,7,3.29,7.359,3.035,7.533C2.738,7.734,2.023,8.304,1.772,8.506L0.629,8.78C0.404,8.835,0.246,9.037,0.247,9.269
			L0.253,10H0.5C0.776,10,1,10.224,1,10.5S0.776,11,0.5,11H0.2l-0.193,1.121c-0.046,0.268,0.131,0.523,0.396,0.575L1.997,13H2
			c0-1.105,0.895-2,2-2s2,0.895,2,2h4c0-1.105,0.895-2,2-2s2,0.895,2,2h1.5c0.276,0,0.5-0.224,0.5-0.5v-1.448
			C16,10.982,15.986,10.913,15.957,10.85z"/>
		<circle cx="4" cy="13" r="1"/>
		<circle cx="12" cy="13" r="1"/>
	</g>
</g>
</svg>
