<?xml version="1.0" encoding="utf-8"?>
<!-- Generator: Adobe Illustrator 21.0.0, SVG Export Plug-In . SVG Version: 6.00 Build 0)  -->
<svg version="1.1" id="icons" xmlns="http://www.w3.org/2000/svg" xmlns:xlink="http://www.w3.org/1999/xlink" x="0px" y="0px"
	 width="16px" height="16px" viewBox="0 0 16 16" style="enable-background:new 0 0 16 16;" xml:space="preserve">
<style type="text/css">
	.st0{fill:#5057FB;}
	.st1{fill:#C93789;}
	.st2{fill:#ED5C36;}
	.st3{fill:#AFB224;}
	.st4{fill:#15B2CC;}
</style>
<g id="body-type">
	<path d="M2.854,3.146c-0.195-0.195-0.512-0.195-0.707,0L1,4.293V4c0-0.276-0.224-0.5-0.5-0.5S0,3.724,0,4v1.5
		C0,5.776,0.224,6,0.5,6H2c0.276,0,0.5-0.224,0.5-0.5S2.277,5,2,5H1.707l1.146-1.146C3.049,3.658,3.049,3.342,2.854,3.146z"/>
	<path d="M15.957,10.85l-0.528-1.197c-0.064-0.147-0.197-0.255-0.355-0.287L10.887,8.5L8.598,7.298C8.222,7.055,7.558,7,7.356,7
		H4.463C3.977,7,3.29,7.359,3.035,7.533C2.738,7.734,2.023,8.304,1.772,8.506L0.629,8.78C0.404,8.835,0.246,9.037,0.247,9.269
		l0.013,1.387l-0.252,1.466c-0.046,0.268,0.131,0.523,0.396,0.575L1.997,13h0.095C2.3,13.581,2.849,14,3.5,14s1.201-0.419,1.408-1
		h5.184c0.207,0.581,0.757,1,1.408,1s1.201-0.419,1.408-1H15.5c0.276,0,0.5-0.224,0.5-0.5v-1.448
		C16,10.982,15.986,10.913,15.957,10.85z M3,12.5c0-0.26,0.203-0.468,0.457-0.491C3.472,12.007,3.485,12,3.5,12
		c0.015,0,0.028,0.007,0.043,0.009C3.798,12.032,4,12.24,4,12.5C4,12.775,3.776,13,3.5,13S3,12.775,3,12.5z M11,12.5
		c0-0.271,0.218-0.49,0.487-0.497c0.005,0,0.008-0.003,0.013-0.003s0.008,0.003,0.013,0.003C11.783,12.01,12,12.229,12,12.5
		c0,0.275-0.225,0.5-0.5,0.5S11,12.775,11,12.5z M15,12l-2.092,0.002C12.702,11.42,12.152,11,11.5,11
		c-0.652,0-1.203,0.421-1.409,1.004l-5.181,0.004C4.706,11.423,4.154,11,3.5,11c-0.654,0-1.206,0.424-1.411,1.009l-1.016-0.2
		L1.209,11H1.5C1.776,11,2,10.776,2,10.5S1.776,10,1.5,10H1.25L1.248,9.66l0.866-0.208c0.071-0.018,0.139-0.051,0.196-0.098
		C2.579,9.14,3.33,8.542,3.596,8.361C3.86,8.182,4.323,8,4.463,8h2.893c0.241,0,0.61,0.08,0.738,0.16l2.391,1.258
		c0.041,0.021,0.085,0.038,0.131,0.047l4.003,0.827L15,11.157V12z"/>
	<path d="M15.853,3.151l-1-1.004c-0.195-0.195-0.512-0.195-0.707,0c-0.195,0.196-0.195,0.512,0,0.707L14.292,3H4.5
		C4.224,3,4,3.224,4,3.5S4.224,4,4.5,4h9.812l-0.165,0.146c-0.195,0.196-0.195,0.512,0,0.707c0.195,0.195,0.512,0.195,0.707,0
		l1-0.995C16.049,3.663,16.049,3.346,15.853,3.151z"/>
</g>
</svg>
