<?xml version="1.0" encoding="utf-8"?>
<!-- Generator: Adobe Illustrator 21.0.0, SVG Export Plug-In . SVG Version: 6.00 Build 0)  -->
<svg version="1.1" id="icons" xmlns="http://www.w3.org/2000/svg" xmlns:xlink="http://www.w3.org/1999/xlink" x="0px" y="0px"
	 width="32px" height="32px" viewBox="0 0 32 32" style="enable-background:new 0 0 32 32;" xml:space="preserve">
<style type="text/css">
	.st0{fill:#5057FB;}
	.st1{fill:#C93789;}
	.st2{fill:#ED5C36;}
	.st3{fill:#AFB224;}
	.st4{fill:#15B2CC;}
</style>
<path id="body-type_1_" class="st1" d="M16,0C7.163,0,0,7.163,0,16s7.163,16,16,16s16-7.163,16-16S24.837,0,16,0z M8,12
	c0-0.276,0.224-0.5,0.5-0.5S9,11.724,9,12v0.293l1.146-1.146c0.195-0.195,0.512-0.195,0.707,0s0.195,0.512,0,0.707L9.707,13H10
	c0.276,0,0.5,0.224,0.5,0.5S10.277,14,10,14H8.5C8.224,14,8,13.776,8,13.5V12z M12,22c-0.552,0-1-0.448-1-1s0.448-1,1-1
	c0.552,0,1,0.448,1,1S12.553,22,12,22z M20,22c-0.552,0-1-0.448-1-1s0.448-1,1-1c0.552,0,1,0.448,1,1S20.553,22,20,22z M24,20.5
	c0,0.276-0.224,0.5-0.5,0.5H22c0-1.105-0.895-2-2-2s-2,0.895-2,2h-4c0-1.105-0.895-2-2-2s-2,0.895-2,2H9.997l-1.594-0.304
	c-0.266-0.052-0.442-0.308-0.396-0.575L8.2,19h0.3C8.776,19,9,18.776,9,18.5S8.776,18,8.5,18H8.253l-0.007-0.731
	c-0.001-0.231,0.157-0.434,0.383-0.488l1.143-0.274c0.251-0.202,0.966-0.771,1.263-0.973C11.29,15.359,11.977,15,12.463,15h2.893
	c0.202,0,0.866,0.055,1.242,0.298l2.289,1.202l4.187,0.865c0.158,0.032,0.291,0.14,0.355,0.287l0.528,1.197
	C23.986,18.913,24,18.982,24,19.052V20.5z M23.854,11.858l-1,0.995c-0.195,0.195-0.512,0.195-0.707,0
	c-0.195-0.195-0.195-0.512,0-0.707l0.143-0.142l-9.789,0c-0.276,0-0.5-0.224-0.5-0.5s0.224-0.5,0.5-0.5l9.796,0l-0.15-0.151
	c-0.195-0.195-0.195-0.512,0-0.707c0.195-0.195,0.512-0.195,0.707,0l1,1.004C24.049,11.346,24.049,11.663,23.854,11.858z"/>
</svg>
