<?xml version="1.0" encoding="utf-8"?>
<!-- Generator: Adobe Illustrator 21.0.0, SVG Export Plug-In . SVG Version: 6.00 Build 0)  -->
<svg version="1.1" id="icons" xmlns="http://www.w3.org/2000/svg" xmlns:xlink="http://www.w3.org/1999/xlink" x="0px" y="0px"
	 width="16px" height="16px" viewBox="0 0 16 16" style="enable-background:new 0 0 16 16;" xml:space="preserve">
<style type="text/css">
	.st0{fill:#5057FB;}
	.st1{fill:#C93789;}
	.st2{fill:#ED5C36;}
	.st3{fill:#AFB224;}
	.st4{fill:#15B2CC;}
</style>
<g id="booking_2_">
	<circle cx="2.5" cy="7.5" r="0.5"/>
	<circle cx="4.5" cy="7.5" r="0.5"/>
	<circle cx="6.5" cy="7.5" r="0.5"/>
	<circle cx="2.5" cy="9.5" r="0.5"/>
	<circle cx="2.5" cy="11.501" r="0.501"/>
	<circle cx="4.5" cy="9.5" r="0.5"/>
	<path d="M8.343,14.816c-0.063,0.385,0.1,0.773,0.419,0.998C8.937,15.937,9.143,16,9.349,16c0.169,0,0.339-0.042,0.493-0.127
		l1.658-0.916l1.658,0.916C13.312,15.958,13.482,16,13.651,16c0.206,0,0.412-0.063,0.587-0.186c0.319-0.225,0.482-0.612,0.419-0.998
		l-0.328-2.01l1.381-1.415c0.267-0.274,0.358-0.673,0.237-1.036c-0.121-0.362-0.435-0.627-0.813-0.684l-1.867-0.285l-0.844-1.799
		C12.331,7.391,12.18,7.24,12,7.138V4.003c0-1.103-0.897-2-2-2H9.997V0.5C9.997,0.224,9.776,0,9.5,0S9,0.224,9,0.5v1.503H3V0.5
		C3,0.224,2.776,0,2.5,0S2,0.224,2,0.5v1.503c-1.103,0-2,0.897-2,2V12c0,1.103,0.897,2,2,2h6.475 M1,4.003c0-0.552,0.448-1,1-1V3.5
		C2,3.776,2.224,4,2.5,4S3,3.776,3,3.5V3h5.997v0.5c0,0.276,0.224,0.5,0.5,0.5s0.5-0.224,0.5-0.5V3.003H10c0.552,0,1,0.448,1,1v1H1
		V4.003z M8.638,13.003H2c-0.552,0-1-0.448-1-1V6h10v1.138c-0.18,0.102-0.331,0.254-0.423,0.449L9.733,9.385L7.866,9.67
		c-0.378,0.058-0.692,0.322-0.813,0.684c-0.121,0.362-0.03,0.762,0.237,1.036l1.381,1.415L8.638,13.003z M13.24,12.462l0.411,2.518
		L11.5,13.791L9.349,14.98l0.411-2.518l-1.74-1.784l2.405-0.367L11.5,8.02l1.076,2.291l2.405,0.367L13.24,12.462z"/>
</g>
</svg>
