<?xml version="1.0" encoding="utf-8"?>
<!-- Generator: Adobe Illustrator 21.0.0, SVG Export Plug-In . SVG Version: 6.00 Build 0)  -->
<svg version="1.1" id="icons" xmlns="http://www.w3.org/2000/svg" xmlns:xlink="http://www.w3.org/1999/xlink" x="0px" y="0px"
	 width="16px" height="16px" viewBox="0 0 16 16" style="enable-background:new 0 0 16 16;" xml:space="preserve">
<style type="text/css">
	.st0{fill:#5057FB;}
	.st1{fill:#C93789;}
	.st2{fill:#ED5C36;}
	.st3{fill:#AFB224;}
	.st4{fill:#15B2CC;}
</style>
<g id="booking_4_">
	<path class="st0" d="M10,2.003H9.997V0.5c0-0.276-0.224-0.5-0.5-0.5s-0.5,0.224-0.5,0.5v1.503H3V0.5C3,0.224,2.776,0,2.5,0
		S2,0.224,2,0.5v1.503c-1.103,0-2,0.897-2,2h12C12,2.9,11.103,2.003,10,2.003z"/>
	<path class="st0" d="M7.284,11.754c-0.262-0.268-0.352-0.66-0.233-1.016c0.119-0.355,0.427-0.615,0.797-0.671l2.236-0.342
		l1.009-2.15C11.259,7.224,11.612,7,12,7V5.003H0v7c0,1.103,0.897,2,2,2h6.84l0.091-0.56L7.284,11.754z M3.001,11.999
		c-0.552,0-0.999-0.447-0.999-0.999s0.447-0.999,0.999-0.999S4,10.448,4,11S3.553,11.999,3.001,11.999z M2.999,9
		C2.447,9,2,8.553,2,8.001s0.447-0.999,0.999-0.999S3.997,7.45,3.997,8.001S3.55,9,2.999,9z M6.001,9
		C5.45,9,5.003,8.553,5.003,8.001S5.45,7.003,6.001,7.003S7,7.45,7,8.001S6.553,9,6.001,9z"/>
	<polygon class="st0" points="14,13.106 16,11.056 13.236,10.633 12,8 10.764,10.633 8,11.056 10,13.106 10,13.106 9.528,16 
		12,14.633 14.472,16 14,13.106 	"/>
</g>
</svg>
