<?xml version="1.0" encoding="utf-8"?>
<!-- Generator: Adobe Illustrator 21.0.0, SVG Export Plug-In . SVG Version: 6.00 Build 0)  -->
<svg version="1.1" id="icons" xmlns="http://www.w3.org/2000/svg" xmlns:xlink="http://www.w3.org/1999/xlink" x="0px" y="0px"
	 width="32px" height="32px" viewBox="0 0 32 32" style="enable-background:new 0 0 32 32;" xml:space="preserve">
<style type="text/css">
	.st0{fill:none;}
	.st1{fill:#15B2CC;}
	.st2{font-family:'OpenSans';}
	.st3{font-size:4px;}
	.st4{fill:#5057FB;}
	.st5{fill:#C93789;}
	.st6{fill:#ED5C36;}
	.st7{fill:#AFB224;}
</style>
<rect x="-8" y="-10.999" class="st0" width="48" height="11"/>
<text transform="matrix(1.0104 0 0 1 5.6553 -7.9595)" class="st1 st2 st3">Child Seats</text>
<g id="booking_1_">
	<circle class="st4" cx="11.001" cy="19" r="0.999"/>
	<circle class="st4" cx="10.999" cy="16.001" r="0.999"/>
	<circle class="st4" cx="14.001" cy="16.001" r="0.999"/>
	<path class="st4" d="M16,0C7.163,0,0,7.163,0,16s7.163,16,16,16s16-7.163,16-16S24.837,0,16,0z M10,10.003V8.5
		C10,8.224,10.224,8,10.5,8S11,8.224,11,8.5v1.503h5.997V8.5c0-0.276,0.224-0.5,0.5-0.5s0.5,0.224,0.5,0.5v1.503H18
		c1.103,0,2,0.897,2,2H8C8,10.9,8.897,10.003,10,10.003z M16.84,22.003H10c-1.103,0-2-0.897-2-2v-7h12V15
		c-0.388,0-0.741,0.224-0.905,0.575l-1.009,2.15l-2.236,0.342c-0.37,0.057-0.678,0.316-0.797,0.671
		c-0.119,0.355-0.029,0.747,0.233,1.016l1.648,1.689L16.84,22.003z M22.472,24L20,22.633L17.528,24L18,21.106v0l-2-2.05l2.764-0.422
		L20,16l1.236,2.633L24,19.056l-2,2.05v0L22.472,24z"/>
</g>
</svg>
