<?xml version="1.0" encoding="utf-8"?>
<!-- Generator: Adobe Illustrator 21.0.0, SVG Export Plug-In . SVG Version: 6.00 Build 0)  -->
<svg version="1.1" id="icons" xmlns="http://www.w3.org/2000/svg" xmlns:xlink="http://www.w3.org/1999/xlink" x="0px" y="0px"
	 width="16px" height="16px" viewBox="0 0 16 16" style="enable-background:new 0 0 16 16;" xml:space="preserve">
<style type="text/css">
	.st0{fill:#5057FB;}
	.st1{fill:#C93789;}
	.st2{fill:#ED5C36;}
	.st3{fill:#AFB224;}
	.st4{fill:#15B2CC;}
</style>
<g id="car-dimensions_2_">
	<path d="M2.5,14H2V5h0.5C2.776,5,3,4.776,3,4.5S2.776,4,2.5,4h-2C0.224,4,0,4.224,0,4.5S0.224,5,0.5,5H1v9H0.5
		C0.224,14,0,14.224,0,14.5S0.224,15,0.5,15h2C2.776,15,3,14.776,3,14.5S2.776,14,2.5,14z"/>
	<path d="M15.5,1C15.224,1,15,1.224,15,1.5V2H4V1.5C4,1.224,3.776,1,3.5,1S3,1.224,3,1.5v2C3,3.776,3.224,4,3.5,4S4,3.776,4,3.5V3
		h11v0.5C15,3.776,15.224,4,15.5,4S16,3.776,16,3.5v-2C16,1.224,15.776,1,15.5,1z"/>
	<path d="M12,11.5c0,0.276-0.224,0.5-0.5,0.5h-4C7.224,12,7,11.776,7,11.5S7.224,11,7.5,11h4C11.776,11,12,11.224,12,11.5z"/>
	<path d="M15.638,7.928l-1.481-2.451C13.607,4.565,12.604,4,11.536,4H7.463c-1.067,0-2.071,0.565-2.62,1.476L3.36,7.929
		C3.125,8.32,3,8.77,3,9.227v4.056C3,14.229,3.771,15,4.718,15h0.08c0.727,0,1.346-0.455,1.596-1.094
		c0.046,0.049,0.075,0.081,0.077,0.083c0.096,0.112,0.235,0.178,0.383,0.178h5.292c0.147,0,0.287-0.065,0.383-0.178
		c0.002-0.002,0.031-0.035,0.077-0.084c0.25,0.639,0.87,1.094,1.596,1.094h0.08C15.229,15,16,14.229,16,13.282V9.227
		C16,8.771,15.875,8.321,15.638,7.928z M5.698,5.992C6.068,5.38,6.744,5,7.463,5h4.073c0.719,0,1.395,0.38,1.765,0.993l1.077,1.783
		C13.432,8.042,11.511,8.5,9.5,8.5c-2.074,0-3.974-0.523-4.834-0.799l0.28-0.464L5.698,5.992z M5.516,13.282
		C5.516,13.678,5.193,14,4.798,14h-0.08C4.322,14,4,13.678,4,13.282v-0.73c0.59,0.1,1.107,0.353,1.516,0.625V13.282z M12.484,12.665
		c-0.243,0.195-0.437,0.376-0.559,0.502H7.073c-0.122-0.126-0.315-0.307-0.558-0.501c-0.307-0.247-0.703-0.513-1.173-0.732
		c-0.204-0.095-0.42-0.18-0.65-0.249C4.472,11.619,4.243,11.562,4,11.531V11h0.5C4.776,11,5,10.776,5,10.5S4.776,10,4.5,10H4V9.227
		c0-0.224,0.062-0.439,0.156-0.64C4.959,8.86,7.092,9.5,9.5,9.5c2.329,0,4.487-0.56,5.38-0.826C14.951,8.851,15,9.036,15,9.227V10
		h-0.5c-0.276,0-0.5,0.224-0.5,0.5s0.224,0.5,0.5,0.5H15v0.531c-0.234,0.029-0.455,0.083-0.669,0.146
		c-0.234,0.069-0.454,0.155-0.662,0.251C13.195,12.148,12.794,12.416,12.484,12.665z M15,13.282C15,13.678,14.678,14,14.282,14
		h-0.08c-0.396,0-0.718-0.322-0.718-0.718v-0.106c0.409-0.273,0.926-0.525,1.516-0.625V13.282z"/>
</g>
</svg>
