<?xml version="1.0" encoding="utf-8"?>
<!-- Generator: Adobe Illustrator 21.0.0, SVG Export Plug-In . SVG Version: 6.00 Build 0)  -->
<svg version="1.1" id="icons" xmlns="http://www.w3.org/2000/svg" xmlns:xlink="http://www.w3.org/1999/xlink" x="0px" y="0px"
	 width="32px" height="32px" viewBox="0 0 32 32" style="enable-background:new 0 0 32 32;" xml:space="preserve">
<style type="text/css">
	.st0{fill:#5057FB;}
	.st1{fill:#C93789;}
	.st2{fill:#ED5C36;}
	.st3{fill:#AFB224;}
	.st4{fill:#15B2CC;}
</style>
<g id="car-wash_2_">
	<path class="st1" d="M17.5,20h-3c-0.28,0-0.5,0.22-0.5,0.5s0.22,0.5,0.5,0.5h3c0.28,0,0.5-0.22,0.5-0.5S17.78,20,17.5,20z"/>
	<path class="st1" d="M17.54,14h-3.08c-0.72,0-1.39,0.38-1.76,0.99l-0.75,1.25l-0.26,0.42c0.85,0.23,2.59,0.65,4.31,0.65
		s3.46-0.42,4.3-0.65l-1-1.67C18.93,14.38,18.25,14,17.54,14z"/>
	<path class="st1" d="M16,0C7.163,0,0,7.163,0,16s7.163,16,16,16s16-7.163,16-16S24.837,0,16,0z M9,13.5C9,13.224,9.224,13,9.5,13
		s0.5,0.224,0.5,0.5S9.776,14,9.5,14S9,13.776,9,13.5z M9,11.5v-1C9,10.224,9.224,10,9.5,10s0.5,0.224,0.5,0.5v1
		c0,0.276-0.224,0.5-0.5,0.5S9,11.776,9,11.5z M22,17h-0.33c0.21,0.38,0.33,0.8,0.33,1.23V19h-1.5c-0.28,0-0.5,0.22-0.5,0.5
		s0.22,0.5,0.5,0.5H22v2.28c0,0.95-0.77,1.72-1.72,1.72H20.2c-0.72,0-1.34-0.46-1.59-1.09c-0.05,0.04-0.08,0.08-0.08,0.08
		c-0.1,0.11-0.24,0.18-0.38,0.18h-4.3c-0.14,0-0.28-0.07-0.38-0.18c0,0-0.03-0.04-0.08-0.08C13.14,23.55,12.52,24,11.8,24h-0.08
		C10.77,24,10,23.23,10,22.28V20h1.5c0.28,0,0.5-0.22,0.5-0.5S11.78,19,11.5,19H10v-0.77c0-0.43,0.12-0.85,0.33-1.23H10
		c-0.28,0-0.5-0.22-0.5-0.5S9.72,16,10,16h0.92l0.66-1.08l0.26-0.44C12.39,13.57,13.4,13,14.46,13h3.08c1.06,0,2.07,0.57,2.62,1.48
		L21.08,16H22c0.28,0,0.5,0.22,0.5,0.5S22.28,17,22,17z M13,11.5c0-0.276,0.224-0.5,0.5-0.5s0.5,0.224,0.5,0.5S13.776,12,13.5,12
		S13,11.776,13,11.5z M18,11.5c0-0.276,0.224-0.5,0.5-0.5s0.5,0.224,0.5,0.5S18.776,12,18.5,12S18,11.776,18,11.5z M22.5,14
		c-0.276,0-0.5-0.224-0.5-0.5s0.224-0.5,0.5-0.5s0.5,0.224,0.5,0.5S22.776,14,22.5,14z M23,11.5c0,0.276-0.224,0.5-0.5,0.5
		S22,11.776,22,11.5v-1c0-0.276,0.224-0.5,0.5-0.5s0.5,0.224,0.5,0.5V11.5z M23.5,9H21v1.5c0,0.276-0.224,0.5-0.5,0.5
		S20,10.776,20,10.5V9h-1v0.5c0,0.276-0.224,0.5-0.5,0.5S18,9.776,18,9.5V9h-1v1.5c0,0.276-0.224,0.5-0.5,0.5S16,10.776,16,10.5V9
		h-2v0.5c0,0.276-0.224,0.5-0.5,0.5S13,9.776,13,9.5V9h-1v1.5c0,0.276-0.224,0.5-0.5,0.5S11,10.776,11,10.5V9H8.5
		C8.224,9,8,8.776,8,8.5S8.224,8,8.5,8h15C23.776,8,24,8.224,24,8.5S23.776,9,23.5,9z"/>
</g>
</svg>
