<?xml version="1.0" encoding="utf-8"?>
<!-- Generator: Adobe Illustrator 21.0.0, SVG Export Plug-In . SVG Version: 6.00 Build 0)  -->
<svg version="1.1" id="icons" xmlns="http://www.w3.org/2000/svg" xmlns:xlink="http://www.w3.org/1999/xlink" x="0px" y="0px"
	 width="16px" height="16px" viewBox="0 0 16 16" style="enable-background:new 0 0 16 16;" xml:space="preserve">
<style type="text/css">
	.st0{fill:#5057FB;}
	.st1{fill:#C93789;}
	.st2{fill:#ED5C36;}
	.st3{fill:#AFB224;}
	.st4{fill:#15B2CC;}
</style>
<g id="car-free_1_">
	<g>
		<g>
			<path d="M10,0C7.79,0,6,1.79,6,4s1.79,4,4,4s4-1.79,4-4S12.21,0,10,0z M11.92,3.02l-1.75,2.75c-0.03,0.05-0.08,0.1-0.14,0.14
				c0,0.01-0.01,0.01-0.02,0.01C9.93,5.97,9.85,6,9.76,6C9.75,6,9.75,6,9.75,6C9.66,6,9.58,5.97,9.5,5.93c0-0.01-0.01,0-0.02-0.01
				c-0.06-0.04-0.1-0.08-0.14-0.14L8.13,4.03C7.98,3.81,8.04,3.5,8.26,3.34c0.23-0.16,0.54-0.1,0.7,0.13l0.77,1.12l1.35-2.11
				c0.15-0.23,0.46-0.3,0.69-0.15C12,2.48,12.07,2.79,11.92,3.02z"/>
		</g>
		<g>
			<g>
				<circle cx="4" cy="15" r="1"/>
				<circle cx="12" cy="15" r="1"/>
			</g>
		</g>
	</g>
	<path d="M15.957,12.85l-0.528-1.197c-0.064-0.147-0.197-0.255-0.355-0.287L10.887,10.5L8.598,9.298C8.222,9.055,7.558,9,7.356,9
		H4.463C3.977,9,3.29,9.359,3.035,9.533c-0.297,0.201-1.012,0.771-1.263,0.973L0.629,10.78c-0.226,0.055-0.384,0.257-0.383,0.488
		L0.253,12H0.5C0.776,12,1,12.224,1,12.5S0.776,13,0.5,13H0.2l-0.193,1.121c-0.046,0.268,0.131,0.523,0.396,0.575L1.997,15H2
		c0-1.105,0.895-2,2-2s2,0.895,2,2h4c0-1.105,0.895-2,2-2s2,0.895,2,2h1.5c0.276,0,0.5-0.224,0.5-0.5v-1.448
		C16,12.982,15.986,12.913,15.957,12.85z"/>
</g>
</svg>
