<?xml version="1.0" encoding="utf-8"?>
<!-- Generator: Adobe Illustrator 21.0.0, SVG Export Plug-In . SVG Version: 6.00 Build 0)  -->
<svg version="1.1" id="icons" xmlns="http://www.w3.org/2000/svg" xmlns:xlink="http://www.w3.org/1999/xlink" x="0px" y="0px"
	 width="16px" height="16px" viewBox="0 0 16 16" style="enable-background:new 0 0 16 16;" xml:space="preserve">
<style type="text/css">
	.st0{fill:#5057FB;}
	.st1{fill:#C93789;}
	.st2{fill:#ED5C36;}
	.st3{fill:#AFB224;}
	.st4{fill:#15B2CC;}
</style>
<g id="car-service_3_">
	<g>
		<path d="M14.038,2.5c0-0.276,0.225-0.5,0.503-0.5H16c-0.233-1.141-1.248-2-2.465-2c-0.82,0-1.542,0.396-2.001,1H4.467
			C4.008,0.396,3.286,0,2.466,0C1.248,0,0.234,0.859,0,2h1.459c0.278,0,0.503,0.224,0.503,0.5S1.737,3,1.459,3H0
			c0.233,1.141,1.248,2,2.465,2c0.82,0,1.542-0.396,2.001-1h7.067c0.459,0.604,1.181,1,2.001,1C14.752,5,15.767,4.141,16,3h-1.459
			C14.264,3,14.038,2.776,14.038,2.5z"/>
	</g>
	<g>
		<path d="M15.957,12.85l-0.528-1.197c-0.064-0.147-0.197-0.255-0.355-0.287L10.887,10.5L8.598,9.298C8.222,9.055,7.558,9,7.356,9
			H4.463C3.977,9,3.29,9.359,3.035,9.533c-0.297,0.201-1.012,0.771-1.263,0.973L0.629,10.78c-0.226,0.055-0.384,0.257-0.383,0.488
			L0.253,12H0.5C0.776,12,1,12.224,1,12.5S0.776,13,0.5,13H0.2l-0.193,1.121c-0.046,0.268,0.131,0.523,0.396,0.575L1.997,15H2
			c0-1.105,0.895-2,2-2s2,0.895,2,2h4c0-1.105,0.895-2,2-2s2,0.895,2,2h1.5c0.276,0,0.5-0.224,0.5-0.5v-1.448
			C16,12.982,15.986,12.913,15.957,12.85z"/>
		<circle cx="4" cy="15" r="1"/>
		<circle cx="12" cy="15" r="1"/>
	</g>
</g>
</svg>
