<?xml version="1.0" encoding="utf-8"?>
<!-- Generator: Adobe Illustrator 21.0.0, SVG Export Plug-In . SVG Version: 6.00 Build 0)  -->
<svg version="1.1" id="icons" xmlns="http://www.w3.org/2000/svg" xmlns:xlink="http://www.w3.org/1999/xlink" x="0px" y="0px"
	 width="16px" height="16px" viewBox="0 0 16 16" style="enable-background:new 0 0 16 16;" xml:space="preserve">
<style type="text/css">
	.st0{fill:#5057FB;}
	.st1{fill:#C93789;}
	.st2{fill:#ED5C36;}
	.st3{fill:#AFB224;}
	.st4{fill:#15B2CC;}
</style>
<g id="car-reserved">
	<g>
		<g>
			<path d="M12.163,7.655c-0.08,0-0.16-0.019-0.233-0.058L10,6.581L8.07,7.597c-0.168,0.09-0.371,0.075-0.527-0.038
				c-0.154-0.112-0.231-0.302-0.199-0.49l0.369-2.154L6.151,3.391C6.015,3.258,5.966,3.059,6.024,2.878
				C6.083,2.696,6.24,2.564,6.428,2.537l2.158-0.314l0.965-1.959c0.168-0.342,0.729-0.342,0.896,0l0.965,1.959l2.158,0.314
				c0.188,0.027,0.345,0.159,0.404,0.341c0.059,0.181,0.01,0.38-0.126,0.513l-1.562,1.525l0.369,2.154
				c0.032,0.188-0.045,0.378-0.199,0.49C12.37,7.623,12.267,7.655,12.163,7.655z M10,5.514c0.08,0,0.16,0.019,0.233,0.058
				l1.266,0.667l-0.242-1.413c-0.028-0.162,0.026-0.328,0.144-0.443l1.025-1.001L11.01,3.176c-0.163-0.023-0.304-0.126-0.376-0.274
				L10,1.617L9.367,2.902C9.294,3.049,9.153,3.152,8.99,3.176L7.574,3.382l1.025,1.001C8.717,4.498,8.77,4.663,8.743,4.826
				L8.501,6.238l1.266-0.667C9.84,5.533,9.92,5.514,10,5.514z"/>
		</g>
	</g>
	<g>
		<path d="M15.957,12.843l-0.528-1.197c-0.064-0.147-0.197-0.255-0.355-0.287l-4.187-0.865L8.598,9.291
			c-0.376-0.243-1.04-0.298-1.242-0.298H4.463c-0.486,0-1.173,0.359-1.429,0.533c-0.297,0.201-1.012,0.771-1.263,0.973l-1.143,0.274
			c-0.226,0.055-0.384,0.257-0.383,0.488l0.013,1.387l-0.252,1.466c-0.046,0.268,0.131,0.523,0.396,0.575l1.594,0.304h0.095
			c0.207,0.581,0.757,1,1.408,1s1.201-0.419,1.408-1h5.184c0.207,0.581,0.757,1,1.408,1s1.201-0.419,1.408-1H15.5
			c0.276,0,0.5-0.224,0.5-0.5v-1.448C16,12.976,15.986,12.906,15.957,12.843z M3,14.493c0-0.26,0.203-0.468,0.457-0.491
			c0.015-0.001,0.028-0.009,0.043-0.009c0.015,0,0.028,0.007,0.043,0.009C3.798,14.025,4,14.233,4,14.493c0,0.275-0.225,0.5-0.5,0.5
			S3,14.769,3,14.493z M11,14.493c0-0.271,0.218-0.49,0.487-0.497c0.005,0,0.008-0.003,0.013-0.003s0.008,0.003,0.013,0.003
			C11.783,14.003,12,14.223,12,14.493c0,0.275-0.225,0.5-0.5,0.5S11,14.769,11,14.493z M15,13.993l-2.092,0.002
			c-0.207-0.581-0.757-1.002-1.408-1.002c-0.652,0-1.203,0.421-1.409,1.004l-5.181,0.004c-0.205-0.585-0.756-1.008-1.41-1.008
			c-0.654,0-1.206,0.424-1.411,1.009l-1.016-0.2l0.135-0.809H1.5c0.276,0,0.5-0.224,0.5-0.5s-0.224-0.5-0.5-0.5H1.25l-0.001-0.34
			l0.866-0.208c0.071-0.018,0.139-0.051,0.196-0.098c0.268-0.215,1.019-0.813,1.285-0.993c0.264-0.18,0.727-0.361,0.867-0.361h2.893
			c0.241,0,0.61,0.08,0.738,0.16l2.391,1.258c0.041,0.021,0.085,0.038,0.131,0.047l4.003,0.827L15,13.151V13.993z"/>
	</g>
</g>
</svg>
