<?xml version="1.0" encoding="utf-8"?>
<!-- Generator: Adobe Illustrator 21.0.0, SVG Export Plug-In . SVG Version: 6.00 Build 0)  -->
<svg version="1.1" id="icons" xmlns="http://www.w3.org/2000/svg" xmlns:xlink="http://www.w3.org/1999/xlink" x="0px" y="0px"
	 width="32px" height="32px" viewBox="0 0 32 32" style="enable-background:new 0 0 32 32;" xml:space="preserve">
<style type="text/css">
	.st0{fill:#5057FB;}
	.st1{fill:#C93789;}
	.st2{fill:#ED5C36;}
	.st3{fill:#AFB224;}
	.st4{fill:#15B2CC;}
</style>
<path id="car-free_3_" class="st3" d="M16,0C7.16,0,0,7.16,0,16c0,8.84,7.16,16,16,16s16-7.16,16-16C32,7.16,24.84,0,16,0z M18,8
	c2.21,0,4,1.79,4,4c0,2.21-1.79,4-4,4s-4-1.79-4-4C14,9.79,15.79,8,18,8z M12,24c-0.55,0-1-0.45-1-1s0.45-1,1-1s1,0.45,1,1
	S12.55,24,12,24z M20,24c-0.55,0-1-0.45-1-1s0.45-1,1-1s1,0.45,1,1S20.55,24,20,24z M24,22.5c0,0.28-0.22,0.5-0.5,0.5H22
	c0-1.1-0.9-2-2-2s-2,0.9-2,2h-4c0-1.1-0.9-2-2-2s-2,0.9-2,2l-1.6-0.3c-0.26-0.06-0.44-0.31-0.39-0.58L8.2,21h0.3
	C8.78,21,9,20.78,9,20.5C9,20.22,8.78,20,8.5,20H8.25v-0.73c0-0.23,0.15-0.44,0.38-0.49l1.14-0.27c0.25-0.21,0.97-0.78,1.26-0.98
	c0.26-0.17,0.95-0.53,1.43-0.53h2.9c0.2,0,0.86,0.05,1.24,0.3l2.29,1.2l4.18,0.87c0.16,0.03,0.29,0.13,0.36,0.28l0.53,1.2
	c0.03,0.06,0.04,0.13,0.04,0.2V22.5z M17.34,13.78c0.04,0.06,0.08,0.1,0.14,0.14c0.01,0.01,0.02,0,0.02,0.01
	c0.08,0.04,0.16,0.07,0.25,0.07c0,0,0,0,0.01,0c0.09,0,0.17-0.03,0.25-0.08c0.01,0,0.02,0,0.02-0.01c0.06-0.04,0.11-0.09,0.14-0.14
	l1.75-2.75c0.15-0.23,0.08-0.54-0.15-0.69c-0.23-0.15-0.54-0.08-0.69,0.15l-1.35,2.11l-0.77-1.12c-0.16-0.23-0.47-0.29-0.7-0.13
	c-0.22,0.16-0.28,0.47-0.13,0.69L17.34,13.78z"/>
</svg>
