<?xml version="1.0" encoding="utf-8"?>
<!-- Generator: Adobe Illustrator 21.0.0, SVG Export Plug-In . SVG Version: 6.00 Build 0)  -->
<svg version="1.1" id="icons" xmlns="http://www.w3.org/2000/svg" xmlns:xlink="http://www.w3.org/1999/xlink" x="0px" y="0px"
	 width="32px" height="32px" viewBox="0 0 32 32" style="enable-background:new 0 0 32 32;" xml:space="preserve">
<style type="text/css">
	.st0{fill:none;}
	.st1{fill:#15B2CC;}
	.st2{font-family:'OpenSans';}
	.st3{font-size:4px;}
	.st4{fill:#5057FB;}
	.st5{fill:#C93789;}
	.st6{fill:#ED5C36;}
	.st7{fill:#AFB224;}
</style>
<rect x="-8" y="-11" class="st0" width="48" height="11"/>
<text transform="matrix(1.0103 0 0 1 12.6084 -7.96)" class="st1 st2 st3">Key</text>
<path id="car-service_1_" class="st4" d="M16,0C7.163,0,0,7.163,0,16s7.163,16,16,16s16-7.163,16-16S24.837,0,16,0z M12,23.5
	c-0.552,0-1-0.448-1-1s0.448-1,1-1c0.552,0,1,0.448,1,1S12.552,23.5,12,23.5z M20,23.5c-0.552,0-1-0.448-1-1s0.448-1,1-1
	c0.552,0,1,0.448,1,1S20.552,23.5,20,23.5z M24,22c0,0.276-0.224,0.5-0.5,0.5H22c0-1.105-0.895-2-2-2s-2,0.895-2,2h-4
	c0-1.105-0.895-2-2-2s-2,0.895-2,2H9.997l-1.594-0.304c-0.266-0.052-0.442-0.308-0.396-0.575L8.2,20.5h0.3C8.776,20.5,9,20.276,9,20
	s-0.224-0.5-0.5-0.5H8.253l-0.007-0.731c-0.001-0.231,0.157-0.434,0.383-0.488l1.143-0.274c0.251-0.202,0.966-0.771,1.263-0.973
	c0.256-0.174,0.942-0.533,1.429-0.533h2.893c0.202,0,0.866,0.055,1.242,0.298L18.887,18l4.187,0.865
	c0.158,0.032,0.291,0.14,0.355,0.287l0.528,1.197C23.985,20.413,24,20.482,24,20.552V22z M22.541,10H24
	c-0.233,1.141-1.248,2-2.465,2c-0.82,0-1.542-0.396-2.001-1h-7.067c-0.459,0.604-1.181,1-2.001,1C9.248,12,8.233,11.141,8,10h1.459
	c0.278,0,0.503-0.224,0.503-0.5S9.737,9,9.459,9H8c0.233-1.141,1.248-2,2.465-2c0.82,0,1.542,0.396,2.001,1h7.067
	c0.459-0.604,1.181-1,2.001-1C22.752,7,23.767,7.859,24,9h-1.459c-0.278,0-0.503,0.224-0.503,0.5S22.263,10,22.541,10z"/>
</svg>
