<?xml version="1.0" encoding="utf-8"?>
<!-- Generator: Adobe Illustrator 21.0.0, SVG Export Plug-In . SVG Version: 6.00 Build 0)  -->
<svg version="1.1" id="icons" xmlns="http://www.w3.org/2000/svg" xmlns:xlink="http://www.w3.org/1999/xlink" x="0px" y="0px"
	 width="16px" height="16px" viewBox="0 0 16 16" style="enable-background:new 0 0 16 16;" xml:space="preserve">
<style type="text/css">
	.st0{fill:#5057FB;}
	.st1{fill:#C93789;}
	.st2{fill:#ED5C36;}
	.st3{fill:#AFB224;}
	.st4{fill:#15B2CC;}
</style>
<g id="car-battery_1_">
	<path class="st2" d="M15.5,3H14V1.5C14,1.22,13.77,1,13.5,1h-2C11.23,1,11,1.22,11,1.5V3H5V1.5C5,1.22,4.78,1,4.5,1h-2
		C2.23,1,2,1.22,2,1.5V3H0.5C0.22,3,0,3.22,0,3.5v11C0,14.78,0.22,15,0.5,15h15c0.28,0,0.5-0.22,0.5-0.5v-11C16,3.22,15.78,3,15.5,3
		z M3,2h1v1H3V2z M4.5,7H4v0.5C4,7.78,3.78,8,3.5,8S3,7.78,3,7.5V7H2.5C2.23,7,2,6.78,2,6.5S2.23,6,2.5,6H3V5.5C3,5.22,3.22,5,3.5,5
		S4,5.22,4,5.5V6h0.5C4.78,6,5,6.22,5,6.5S4.78,7,4.5,7z M12,2h1v1h-1V2z M9.45,10.72l-1,2C8.36,12.9,8.18,13,8,13
		c-0.08,0-0.15-0.02-0.22-0.05c-0.25-0.13-0.35-0.43-0.23-0.67L8.19,11H7c-0.17,0-0.33-0.09-0.43-0.24
		c-0.09-0.14-0.09-0.33-0.02-0.48l1-2c0.13-0.25,0.43-0.35,0.67-0.23c0.25,0.13,0.35,0.43,0.23,0.67L7.81,10H9
		c0.17,0,0.33,0.09,0.43,0.24C9.52,10.38,9.52,10.57,9.45,10.72z M13.5,7h-2C11.23,7,11,6.78,11,6.5S11.23,6,11.5,6h2
		C13.78,6,14,6.22,14,6.5S13.78,7,13.5,7z"/>
</g>
</svg>
