<?xml version="1.0" encoding="utf-8"?>
<!-- Generator: Adobe Illustrator 21.0.0, SVG Export Plug-In . SVG Version: 6.00 Build 0)  -->
<svg version="1.1" id="icons" xmlns="http://www.w3.org/2000/svg" xmlns:xlink="http://www.w3.org/1999/xlink" x="0px" y="0px"
	 width="16px" height="16px" viewBox="0 0 16 16" style="enable-background:new 0 0 16 16;" xml:space="preserve">
<style type="text/css">
	.st0{fill:#5057FB;}
	.st1{fill:#C93789;}
	.st2{fill:#ED5C36;}
	.st3{fill:#AFB224;}
	.st4{fill:#15B2CC;}
</style>
<g id="car-in-use">
	<g>
		<g>
			<g>
				<circle cx="4" cy="15" r="1"/>
				<circle cx="12" cy="15" r="1"/>
			</g>
		</g>
		<g>
			<path d="M10,0C7.8,0,6,1.79,6,4c0,1.06,0.42,2.02,1.1,2.74c0.09-0.36,0.25-0.69,0.46-0.99c0.37-0.51,0.89-0.9,1.5-1.09
				C8.72,4.39,8.5,3.97,8.5,3.5C8.5,2.67,9.17,2,10,2s1.5,0.67,1.5,1.5c0,0.47-0.22,0.89-0.56,1.16c0.61,0.19,1.13,0.58,1.5,1.09
				c0.21,0.3,0.37,0.64,0.46,1C13.58,6.03,14,5.06,14,4C14,1.79,12.21,0,10,0z M10,5.5c-0.72,0-1.36,0.39-1.71,0.97
				C8.11,6.76,8.01,7.1,8,7.46C8.59,7.8,9.27,8,10,8s1.41-0.2,2-0.54c-0.01-0.36-0.11-0.7-0.29-0.99C11.36,5.89,10.72,5.5,10,5.5z
				 M10.5,3.5C10.5,3.22,10.28,3,10,3C9.73,3,9.5,3.22,9.5,3.5S9.73,4,10,4C10.28,4,10.5,3.78,10.5,3.5z"/>
		</g>
	</g>
	<path d="M15.957,12.85l-0.528-1.197c-0.064-0.147-0.197-0.255-0.355-0.287L10.887,10.5L8.598,9.298C8.222,9.055,7.558,9,7.356,9
		H4.463C3.977,9,3.29,9.359,3.035,9.533c-0.297,0.201-1.012,0.771-1.263,0.973L0.629,10.78c-0.226,0.055-0.384,0.257-0.383,0.488
		L0.253,12H0.5C0.776,12,1,12.224,1,12.5S0.776,13,0.5,13H0.2l-0.193,1.121c-0.046,0.268,0.131,0.523,0.396,0.575L1.997,15H2
		c0-1.105,0.895-2,2-2s2,0.895,2,2h4c0-1.105,0.895-2,2-2s2,0.895,2,2h1.5c0.276,0,0.5-0.224,0.5-0.5v-1.448
		C16,12.982,15.986,12.913,15.957,12.85z"/>
</g>
</svg>
