<?xml version="1.0" encoding="utf-8"?>
<!-- Generator: Adobe Illustrator 21.0.0, SVG Export Plug-In . SVG Version: 6.00 Build 0)  -->
<svg version="1.1" id="icons" xmlns="http://www.w3.org/2000/svg" xmlns:xlink="http://www.w3.org/1999/xlink" x="0px" y="0px"
	 width="32px" height="32px" viewBox="0 0 32 32" style="enable-background:new 0 0 32 32;" xml:space="preserve">
<style type="text/css">
	.st0{fill:#5057FB;}
	.st1{fill:#C93789;}
	.st2{fill:#ED5C36;}
	.st3{fill:#AFB224;}
	.st4{fill:#15B2CC;}
</style>
<g id="car-battery_2_">
	<path class="st2" d="M12.5,13.985H12v-0.5c0-0.28-0.22-0.5-0.5-0.5s-0.5,0.22-0.5,0.5v0.5h-0.5c-0.27,0-0.5,0.22-0.5,0.5
		s0.23,0.5,0.5,0.5H11v0.5c0,0.28,0.22,0.5,0.5,0.5s0.5-0.22,0.5-0.5v-0.5h0.5c0.28,0,0.5-0.22,0.5-0.5S12.78,13.985,12.5,13.985z"
		/>
	<rect x="11" y="9.985" class="st2" width="1" height="1"/>
	<rect x="20" y="9.985" class="st2" width="1" height="1"/>
	<path class="st2" d="M16,0C7.163,0,0,7.163,0,16s7.163,16,16,16s16-7.163,16-16S24.837,0,16,0z M24,22.485c0,0.28-0.22,0.5-0.5,0.5
		h-15c-0.28,0-0.5-0.22-0.5-0.5v-11c0-0.28,0.22-0.5,0.5-0.5H10v-1.5c0-0.28,0.23-0.5,0.5-0.5h2c0.28,0,0.5,0.22,0.5,0.5v1.5h6v-1.5
		c0-0.28,0.23-0.5,0.5-0.5h2c0.27,0,0.5,0.22,0.5,0.5v1.5h1.5c0.28,0,0.5,0.22,0.5,0.5V22.485z"/>
	<path class="st2" d="M17,17.985h-1.19l0.64-1.28c0.12-0.24,0.02-0.54-0.23-0.67c-0.24-0.12-0.54-0.02-0.67,0.23l-1,2
		c-0.07,0.15-0.07,0.34,0.02,0.48c0.1,0.15,0.26,0.24,0.43,0.24h1.19l-0.64,1.28c-0.12,0.24-0.02,0.54,0.23,0.67
		c0.07,0.03,0.14,0.05,0.22,0.05c0.18,0,0.36-0.1,0.45-0.28l1-2c0.07-0.15,0.07-0.34-0.02-0.48C17.33,18.076,17.17,17.985,17,17.985
		z"/>
	<path class="st2" d="M21.5,13.985h-2c-0.27,0-0.5,0.22-0.5,0.5s0.23,0.5,0.5,0.5h2c0.28,0,0.5-0.22,0.5-0.5
		S21.78,13.985,21.5,13.985z"/>
</g>
</svg>
