<?xml version="1.0" encoding="utf-8"?>
<!-- Generator: Adobe Illustrator 21.0.0, SVG Export Plug-In . SVG Version: 6.00 Build 0)  -->
<svg version="1.1" id="icons" xmlns="http://www.w3.org/2000/svg" xmlns:xlink="http://www.w3.org/1999/xlink" x="0px" y="0px"
	 width="32px" height="32px" viewBox="0 0 32 32" style="enable-background:new 0 0 32 32;" xml:space="preserve">
<style type="text/css">
	.st0{fill:#5057FB;}
	.st1{fill:#C93789;}
	.st2{fill:#ED5C36;}
	.st3{fill:#AFB224;}
	.st4{fill:#15B2CC;}
</style>
<g id="car-dimensions_1_">
	<path class="st4" d="M19.5,19h-4c-0.276,0-0.5,0.224-0.5,0.5s0.224,0.5,0.5,0.5h4c0.276,0,0.5-0.224,0.5-0.5S19.776,19,19.5,19z"/>
	<path class="st4" d="M19.536,13h-4.073c-0.719,0-1.395,0.38-1.765,0.992l-0.752,1.245l-0.28,0.464
		c0.86,0.276,2.76,0.799,4.834,0.799c2.011,0,3.932-0.458,4.878-0.724l-1.077-1.783C20.931,13.38,20.255,13,19.536,13z"/>
	<path class="st4" d="M16,0C7.163,0,0,7.163,0,16s7.163,16,16,16s16-7.163,16-16S24.837,0,16,0z M10.5,23h-2
		C8.224,23,8,22.776,8,22.5S8.224,22,8.5,22H9v-9H8.5C8.224,13,8,12.776,8,12.5S8.224,12,8.5,12h2c0.276,0,0.5,0.224,0.5,0.5
		S10.776,13,10.5,13H10v9h0.5c0.276,0,0.5,0.224,0.5,0.5S10.776,23,10.5,23z M24,18h-1.5c-0.276,0-0.5,0.224-0.5,0.5
		s0.224,0.5,0.5,0.5H24v2.282C24,22.229,23.229,23,22.282,23h-0.08c-0.727,0-1.346-0.455-1.596-1.094
		c-0.046,0.049-0.076,0.082-0.077,0.084c-0.096,0.112-0.235,0.178-0.383,0.178h-5.292c-0.147,0-0.287-0.065-0.383-0.178
		c-0.002-0.002-0.031-0.034-0.077-0.083C14.143,22.545,13.524,23,12.798,23h-0.08C11.771,23,11,22.229,11,21.282V19h1.5
		c0.276,0,0.5-0.224,0.5-0.5S12.776,18,12.5,18H11v-0.773c0-0.457,0.125-0.906,0.36-1.298l0.53-0.877l0.685-1.134l0.268-0.443
		c0.549-0.91,1.553-1.476,2.62-1.476h4.073c1.067,0,2.071,0.565,2.62,1.477l1.481,2.451C23.875,16.321,24,16.771,24,17.227V18z
		 M24,11.5c0,0.276-0.224,0.5-0.5,0.5S23,11.776,23,11.5V11H12v0.5c0,0.276-0.224,0.5-0.5,0.5S11,11.776,11,11.5v-2
		C11,9.224,11.224,9,11.5,9S12,9.224,12,9.5V10h11V9.5C23,9.224,23.224,9,23.5,9S24,9.224,24,9.5V11.5z"/>
</g>
</svg>
