<?xml version="1.0" encoding="utf-8"?>
<!-- Generator: Adobe Illustrator 21.0.0, SVG Export Plug-In . SVG Version: 6.00 Build 0)  -->
<svg version="1.1" id="icons" xmlns="http://www.w3.org/2000/svg" xmlns:xlink="http://www.w3.org/1999/xlink" x="0px" y="0px"
	 width="16px" height="16px" viewBox="0 0 16 16" style="enable-background:new 0 0 16 16;" xml:space="preserve">
<style type="text/css">
	.st0{fill:#5057FB;}
	.st1{fill:#C93789;}
	.st2{fill:#ED5C36;}
	.st3{fill:#AFB224;}
	.st4{fill:#15B2CC;}
</style>
<g id="car-reserved_2_">
	<g>
		<g>
			<g>
				<circle class="st4" cx="4" cy="14.998" r="1.001"/>
				<circle class="st4" cx="12" cy="14.998" r="1.001"/>
			</g>
		</g>
		<g>
			<path class="st4" d="M12.163,7.648c-0.08,0-0.16-0.019-0.233-0.058L10,6.574L8.07,7.59C7.902,7.68,7.699,7.666,7.543,7.552
				C7.389,7.44,7.312,7.25,7.344,7.063l0.369-2.154L6.151,3.384C6.015,3.251,5.966,3.052,6.024,2.871
				C6.083,2.69,6.24,2.558,6.428,2.53l2.158-0.314l0.965-1.959c0.168-0.342,0.729-0.342,0.896,0l0.965,1.959l2.158,0.314
				c0.188,0.027,0.345,0.159,0.404,0.341c0.059,0.181,0.01,0.38-0.126,0.513l-1.562,1.525l0.369,2.154
				c0.032,0.188-0.045,0.378-0.199,0.49C12.37,7.616,12.267,7.648,12.163,7.648z"/>
		</g>
	</g>
	<path class="st4" d="M15.957,12.836l-0.528-1.197c-0.064-0.147-0.197-0.255-0.355-0.287l-4.187-0.865L8.598,9.284
		c-0.376-0.243-1.04-0.298-1.242-0.298H4.463c-0.486,0-1.173,0.359-1.429,0.533c-0.297,0.201-1.012,0.771-1.263,0.973l-1.143,0.274
		c-0.226,0.055-0.384,0.257-0.383,0.488l0.007,0.731H0.5c0.276,0,0.5,0.224,0.5,0.5s-0.224,0.5-0.5,0.5H0.2l-0.193,1.121
		c-0.046,0.268,0.131,0.523,0.396,0.575l1.594,0.304H2c0-1.105,0.895-2,2-2s2,0.895,2,2h4c0-1.105,0.895-2,2-2s2,0.895,2,2h1.5
		c0.276,0,0.5-0.224,0.5-0.5v-1.448C16,12.969,15.986,12.9,15.957,12.836z"/>
</g>
</svg>
