<?xml version="1.0" encoding="utf-8"?>
<!-- Generator: Adobe Illustrator 21.0.0, SVG Export Plug-In . SVG Version: 6.00 Build 0)  -->
<svg version="1.1" id="icons" xmlns="http://www.w3.org/2000/svg" xmlns:xlink="http://www.w3.org/1999/xlink" x="0px" y="0px"
	 width="32px" height="32px" viewBox="0 0 32 32" style="enable-background:new 0 0 32 32;" xml:space="preserve">
<style type="text/css">
	.st0{fill:#5057FB;}
	.st1{fill:#C93789;}
	.st2{fill:#ED5C36;}
	.st3{fill:#AFB224;}
	.st4{fill:#15B2CC;}
</style>
<path id="car-in-use_2_" class="st2" d="M16,0C7.16,0,0,7.16,0,16c0,8.84,7.16,16,16,16s16-7.16,16-16C32,7.16,24.84,0,16,0z M18,8
	c2.21,0,4,1.79,4,4c0,1.06-0.42,2.03-1.1,2.75c-0.09-0.36-0.25-0.7-0.46-1c-0.37-0.51-0.89-0.9-1.5-1.09
	c0.34-0.27,0.56-0.69,0.56-1.16c0-0.83-0.67-1.5-1.5-1.5s-1.5,0.67-1.5,1.5c0,0.47,0.22,0.89,0.56,1.16
	c-0.61,0.19-1.13,0.58-1.5,1.09c-0.21,0.3-0.37,0.63-0.46,0.99C14.42,14.02,14,13.06,14,12C14,9.79,15.8,8,18,8z M18,13.5
	c0.72,0,1.36,0.39,1.71,0.97c0.18,0.29,0.28,0.63,0.29,0.99C19.41,15.8,18.73,16,18,16s-1.41-0.2-2-0.54
	c0.01-0.36,0.11-0.7,0.29-0.99C16.64,13.89,17.28,13.5,18,13.5z M17.5,11.5c0-0.28,0.23-0.5,0.5-0.5c0.28,0,0.5,0.22,0.5,0.5
	c0,0.28-0.22,0.5-0.5,0.5C17.73,12,17.5,11.78,17.5,11.5z M12,24c-0.55,0-1-0.45-1-1s0.45-1,1-1s1,0.45,1,1S12.55,24,12,24z M20,24
	c-0.55,0-1-0.45-1-1s0.45-1,1-1s1,0.45,1,1S20.55,24,20,24z M24,22.5c0,0.28-0.22,0.5-0.5,0.5H22c0-1.1-0.9-2-2-2s-2,0.9-2,2h-4
	c0-1.1-0.9-2-2-2s-2,0.9-2,2l-1.6-0.3c-0.26-0.06-0.44-0.31-0.39-0.58L8.2,21h0.3C8.78,21,9,20.78,9,20.5C9,20.22,8.78,20,8.5,20H8
	v-0.73c0-0.23,0.28-0.44,0.51-0.49l1.2-0.27c0.25-0.21,1-0.78,1.29-0.98c0.26-0.17,0.98-0.53,1.46-0.53h2.9
	c0.2,0,0.86,0.05,1.24,0.3l2.29,1.2l4.18,0.87c0.16,0.03,0.29,0.13,0.36,0.28l0.53,1.2c0.03,0.06,0.04,0.13,0.04,0.2V22.5z"/>
</svg>
