<?xml version="1.0" encoding="utf-8"?>
<!-- Generator: Adobe Illustrator 21.0.0, SVG Export Plug-In . SVG Version: 6.00 Build 0)  -->
<svg version="1.1" id="icons" xmlns="http://www.w3.org/2000/svg" xmlns:xlink="http://www.w3.org/1999/xlink" x="0px" y="0px"
	 width="16px" height="16px" viewBox="0 0 16 16" style="enable-background:new 0 0 16 16;" xml:space="preserve">
<style type="text/css">
	.st0{fill:#5057FB;}
	.st1{fill:#C93789;}
	.st2{fill:#ED5C36;}
	.st3{fill:#AFB224;}
	.st4{fill:#15B2CC;}
</style>
<g id="car-service_2_">
	<path d="M16,3.5c0-0.171-0.018-0.338-0.05-0.5h0c-0.232-1.14-1.242-2-2.449-2c-0.815,0-1.533,0.397-1.99,1.002
		C11.507,2.002,11.504,2,11.5,2h-7C4.497,2,4.494,2.002,4.49,2.002C4.033,1.397,3.315,1,2.5,1C1.293,1,0.283,1.86,0.051,3h0
		C0.018,3.162,0,3.329,0,3.5S0.018,3.838,0.051,4h0C0.283,5.14,1.293,6,2.5,6c0.815,0,1.533-0.397,1.99-1.002
		c0.004,0,7.017,0,7.021,0C11.968,5.603,12.686,6,13.5,6c1.207,0,2.217-0.86,2.449-2h0C15.983,3.838,16,3.671,16,3.5z M13.5,5
		c-0.652,0-1.202-0.421-1.408-1.002H3.909C3.702,4.579,3.153,5,2.5,5S1.299,4.581,1.092,4H2.5C2.777,4,3,3.776,3,3.5S2.777,3,2.5,3
		H1.092C1.299,2.419,1.848,2,2.5,2s1.202,0.419,1.408,1h8.184c0.207-0.581,0.756-1,1.408-1s1.202,0.419,1.408,1H13.5
		C13.224,3,13,3.224,13,3.5S13.224,4,13.5,4h1.408C14.702,4.581,14.153,5,13.5,5z"/>
	<path d="M15.957,11.85l-0.528-1.197c-0.064-0.147-0.197-0.255-0.355-0.287L10.887,9.5L8.598,8.298C8.222,8.055,7.558,8,7.356,8
		H4.463C3.977,8,3.29,8.359,3.035,8.533C2.738,8.734,2.023,9.304,1.772,9.506L0.629,9.78c-0.226,0.055-0.384,0.257-0.383,0.488
		l0.013,1.387l-0.252,1.466c-0.046,0.268,0.131,0.523,0.396,0.575L1.997,14h0.095C2.3,14.581,2.849,15,3.5,15s1.201-0.419,1.408-1
		h5.184c0.207,0.581,0.757,1,1.408,1s1.201-0.419,1.408-1H15.5c0.276,0,0.5-0.224,0.5-0.5v-1.448
		C16,11.982,15.986,11.913,15.957,11.85z M3,13.5c0-0.26,0.203-0.468,0.457-0.491C3.472,13.007,3.485,13,3.5,13
		c0.015,0,0.028,0.007,0.043,0.009C3.798,13.032,4,13.24,4,13.5C4,13.775,3.776,14,3.5,14S3,13.775,3,13.5z M11,13.5
		c0-0.271,0.218-0.49,0.487-0.497c0.005,0,0.008-0.003,0.013-0.003s0.008,0.003,0.013,0.003C11.783,13.01,12,13.229,12,13.5
		c0,0.275-0.225,0.5-0.5,0.5S11,13.775,11,13.5z M15,13l-2.092,0.002C12.702,12.42,12.152,12,11.5,12
		c-0.652,0-1.203,0.421-1.409,1.004l-5.181,0.004C4.706,12.423,4.154,12,3.5,12c-0.654,0-1.206,0.424-1.411,1.009l-1.016-0.2
		L1.209,12H1.5C1.777,12,2,11.776,2,11.5S1.777,11,1.5,11H1.25l-0.001-0.34l0.866-0.208c0.071-0.018,0.139-0.051,0.196-0.098
		C2.579,10.14,3.33,9.542,3.596,9.361C3.86,9.182,4.323,9,4.463,9h2.893c0.241,0,0.61,0.08,0.738,0.16l2.391,1.258
		c0.041,0.021,0.085,0.038,0.131,0.047l4.003,0.827L15,12.157V13z"/>
</g>
</svg>
