<?xml version="1.0" encoding="utf-8"?>
<!-- Generator: Adobe Illustrator 21.0.0, SVG Export Plug-In . SVG Version: 6.00 Build 0)  -->
<svg version="1.1" id="icons" xmlns="http://www.w3.org/2000/svg" xmlns:xlink="http://www.w3.org/1999/xlink" x="0px" y="0px"
	 width="16px" height="16px" viewBox="0 0 16 16" style="enable-background:new 0 0 16 16;" xml:space="preserve">
<style type="text/css">
	.st0{fill:#5057FB;}
	.st1{fill:#C93789;}
	.st2{fill:#ED5C36;}
	.st3{fill:#AFB224;}
	.st4{fill:#15B2CC;}
</style>
<g id="car-in-use_3_">
	<path d="M10,0C7.794,0,6,1.794,6,4s1.794,4,4,4s4-1.794,4-4S12.206,0,10,0z M8.301,6.468C8.641,5.89,9.281,5.5,10,5.5
		c0.717,0,1.354,0.387,1.705,0.963C11.22,6.8,10.634,7,10,7C9.369,7,8.785,6.802,8.301,6.468z M9.5,3.5C9.5,3.22,9.73,3,10,3
		c0.28,0,0.5,0.22,0.5,0.5S10.28,4,10,4C9.73,4,9.5,3.78,9.5,3.5z M12.424,5.753c-0.36-0.506-0.877-0.894-1.484-1.093
		c0.34-0.27,0.56-0.69,0.56-1.16C11.5,2.67,10.83,2,10,2C9.17,2,8.5,2.67,8.5,3.5c0,0.47,0.22,0.89,0.56,1.16
		C8.453,4.859,7.936,5.247,7.576,5.753C7.218,5.258,7,4.656,7,4c0-1.654,1.346-3,3-3s3,1.346,3,3
		C13,4.656,12.782,5.258,12.424,5.753z"/>
	<g>
		<path d="M15.957,12.85l-0.528-1.197c-0.064-0.147-0.197-0.255-0.355-0.287L10.887,10.5L8.598,9.298C8.222,9.055,7.558,9,7.356,9
			H4.463C3.977,9,3.29,9.359,3.035,9.533c-0.297,0.201-1.012,0.771-1.263,0.973L0.629,10.78c-0.226,0.055-0.384,0.257-0.383,0.488
			l0.013,1.387l-0.252,1.466c-0.046,0.268,0.131,0.523,0.396,0.575L1.997,15h0.095C2.3,15.581,2.849,16,3.5,16s1.201-0.419,1.408-1
			h5.184c0.207,0.581,0.757,1,1.408,1s1.201-0.419,1.408-1H15.5c0.276,0,0.5-0.224,0.5-0.5v-1.448
			C16,12.982,15.986,12.913,15.957,12.85z M3,14.5c0-0.26,0.203-0.468,0.457-0.491C3.472,14.007,3.485,14,3.5,14
			c0.015,0,0.028,0.007,0.043,0.009C3.798,14.032,4,14.24,4,14.5C4,14.775,3.776,15,3.5,15S3,14.775,3,14.5z M11,14.5
			c0-0.271,0.218-0.49,0.487-0.497c0.005,0,0.008-0.003,0.013-0.003s0.008,0.003,0.013,0.003C11.783,14.01,12,14.229,12,14.5
			c0,0.275-0.225,0.5-0.5,0.5S11,14.775,11,14.5z M15,14l-2.092,0.002C12.702,13.42,12.152,13,11.5,13
			c-0.652,0-1.203,0.421-1.409,1.004l-5.181,0.004C4.706,13.423,4.154,13,3.5,13c-0.654,0-1.206,0.424-1.411,1.009l-1.016-0.2
			L1.209,13H1.5C1.776,13,2,12.776,2,12.5S1.776,12,1.5,12H1.25l-0.001-0.34l0.866-0.208c0.071-0.018,0.139-0.051,0.196-0.098
			c0.268-0.215,1.019-0.813,1.285-0.993C3.86,10.182,4.323,10,4.463,10h2.893c0.241,0,0.61,0.08,0.738,0.16l2.391,1.258
			c0.041,0.021,0.085,0.038,0.131,0.047l4.003,0.827L15,13.157V14z"/>
	</g>
</g>
</svg>
