<?xml version="1.0" encoding="utf-8"?>
<!-- Generator: Adobe Illustrator 21.0.0, SVG Export Plug-In . SVG Version: 6.00 Build 0)  -->
<svg version="1.1" id="icons" xmlns="http://www.w3.org/2000/svg" xmlns:xlink="http://www.w3.org/1999/xlink" x="0px" y="0px"
	 width="16px" height="16px" viewBox="0 0 16 16" style="enable-background:new 0 0 16 16;" xml:space="preserve">
<style type="text/css">
	.st0{fill:#5057FB;}
	.st1{fill:#C93789;}
	.st2{fill:#ED5C36;}
	.st3{fill:#AFB224;}
	.st4{fill:#15B2CC;}
</style>
<g id="car-wash_1_">
	<path class="st1" d="M3.5,3C3.224,3,3,2.776,3,2.5v-2C3,0.224,3.224,0,3.5,0S4,0.224,4,0.5v2C4,2.776,3.776,3,3.5,3z"/>
	<path class="st1" d="M14.5,6C14.224,6,14,5.776,14,5.5l0,0C14,5.224,14.224,5,14.5,5S15,5.224,15,5.5l0,0C15,5.776,14.776,6,14.5,6
		z"/>
	<path class="st1" d="M0,0.5C0,0.224,0.224,0,0.5,0l15,0C15.776,0,16,0.224,16,0.5S15.776,1,15.5,1h-15C0.224,1,0,0.776,0,0.5z"/>
	<path class="st1" d="M1.5,4C1.224,4,1,3.776,1,3.5v-1C1,2.224,1.224,2,1.5,2S2,2.224,2,2.5v1C2,3.776,1.776,4,1.5,4z"/>
	<path class="st1" d="M1.5,6C1.224,6,1,5.776,1,5.5l0,0C1,5.224,1.224,5,1.5,5S2,5.224,2,5.5l0,0C2,5.776,1.776,6,1.5,6z"/>
	<path class="st1" d="M14.5,4C14.224,4,14,3.776,14,3.5v-1C14,2.224,14.224,2,14.5,2S15,2.224,15,2.5v1C15,3.776,14.776,4,14.5,4z"
		/>
	<path class="st1" d="M8.5,3C8.224,3,8,2.776,8,2.5v-2C8,0.224,8.224,0,8.5,0S9,0.224,9,0.5v2C9,2.776,8.776,3,8.5,3z"/>
	<path class="st1" d="M5.5,4C5.224,4,5,3.776,5,3.5l0,0C5,3.224,5.224,3,5.5,3S6,3.224,6,3.5l0,0C6,3.776,5.776,4,5.5,4z"/>
	<path class="st1" d="M10.5,2C10.224,2,10,1.776,10,1.5v-1C10,0.224,10.224,0,10.5,0S11,0.224,11,0.5v1C11,1.776,10.776,2,10.5,2z"
		/>
	<path class="st1" d="M12.5,3C12.224,3,12,2.776,12,2.5v-2C12,0.224,12.224,0,12.5,0S13,0.224,13,0.5v2C13,2.776,12.776,3,12.5,3z"
		/>
	<path class="st1" d="M10.5,4C10.224,4,10,3.776,10,3.5l0,0C10,3.224,10.224,3,10.5,3S11,3.224,11,3.5l0,0C11,3.776,10.776,4,10.5,4
		z"/>
	<path class="st1" d="M5.5,2C5.224,2,5,1.776,5,1.5v-1C5,0.224,5.224,0,5.5,0S6,0.224,6,0.5v1C6,1.776,5.776,2,5.5,2z"/>
	<path class="st1" d="M14,8h-0.92l-0.92-1.52C11.61,5.57,10.6,5,9.54,5H6.46C5.4,5,4.39,5.57,3.84,6.48L3.58,6.92L2.92,8H2
		C1.72,8,1.5,8.22,1.5,8.5S1.72,9,2,9h0.33C2.12,9.38,2,9.8,2,10.23V11h1.5C3.78,11,4,11.22,4,11.5S3.78,12,3.5,12H2v2.28
		C2,15.23,2.77,16,3.72,16H3.8c0.72,0,1.34-0.45,1.59-1.09c0.05,0.04,0.08,0.08,0.08,0.08c0.1,0.11,0.24,0.18,0.38,0.18h4.3
		c0.14,0,0.28-0.07,0.38-0.18c0,0,0.03-0.04,0.08-0.08C10.86,15.54,11.48,16,12.2,16h0.08c0.95,0,1.72-0.77,1.72-1.72V12h-1.5
		c-0.28,0-0.5-0.22-0.5-0.5s0.22-0.5,0.5-0.5H14v-0.77C14,9.8,13.88,9.38,13.67,9H14c0.28,0,0.5-0.22,0.5-0.5S14.28,8,14,8z M9.5,13
		h-3C6.22,13,6,12.78,6,12.5S6.22,12,6.5,12h3c0.28,0,0.5,0.22,0.5,0.5S9.78,13,9.5,13z M8,9.31c-1.72,0-3.46-0.42-4.31-0.65
		l0.26-0.42L4.7,6.99C5.07,6.38,5.74,6,6.46,6h3.08c0.71,0,1.39,0.38,1.76,0.99l1,1.67C11.46,8.89,9.72,9.31,8,9.31z"/>
</g>
</svg>
