<?xml version="1.0" encoding="utf-8"?>
<!-- Generator: Adobe Illustrator 21.0.0, SVG Export Plug-In . SVG Version: 6.00 Build 0)  -->
<svg version="1.1" id="icons" xmlns="http://www.w3.org/2000/svg" xmlns:xlink="http://www.w3.org/1999/xlink" x="0px" y="0px"
	 width="16px" height="16px" viewBox="0 0 16 16" style="enable-background:new 0 0 16 16;" xml:space="preserve">
<style type="text/css">
	.st0{fill:#5057FB;}
	.st1{fill:#C93789;}
	.st2{fill:#ED5C36;}
	.st3{fill:#AFB224;}
	.st4{fill:#15B2CC;}
</style>
<g id="car-dimensions_3_">
	<path d="M2.5,14H2V5h0.5C2.776,5,3,4.776,3,4.5S2.776,4,2.5,4h-2C0.224,4,0,4.224,0,4.5S0.224,5,0.5,5H1v9H0.5
		C0.224,14,0,14.224,0,14.5S0.224,15,0.5,15h2C2.776,15,3,14.776,3,14.5S2.776,14,2.5,14z"/>
	<path d="M15.5,1C15.224,1,15,1.224,15,1.5V2H4V1.5C4,1.224,3.776,1,3.5,1S3,1.224,3,1.5v2C3,3.776,3.224,4,3.5,4S4,3.776,4,3.5V3
		h11v0.5C15,3.776,15.224,4,15.5,4S16,3.776,16,3.5v-2C16,1.224,15.776,1,15.5,1z"/>
	<path d="M14.5,10H16V9.227c0-0.456-0.125-0.905-0.362-1.299l-1.481-2.451C13.607,4.565,12.604,4,11.536,4H7.463
		c-1.067,0-2.071,0.565-2.62,1.476L4.575,5.918L3.89,7.052L3.36,7.929C3.125,8.32,3,8.77,3,9.227V10h1.5C4.776,10,5,10.224,5,10.5
		S4.776,11,4.5,11H3v2.282C3,14.229,3.771,15,4.718,15h0.08c0.727,0,1.346-0.455,1.596-1.094c0.046,0.049,0.075,0.081,0.077,0.083
		c0.096,0.112,0.235,0.178,0.383,0.178h5.292c0.147,0,0.287-0.065,0.383-0.178c0.002-0.002,0.031-0.035,0.077-0.084
		c0.25,0.639,0.87,1.094,1.596,1.094h0.08C15.229,15,16,14.229,16,13.282V11h-1.5c-0.276,0-0.5-0.224-0.5-0.5S14.224,10,14.5,10z
		 M11.5,12h-4C7.224,12,7,11.776,7,11.5S7.224,11,7.5,11h4c0.276,0,0.5,0.224,0.5,0.5S11.776,12,11.5,12z M9.5,8.5
		c-2.074,0-3.974-0.523-4.834-0.799l0.28-0.464l0.752-1.245C6.068,5.38,6.744,5,7.463,5h4.073c0.719,0,1.395,0.38,1.765,0.993
		l1.077,1.783C13.432,8.042,11.511,8.5,9.5,8.5z"/>
</g>
</svg>
