<?xml version="1.0" encoding="utf-8"?>
<!-- Generator: Adobe Illustrator 21.0.0, SVG Export Plug-In . SVG Version: 6.00 Build 0)  -->
<svg version="1.1" id="icons" xmlns="http://www.w3.org/2000/svg" xmlns:xlink="http://www.w3.org/1999/xlink" x="0px" y="0px"
	 width="16px" height="16px" viewBox="0 0 16 16" style="enable-background:new 0 0 16 16;" xml:space="preserve">
<style type="text/css">
	.st0{fill:#5057FB;}
	.st1{fill:#C93789;}
	.st2{fill:#ED5C36;}
	.st3{fill:#AFB224;}
	.st4{fill:#15B2CC;}
</style>
<g id="car-battery_3_">
	<path d="M15.5,3H14V1.5C14,1.224,13.776,1,13.5,1h-2C11.224,1,11,1.224,11,1.5V3H5V1.5C5,1.224,4.776,1,4.5,1h-2
		C2.224,1,2,1.224,2,1.5V3H0.5C0.224,3,0,3.224,0,3.5v11C0,14.776,0.224,15,0.5,15h15c0.276,0,0.5-0.224,0.5-0.5v-11
		C16,3.224,15.776,3,15.5,3z M12,2h1v1h-1V2z M3,2h1v1H3V2z M15,14H1V4h1.502h2h7h1.996H15V14z"/>
	<path d="M4.502,6H4V5.5C4,5.224,3.776,5,3.5,5S3,5.224,3,5.5V6H2.502c-0.276,0-0.5,0.224-0.5,0.5S2.226,7,2.502,7H3v0.5
		C3,7.776,3.224,8,3.5,8S4,7.776,4,7.5V7h0.502C4.778,7,5,6.776,5,6.5S4.778,6,4.502,6z"/>
	<path d="M11.002,6.5c0,0.276,0.224,0.5,0.5,0.5H13.5C13.776,7,14,6.776,14,6.5S13.776,6,13.5,6h-1.998
		C11.226,6,11.002,6.224,11.002,6.5z"/>
	<path d="M9,10H7.809l0.639-1.276C8.57,8.477,8.471,8.176,8.224,8.053C7.977,7.931,7.678,8.029,7.553,8.276l-1,2
		c-0.077,0.155-0.069,0.339,0.021,0.486C6.666,10.91,6.827,11,7,11h1.191l-0.639,1.276c-0.123,0.247-0.023,0.547,0.224,0.671
		C7.849,12.983,7.925,13,8,13c0.183,0,0.359-0.101,0.447-0.276l1-2c0.077-0.155,0.069-0.339-0.021-0.486C9.334,10.09,9.173,10,9,10z
		"/>
</g>
</svg>
