<?xml version="1.0" encoding="utf-8"?>
<!-- Generator: Adobe Illustrator 21.0.0, SVG Export Plug-In . SVG Version: 6.00 Build 0)  -->
<svg version="1.1" id="icons" xmlns="http://www.w3.org/2000/svg" xmlns:xlink="http://www.w3.org/1999/xlink" x="0px" y="0px"
	 width="16px" height="16px" viewBox="0 0 16 16" style="enable-background:new 0 0 16 16;" xml:space="preserve">
<style type="text/css">
	.st0{fill:#5057FB;}
	.st1{fill:#C93789;}
	.st2{fill:#ED5C36;}
	.st3{fill:#AFB224;}
	.st4{fill:#15B2CC;}
</style>
<g id="car-wash_3_">
	<circle cx="14.5" cy="5.5" r="0.5"/>
	<path d="M15.5,0h-15C0.224,0,0,0.224,0,0.5S0.224,1,0.5,1H3v1.5C3,2.776,3.224,3,3.5,3S4,2.776,4,2.5V1h1v0.5
		C5,1.776,5.224,2,5.5,2S6,1.776,6,1.5V1h2v1.5C8,2.776,8.224,3,8.5,3S9,2.776,9,2.5V1h1v0.5C10,1.776,10.224,2,10.5,2
		S11,1.776,11,1.5V1h1v1.5C12,2.776,12.224,3,12.5,3S13,2.776,13,2.5V1h2.5C15.776,1,16,0.776,16,0.5S15.776,0,15.5,0z"/>
	<path d="M1.5,4C1.776,4,2,3.776,2,3.5v-1C2,2.224,1.776,2,1.5,2S1,2.224,1,2.5v1C1,3.776,1.224,4,1.5,4z"/>
	<circle cx="1.5" cy="5.5" r="0.5"/>
	<path d="M14.5,2C14.224,2,14,2.224,14,2.5v1C14,3.776,14.224,4,14.5,4S15,3.776,15,3.5v-1C15,2.224,14.776,2,14.5,2z"/>
	<circle cx="5.5" cy="3.5" r="0.5"/>
	<circle cx="10.5" cy="3.5" r="0.5"/>
	<path d="M9.5,12h-3C6.224,12,6,12.224,6,12.5S6.224,13,6.5,13h3c0.276,0,0.5-0.224,0.5-0.5S9.776,12,9.5,12z"/>
	<path d="M14,8h-0.923l-0.921-1.523C11.607,5.565,10.604,5,9.536,5H6.463c-1.067,0-2.071,0.565-2.62,1.476L3.575,6.918L2.922,8H2
		C1.724,8,1.5,8.224,1.5,8.5S1.724,9,2,9h0.33C2.12,9.375,2,9.796,2,10.227V12.5V13v1.282C2,15.229,2.771,16,3.718,16h0.08
		c0.727,0,1.346-0.455,1.596-1.094c0.046,0.049,0.075,0.081,0.077,0.083c0.096,0.112,0.235,0.178,0.383,0.178h4.292
		c0.147,0,0.287-0.065,0.383-0.178c0.002-0.002,0.031-0.035,0.077-0.084c0.25,0.639,0.87,1.094,1.596,1.094h0.08
		C13.229,16,14,15.229,14,14.282V13v-0.5v-2.273c0-0.43-0.12-0.85-0.331-1.227H14c0.276,0,0.5-0.224,0.5-0.5S14.276,8,14,8z
		 M3.946,8.237l0.752-1.245C5.068,6.38,5.744,6,6.463,6h3.073c0.719,0,1.395,0.38,1.765,0.993l1.004,1.663
		C11.459,8.891,9.724,9.306,8,9.306c-1.725,0-3.46-0.416-4.306-0.65L3.946,8.237z M4.516,14.282C4.516,14.678,4.193,15,3.798,15
		h-0.08C3.322,15,3,14.678,3,14.282v-0.73c0.59,0.1,1.107,0.353,1.516,0.625V14.282z M10.484,13.665
		c-0.243,0.195-0.437,0.376-0.559,0.502H6.073c-0.122-0.126-0.315-0.307-0.558-0.501c-0.307-0.247-0.703-0.513-1.173-0.732
		c-0.204-0.095-0.42-0.18-0.65-0.249C3.472,12.619,3.243,12.562,3,12.531V12h0.5C3.776,12,4,11.776,4,11.5S3.776,11,3.5,11H3v-0.773
		c0-0.238,0.066-0.468,0.173-0.679C3.931,9.773,5.937,10.306,8,10.306c2.062,0,4.067-0.532,4.826-0.758
		C12.934,9.76,13,9.99,13,10.227V11h-0.5c-0.276,0-0.5,0.224-0.5,0.5s0.224,0.5,0.5,0.5H13v0.531
		c-0.234,0.029-0.455,0.083-0.669,0.146c-0.234,0.069-0.454,0.155-0.662,0.251C11.195,13.148,10.794,13.416,10.484,13.665z
		 M13,14.282C13,14.678,12.678,15,12.282,15h-0.08c-0.396,0-0.718-0.322-0.718-0.718v-0.106c0.409-0.273,0.926-0.525,1.516-0.625
		V14.282z"/>
</g>
</svg>
