<?xml version="1.0" encoding="utf-8"?>
<!-- Generator: Adobe Illustrator 21.0.0, SVG Export Plug-In . SVG Version: 6.00 Build 0)  -->
<svg version="1.1" id="icons" xmlns="http://www.w3.org/2000/svg" xmlns:xlink="http://www.w3.org/1999/xlink" x="0px" y="0px"
	 width="16px" height="16px" viewBox="0 0 16 16" style="enable-background:new 0 0 16 16;" xml:space="preserve">
<style type="text/css">
	.st0{fill:#5057FB;}
	.st1{fill:#C93789;}
	.st2{fill:#ED5C36;}
	.st3{fill:#AFB224;}
	.st4{fill:#15B2CC;}
</style>
<g id="cash_2_">
	<path d="M16,3.604C16,2.718,15.282,2,14.396,2H7.61L4.515,0.143C4.357,0.048,4.179,0,4,0C3.857,0,3.714,0.031,3.581,0.092
		c-0.3,0.139-0.513,0.417-0.567,0.743L2.82,2H2C0.895,2,0,2.895,0,4v11c0,0.552,0.448,1,1,1h14c0.552,0,1-0.448,1-1v-3h-4.5
		c-0.828,0-1.5-0.672-1.5-1.5S10.672,9,11.5,9H16V3.604z M15,4.99V5H2C1.449,5,1,4.551,1,4c0-0.415,0.255-0.771,0.616-0.922
		C1.734,3.028,1.864,3,2,3h0.653L2.486,4h8.457L9.277,3h5.119C14.729,3,15,3.271,15,3.604V4.99z"/>
	<path d="M12.5,11h-1c-0.276,0-0.5-0.224-0.5-0.5s0.224-0.5,0.5-0.5h1c0.276,0,0.5,0.224,0.5,0.5S12.776,11,12.5,11z"/>
</g>
</svg>
