<?xml version="1.0" encoding="utf-8"?>
<!-- Generator: Adobe Illustrator 21.0.0, SVG Export Plug-In . SVG Version: 6.00 Build 0)  -->
<svg version="1.1" id="icons" xmlns="http://www.w3.org/2000/svg" xmlns:xlink="http://www.w3.org/1999/xlink" x="0px" y="0px"
	 width="32px" height="32px" viewBox="0 0 32 32" style="enable-background:new 0 0 32 32;" xml:space="preserve">
<style type="text/css">
	.st0{fill:none;}
	.st1{fill:#C93789;}
	.st2{font-family:'OpenSans';}
	.st3{font-size:4px;}
	.st4{fill:#5057FB;}
	.st5{fill:#ED5C36;}
	.st6{fill:#AFB224;}
	.st7{fill:#15B2CC;}
</style>
<rect x="-8" y="-10.999" class="st0" width="48" height="11"/>
<text transform="matrix(1.0104 0 0 1 11.8135 -7.9585)" class="st1 st2 st3">Map</text>
<g id="cash_3_">
	<path class="st5" d="M16,0C7.163,0,0,7.163,0,16s7.163,16,16,16s16-7.163,16-16S24.837,0,16,0z M24,17h-4.5
		c-0.828,0-1.5,0.672-1.5,1.5s0.672,1.5,1.5,1.5H24v3c0,0.552-0.448,1-1,1H9c-0.552,0-1-0.448-1-1V12c0-1.105,0.895-2,2-2h0.82
		l0.194-1.164c0.054-0.326,0.267-0.605,0.567-0.743C11.714,8.031,11.857,8,12,8c0.179,0,0.357,0.048,0.515,0.143L15.61,10h6.786
		C23.282,10,24,10.718,24,11.604V17z M21,18.5c0,0.276-0.224,0.5-0.5,0.5h-1c-0.276,0-0.5-0.224-0.5-0.5s0.224-0.5,0.5-0.5h1
		C20.776,18,21,18.224,21,18.5z"/>
	<path class="st5" d="M22.396,11h-5.119l1.667,1h-8.457l0.167-1H10c-0.136,0-0.266,0.028-0.384,0.078C9.255,11.229,9,11.585,9,12
		c0,0.551,0.449,1,1,1h13v-0.01v-1.386C23,11.271,22.729,11,22.396,11z"/>
</g>
</svg>
