<?xml version="1.0" encoding="utf-8"?>
<!-- Generator: Adobe Illustrator 21.0.0, SVG Export Plug-In . SVG Version: 6.00 Build 0)  -->
<svg version="1.1" id="icons" xmlns="http://www.w3.org/2000/svg" xmlns:xlink="http://www.w3.org/1999/xlink" x="0px" y="0px"
	 width="16px" height="16px" viewBox="0 0 16 16" style="enable-background:new 0 0 16 16;" xml:space="preserve">
<style type="text/css">
	.st0{fill:#5057FB;}
	.st1{fill:#C93789;}
	.st2{fill:#ED5C36;}
	.st3{fill:#AFB224;}
	.st4{fill:#15B2CC;}
</style>
<g id="cash_1_">
	<path d="M14.396,2H7.61L4.515,0.143C4.357,0.048,4.179,0,4,0C3.857,0,3.714,0.031,3.581,0.092c-0.3,0.139-0.513,0.417-0.567,0.743
		L2.82,2H2C0.895,2,0,2.895,0,4v11c0,0.552,0.448,1,1,1h14c0.552,0,1-0.448,1-1V3.604C16,2.718,15.282,2,14.396,2z M4,1l6.667,4
		H3.333L4,1z M1.616,3.078C1.734,3.028,1.864,3,2,3h0.653L2.32,5H2C1.449,5,1,4.551,1,4C1,3.585,1.255,3.229,1.616,3.078z M15,12
		h-2.5c-0.828,0-1.5-0.672-1.5-1.5S11.672,9,12.5,9H15V12z M15,8h-2.5C11.122,8,10,9.122,10,10.5s1.122,2.5,2.5,2.5H15v1v1H1V5.723
		C1.295,5.894,1.634,6,2,6h0.153H15V8z M15,4.99V5h-2.39L9.277,3h5.119C14.729,3,15,3.271,15,3.604V4.99z"/>
	<circle cx="12.5" cy="10.5" r="0.5"/>
</g>
</svg>
