<?xml version="1.0" encoding="utf-8"?>
<!-- Generator: Adobe Illustrator 21.0.0, SVG Export Plug-In . SVG Version: 6.00 Build 0)  -->
<svg version="1.1" id="icons" xmlns="http://www.w3.org/2000/svg" xmlns:xlink="http://www.w3.org/1999/xlink" x="0px" y="0px"
	 width="16px" height="16px" viewBox="0 0 16 16" style="enable-background:new 0 0 16 16;" xml:space="preserve">
<style type="text/css">
	.st0{fill:#5057FB;}
	.st1{fill:#C93789;}
	.st2{fill:#ED5C36;}
	.st3{fill:#AFB224;}
	.st4{fill:#15B2CC;}
</style>
<path id="child-seats_4_" class="st4" d="M11.847,8.371c-0.2,0-0.401,0.019-0.599,0.056c-0.06,0.011-0.119,0.028-0.176,0.05
	l-3.09,1.213c0,0.002-0.001,0.005-0.001,0.007C7.985,9.631,8,9.568,8,9.5c0-0.471-0.137-0.907-0.365-1.282l6.578-4.811
	c0.226-0.161,0.279-0.474,0.117-0.7C14.17,2.48,13.856,2.427,13.63,2.588L6.947,7.476c-0.167-0.12-0.347-0.224-0.541-0.3
	L5.585,0.845C5.522,0.362,5.11,0,4.622,0H1.971C1.435,0,1,0.434,1,0.97v14.06C1,15.566,1.435,16,1.971,16h12.058
	C14.565,16,15,15.566,15,15.03v-3.567C15,9.758,13.585,8.371,11.847,8.371z M5.5,11C4.672,11,4,10.328,4,9.5S4.672,8,5.5,8
	S7,8.672,7,9.5S6.328,11,5.5,11z M12,13c-0.553,0-1-0.447-1-1s0.447-1,1-1s1,0.447,1,1S12.553,13,12,13z"/>
</svg>
