<?xml version="1.0" encoding="utf-8"?>
<!-- Generator: Adobe Illustrator 21.0.0, SVG Export Plug-In . SVG Version: 6.00 Build 0)  -->
<svg version="1.1" id="icons" xmlns="http://www.w3.org/2000/svg" xmlns:xlink="http://www.w3.org/1999/xlink" x="0px" y="0px"
	 width="32px" height="32px" viewBox="0 0 32 32" style="enable-background:new 0 0 32 32;" xml:space="preserve">
<style type="text/css">
	.st0{fill:none;}
	.st1{fill:#5057FB;}
	.st2{font-family:'OpenSans';}
	.st3{font-size:4px;}
	.st4{fill:#C93789;}
	.st5{fill:#ED5C36;}
	.st6{fill:#AFB224;}
	.st7{fill:#15B2CC;}
</style>
<g id="child-seats_1_">
	<path class="st7" d="M16,0C7.163,0,0,7.163,0,16s7.163,16,16,16s16-7.163,16-16S24.837,0,16,0z M23,23.03
		c0,0.536-0.435,0.97-0.971,0.97H9.971C9.435,24,9,23.566,9,23.03V8.97C9,8.434,9.435,8,9.971,8h2.651
		c0.488,0,0.9,0.362,0.963,0.845l0.822,6.331c0.194,0.076,0.374,0.18,0.541,0.3l6.683-4.888c0.226-0.161,0.54-0.109,0.701,0.117
		c0.161,0.226,0.109,0.539-0.117,0.7l-6.578,4.811C15.863,16.593,16,17.029,16,17.5c0,0.068-0.015,0.131-0.02,0.198
		c0-0.002,0.001-0.005,0.001-0.007l3.09-1.213c0.057-0.022,0.116-0.039,0.176-0.05c0.198-0.037,0.4-0.056,0.599-0.056
		c1.739,0,3.153,1.387,3.153,3.092V23.03z"/>
	<circle class="st7" cx="13.5" cy="17.5" r="1.5"/>
	<circle class="st7" cx="20" cy="20" r="1"/>
</g>
</svg>
