<?xml version="1.0" encoding="utf-8"?>
<!-- Generator: Adobe Illustrator 21.0.0, SVG Export Plug-In . SVG Version: 6.00 Build 0)  -->
<svg version="1.1" id="icons" xmlns="http://www.w3.org/2000/svg" xmlns:xlink="http://www.w3.org/1999/xlink" x="0px" y="0px"
	 width="16px" height="16px" viewBox="0 0 16 16" style="enable-background:new 0 0 16 16;" xml:space="preserve">
<style type="text/css">
	.st0{fill:#5057FB;}
	.st1{fill:#C93789;}
	.st2{fill:#ED5C36;}
	.st3{fill:#AFB224;}
	.st4{fill:#15B2CC;}
</style>
<g id="child-seats_2_">
	<path d="M11.015,12.017c0-0.278,0.225-0.502,0.502-0.502l0,0c0.278,0,0.502,0.225,0.502,0.502c0,0.278-0.225,0.502-0.502,0.502l0,0
		C11.239,12.519,11.015,12.295,11.015,12.017z"/>
	<path d="M11.847,8.371c-0.2,0-0.401,0.019-0.599,0.056c-0.06,0.011-0.119,0.028-0.176,0.05l-3.09,1.213
		c0,0.002-0.001,0.005-0.001,0.007C7.985,9.631,8,9.568,8,9.5c0-0.47-0.138-0.906-0.365-1.282l6.578-4.812
		c0.226-0.161,0.279-0.474,0.117-0.7C14.17,2.48,13.856,2.427,13.63,2.588L6.952,7.473c-0.168-0.121-0.35-0.22-0.546-0.297
		L5.585,0.845C5.522,0.362,5.11,0,4.622,0H1.971C1.435,0,1,0.434,1,0.97v14.06C1,15.566,1.435,16,1.971,16h12.058
		C14.565,16,15,15.566,15,15.03v-3.567C15,9.758,13.585,8.371,11.847,8.371z M7,9.5C7,10.328,6.328,11,5.5,11S4,10.328,4,9.5
		S4.672,8,5.5,8S7,8.672,7,9.5z M14.029,15.03H1.971V0.97h2.651L5.406,7.01C4.072,7.06,3,8.154,3,9.5C3,10.878,4.122,12,5.5,12
		c0.863,0,1.625-0.44,2.075-1.107l3.852-1.512c0.142-0.027,0.282-0.039,0.42-0.039c1.178,0,2.183,0.929,2.183,2.122V15.03z"/>
</g>
</svg>
