<?xml version="1.0" encoding="utf-8"?>
<!-- Generator: Adobe Illustrator 21.0.0, SVG Export Plug-In . SVG Version: 6.00 Build 0)  -->
<svg version="1.1" id="icons" xmlns="http://www.w3.org/2000/svg" xmlns:xlink="http://www.w3.org/1999/xlink" x="0px" y="0px"
	 width="16px" height="16px" viewBox="0 0 16 16" style="enable-background:new 0 0 16 16;" xml:space="preserve">
<style type="text/css">
	.st0{fill:#5057FB;}
	.st1{fill:#C93789;}
	.st2{fill:#ED5C36;}
	.st3{fill:#AFB224;}
	.st4{fill:#15B2CC;}
</style>
<g id="confirm-booking_2_">
	<path d="M2.5,7C2.776,7,3,7.224,3,7.5l0,0C3,7.776,2.776,8,2.5,8S2,7.776,2,7.5l0,0C2,7.224,2.224,7,2.5,7z"/>
	<path d="M4.5,7C4.776,7,5,7.224,5,7.5l0,0C5,7.776,4.776,8,4.5,8S4,7.776,4,7.5l0,0C4,7.224,4.224,7,4.5,7z"/>
	<path d="M6.5,7C6.776,7,7,7.224,7,7.5l0,0C7,7.776,6.776,8,6.5,8S6,7.776,6,7.5l0,0C6,7.224,6.224,7,6.5,7z"/>
	<path d="M2.5,9C2.776,9,3,9.224,3,9.5l0,0C3,9.776,2.776,10,2.5,10S2,9.776,2,9.5l0,0C2,9.224,2.224,9,2.5,9z"/>
	<path d="M2.5,11C2.776,11,3,11.224,3,11.5l0,0C3,11.776,2.776,12,2.5,12S2,11.776,2,11.5l0,0C2,11.224,2.224,11,2.5,11z"/>
	<path d="M4.5,9C4.776,9,5,9.224,5,9.5l0,0C5,9.776,4.776,10,4.5,10S4,9.776,4,9.5l0,0C4,9.224,4.224,9,4.5,9z"/>
	<path d="M11.5,14c-0.167,0-0.323-0.084-0.416-0.223l-2-3c-0.153-0.229-0.091-0.54,0.139-0.693c0.227-0.152,0.539-0.092,0.693,0.139
		l1.584,2.376l1.584-2.376c0.154-0.23,0.465-0.29,0.693-0.139c0.229,0.153,0.292,0.464,0.139,0.693l-2,3
		C11.823,13.916,11.667,14,11.5,14z"/>
	<path d="M12,7.05V4c0-1.103-0.894-2-1.997-2H10V0.5C10,0.224,9.776,0,9.5,0S9,0.224,9,0.5V2H3V0.5C3,0.224,2.776,0,2.5,0
		S2,0.224,2,0.5V2C0.897,2,0,2.897,0,4v8c0,1.103,0.897,2,2,2h5.76c0.807,1.205,2.18,2,3.74,2c2.485,0,4.5-2.015,4.5-4.5
		C16,9.186,14.247,7.302,12,7.05z M2,3v0.497c0,0.276,0.224,0.5,0.5,0.5S3,3.773,3,3.497V3h5.997v0.497c0,0.276,0.224,0.5,0.5,0.5
		s0.5-0.224,0.5-0.5V3H10c0.552,0,1,0.448,1,1v1H1V4C1,3.448,1.448,3,2,3z M1,12V6h10v1.05C8.753,7.302,7,9.186,7,11.5
		c0,0.529,0.108,1.029,0.276,1.5H2C1.448,13,1,12.552,1,12z M11.5,15C9.567,15,8,13.433,8,11.5S9.567,8,11.5,8S15,9.567,15,11.5
		S13.433,15,11.5,15z"/>
</g>
</svg>
