<?xml version="1.0" encoding="utf-8"?>
<!-- Generator: Adobe Illustrator 21.0.0, SVG Export Plug-In . SVG Version: 6.00 Build 0)  -->
<svg version="1.1" id="icons" xmlns="http://www.w3.org/2000/svg" xmlns:xlink="http://www.w3.org/1999/xlink" x="0px" y="0px"
	 width="16px" height="16px" viewBox="0 0 16 16" style="enable-background:new 0 0 16 16;" xml:space="preserve">
<style type="text/css">
	.st0{fill:#5057FB;}
	.st1{fill:#C93789;}
	.st2{fill:#ED5C36;}
	.st3{fill:#AFB224;}
	.st4{fill:#15B2CC;}
</style>
<g id="confirm-booking_4_">
	<path class="st1" d="M9.997,2.031V0.5c0-0.276-0.224-0.5-0.5-0.5s-0.5,0.224-0.5,0.5v1.503H3V0.5C3,0.224,2.776,0,2.5,0
		S2,0.224,2,0.5v1.531C0.975,2.167,0.166,2.977,0.03,4.003H11.97C11.834,2.975,11.023,2.165,9.997,2.031z"/>
	<path class="st1" d="M12,8.05V5.003H0v6.7c0,1.268,1.032,2.3,2.3,2.3h5.976C8.108,13.531,8,13.03,8,12.5
		C8,10.186,9.753,8.302,12,8.05z M2.999,11.999C2.447,11.999,2,11.552,2,11c0-0.552,0.447-0.999,0.999-0.999S3.997,10.448,3.997,11
		C3.997,11.552,3.55,11.999,2.999,11.999z M2.999,9C2.447,9,2,8.553,2,8.001s0.447-0.999,0.999-0.999S3.997,7.45,3.997,8.001
		S3.55,9,2.999,9z M5.999,9C5.447,9,5,8.553,5,8.001s0.447-0.999,0.999-0.999S6.997,7.45,6.997,8.001S6.55,9,5.999,9z"/>
	<path class="st1" d="M12.5,9C10.567,9,9,10.567,9,12.5s1.567,3.5,3.5,3.5s3.5-1.567,3.5-3.5S14.433,9,12.5,9z M14.916,11.777l-2,3
		C12.823,14.916,12.667,15,12.5,15s-0.323-0.084-0.416-0.223l-2-3c-0.153-0.229-0.091-0.54,0.139-0.693
		c0.227-0.152,0.539-0.092,0.693,0.139l1.584,2.376l1.584-2.376c0.154-0.23,0.465-0.29,0.693-0.139
		C15.007,11.237,15.069,11.548,14.916,11.777z"/>
</g>
</svg>
