<?xml version="1.0" encoding="utf-8"?>
<!-- Generator: Adobe Illustrator 21.0.0, SVG Export Plug-In . SVG Version: 6.00 Build 0)  -->
<svg version="1.1" id="icons" xmlns="http://www.w3.org/2000/svg" xmlns:xlink="http://www.w3.org/1999/xlink" x="0px" y="0px"
	 width="16px" height="16px" viewBox="0 0 16 16" style="enable-background:new 0 0 16 16;" xml:space="preserve">
<style type="text/css">
	.st0{fill:#5057FB;}
	.st1{fill:#C93789;}
	.st2{fill:#ED5C36;}
	.st3{fill:#AFB224;}
	.st4{fill:#15B2CC;}
</style>
<g id="convertible">
	<path d="M15.94,8.539l-0.53-1.02c-0.06-0.13-0.18-0.22-0.321-0.25L12.2,6.539l-1.91-1.44c-0.22-0.16-0.531-0.12-0.701,0.1
		c-0.17,0.22-0.119,0.53,0.101,0.7l0.8,0.6H3.5v-0.5c0-0.06-0.01-0.13-0.04-0.18c-0.02-0.06-0.05-0.11-0.1-0.15
		c-0.021-0.04-0.05-0.06-0.08-0.08c-0.14-0.1-0.31-0.12-0.46-0.05l-2.51,1C0.12,6.609,0,6.799,0,6.999v2.25
		c0,0.24,0.18,0.45,0.419,0.49l1.09,0.18C1.549,9.129,2.2,8.509,3,8.509c0.83,0,1.49,0.66,1.5,1.49h5.99
		c0.01-0.83,0.66-1.49,1.49-1.49s1.49,0.66,1.5,1.49h2.02c0.28,0,0.5-0.22,0.5-0.5v-0.73C16,8.689,15.98,8.609,15.94,8.539"/>
	<path d="M2.99,8.999c-0.553,0-1,0.448-1,1c0,0.553,0.447,1,1,1s1-0.447,1-1C3.99,9.447,3.543,8.999,2.99,8.999"/>
	<path d="M11.99,8.999c-0.553,0-1,0.448-1,1c0,0.553,0.447,1,1,1c0.553,0,1-0.447,1-1C12.99,9.447,12.543,8.999,11.99,8.999"/>
</g>
</svg>
