<?xml version="1.0" encoding="utf-8"?>
<!-- Generator: Adobe Illustrator 21.0.0, SVG Export Plug-In . SVG Version: 6.00 Build 0)  -->
<svg version="1.1" id="icons" xmlns="http://www.w3.org/2000/svg" xmlns:xlink="http://www.w3.org/1999/xlink" x="0px" y="0px"
	 width="16px" height="16px" viewBox="0 0 16 16" style="enable-background:new 0 0 16 16;" xml:space="preserve">
<style type="text/css">
	.st0{fill:#5057FB;}
	.st1{fill:#C93789;}
	.st2{fill:#ED5C36;}
	.st3{fill:#AFB224;}
	.st4{fill:#15B2CC;}
</style>
<g id="convenience-store">
	<g>
		<g>
			<path d="M12.504,8c-0.92,0.6-2.09,0.6-3,0c-0.92,0.6-2.09,0.6-3,0c-0.92,0.6-2.09,0.6-3,0c-0.46,0.3-0.969,0.45-1.499,0.45v6.05
				c0,0.28,0.22,0.5,0.5,0.5h5.5v-4.5c0-0.28,0.22-0.5,0.5-0.5h2c0.09,0,0.16,0.03,0.23,0.07c0.05,0.02,0.09,0.04,0.12,0.07
				c0.05,0.05,0.08,0.1,0.11,0.16c0.03,0.06,0.04,0.13,0.04,0.2V15h2.5c0.27,0,0.5-0.22,0.5-0.5V8.45
				C13.484,8.45,12.964,8.3,12.504,8z M7.004,11.67c0,0.18-0.15,0.33-0.33,0.33h-1.34c-0.18,0-0.33-0.15-0.33-0.33v-1.34
				c0-0.18,0.15-0.33,0.33-0.33h1.34c0.18,0,0.33,0.15,0.33,0.33L7.004,11.67z"/>
		</g>
	</g>
	<g>
		<path d="M15.965,6.31l-0.42-1.05l-1.58-3.95c-0.02-0.05-0.05-0.1-0.09-0.14c-0.01-0.01-0.01-0.02-0.02-0.02
			c-0.02-0.02-0.05-0.04-0.07-0.05c-0.03-0.02-0.06-0.05-0.09-0.06c0,0-0.01,0-0.02-0.01c-0.01,0-0.01,0-0.02,0
			c-0.05-0.02-0.1-0.03-0.15-0.03H2.503c0,0,0,0-0.01,0c-0.05,0-0.1,0.02-0.14,0.03c-0.02,0.01-0.03,0-0.05,0.01
			c-0.01,0.01-0.03,0.02-0.04,0.03c-0.01,0.01-0.02,0.02-0.04,0.03c-0.03,0.01-0.05,0.03-0.08,0.05c0,0,0,0.01-0.01,0.01
			c-0.04,0.05-0.07,0.1-0.09,0.15h-0.01l-1.58,3.95l-0.42,1.05l0,0c-0.082,0.214-0.007,0.474,0.191,0.606L0.89,7.36l0,0l0,0
			C1.23,7.59,1.613,7.7,2.003,7.7c0.38,0,0.77-0.11,1.11-0.34l0.39-0.26l0.39,0.26c0.34,0.23,0.72,0.34,1.11,0.34
			c0.38,0,0.77-0.11,1.11-0.34l0.39-0.26l0.39,0.26c0.34,0.23,0.72,0.34,1.11,0.34c0.38,0,0.77-0.11,1.11-0.34l0.39-0.26l0.39,0.26
			c0.34,0.23,0.72,0.34,1.11,0.34c0.38,0,0.77-0.11,1.11-0.34l0.39-0.26l0.39,0.26c0.34,0.23,0.72,0.34,1.11,0.34
			c0.379,0,0.769-0.11,1.108-0.339l-0.001,0l0.003-0.001l0.001-0.001l0.665-0.443C15.979,6.783,16.049,6.525,15.965,6.31z
			 M6.374,5.26l-0.07,0.79c-0.01,0-0.14,0.08-0.28,0.17c-0.21,0.14-0.47,0.31-0.47,0.31c-0.34,0.22-0.77,0.22-1.11,0
			c0,0-0.1-0.07-0.23-0.15c-0.22-0.14-0.51-0.33-0.54-0.34l0.19-0.74L4.683,2h1.96L6.374,5.26z M11.794,6.38
			c-0.13,0.08-0.24,0.15-0.24,0.15c-0.34,0.22-0.77,0.22-1.11,0c0,0-0.1-0.06-0.23-0.15c-0.03-0.02-0.05-0.03-0.08-0.05
			c-0.2-0.12-0.41-0.26-0.42-0.27l-0.07-0.8L9.384,2h1.93l0.83,3.3l0.18,0.74C12.314,6.05,12.014,6.24,11.794,6.38z"/>
	</g>
</g>
</svg>
