<?xml version="1.0" encoding="utf-8"?>
<!-- Generator: Adobe Illustrator 21.0.0, SVG Export Plug-In . SVG Version: 6.00 Build 0)  -->
<svg version="1.1" id="icons" xmlns="http://www.w3.org/2000/svg" xmlns:xlink="http://www.w3.org/1999/xlink" x="0px" y="0px"
	 width="32px" height="32px" viewBox="0 0 32 32" style="enable-background:new 0 0 32 32;" xml:space="preserve">
<style type="text/css">
	.st0{fill:#5057FB;}
	.st1{fill:#C93789;}
	.st2{fill:#ED5C36;}
	.st3{fill:#AFB224;}
	.st4{fill:#15B2CC;}
</style>
<g id="convenience-store_2_">
	<path class="st0" d="M14.67,18h-1.34C13.15,18,13,18.15,13,18.33v1.34c0,0.18,0.15,0.33,0.33,0.33h1.34c0.18,0,0.33-0.15,0.33-0.33
		v-1.34C15,18.15,14.85,18,14.67,18z"/>
	<path class="st0" d="M11.86,13.3l-0.19,0.74c0.03,0.01,0.32,0.2,0.54,0.34c0.13,0.08,0.23,0.15,0.23,0.15
		c0.34,0.22,0.77,0.22,1.11,0c0,0,0.26-0.17,0.47-0.31c0.14-0.09,0.27-0.17,0.28-0.17l0.07-0.79L14.64,10h-1.96L11.86,13.3z"/>
	<path class="st0" d="M19.31,10h-1.93l0.26,3.26l0.07,0.8c0.01,0.01,0.22,0.15,0.42,0.27c0.03,0.02,0.05,0.03,0.08,0.05
		c0.13,0.09,0.23,0.15,0.23,0.15c0.34,0.22,0.77,0.22,1.11,0c0,0,0.11-0.07,0.24-0.15c0.22-0.14,0.52-0.33,0.53-0.34l-0.18-0.74
		L19.31,10z"/>
	<path class="st0" d="M16,0C7.163,0,0,7.163,0,16s7.163,16,16,16s16-7.163,16-16S24.837,0,16,0z M22,22.5c0,0.28-0.23,0.5-0.5,0.5
		H19v-4.5c0-0.07-0.01-0.14-0.04-0.2c-0.03-0.06-0.06-0.11-0.11-0.16c-0.03-0.03-0.07-0.05-0.12-0.07C18.66,18.03,18.59,18,18.5,18
		h-2c-0.28,0-0.5,0.22-0.5,0.5V23h-5.5c-0.28,0-0.5-0.22-0.5-0.5v-6.05c0.53,0,1.04-0.15,1.5-0.45c0.91,0.6,2.08,0.6,3,0
		c0.91,0.6,2.08,0.6,3,0c0.91,0.6,2.08,0.6,3,0c0.46,0.3,0.98,0.45,1.5,0.45V22.5z M23.775,14.916l-0.665,0.443L23.11,15.36
		l-0.003,0.001l0.001,0C22.768,15.59,22.379,15.7,22,15.7c-0.39,0-0.77-0.11-1.11-0.34L20.5,15.1l-0.39,0.26
		c-0.34,0.23-0.73,0.34-1.11,0.34c-0.39,0-0.77-0.11-1.11-0.34L17.5,15.1l-0.39,0.26c-0.34,0.23-0.73,0.34-1.11,0.34
		c-0.39,0-0.77-0.11-1.11-0.34L14.5,15.1l-0.39,0.26c-0.34,0.23-0.73,0.34-1.11,0.34c-0.39,0-0.77-0.11-1.11-0.34L11.5,15.1
		l-0.39,0.26c-0.34,0.23-0.73,0.34-1.11,0.34c-0.39,0-0.773-0.11-1.113-0.341l-0.667-0.443c-0.198-0.132-0.273-0.392-0.191-0.606
		l0.42-1.05l1.58-3.95h0.01c0.02-0.05,0.05-0.1,0.09-0.15c0.01,0,0.01-0.01,0.01-0.01c0.03-0.02,0.05-0.04,0.08-0.05
		c0.02-0.01,0.03-0.02,0.04-0.03s0.03-0.02,0.04-0.03c0.02-0.01,0.03,0,0.05-0.01C10.39,9.02,10.44,9,10.49,9c0.01,0,0.01,0,0.01,0
		h11c0.05,0,0.1,0.01,0.15,0.03c0.01,0,0.01,0,0.02,0c0.01,0.01,0.02,0.01,0.02,0.01c0.03,0.01,0.06,0.04,0.09,0.06
		c0.02,0.01,0.05,0.03,0.07,0.05c0.01,0,0.01,0.01,0.02,0.02c0.04,0.04,0.07,0.09,0.09,0.14l1.58,3.95l0.42,1.05
		C24.045,14.525,23.975,14.783,23.775,14.916z"/>
</g>
</svg>
