<?xml version="1.0" encoding="utf-8"?>
<!-- Generator: Adobe Illustrator 21.0.0, SVG Export Plug-In . SVG Version: 6.00 Build 0)  -->
<svg version="1.1" id="icons" xmlns="http://www.w3.org/2000/svg" xmlns:xlink="http://www.w3.org/1999/xlink" x="0px" y="0px"
	 width="16px" height="16px" viewBox="0 0 16 16" style="enable-background:new 0 0 16 16;" xml:space="preserve">
<style type="text/css">
	.st0{fill:#5057FB;}
	.st1{fill:#C93789;}
	.st2{fill:#ED5C36;}
	.st3{fill:#AFB224;}
	.st4{fill:#15B2CC;}
</style>
<g id="convenience-store_3_">
	<path d="M15.894,6.805c0.016-0.021,0.031-0.042,0.044-0.065c0.019-0.033,0.032-0.067,0.042-0.103
		c0.007-0.025,0.013-0.049,0.016-0.075c0.005-0.037,0.004-0.073,0.001-0.11c-0.003-0.028-0.008-0.055-0.015-0.083
		c-0.005-0.018-0.003-0.037-0.01-0.055l-2.004-5c0-0.001-0.001-0.002-0.002-0.003c-0.02-0.05-0.053-0.093-0.087-0.133
		c-0.008-0.009-0.012-0.022-0.021-0.031c-0.009-0.009-0.023-0.014-0.033-0.023C13.736,1.048,13.625,1.001,13.506,1
		c-0.001,0-0.001,0-0.001,0H2.495C2.494,1,2.493,1,2.492,1c-0.065,0-0.129,0.013-0.188,0.038c-0.001,0.001-0.003,0-0.005,0.001
		C2.264,1.055,2.234,1.082,2.202,1.105C2.182,1.12,2.158,1.13,2.14,1.147C2.134,1.153,2.132,1.162,2.126,1.169
		C2.088,1.211,2.054,1.258,2.033,1.312c0,0.001-0.001,0.002-0.002,0.003l-2.002,5C0.023,6.329,0.025,6.345,0.021,6.36
		c-0.01,0.034-0.016,0.067-0.019,0.102c-0.002,0.031-0.003,0.06,0,0.091c0.003,0.032,0.01,0.063,0.02,0.094
		c0.01,0.031,0.021,0.059,0.036,0.088C0.073,6.762,0.09,6.786,0.11,6.81c0.022,0.027,0.045,0.05,0.072,0.072
		c0.013,0.01,0.02,0.024,0.033,0.034l0.669,0.445C1.221,7.586,1.614,7.698,2,7.698V14.5C2,14.776,2.224,15,2.5,15H13.5
		c0.277,0,0.5-0.224,0.5-0.5V7.698c0.386,0,0.778-0.112,1.115-0.337l0.669-0.445c0.012-0.008,0.019-0.021,0.03-0.031
		C15.844,6.861,15.87,6.835,15.894,6.805z M6.378,2L6.02,6.218L5.552,6.529c-0.338,0.225-0.772,0.225-1.11,0L4.067,6.28L5.139,2
		H6.378z M7.382,2h1.256l0.34,4.247L8.555,6.529c-0.338,0.225-0.772,0.225-1.11,0L7.022,6.248L7.382,2z M9.98,6.218L9.642,2h1.218
		l1.072,4.28l-0.375,0.25c-0.338,0.225-0.772,0.225-1.11,0L9.98,6.218z M1.439,6.529L1.108,6.309L2.833,2h1.273l-1.05,4.191
		L2.55,6.529C2.211,6.754,1.778,6.754,1.439,6.529z M9,10h2.002v4H9V10z M13.004,14h-1.006V9.51C11.998,9.506,12,9.503,12,9.5
		C12,9.224,11.776,9,11.5,9H8.502c0,0-0.001,0-0.001,0c0,0-0.001,0-0.001,0C8.224,9,8,9.224,8,9.5V14H2.995V7.413
		C3.031,7.392,3.07,7.384,3.105,7.361l0.391-0.26l0.391,0.26c0.337,0.225,0.724,0.337,1.11,0.337c0.386,0,0.773-0.112,1.11-0.337
		l0.391-0.26l0.391,0.26c0.337,0.225,0.724,0.337,1.11,0.337c0.386,0,0.773-0.112,1.11-0.337l0.391-0.26l0.391,0.26
		c0.337,0.225,0.724,0.337,1.11,0.337c0.386,0,0.773-0.112,1.11-0.337l0.391-0.26l0.391,0.26c0.034,0.023,0.074,0.031,0.109,0.052
		V14z M13.449,6.529l-0.507-0.338L11.893,2h1.273l1.726,4.308L14.56,6.529C14.221,6.754,13.787,6.754,13.449,6.529z"/>
	<path d="M6.5,9H4.5C4.224,9,4,9.224,4,9.5v2C4,11.776,4.224,12,4.5,12H6.5C6.776,12,7,11.776,7,11.5v-2C7,9.224,6.776,9,6.5,9z
		 M6,11H5v-1h1V11z"/>
</g>
</svg>
