<?xml version="1.0" encoding="utf-8"?>
<!-- Generator: Adobe Illustrator 21.0.0, SVG Export Plug-In . SVG Version: 6.00 Build 0)  -->
<svg version="1.1" id="icons" xmlns="http://www.w3.org/2000/svg" xmlns:xlink="http://www.w3.org/1999/xlink" x="0px" y="0px"
	 width="16px" height="16px" viewBox="0 0 16 16" style="enable-background:new 0 0 16 16;" xml:space="preserve">
<style type="text/css">
	.st0{fill:#5057FB;}
	.st1{fill:#C93789;}
	.st2{fill:#ED5C36;}
	.st3{fill:#AFB224;}
	.st4{fill:#15B2CC;}
</style>
<path id="convertible_3_" d="M15.94,8.539l-0.529-1.02c-0.06-0.13-0.18-0.22-0.319-0.25l-2.895-0.73l-1.906-1.44
	c-0.22-0.16-0.529-0.12-0.699,0.1c-0.17,0.22-0.12,0.53,0.1,0.7l0.798,0.6H3.493v-0.5c0-0.17-0.08-0.32-0.22-0.41
	c-0.14-0.1-0.309-0.12-0.459-0.05l-2.505,1C0.12,6.609,0,6.799,0,6.999v2.25c0,0.24,0.18,0.45,0.419,0.49l1.148,0.19
	c0.18,0.62,0.749,1.07,1.427,1.07c0.649,0,1.208-0.42,1.407-1h6.168c0.2,0.58,0.759,1,1.407,1s1.208-0.42,1.407-1h2.116
	c0.279,0,0.499-0.22,0.499-0.5v-0.73C16,8.689,15.98,8.609,15.94,8.539z M2.994,9.999c-0.27,0-0.499-0.22-0.499-0.5
	c0-0.24,0.18-0.44,0.399-0.49h0.01c0.03-0.01,0.06-0.01,0.09-0.01s0.06,0,0.09,0.01c0.01,0,0.01,0,0.01,0
	c0.23,0.05,0.399,0.25,0.399,0.49C3.493,9.779,3.274,9.999,2.994,9.999z M11.978,9.999c-0.27,0-0.499-0.22-0.499-0.5
	c0-0.27,0.22-0.49,0.479-0.5c0.01,0,0.01,0,0.02,0c0.01,0,0.01,0,0.02,0c0.269,0.01,0.479,0.23,0.479,0.5
	C12.477,9.779,12.257,9.999,11.978,9.999z M15.002,8.999h-1.617c-0.2-0.58-0.759-1-1.407-1s-1.208,0.42-1.407,1l-6.168,0.01
	c-0.19-0.59-0.749-1.01-1.407-1.01c-0.629,0-1.158,0.38-1.377,0.93l-0.619-0.1v-1.49l1.497-0.6v0.26c0,0.28,0.22,0.5,0.499,0.5
	h8.943l2.695,0.68l0.369,0.71V8.999z"/>
</svg>
