<?xml version="1.0" encoding="utf-8"?>
<!-- Generator: Adobe Illustrator 21.0.0, SVG Export Plug-In . SVG Version: 6.00 Build 0)  -->
<svg version="1.1" id="icons" xmlns="http://www.w3.org/2000/svg" xmlns:xlink="http://www.w3.org/1999/xlink" x="0px" y="0px"
	 width="32px" height="32px" viewBox="0 0 32 32" style="enable-background:new 0 0 32 32;" xml:space="preserve">
<style type="text/css">
	.st0{fill:#5057FB;}
	.st1{fill:#C93789;}
	.st2{fill:#ED5C36;}
	.st3{fill:#AFB224;}
	.st4{fill:#15B2CC;}
</style>
<path id="convertible_2_" class="st2" d="M16,0C7.16,0,0,7.16,0,16c0,8.84,7.16,16,16,16s16-7.16,16-16C32,7.16,24.84,0,16,0z
	 M10.99,19c-0.55,0-1-0.45-1-1s0.45-1,1-1s1,0.45,1,1S11.54,19,10.99,19z M19.99,19c-0.55,0-1-0.45-1-1s0.45-1,1-1s1,0.45,1,1
	S20.54,19,19.99,19z M24,17.5c0,0.28-0.22,0.5-0.5,0.5h-2.02c-0.01-0.83-0.67-1.49-1.5-1.49c-0.83,0-1.48,0.66-1.49,1.49H12.5
	c-0.01-0.83-0.67-1.49-1.5-1.49c-0.8,0-1.45,0.62-1.49,1.41l-1.09-0.18C8.18,17.7,8,17.49,8,17.25V15c0-0.2,0.12-0.39,0.31-0.46
	l2.51-1c0.15-0.07,0.32-0.05,0.46,0.05c0.03,0.02,0.06,0.04,0.08,0.08c0.05,0.04,0.08,0.09,0.1,0.15c0.03,0.05,0.04,0.12,0.04,0.18
	v0.5h6.99l-0.8-0.6c-0.22-0.17-0.27-0.48-0.1-0.7c0.17-0.22,0.48-0.26,0.7-0.1l1.91,1.44l2.89,0.73c0.14,0.03,0.26,0.12,0.32,0.25
	l0.53,1.02c0.04,0.07,0.06,0.15,0.06,0.23V17.5z"/>
</svg>
