<?xml version="1.0" encoding="utf-8"?>
<!-- Generator: Adobe Illustrator 21.0.0, SVG Export Plug-In . SVG Version: 6.00 Build 0)  -->
<svg version="1.1" id="icons" xmlns="http://www.w3.org/2000/svg" xmlns:xlink="http://www.w3.org/1999/xlink" x="0px" y="0px"
	 width="32px" height="32px" viewBox="0 0 32 32" style="enable-background:new 0 0 32 32;" xml:space="preserve">
<style type="text/css">
	.st0{fill:#5057FB;}
	.st1{fill:#C93789;}
	.st2{fill:#ED5C36;}
	.st3{fill:#AFB224;}
	.st4{fill:#15B2CC;}
</style>
<path id="coupe_2_" class="st3" d="M16,0C7.16,0,0,7.16,0,16c0,8.84,7.16,16,16,16s16-7.16,16-16C32,7.16,24.84,0,16,0z M11.5,19
	c-0.55,0-1-0.44-1-1c0-0.55,0.45-1,1-1s1,0.45,1,1C12.5,18.56,12.05,19,11.5,19z M20.48,19c-0.55,0-1-0.44-1-1c0-0.55,0.45-1,1-1
	c0.55,0,0.99,0.45,0.99,1C21.47,18.56,21.03,19,20.48,19z M24,17.5c0,0.28-0.22,0.5-0.5,0.5h-1.53c-0.01-0.83-0.66-1.49-1.49-1.49
	c-0.18,0-0.34,0.03-0.5,0.09c-0.58,0.2-1,0.75-1,1.4H13c-0.01-0.83-0.67-1.49-1.49-1.49c-0.44,0-0.84,0.19-1.11,0.5
	c-0.22,0.24-0.39,0.63-0.4,0.99l-1.58-0.26c-0.14-0.02-0.26-0.1-0.34-0.22c-0.03-0.04-0.05-0.09-0.06-0.14
	c-0.03-0.08-0.02-0.17,0-0.25l0.23-0.92V15c0-0.02,0.01-0.03,0.01-0.04c0.01-0.01,0.02-0.02,0.02-0.04v-0.01
	c0.01-0.04,0.02-0.09,0.04-0.13c0.02-0.05,0.05-0.09,0.09-0.13c0.05-0.05,0.1-0.09,0.16-0.11c0.03-0.01,0.06-0.02,0.08-0.03h0.01
	l1.11-0.22c0.02-0.01,0.05-0.03,0.07-0.04c0.07-0.05,0.16-0.11,0.27-0.18c0.1-0.06,0.2-0.13,0.31-0.21
	c0.13-0.08,0.26-0.17,0.38-0.25c0.1-0.06,0.19-0.12,0.26-0.16h0.01C11.31,13.3,11.99,13,12.46,13h2.92c0.18,0,0.82,0.04,1.18,0.25
	l2.3,1.02l0.53,0.09l1.81,0.32l1.84,0.33c0.04,0.01,0.08,0.01,0.11,0.03c0.02,0.01,0.04,0.02,0.06,0.03c0.02,0,0.04,0.01,0.05,0.03
	c0.03,0.02,0.06,0.04,0.08,0.07l0.03,0.03c0.01,0.02,0.03,0.04,0.04,0.07l0.53,1.03c0.04,0.07,0.06,0.15,0.06,0.23V17.5z"/>
</svg>
