<?xml version="1.0" encoding="utf-8"?>
<!-- Generator: Adobe Illustrator 21.0.0, SVG Export Plug-In . SVG Version: 6.00 Build 0)  -->
<svg version="1.1" id="icons" xmlns="http://www.w3.org/2000/svg" xmlns:xlink="http://www.w3.org/1999/xlink" x="0px" y="0px"
	 width="16px" height="16px" viewBox="0 0 16 16" style="enable-background:new 0 0 16 16;" xml:space="preserve">
<style type="text/css">
	.st0{fill:#5057FB;}
	.st1{fill:#C93789;}
	.st2{fill:#ED5C36;}
	.st3{fill:#AFB224;}
	.st4{fill:#15B2CC;}
</style>
<path id="coupe_3_" d="M13.884,10h1.617C15.78,10,16,9.78,16,9.5V8.52c0-0.08-0.02-0.16-0.06-0.23l-0.529-1.02
	c-0.07-0.14-0.2-0.24-0.349-0.26L10.86,6.27L8.564,5.25C8.195,5.04,7.556,5,7.356,5H4.462C3.992,5,3.314,5.3,3.064,5.45
	C2.775,5.61,2.046,6.11,1.797,6.28L0.649,6.51C0.409,6.56,0.25,6.76,0.25,7v1.19L0.02,9.13C-0.02,9.26,0,9.41,0.08,9.52
	c0.08,0.12,0.2,0.2,0.339,0.22l1.648,0.19C2.247,10.55,2.816,11,3.494,11c0.649,0,1.208-0.42,1.407-1h6.167
	c0.2,0.58,0.759,1,1.407,1C13.125,11,13.684,10.58,13.884,10z M1.238,8.38c0.01-0.05,0.01-0.09,0.01-0.13V7.41l0.848-0.18
	c0.07-0.01,0.13-0.03,0.18-0.07c0,0,0.958-0.66,1.288-0.85C3.823,6.16,4.292,6,4.462,6h2.895c0.25,0,0.639,0.07,0.769,0.14
	l2.386,1.07c0.04,0.02,0.08,0.03,0.12,0.04l4.012,0.7l0.359,0.69V9h-1.118c-0.2-0.58-0.759-1-1.407-1c-0.649,0-1.208,0.42-1.407,1
	L4.902,9.01C4.712,8.42,4.153,8,3.494,8C2.866,8,2.337,8.38,2.117,8.93L1.118,8.85L1.238,8.38z M2.995,9.5
	c0-0.24,0.17-0.44,0.399-0.49c0,0,0,0,0.01,0C3.434,9,3.464,9,3.494,9c0.03,0,0.06,0,0.09,0.01c0.01,0,0.01,0,0.01,0
	c0.23,0.05,0.399,0.25,0.399,0.49c0,0.28-0.22,0.5-0.499,0.5C3.215,10,2.995,9.78,2.995,9.5z M11.978,9.5
	c0-0.27,0.21-0.49,0.479-0.5c0.01,0,0.01,0,0.02,0c0.01,0,0.01,0,0.02,0c0.27,0.01,0.479,0.23,0.479,0.5c0,0.28-0.22,0.5-0.499,0.5
	C12.197,10,11.978,9.78,11.978,9.5z"/>
</svg>
