<?xml version="1.0" encoding="utf-8"?>
<!-- Generator: Adobe Illustrator 21.0.0, SVG Export Plug-In . SVG Version: 6.00 Build 0)  -->
<svg version="1.1" id="icons" xmlns="http://www.w3.org/2000/svg" xmlns:xlink="http://www.w3.org/1999/xlink" x="0px" y="0px"
	 width="16px" height="16px" viewBox="0 0 16 16" style="enable-background:new 0 0 16 16;" xml:space="preserve">
<style type="text/css">
	.st0{fill:#5057FB;}
	.st1{fill:#C93789;}
	.st2{fill:#ED5C36;}
	.st3{fill:#AFB224;}
	.st4{fill:#15B2CC;}
</style>
<g id="coupe">
	<path d="M3.498,8.997C2.949,8.997,2.5,9.448,2.5,9.999C2.5,10.559,2.949,11,3.498,11s0.998-0.441,0.998-1.001
		C4.496,9.448,4.047,8.997,3.498,8.997"/>
	<path d="M15.94,8.3l-0.53-1.03c-0.01-0.03-0.03-0.05-0.04-0.07l-0.03-0.03c-0.02-0.03-0.05-0.05-0.08-0.07
		c-0.01-0.02-0.03-0.03-0.05-0.03c-0.02-0.01-0.04-0.02-0.06-0.03c-0.03-0.02-0.07-0.02-0.11-0.03L13.2,6.68l-1.81-0.32l-0.53-0.09
		l-2.3-1.02C8.199,5.04,7.559,5,7.379,5h-2.92c-0.47,0-1.15,0.3-1.39,0.45h-0.01c-0.07,0.04-0.16,0.1-0.26,0.16
		c-0.12,0.08-0.25,0.17-0.38,0.25c-0.11,0.08-0.21,0.15-0.31,0.21c-0.11,0.07-0.2,0.13-0.27,0.18c-0.02,0.01-0.05,0.03-0.07,0.04
		l-1.11,0.22h-0.01c-0.02,0.01-0.05,0.02-0.08,0.03c-0.06,0.02-0.11,0.06-0.16,0.11c-0.04,0.04-0.07,0.08-0.09,0.13
		c-0.02,0.04-0.03,0.09-0.04,0.13v0.01c0,0.02-0.01,0.03-0.02,0.04c0,0.01-0.01,0.02-0.01,0.04v1.21l-0.23,0.92
		c-0.02,0.08-0.03,0.17,0,0.25c0.01,0.05,0.03,0.1,0.06,0.14c0.08,0.12,0.2,0.2,0.34,0.22L1.999,10c0.01-0.36,0.18-0.75,0.4-0.99
		c0.27-0.31,0.67-0.5,1.11-0.5c0.82,0,1.48,0.66,1.49,1.49h5.98c0-0.65,0.42-1.2,1-1.4c0.16-0.06,0.32-0.09,0.5-0.09
		c0.83,0,1.48,0.66,1.49,1.49h1.53c0.28,0,0.5-0.22,0.5-0.5V8.53C16,8.45,15.98,8.37,15.94,8.3"/>
	<path d="M12.477,8.997c-0.549,0-0.998,0.451-0.998,1.002c0,0.56,0.449,1.001,0.998,1.001c0.549,0,0.998-0.441,0.998-1.001
		C13.475,9.448,13.026,8.997,12.477,8.997"/>
</g>
</svg>
