<?xml version="1.0" encoding="utf-8"?>
<!-- Generator: Adobe Illustrator 21.0.0, SVG Export Plug-In . SVG Version: 6.00 Build 0)  -->
<svg version="1.1" id="icons" xmlns="http://www.w3.org/2000/svg" xmlns:xlink="http://www.w3.org/1999/xlink" x="0px" y="0px"
	 width="32px" height="32px" viewBox="0 0 32 32" style="enable-background:new 0 0 32 32;" xml:space="preserve">
<style type="text/css">
	.st0{fill:none;}
	.st1{fill:#5057FB;}
	.st2{font-family:'OpenSans';}
	.st3{font-size:4px;}
	.st4{fill:#C93789;}
	.st5{fill:#ED5C36;}
	.st6{fill:#AFB224;}
	.st7{fill:#15B2CC;}
</style>
<g>
	<rect x="-8" y="-10.999" class="st0" width="48" height="11"/>
	<text transform="matrix(1.0104 0 0 1 7.959 -7.9585)" class="st1 st2 st3">Location</text>
</g>
<g id="credit-card_1_">
	<path class="st6" d="M16,0C7.163,0,0,7.163,0,16s7.163,16,16,16s16-7.163,16-16S24.837,0,16,0z M24,20.2c0,0.992-0.808,1.8-1.8,1.8
		H9.8C8.808,22,8,21.192,8,20.2V14h16V20.2z M24,13H8v-1.2C8,10.808,8.808,10,9.8,10h12.4c0.992,0,1.8,0.808,1.8,1.8V13z"/>
	<path class="st6" d="M17,20c0.6,0,1.133-0.271,1.5-0.691C18.867,19.729,19.4,20,20,20c1.103,0,2-0.897,2-2s-0.897-2-2-2
		c-0.6,0-1.133,0.271-1.5,0.691C18.133,16.271,17.6,16,17,16c-1.103,0-2,0.897-2,2S15.897,20,17,20z M20,17c0.552,0,1,0.448,1,1
		c0,0.552-0.448,1-1,1s-1-0.448-1-1C19,17.448,19.448,17,20,17z M17,17c0.552,0,1,0.448,1,1c0,0.552-0.448,1-1,1s-1-0.448-1-1
		C16,17.448,16.448,17,17,17z"/>
</g>
</svg>
