<?xml version="1.0" encoding="utf-8"?>
<!-- Generator: Adobe Illustrator 21.0.0, SVG Export Plug-In . SVG Version: 6.00 Build 0)  -->
<svg version="1.1" id="icons" xmlns="http://www.w3.org/2000/svg" xmlns:xlink="http://www.w3.org/1999/xlink" x="0px" y="0px"
	 width="16px" height="16px" viewBox="0 0 16 16" style="enable-background:new 0 0 16 16;" xml:space="preserve">
<style type="text/css">
	.st0{fill:#5057FB;}
	.st1{fill:#C93789;}
	.st2{fill:#ED5C36;}
	.st3{fill:#AFB224;}
	.st4{fill:#15B2CC;}
</style>
<g id="drop-off-date_2_">
	<path d="M2.5,7C2.776,7,3,7.224,3,7.5l0,0C3,7.776,2.776,8,2.5,8S2,7.776,2,7.5l0,0C2,7.224,2.224,7,2.5,7z"/>
	<path d="M4.5,7C4.776,7,5,7.224,5,7.5l0,0C5,7.776,4.776,8,4.5,8S4,7.776,4,7.5l0,0C4,7.224,4.224,7,4.5,7z"/>
	<path d="M6.5,7C6.776,7,7,7.224,7,7.5l0,0C7,7.776,6.776,8,6.5,8S6,7.776,6,7.5l0,0C6,7.224,6.224,7,6.5,7z"/>
	<path d="M2.5,9C2.776,9,3,9.224,3,9.5l0,0C3,9.776,2.776,10,2.5,10S2,9.776,2,9.5l0,0C2,9.224,2.224,9,2.5,9z"/>
	<path d="M2.5,11C2.776,11,3,11.224,3,11.5l0,0C3,11.776,2.776,12,2.5,12S2,11.776,2,11.5l0,0C2,11.224,2.224,11,2.5,11z"/>
	<path d="M4.5,9C4.776,9,5,9.224,5,9.5l0,0C5,9.776,4.776,10,4.5,10S4,9.776,4,9.5l0,0C4,9.224,4.224,9,4.5,9z"/>
	<path d="M16,11.498l0-0.002c-0.002-2.312-1.754-4.195-4-4.446V4.003c0-1.103-0.894-2-1.997-2H10V0.5C10,0.224,9.776,0,9.5,0
		S9,0.224,9,0.5v1.503H3V0.5C3,0.224,2.776,0,2.5,0S2,0.224,2,0.5v1.503c-1.103,0-2,0.897-2,2v8C0,13.106,0.897,14,2,14h5.761
		c0.808,1.204,2.18,2,3.739,2c2.485,0,4.5-2.015,4.5-4.5V11.498C16,11.499,16,11.499,16,11.498z M2,3v0.497
		c0,0.276,0.224,0.5,0.5,0.5S3,3.773,3,3.497V3h5.997v0.497c0,0.276,0.224,0.5,0.5,0.5s0.5-0.224,0.5-0.5V3H10
		c0.552,0,1,0.451,1,1.003v1H1v-1C1,3.451,1.448,3,2,3z M2,13.003c-0.552,0-1-0.448-1-1V6h10v1.05C8.753,7.302,7,9.186,7,11.5
		c0,0.53,0.108,1.031,0.276,1.503l0,0H2z M11.5,15C9.567,15,8,13.433,8,11.5S9.567,8,11.5,8c1.761,0,3.204,1.307,3.449,3l-3.239,0
		l0.143-0.142c0.195-0.195,0.195-0.512,0-0.707c-0.195-0.195-0.512-0.195-0.707,0l-1,0.991c-0.195,0.195-0.195,0.512,0,0.707
		l1,1.004c0.195,0.195,0.512,0.195,0.707,0c0.195-0.195,0.195-0.512,0-0.707l-0.15-0.151l3.246,0C14.706,13.69,13.262,15,11.5,15z"
		/>
</g>
</svg>
