<?xml version="1.0" encoding="utf-8"?>
<!-- Generator: Adobe Illustrator 21.0.0, SVG Export Plug-In . SVG Version: 6.00 Build 0)  -->
<svg version="1.1" id="icons" xmlns="http://www.w3.org/2000/svg" xmlns:xlink="http://www.w3.org/1999/xlink" x="0px" y="0px"
	 width="16px" height="16px" viewBox="0 0 16 16" style="enable-background:new 0 0 16 16;" xml:space="preserve">
<style type="text/css">
	.st0{fill:#5057FB;}
	.st1{fill:#C93789;}
	.st2{fill:#ED5C36;}
	.st3{fill:#AFB224;}
	.st4{fill:#15B2CC;}
</style>
<g id="drop-off-date_4_">
	<path class="st2" d="M9.997,2.031V0.5c0-0.276-0.224-0.5-0.5-0.5s-0.5,0.224-0.5,0.5v1.503H3V0.5C3,0.224,2.776,0,2.5,0
		S2,0.224,2,0.5v1.531C0.975,2.167,0.166,2.977,0.03,4.003H11.97C11.834,2.975,11.023,2.165,9.997,2.031z"/>
	<path class="st2" d="M12,8.05V5.003H0v6.7c0,1.268,1.032,2.3,2.3,2.3h5.976C8.108,13.531,8,13.03,8,12.5
		C8,10.186,9.753,8.302,12,8.05z M3,12c-0.553,0-1-0.447-1-1s0.447-1,1-1s1,0.447,1,1S3.553,12,3,12z M2.999,9
		C2.447,9,2,8.553,2,8.001s0.447-0.999,0.999-0.999S3.997,7.45,3.997,8.001S3.55,9,2.999,9z M6,9C5.447,9,5,8.553,5,8s0.447-1,1-1
		s1,0.447,1,1S6.553,9,6,9z"/>
	<path class="st2" d="M12.753,12.996l0.15,0.151c0.195,0.195,0.195,0.512,0,0.707c-0.195,0.195-0.512,0.195-0.707,0l-1-1.004
		c-0.195-0.195-0.195-0.512,0-0.707l1-0.995c0.195-0.195,0.512-0.195,0.707,0c0.195,0.195,0.195,0.512,0,0.707l-0.143,0.142l3.238,0
		C15.753,10.304,14.31,9,12.55,9c-1.933,0-3.5,1.567-3.5,3.5s1.567,3.5,3.5,3.5c1.763,0,3.208-1.308,3.45-3.004L12.753,12.996z"/>
</g>
</svg>
