<?xml version="1.0" encoding="utf-8"?>
<!-- Generator: Adobe Illustrator 21.0.0, SVG Export Plug-In . SVG Version: 6.00 Build 0)  -->
<svg version="1.1" id="icons" xmlns="http://www.w3.org/2000/svg" xmlns:xlink="http://www.w3.org/1999/xlink" x="0px" y="0px"
	 width="16px" height="16px" viewBox="0 0 16 16" style="enable-background:new 0 0 16 16;" xml:space="preserve">
<style type="text/css">
	.st0{fill:#5057FB;}
	.st1{fill:#C93789;}
	.st2{fill:#ED5C36;}
	.st3{fill:#AFB224;}
	.st4{fill:#15B2CC;}
</style>
<g id="eco-car">
	<path d="M11.58,5.147c-0.01-0.26-0.21-0.46-0.47-0.48c-0.06,0-1.6-0.09-2.53,1.01c-0.08,0.09-0.14,0.19-0.2,0.29
		c-0.18-0.54-0.43-1.08-0.81-1.541c-1.32-1.551-3.51-1.431-3.6-1.421c-0.25,0.01-0.45,0.22-0.47,0.47c0,0.11-0.1,2.581,1.18,4.102
		C5.8,8.888,7.54,9.008,8.1,9.008h0.24c0.3,0,1.12-0.05,1.84-0.52c0.2-0.13,0.4-0.29,0.57-0.5c0.06-0.07,0.11-0.14,0.17-0.22
		C11.64,6.718,11.58,5.217,11.58,5.147 M5.44,6.928c-0.72-0.86-0.89-2.191-0.93-2.911c0.6,0.05,1.62,0.27,2.29,1.06
		c0.73,0.85,0.9,2.191,0.94,2.911C7.14,7.928,6.12,7.718,5.44,6.928 M9.34,6.327c0.34-0.41,0.85-0.56,1.22-0.62
		c-0.05,0.5-0.19,1.19-0.57,1.641c-0.34,0.4-0.85,0.56-1.22,0.62C8.81,7.498,8.94,6.788,9.34,6.327"/>
	<path d="M15.86,10.149l-0.71-0.73c-0.06-0.07-0.14-0.12-0.23-0.14l-2.7-0.72l-0.87-0.53c-0.06,0.1-0.14,0.2-0.22,0.3
		c-0.15,0.17-0.31,0.32-0.47,0.45c-0.89,0.68-1.97,0.74-2.32,0.74H8.1c-0.57,0-2.53-0.12-3.8-1.611c-0.22-0.26-0.4-0.54-0.55-0.83
		c-0.02,0.01-0.03,0.02-0.05,0.03l-0.25,0.18l-1.62,1.22H0.5c-0.04,0-0.08,0.01-0.12,0.01H0.37c-0.08,0.03-0.15,0.06-0.21,0.11
		c-0.03,0.03-0.06,0.06-0.08,0.09C0.03,8.798,0,8.898,0,8.998v2.251c0,0.23,0.16,0.43,0.38,0.48l1,0.25
		c0.04,0.02,0.08,0.02,0.12,0.02H2c0.01-0.83,0.67-1.491,1.5-1.491s1.49,0.66,1.5,1.491h6c0.01-0.83,0.67-1.491,1.5-1.491
		s1.49,0.66,1.5,1.491h1.5c0.28,0,0.5-0.22,0.5-0.5v-1C16,10.369,15.95,10.249,15.86,10.149"/>
	<path d="M4.5,12c0,0.552-0.448,1-1,1s-1-0.448-1-1c0-0.552,0.448-1,1-1S4.5,11.447,4.5,12"/>
	<path d="M13.5,12c0,0.552-0.448,1-1,1c-0.552,0-1-0.448-1-1c0-0.552,0.448-1,1-1C13.052,10.999,13.5,11.447,13.5,12"/>
</g>
</svg>
