<?xml version="1.0" encoding="utf-8"?>
<!-- Generator: Adobe Illustrator 21.0.0, SVG Export Plug-In . SVG Version: 6.00 Build 0)  -->
<svg version="1.1" id="icons" xmlns="http://www.w3.org/2000/svg" xmlns:xlink="http://www.w3.org/1999/xlink" x="0px" y="0px"
	 width="16px" height="16px" viewBox="0 0 16 16" style="enable-background:new 0 0 16 16;" xml:space="preserve">
<style type="text/css">
	.st0{fill:#5057FB;}
	.st1{fill:#C93789;}
	.st2{fill:#ED5C36;}
	.st3{fill:#AFB224;}
	.st4{fill:#15B2CC;}
</style>
<path id="eco-car_3_" d="M15.86,10.15l-0.71-0.74c-0.06-0.07-0.14-0.12-0.23-0.14l-2.7-0.72l-2.057-1.237
	c0.451-0.987,0.418-2.106,0.415-2.165c-0.012-0.254-0.213-0.459-0.467-0.476c-0.062-0.001-1.602-0.09-2.535,1.008v0
	C7.5,5.77,7.441,5.869,7.379,5.965C7.203,5.427,6.952,4.885,6.566,4.43c-1.32-1.554-3.503-1.434-3.595-1.425
	C2.716,3.022,2.515,3.226,2.503,3.481C2.499,3.579,2.425,5.758,3.475,7.277L1.83,8.5H0.5C0.22,8.5,0,8.72,0,9v2.25
	c0,0.23,0.16,0.43,0.38,0.48l1,0.25C1.42,12,1.46,12,1.5,12h1.09c0.2,0.58,0.76,1,1.41,1c0.65,0,1.21-0.42,1.41-1h5.18
	c0.2,0.58,0.76,1,1.41,1c0.65,0,1.21-0.42,1.41-1h2.09c0.28,0,0.5-0.22,0.5-0.5v-1C16,10.37,15.95,10.25,15.86,10.15z M8.338,6.328
	C8.684,5.922,9.19,5.765,9.562,5.705C9.514,6.211,9.367,6.904,8.99,7.347C8.646,7.754,8.14,7.91,7.769,7.97
	C7.812,7.495,7.944,6.793,8.338,6.328z M5.803,5.078c0.727,0.856,0.898,2.193,0.935,2.91C6.142,7.933,5.115,7.72,4.445,6.929
	C3.718,6.073,3.547,4.736,3.51,4.019C4.107,4.074,5.133,4.288,5.803,5.078z M4,12c-0.28,0-0.5-0.22-0.5-0.5S3.72,11,4,11
	c0.28,0,0.5,0.22,0.5,0.5S4.28,12,4,12z M12,12c-0.27,0-0.5-0.22-0.5-0.5S11.73,11,12,11c0.28,0,0.5,0.22,0.5,0.5S12.28,12,12,12z
	 M15,11h-1.59c-0.2-0.58-0.76-1-1.41-1c-0.65,0-1.21,0.42-1.41,1H5.41c-0.2-0.58-0.76-1-1.41-1c-0.65,0-1.21,0.42-1.41,1H1.56
	L1,10.86V9.5h1c0.11,0,0.21-0.03,0.3-0.1l1.846-1.37C5.233,8.919,6.612,9.006,7.1,9.006c0.064,0,0.105-0.001,0.136-0.003
	c0.017,0.001,0.045,0.003,0.105,0.003c0.37,0,1.473-0.079,2.262-0.864L11.77,9.45c0.04,0.02,0.08,0.04,0.13,0.05l2.62,0.7L15,10.7
	V11z"/>
</svg>
