<?xml version="1.0" encoding="utf-8"?>
<!-- Generator: Adobe Illustrator 21.0.0, SVG Export Plug-In . SVG Version: 6.00 Build 0)  -->
<svg version="1.1" id="icons" xmlns="http://www.w3.org/2000/svg" xmlns:xlink="http://www.w3.org/1999/xlink" x="0px" y="0px"
	 width="32px" height="32px" viewBox="0 0 32 32" style="enable-background:new 0 0 32 32;" xml:space="preserve">
<style type="text/css">
	.st0{fill:#5057FB;}
	.st1{fill:#C93789;}
	.st2{fill:#ED5C36;}
	.st3{fill:#AFB224;}
	.st4{fill:#15B2CC;}
</style>
<g id="eco-car_2_">
	<path class="st4" d="M14.8,13.08c-0.67-0.79-1.69-1.01-2.29-1.06c0.04,0.72,0.21,2.05,0.93,2.91c0.68,0.79,1.7,1,2.3,1.06
		C15.7,15.27,15.53,13.93,14.8,13.08z M17.34,14.33c-0.4,0.46-0.53,1.17-0.57,1.64c0.37-0.06,0.88-0.22,1.22-0.62
		c0.38-0.45,0.52-1.14,0.57-1.64C18.19,13.77,17.68,13.92,17.34,14.33z M17.34,14.33c-0.4,0.46-0.53,1.17-0.57,1.64
		c0.37-0.06,0.88-0.22,1.22-0.62c0.38-0.45,0.52-1.14,0.57-1.64C18.19,13.77,17.68,13.92,17.34,14.33z M12.51,12.02
		c0.04,0.72,0.21,2.05,0.93,2.91c0.68,0.79,1.7,1,2.3,1.06c-0.04-0.72-0.21-2.06-0.94-2.91C14.13,12.29,13.11,12.07,12.51,12.02z
		 M16,0C7.16,0,0,7.16,0,16c0,8.84,7.16,16,16,16s16-7.16,16-16C32,7.16,24.84,0,16,0z M11.5,11.48c0.02-0.25,0.22-0.46,0.47-0.47
		c0.09-0.01,2.28-0.13,3.6,1.42c0.38,0.46,0.63,1,0.81,1.54c0.06-0.1,0.12-0.2,0.2-0.29c0.93-1.1,2.47-1.01,2.53-1.01
		c0.26,0.02,0.46,0.22,0.47,0.48c0,0.07,0.06,1.57-0.66,2.62c-0.06,0.08-0.11,0.15-0.17,0.22c-0.17,0.21-0.37,0.37-0.57,0.5
		c-0.72,0.47-1.54,0.52-1.84,0.52H16.1c-0.56,0-2.3-0.12-3.42-1.43C11.4,14.06,11.5,11.59,11.5,11.48z M11.5,21c-0.55,0-1-0.45-1-1
		s0.45-1,1-1s1,0.45,1,1S12.05,21,11.5,21z M20.5,21c-0.55,0-1-0.45-1-1s0.45-1,1-1s1,0.45,1,1S21.05,21,20.5,21z M24,19.5
		c0,0.28-0.22,0.5-0.5,0.5H22c-0.01-0.83-0.67-1.49-1.5-1.49S19.01,19.17,19,20h-6c-0.01-0.83-0.67-1.49-1.5-1.49S10.01,19.17,10,20
		H9.5c-0.04,0-0.08,0-0.12-0.02l-1-0.25C8.16,19.68,8,19.48,8,19.25V17c0-0.1,0.03-0.2,0.08-0.28c0.02-0.03,0.05-0.06,0.08-0.09
		c0.06-0.05,0.13-0.08,0.21-0.11h0.01c0.04,0,0.08-0.01,0.12-0.01h1.33l1.62-1.22l0.25-0.18c0.02-0.01,0.03-0.02,0.05-0.03
		c0.15,0.29,0.33,0.57,0.55,0.83c1.27,1.49,3.23,1.61,3.8,1.61h0.24c0.35,0,1.43-0.06,2.32-0.74c0.16-0.13,0.32-0.28,0.47-0.45
		c0.08-0.1,0.16-0.2,0.22-0.3l0.87,0.53l2.7,0.72c0.09,0.02,0.17,0.07,0.23,0.14l0.71,0.73c0.09,0.1,0.14,0.22,0.14,0.35V19.5z
		 M18.56,13.71c-0.37,0.06-0.88,0.21-1.22,0.62c-0.4,0.46-0.53,1.17-0.57,1.64c0.37-0.06,0.88-0.22,1.22-0.62
		C18.37,14.9,18.51,14.21,18.56,13.71z M15.74,15.99c-0.04-0.72-0.21-2.06-0.94-2.91c-0.67-0.79-1.69-1.01-2.29-1.06
		c0.04,0.72,0.21,2.05,0.93,2.91C14.12,15.72,15.14,15.93,15.74,15.99z M14.8,13.08c-0.67-0.79-1.69-1.01-2.29-1.06
		c0.04,0.72,0.21,2.05,0.93,2.91c0.68,0.79,1.7,1,2.3,1.06C15.7,15.27,15.53,13.93,14.8,13.08z M17.34,14.33
		c-0.4,0.46-0.53,1.17-0.57,1.64c0.37-0.06,0.88-0.22,1.22-0.62c0.38-0.45,0.52-1.14,0.57-1.64C18.19,13.77,17.68,13.92,17.34,14.33
		z M17.34,14.33c-0.4,0.46-0.53,1.17-0.57,1.64c0.37-0.06,0.88-0.22,1.22-0.62c0.38-0.45,0.52-1.14,0.57-1.64
		C18.19,13.77,17.68,13.92,17.34,14.33z M14.8,13.08c-0.67-0.79-1.69-1.01-2.29-1.06c0.04,0.72,0.21,2.05,0.93,2.91
		c0.68,0.79,1.7,1,2.3,1.06C15.7,15.27,15.53,13.93,14.8,13.08z"/>
</g>
</svg>
