<?xml version="1.0" encoding="utf-8"?>
<!-- Generator: Adobe Illustrator 21.0.0, SVG Export Plug-In . SVG Version: 6.00 Build 0)  -->
<svg version="1.1" id="icons" xmlns="http://www.w3.org/2000/svg" xmlns:xlink="http://www.w3.org/1999/xlink" x="0px" y="0px"
	 width="16px" height="16px" viewBox="0 0 16 16" style="enable-background:new 0 0 16 16;" xml:space="preserve">
<style type="text/css">
	.st0{fill:#5057FB;}
	.st1{fill:#C93789;}
	.st2{fill:#ED5C36;}
	.st3{fill:#AFB224;}
	.st4{fill:#15B2CC;}
</style>
<g id="extras_2_">
	<path d="M8,4l0.927,1.975L11,6.292L9.5,7.829L9.854,10L8,8.975L6.146,10L6.5,7.829L5,6.292l2.073-0.317L8,4 M8,3
		C7.612,3,7.26,3.224,7.095,3.575l-0.7,1.492L4.849,5.303C4.478,5.36,4.171,5.619,4.052,5.974S4.023,6.722,4.284,6.99l1.148,1.176
		L5.159,9.839c-0.062,0.378,0.098,0.758,0.411,0.979C5.742,10.939,5.944,11,6.146,11c0.166,0,0.333-0.041,0.484-0.125L8,10.118
		l1.37,0.757C9.521,10.959,9.688,11,9.854,11c0.202,0,0.404-0.061,0.576-0.182c0.313-0.221,0.473-0.601,0.411-0.979l-0.273-1.673
		l1.148-1.176c0.262-0.268,0.352-0.66,0.233-1.016s-0.427-0.615-0.797-0.671L9.606,5.067l-0.7-1.492C8.741,3.224,8.388,3,8,3L8,3z"
		/>
	<path d="M8,1l5,1.75v5.828c0,1.297-0.549,2.527-1.497,3.357L8,15l-3.503-3.065C3.549,11.105,3,9.875,3,8.578V2.75L8,1 M8,0
		C7.888,0,7.777,0.019,7.67,0.056l-5,1.75C2.269,1.947,2,2.325,2,2.75v5.828c0,1.589,0.67,3.087,1.839,4.11l3.503,3.065
		C7.53,15.918,7.765,16,8,16s0.47-0.082,0.659-0.247l3.503-3.065C13.33,11.665,14,10.167,14,8.578V2.75
		c0-0.425-0.269-0.803-0.67-0.944l-5-1.75C8.223,0.019,8.112,0,8,0L8,0z"/>
</g>
</svg>
