<?xml version="1.0" encoding="utf-8"?>
<!-- Generator: Adobe Illustrator 21.0.0, SVG Export Plug-In . SVG Version: 6.00 Build 0)  -->
<svg version="1.1" id="icons" xmlns="http://www.w3.org/2000/svg" xmlns:xlink="http://www.w3.org/1999/xlink" x="0px" y="0px"
	 width="32px" height="32px" viewBox="0 0 32 32" style="enable-background:new 0 0 32 32;" xml:space="preserve">
<style type="text/css">
	.st0{fill:none;}
	.st1{fill:#ED5C36;}
	.st2{font-family:'OpenSans';}
	.st3{font-size:4px;}
	.st4{fill:#5057FB;}
	.st5{fill:#C93789;}
	.st6{fill:#AFB224;}
	.st7{fill:#15B2CC;}
</style>
<g id="extras_1_">
	<path class="st7" d="M16,0C7.163,0,0,7.163,0,16s7.163,16,16,16s16-7.163,16-16S24.837,0,16,0z M22,16.578
		c0,1.589-0.67,3.087-1.839,4.11l-3.503,3.065C16.47,23.918,16.235,24,16,24s-0.47-0.082-0.659-0.247l-3.502-3.065
		C10.67,19.665,10,18.167,10,16.578V10.75c0-0.425,0.269-0.803,0.67-0.944l5-1.75C15.777,8.019,15.888,8,16,8
		s0.223,0.019,0.33,0.056l5,1.75C21.731,9.947,22,10.325,22,10.75V16.578z"/>
	<polygon class="st7" points="16.927,13.975 16,12 15.073,13.975 13,14.292 14.5,15.829 14.146,18 16,16.975 17.854,18 17.5,15.829 
		19,14.292 	"/>
</g>
</svg>
