<?xml version="1.0" encoding="utf-8"?>
<!-- Generator: Adobe Illustrator 21.0.0, SVG Export Plug-In . SVG Version: 6.00 Build 0)  -->
<svg version="1.1" id="icons" xmlns="http://www.w3.org/2000/svg" xmlns:xlink="http://www.w3.org/1999/xlink" x="0px" y="0px"
	 width="16px" height="16px" viewBox="0 0 16 16" style="enable-background:new 0 0 16 16;" xml:space="preserve">
<style type="text/css">
	.st0{fill:#5057FB;}
	.st1{fill:#C93789;}
	.st2{fill:#ED5C36;}
	.st3{fill:#AFB224;}
	.st4{fill:#15B2CC;}
</style>
<path id="extras_4_" class="st4" d="M13.33,1.806l-5-1.75C8.223,0.019,8.112,0,8,0S7.777,0.019,7.67,0.056l-5,1.75
	C2.269,1.947,2,2.325,2,2.75v5.828c0,1.589,0.67,3.087,1.839,4.11l3.502,3.065C7.53,15.918,7.765,16,8,16s0.47-0.082,0.659-0.247
	l3.503-3.065C13.33,11.665,14,10.167,14,8.578V2.75C14,2.325,13.731,1.947,13.33,1.806z M9.854,10L8,8.975L6.146,10L6.5,7.829
	L5,6.292l2.073-0.317L8,4l0.927,1.975L11,6.292L9.5,7.829L9.854,10z"/>
</svg>
