<?xml version="1.0" encoding="utf-8"?>
<!-- Generator: Adobe Illustrator 21.0.0, SVG Export Plug-In . SVG Version: 6.00 Build 0)  -->
<svg version="1.1" id="icons" xmlns="http://www.w3.org/2000/svg" xmlns:xlink="http://www.w3.org/1999/xlink" x="0px" y="0px"
	 width="16px" height="15.998px" viewBox="0 0 16 15.998" style="enable-background:new 0 0 16 15.998;" xml:space="preserve">
<style type="text/css">
	.st0{fill:#5057FB;}
	.st1{fill:#C93789;}
	.st2{fill:#ED5C36;}
	.st3{fill:#AFB224;}
	.st4{fill:#15B2CC;}
</style>
<g id="fm-radio_1_">
	<path d="M5.502,13.929c-1.93,0-3.5-1.57-3.5-3.5s1.57-3.5,3.5-3.5s3.5,1.57,3.5,3.5S7.432,13.929,5.502,13.929z M5.502,7.929
		c-1.379,0-2.5,1.122-2.5,2.5c0,1.379,1.121,2.5,2.5,2.5s2.5-1.121,2.5-2.5C8.002,9.051,6.881,7.929,5.502,7.929z"/>
	<path d="M12.502,13.929c-0.827,0-1.5-0.673-1.5-1.5s0.673-1.5,1.5-1.5s1.5,0.673,1.5,1.5S13.329,13.929,12.502,13.929z
		 M12.502,11.929c-0.275,0-0.5,0.225-0.5,0.5s0.225,0.5,0.5,0.5s0.5-0.225,0.5-0.5S12.777,11.929,12.502,11.929z"/>
	<path d="M13.502,8.999h-2c-0.276,0-0.5-0.224-0.5-0.5s0.224-0.5,0.5-0.5h2c0.276,0,0.5,0.224,0.5,0.5S13.778,8.999,13.502,8.999z"
		/>
	<path d="M14,4.998V0.5C14,0.224,13.776,0,13.5,0S13,0.224,13,0.5v4.498H2c-1.103,0-2,0.897-2,2v7c0,1.103,0.897,2,2,2h12
		c1.103,0,2-0.897,2-2v-7C16,5.895,15.103,4.998,14,4.998z M15,13.998c0,0.552-0.448,1-1,1H2c-0.552,0-1-0.448-1-1v-7
		c0-0.552,0.448-1,1-1h12c0.552,0,1,0.448,1,1V13.998z"/>
</g>
</svg>
