<?xml version="1.0" encoding="utf-8"?>
<!-- Generator: Adobe Illustrator 21.0.0, SVG Export Plug-In . SVG Version: 6.00 Build 0)  -->
<svg version="1.1" id="icons" xmlns="http://www.w3.org/2000/svg" xmlns:xlink="http://www.w3.org/1999/xlink" x="0px" y="0px"
	 width="32px" height="32px" viewBox="0 0 32 32" style="enable-background:new 0 0 32 32;" xml:space="preserve">
<style type="text/css">
	.st0{fill:none;}
	.st1{fill:#15B2CC;}
	.st2{font-family:'OpenSans';}
	.st3{font-size:4px;}
	.st4{fill:#5057FB;}
	.st5{fill:#C93789;}
	.st6{fill:#ED5C36;}
	.st7{fill:#AFB224;}
</style>
<rect x="-8" y="-11" class="st0" width="48" height="11"/>
<text transform="matrix(1.0103 0 0 1 1.1152 -7.96)" class="st1 st2 st3">Car Dimensions</text>
<g id="fm-radio">
	<path class="st6" d="M13.502,14.93c-1.93,0-3.5,1.57-3.5,3.5s1.57,3.5,3.5,3.5s3.5-1.57,3.5-3.5S15.432,14.93,13.502,14.93z
		 M13.502,20.93c-1.379,0-2.5-1.121-2.5-2.5c0-1.378,1.121-2.5,2.5-2.5s2.5,1.122,2.5,2.5C16.002,19.809,14.881,20.93,13.502,20.93z
		"/>
	<path class="st6" d="M21.502,16h-2c-0.276,0-0.5,0.224-0.5,0.5s0.224,0.5,0.5,0.5h2c0.276,0,0.5-0.224,0.5-0.5S21.778,16,21.502,16
		z"/>
	<circle class="st6" cx="20.502" cy="20.43" r="1.5"/>
	<path class="st6" d="M16,0C7.163,0,0,7.163,0,16s7.163,16,16,16s16-7.163,16-16S24.837,0,16,0z M24,22.199
		c0,0.992-0.808,1.8-1.8,1.8H9.8c-0.992,0-1.8-0.808-1.8-1.8v-7.4c0-0.992,0.808-1.8,1.8-1.8H21V8.501c0-0.276,0.224-0.5,0.5-0.5
		s0.5,0.224,0.5,0.5v4.498h0.2c0.992,0,1.8,0.808,1.8,1.8V22.199z"/>
</g>
</svg>
