<?xml version="1.0" encoding="utf-8"?>
<!-- Generator: Adobe Illustrator 21.0.0, SVG Export Plug-In . SVG Version: 6.00 Build 0)  -->
<svg version="1.1" id="icons" xmlns="http://www.w3.org/2000/svg" xmlns:xlink="http://www.w3.org/1999/xlink" x="0px" y="0px"
	 width="16px" height="15.998px" viewBox="0 0 16 15.998" style="enable-background:new 0 0 16 15.998;" xml:space="preserve">
<style type="text/css">
	.st0{fill:#5057FB;}
	.st1{fill:#C93789;}
	.st2{fill:#ED5C36;}
	.st3{fill:#AFB224;}
	.st4{fill:#15B2CC;}
</style>
<g id="fm-radio_3_">
	<circle class="st2" cx="5.502" cy="10.429" r="2.5"/>
	<path class="st2" d="M14.2,4.998H14V0.5C14,0.224,13.776,0,13.5,0S13,0.224,13,0.5v4.498H1.8c-0.992,0-1.8,0.808-1.8,1.8v7.4
		c0,0.992,0.808,1.8,1.8,1.8h12.4c0.992,0,1.8-0.808,1.8-1.8v-7.4C16,5.806,15.192,4.998,14.2,4.998z M5.502,13.929
		c-1.93,0-3.5-1.57-3.5-3.5s1.57-3.5,3.5-3.5s3.5,1.57,3.5,3.5S7.432,13.929,5.502,13.929z M12.502,13.929
		c-0.827,0-1.5-0.673-1.5-1.5s0.673-1.5,1.5-1.5s1.5,0.673,1.5,1.5S13.329,13.929,12.502,13.929z M13.502,8.998h-2
		c-0.276,0-0.5-0.224-0.5-0.5s0.224-0.5,0.5-0.5h2c0.276,0,0.5,0.224,0.5,0.5S13.778,8.998,13.502,8.998z"/>
</g>
</svg>
