<?xml version="1.0" encoding="utf-8"?>
<!-- Generator: Adobe Illustrator 21.0.0, SVG Export Plug-In . SVG Version: 6.00 Build 0)  -->
<svg version="1.1" id="icons" xmlns="http://www.w3.org/2000/svg" xmlns:xlink="http://www.w3.org/1999/xlink" x="0px" y="0px"
	 width="32px" height="32px" viewBox="0 0 32 32" style="enable-background:new 0 0 32 32;" xml:space="preserve">
<style type="text/css">
	.st0{fill:none;}
	.st1{fill:#15B2CC;}
	.st2{font-family:'OpenSans';}
	.st3{font-size:4px;}
	.st4{fill:#5057FB;}
	.st5{fill:#C93789;}
	.st6{fill:#ED5C36;}
	.st7{fill:#AFB224;}
</style>
<g id="fuel-level-meter_2_">
	<path class="st6" d="M12.15,13.405c-0.19-0.19-0.51-0.19-0.7,0c-0.2,0.2-0.2,0.51,0,0.71l0.7,0.71c0.2,0.19,0.51,0.19,0.71,0
		c0.2-0.2,0.2-0.52,0-0.71L12.15,13.405z"/>
	<path class="st6" d="M16,13.485c0.28,0,0.5-0.22,0.5-0.5v-1c0-0.28-0.22-0.5-0.5-0.5c-0.28,0-0.5,0.22-0.5,0.5v1
		C15.5,13.266,15.72,13.485,16,13.485z"/>
	<path class="st6" d="M20.63,14.055c0.2-0.19,0.2-0.51,0-0.7c-0.19-0.2-0.51-0.2-0.71,0l-3.1,3.1c-0.25-0.14-0.53-0.22-0.83-0.22
		c-0.96,0-1.75,0.79-1.75,1.75c0,0.97,0.79,1.75,1.75,1.75c0.97,0,1.75-0.78,1.75-1.75c0-0.3-0.07-0.58-0.22-0.82L20.63,14.055z
		 M15.99,18.735c-0.41,0-0.75-0.33-0.75-0.75c0-0.41,0.34-0.75,0.75-0.75c0.42,0,0.75,0.34,0.75,0.75
		C16.74,18.405,16.41,18.735,15.99,18.735z"/>
	<path class="st6" d="M20.5,17.985c0,0.28,0.22,0.5,0.5,0.5h1c0.28,0,0.5-0.22,0.5-0.5s-0.22-0.5-0.5-0.5h-1
		C20.72,17.485,20.5,17.705,20.5,17.985z"/>
	<path class="st6" d="M16,0C7.163,0,0,7.163,0,16s7.163,16,16,16s16-7.163,16-16S24.837,0,16,0z M23.42,20.985
		c-0.14,0.35-0.31,0.68-0.5,1H9.08c-0.19-0.32-0.36-0.65-0.5-1c-0.37-0.93-0.58-1.94-0.58-3c0-4.42,3.58-8,8-8c4.42,0,8,3.58,8,8
		C24,19.045,23.79,20.055,23.42,20.985z"/>
	<path class="st6" d="M11,17.485h-1c-0.28,0-0.5,0.22-0.5,0.5s0.22,0.5,0.5,0.5h1c0.28,0,0.5-0.22,0.5-0.5S11.28,17.485,11,17.485z"
		/>
</g>
</svg>
