<?xml version="1.0" encoding="utf-8"?>
<!-- Generator: Adobe Illustrator 21.0.0, SVG Export Plug-In . SVG Version: 6.00 Build 0)  -->
<svg version="1.1" id="icons" xmlns="http://www.w3.org/2000/svg" xmlns:xlink="http://www.w3.org/1999/xlink" x="0px" y="0px"
	 width="32px" height="32px" viewBox="0 0 32 32" style="enable-background:new 0 0 32 32;" xml:space="preserve">
<style type="text/css">
	.st0{fill:#5057FB;}
	.st1{fill:#C93789;}
	.st2{fill:#ED5C36;}
	.st3{fill:#AFB224;}
	.st4{fill:#15B2CC;}
</style>
<g id="fuel_2_">
	<path class="st3" d="M15.61,11.135c-0.13,0.16-3.11,3.88-3.11,6.27c0,1.97,1.57,3.58,3.5,3.58s3.5-1.61,3.5-3.58
		c0-2.39-2.98-6.11-3.11-6.27C16.2,10.905,15.8,10.905,15.61,11.135z M16,19.985c-1.38,0-2.5-1.16-2.5-2.58
		c0-1.46,1.56-3.86,2.5-5.13c0.94,1.26,2.5,3.67,2.5,5.13C18.5,18.826,17.38,19.985,16,19.985z"/>
	<path class="st3" d="M15.38,17.315c0-0.27-0.22-0.5-0.5-0.5c-0.27,0-0.5,0.23-0.5,0.5c0,0.91,0.73,1.65,1.62,1.65
		c0.28,0,0.5-0.22,0.5-0.5c0-0.28-0.22-0.5-0.5-0.5C15.66,17.965,15.38,17.675,15.38,17.315z"/>
	<path class="st3" d="M16,0C7.163,0,0,7.163,0,16s7.163,16,16,16s16-7.163,16-16S24.837,0,16,0z M16,23.985c-4.42,0-8-3.58-8-8
		s3.58-8,8-8s8,3.58,8,8S20.42,23.985,16,23.985z"/>
</g>
</svg>
