<?xml version="1.0" encoding="utf-8"?>
<!-- Generator: Adobe Illustrator 21.0.0, SVG Export Plug-In . SVG Version: 6.00 Build 0)  -->
<svg version="1.1" id="icons" xmlns="http://www.w3.org/2000/svg" xmlns:xlink="http://www.w3.org/1999/xlink" x="0px" y="0px"
	 width="16px" height="16px" viewBox="0 0 16 16" style="enable-background:new 0 0 16 16;" xml:space="preserve">
<style type="text/css">
	.st0{fill:#5057FB;}
	.st1{fill:#C93789;}
	.st2{fill:#ED5C36;}
	.st3{fill:#AFB224;}
	.st4{fill:#15B2CC;}
</style>
<path id="fuel" d="M8,0C3.58,0,0,3.58,0,8s3.58,8,8,8s8-3.58,8-8S12.42,0,8,0z M8,13c-1.93,0-3.5-1.61-3.5-3.58
	c0-2.39,2.98-6.11,3.11-6.27c0.19-0.23,0.59-0.23,0.78,0c0.13,0.16,3.11,3.88,3.11,6.27C11.5,11.39,9.93,13,8,13z M5.5,9.42
	C5.5,10.84,6.62,12,8,12s2.5-1.16,2.5-2.58c0-1.46-1.56-3.87-2.5-5.13C7.06,5.56,5.5,7.96,5.5,9.42z M8.5,10.48
	c0,0.28-0.22,0.5-0.5,0.5c-0.89,0-1.62-0.74-1.62-1.65c0-0.27,0.23-0.5,0.5-0.5c0.28,0,0.5,0.23,0.5,0.5c0,0.36,0.28,0.65,0.62,0.65
	C8.28,9.98,8.5,10.2,8.5,10.48z"/>
</svg>
