<?xml version="1.0" encoding="utf-8"?>
<!-- Generator: Adobe Illustrator 21.0.0, SVG Export Plug-In . SVG Version: 6.00 Build 0)  -->
<svg version="1.1" id="icons" xmlns="http://www.w3.org/2000/svg" xmlns:xlink="http://www.w3.org/1999/xlink" x="0px" y="0px"
	 width="32px" height="32px" viewBox="0 0 32 32" style="enable-background:new 0 0 32 32;" xml:space="preserve">
<style type="text/css">
	.st0{fill:none;}
	.st1{fill:#AFB224;}
	.st2{font-family:'OpenSans';}
	.st3{font-size:4px;}
	.st4{fill:#5057FB;}
	.st5{fill:#C93789;}
	.st6{fill:#ED5C36;}
	.st7{fill:#15B2CC;}
</style>
<rect x="-8" y="-11" class="st0" width="48" height="11"/>
<text transform="matrix(1.0104 0 0 1 5.3164 -7.96)" class="st1 st2 st3">Credit Card</text>
<g id="fuel-canister_2_">
	<polygon class="st4" points="19.02,9.975 19.35,10.395 21.41,13.035 21.91,12.035 20.26,9.975 	"/>
	<path class="st4" d="M18,18.265v-3.58l0.56-0.56c0.2-0.2,0.2-0.52,0-0.71c-0.19-0.2-0.51-0.2-0.71,0l-0.56,0.56h-3.58l-1.27-1.27
		c-0.19-0.19-0.51-0.19-0.71,0c-0.19,0.2-0.19,0.51,0,0.71l1.27,1.27v3.58l-1.27,1.27c-0.19,0.2-0.19,0.51,0,0.71
		c0.1,0.1,0.23,0.14,0.36,0.14c0.13,0,0.25-0.04,0.35-0.14l1.27-1.27h3.58l1.27,1.27c0.1,0.1,0.23,0.14,0.35,0.14
		c0.13,0,0.26-0.04,0.36-0.14c0.19-0.2,0.19-0.51,0-0.71L18,18.265z M17,17.975h-3v-3h3V17.975z"/>
	<path class="st4" d="M16,0C7.163,0,0,7.163,0,16s7.163,16,16,16s16-7.163,16-16S24.837,0,16,0z M22.95,12.205L22,14.085v8.39
		c0,0.83-0.67,1.5-1.5,1.5h-10c-0.83,0-1.5-0.67-1.5-1.5v-13c0-0.13,0.05-0.26,0.15-0.35c0.09-0.1,0.22-0.15,0.35-0.15H10v-0.49
		c0-0.28,0.23-0.5,0.5-0.5h2c0.28,0,0.5,0.22,0.5,0.5v0.49h7.5c0.15,0,0.3,0.07,0.39,0.19l2.01,2.5
		C23.02,11.815,23.04,12.025,22.95,12.205z"/>
</g>
</svg>
