<?xml version="1.0" encoding="utf-8"?>
<!-- Generator: Adobe Illustrator 21.0.0, SVG Export Plug-In . SVG Version: 6.00 Build 0)  -->
<svg version="1.1" id="icons" xmlns="http://www.w3.org/2000/svg" xmlns:xlink="http://www.w3.org/1999/xlink" x="0px" y="0px"
	 width="15.999px" height="16px" viewBox="0 0 15.999 16" style="enable-background:new 0 0 15.999 16;" xml:space="preserve">
<style type="text/css">
	.st0{fill:#5057FB;}
	.st1{fill:#C93789;}
	.st2{fill:#ED5C36;}
	.st3{fill:#AFB224;}
	.st4{fill:#15B2CC;}
</style>
<g id="fuel-consumption_4_">
	<g>
		<path class="st3" d="M7.999,14.703c-0.551,0-1,0.449-1,1c0,0.105,0.03,0.201,0.06,0.297h1.88c0.03-0.095,0.06-0.192,0.06-0.297
			C8.999,15.152,8.55,14.703,7.999,14.703z"/>
		<path class="st3" d="M15.499,15h-0.5c0-3.866-3.134-7-7-7c-3.866,0-7,3.134-7,7H0.5C0.224,15,0,15.224,0,15.5S0.224,16,0.5,16
			h5.528c-0.015-0.098-0.03-0.195-0.03-0.297c0-1.105,0.895-2,2-2c0.416,0,0.802,0.127,1.122,0.345l1.474-0.966
			c0.231-0.151,0.541-0.087,0.692,0.144c0.151,0.231,0.087,0.541-0.144,0.692L9.78,14.812c0.135,0.27,0.219,0.57,0.219,0.892
			c0,0.102-0.015,0.199-0.03,0.297h5.53c0.276,0,0.5-0.224,0.5-0.5S15.775,15,15.499,15z"/>
	</g>
	<g>
		<path class="st3" d="M15.993,3.472c-0.002-0.04-0.012-0.078-0.023-0.116c-0.008-0.025-0.014-0.05-0.025-0.073
			c-0.015-0.032-0.036-0.059-0.059-0.087c-0.019-0.024-0.037-0.047-0.06-0.068C15.815,3.12,15.81,3.108,15.8,3.1l-1.598-1.2
			c-0.221-0.166-0.534-0.121-0.7,0.1c-0.166,0.221-0.121,0.534,0.1,0.7l1.397,1.049V8h-1V5.5c0-0.276-0.224-0.5-0.5-0.5h-1.5V1
			c0-0.552-0.448-1-1-1h-6c-0.552,0-1,0.448-1,1v7.082C5.177,7.398,6.541,7,7.999,7s2.822,0.398,4,1.082V6h1v2.5
			c0,0.276,0.224,0.5,0.5,0.5l0.001,0l0,0h1.999c0.276,0,0.5-0.224,0.5-0.5v-5C15.999,3.49,15.993,3.482,15.993,3.472z M9.999,5
			c0,0.552-0.448,1-1,1h-2c-0.552,0-1-0.448-1-1V3c0-0.552,0.448-1,1-1h2c0.552,0,1,0.448,1,1V5z"/>
		<rect x="6.999" y="3" class="st3" width="2" height="2"/>
	</g>
</g>
</svg>
