<?xml version="1.0" encoding="utf-8"?>
<!-- Generator: Adobe Illustrator 21.0.0, SVG Export Plug-In . SVG Version: 6.00 Build 0)  -->
<svg version="1.1" id="icons" xmlns="http://www.w3.org/2000/svg" xmlns:xlink="http://www.w3.org/1999/xlink" x="0px" y="0px"
	 width="16px" height="16px" viewBox="0 0 16 16" style="enable-background:new 0 0 16 16;" xml:space="preserve">
<style type="text/css">
	.st0{fill:#5057FB;}
	.st1{fill:#C93789;}
	.st2{fill:#ED5C36;}
	.st3{fill:#AFB224;}
	.st4{fill:#15B2CC;}
</style>
<g id="fuel-consumption_2_">
	<path d="M15.499,15h-0.5c0-1.915-0.753-3.638-1.999-4.905c-0.019,0.401-0.165,0.77-0.387,1.075c0.865,1.04,1.386,2.375,1.386,3.83
		h-4c0-0.322-0.083-0.622-0.219-0.892l1.363-0.893c0.231-0.151,0.296-0.461,0.144-0.692c-0.151-0.231-0.461-0.296-0.692-0.144
		l-1.474,0.966C8.801,13.127,8.415,13,7.999,13c-1.105,0-2,0.895-2,2h-4c0-1.455,0.523-2.79,1.387-3.83
		c-0.222-0.305-0.357-0.674-0.376-1.075C1.768,11.358,0.999,13.089,0.999,15H0.5C0.224,15,0,15.224,0,15.5S0.224,16,0.5,16h14.999
		c0.276,0,0.5-0.224,0.5-0.5S15.775,15,15.499,15z M6.999,15c0-0.551,0.449-1,1-1s1,0.449,1,1H6.999z"/>
	<path d="M15.993,3.466c-0.002-0.035-0.011-0.067-0.02-0.1c-0.009-0.03-0.016-0.06-0.03-0.087c-0.014-0.027-0.032-0.051-0.051-0.076
		c-0.021-0.028-0.042-0.054-0.069-0.077C15.814,3.118,15.81,3.107,15.8,3.1l-1.598-1.2C13.98,1.734,13.666,1.779,13.5,2
		c-0.166,0.221-0.121,0.534,0.1,0.7L15,3.75V9h-0.989V5.5c0-0.276-0.225-0.5-0.501-0.5H12V1c0-0.552-0.448-1-1-1H5
		C4.448,0,4,0.448,4,1v9c0,0.552,0.448,1,1,1h6c0.552,0,1-0.448,1-1V6h1.01v3.5c0,0.276,0.224,0.5,0.5,0.5l0.001,0c0,0,0,0,0,0H15.5
		c0.276,0,0.5-0.224,0.5-0.5v-6C16,3.488,15.994,3.478,15.993,3.466z M11,10H5V1h6V10z"/>
	<path d="M9,3v2H7V3H9 M9,2H7C6.448,2,6,2.448,6,3v2c0,0.552,0.448,1,1,1h2c0.552,0,1-0.448,1-1V3C10,2.448,9.552,2,9,2L9,2z"/>
</g>
</svg>
