<?xml version="1.0" encoding="utf-8"?>
<!-- Generator: Adobe Illustrator 21.0.0, SVG Export Plug-In . SVG Version: 6.00 Build 0)  -->
<svg version="1.1" id="icons" xmlns="http://www.w3.org/2000/svg" xmlns:xlink="http://www.w3.org/1999/xlink" x="0px" y="0px"
	 width="16px" height="16px" viewBox="0 0 16 16" style="enable-background:new 0 0 16 16;" xml:space="preserve">
<style type="text/css">
	.st0{fill:#5057FB;}
	.st1{fill:#C93789;}
	.st2{fill:#ED5C36;}
	.st3{fill:#AFB224;}
	.st4{fill:#15B2CC;}
</style>
<g id="fuel_3_">
	<path d="M8,0C3.582,0,0,3.582,0,8s3.582,8,8,8s8-3.582,8-8S12.418,0,8,0z M8,15c-3.86,0-7-3.14-7-7s3.14-7,7-7s7,3.14,7,7
		S11.86,15,8,15z"/>
	<path d="M7.611,3.155c-0.127,0.157-3.11,3.877-3.11,6.266C4.501,11.394,6.07,13,8,13s3.499-1.606,3.499-3.58
		c0-2.389-2.983-6.109-3.11-6.266C8.199,2.919,7.801,2.919,7.611,3.155z M8,12c-1.378,0-2.499-1.157-2.499-2.58
		c0-1.46,1.558-3.865,2.499-5.133c0.941,1.267,2.499,3.67,2.499,5.133C10.499,10.843,9.378,12,8,12z"/>
	<path d="M7.382,9.333c0-0.276-0.224-0.5-0.5-0.5s-0.5,0.224-0.5,0.5c0,0.909,0.726,1.648,1.618,1.648c0.276,0,0.5-0.224,0.5-0.5
		s-0.224-0.5-0.5-0.5C7.659,9.981,7.382,9.69,7.382,9.333z"/>
</g>
</svg>
