<?xml version="1.0" encoding="utf-8"?>
<!-- Generator: Adobe Illustrator 21.0.0, SVG Export Plug-In . SVG Version: 6.00 Build 0)  -->
<svg version="1.1" id="icons" xmlns="http://www.w3.org/2000/svg" xmlns:xlink="http://www.w3.org/1999/xlink" x="0px" y="0px"
	 width="16px" height="16px" viewBox="0 0 16 16" style="enable-background:new 0 0 16 16;" xml:space="preserve">
<style type="text/css">
	.st0{fill:#5057FB;}
	.st1{fill:#C93789;}
	.st2{fill:#ED5C36;}
	.st3{fill:#AFB224;}
	.st4{fill:#15B2CC;}
</style>
<g id="fuel-level-meter_3_">
	<path d="M8,1.993c-4.42,0-8,3.58-8,8c0,1.06,0.21,2.085,0.58,3.014c0.14,0.35,0.31,0.68,0.5,1h13.84c0.19-0.32,0.36-0.65,0.5-1
		c0.37-0.93,0.58-1.955,0.58-3.014C16,5.573,12.42,1.993,8,1.993z M1.68,13.007C1.24,12.097,1,11.063,1,9.993c0-3.86,3.14-7,7-7
		s7,3.14,7,7c0,1.07-0.24,2.105-0.68,3.014H1.68z"/>
	<path d="M8,5.493c0.276,0,0.5-0.224,0.5-0.5v-1c0-0.276-0.224-0.5-0.5-0.5s-0.5,0.224-0.5,0.5v1C7.5,5.269,7.724,5.493,8,5.493z"/>
	<path d="M4.153,5.414c-0.195-0.195-0.512-0.195-0.707,0s-0.195,0.512,0,0.707l0.707,0.707c0.195,0.195,0.512,0.195,0.707,0
		c0.195-0.195,0.195-0.512,0-0.707L4.153,5.414z"/>
	<path d="M14,9.493h-1c-0.276,0-0.5,0.224-0.5,0.5s0.224,0.5,0.5,0.5h1c0.276,0,0.5-0.224,0.5-0.5S14.276,9.493,14,9.493z"/>
	<path d="M3,9.493H2c-0.276,0-0.5,0.224-0.5,0.5s0.224,0.5,0.5,0.5h1c0.276,0,0.5-0.224,0.5-0.5S3.276,9.493,3,9.493z"/>
	<path d="M12.631,6.066c0.195-0.195,0.195-0.512,0-0.707c-0.195-0.196-0.512-0.195-0.707,0L8.82,8.463c0,0,0,0,0,0
		c-0.25-0.14-0.53-0.22-0.83-0.22c-0.96,0-1.75,0.79-1.75,1.75c0,0.97,0.79,1.764,1.75,1.764c0.97,0,1.75-0.795,1.75-1.764
		c0-0.299-0.07-0.577-0.219-0.817L12.631,6.066z M7.99,10.743c-0.41,0-0.75-0.33-0.75-0.75c0-0.41,0.34-0.75,0.75-0.75
		c0.42,0,0.75,0.34,0.75,0.75C8.74,10.413,8.41,10.743,7.99,10.743z"/>
</g>
</svg>
