<?xml version="1.0" encoding="utf-8"?>
<!-- Generator: Adobe Illustrator 21.0.0, SVG Export Plug-In . SVG Version: 6.00 Build 0)  -->
<svg version="1.1" id="icons" xmlns="http://www.w3.org/2000/svg" xmlns:xlink="http://www.w3.org/1999/xlink" x="0px" y="0px"
	 width="16px" height="16px" viewBox="0 0 16 16" style="enable-background:new 0 0 16 16;" xml:space="preserve">
<style type="text/css">
	.st0{fill:#5057FB;}
	.st1{fill:#C93789;}
	.st2{fill:#ED5C36;}
	.st3{fill:#AFB224;}
	.st4{fill:#15B2CC;}
</style>
<g id="fuel-level-meter">
	<path d="M7.99,9.25c-0.41,0-0.75,0.34-0.75,0.75c0,0.42,0.34,0.75,0.75,0.75c0.42,0,0.75-0.33,0.75-0.75
		C8.74,9.59,8.41,9.25,7.99,9.25z M7.99,9.25c-0.41,0-0.75,0.34-0.75,0.75c0,0.42,0.34,0.75,0.75,0.75c0.42,0,0.75-0.33,0.75-0.75
		C8.74,9.59,8.41,9.25,7.99,9.25z M7.99,9.25c-0.41,0-0.75,0.34-0.75,0.75c0,0.42,0.34,0.75,0.75,0.75c0.42,0,0.75-0.33,0.75-0.75
		C8.74,9.59,8.41,9.25,7.99,9.25z M7.99,9.25c-0.41,0-0.75,0.34-0.75,0.75c0,0.42,0.34,0.75,0.75,0.75c0.42,0,0.75-0.33,0.75-0.75
		C8.74,9.59,8.41,9.25,7.99,9.25z M8,2c-4.42,0-8,3.58-8,8c0,1.06,0.21,2.07,0.58,3c0.14,0.35,0.31,0.68,0.5,1h13.84
		c0.19-0.32,0.36-0.65,0.5-1c0.37-0.93,0.58-1.94,0.58-3C16,5.58,12.42,2,8,2z M7.5,4c0-0.28,0.22-0.5,0.5-0.5
		c0.28,0,0.5,0.22,0.5,0.5v1c0,0.28-0.22,0.5-0.5,0.5C7.72,5.5,7.5,5.28,7.5,5V4z M3,10.5H2c-0.28,0-0.5-0.22-0.5-0.5
		S1.72,9.5,2,9.5h1c0.28,0,0.5,0.22,0.5,0.5S3.28,10.5,3,10.5z M4.86,6.84c-0.2,0.19-0.51,0.19-0.71,0l-0.7-0.71
		c-0.2-0.2-0.2-0.51,0-0.71c0.19-0.19,0.51-0.19,0.7,0l0.71,0.71C5.06,6.32,5.06,6.64,4.86,6.84z M7.99,11.75
		c-0.96,0-1.75-0.78-1.75-1.75c0-0.96,0.79-1.75,1.75-1.75c0.3,0,0.58,0.08,0.83,0.22l3.1-3.1c0.2-0.2,0.52-0.2,0.71,0
		c0.2,0.19,0.2,0.51,0,0.7L9.52,9.18C9.67,9.42,9.74,9.7,9.74,10C9.74,10.97,8.96,11.75,7.99,11.75z M14,10.5h-1
		c-0.28,0-0.5-0.22-0.5-0.5s0.22-0.5,0.5-0.5h1c0.28,0,0.5,0.22,0.5,0.5S14.28,10.5,14,10.5z M7.99,9.25
		c-0.41,0-0.75,0.34-0.75,0.75c0,0.42,0.34,0.75,0.75,0.75c0.42,0,0.75-0.33,0.75-0.75C8.74,9.59,8.41,9.25,7.99,9.25z M7.99,9.25
		c-0.41,0-0.75,0.34-0.75,0.75c0,0.42,0.34,0.75,0.75,0.75c0.42,0,0.75-0.33,0.75-0.75C8.74,9.59,8.41,9.25,7.99,9.25z M7.99,9.25
		c-0.41,0-0.75,0.34-0.75,0.75c0,0.42,0.34,0.75,0.75,0.75c0.42,0,0.75-0.33,0.75-0.75C8.74,9.59,8.41,9.25,7.99,9.25z M7.99,9.25
		c-0.41,0-0.75,0.34-0.75,0.75c0,0.42,0.34,0.75,0.75,0.75c0.42,0,0.75-0.33,0.75-0.75C8.74,9.59,8.41,9.25,7.99,9.25z M7.99,9.25
		c-0.41,0-0.75,0.34-0.75,0.75c0,0.42,0.34,0.75,0.75,0.75c0.42,0,0.75-0.33,0.75-0.75C8.74,9.59,8.41,9.25,7.99,9.25z"/>
</g>
</svg>
