<?xml version="1.0" encoding="utf-8"?>
<!-- Generator: Adobe Illustrator 21.0.0, SVG Export Plug-In . SVG Version: 6.00 Build 0)  -->
<svg version="1.1" id="icons" xmlns="http://www.w3.org/2000/svg" xmlns:xlink="http://www.w3.org/1999/xlink" x="0px" y="0px"
	 width="32px" height="32px" viewBox="0 0 32 32" style="enable-background:new 0 0 32 32;" xml:space="preserve">
<style type="text/css">
	.st0{fill:none;}
	.st1{fill:#C93789;}
	.st2{font-family:'OpenSans';}
	.st3{font-size:4px;}
	.st4{fill:#5057FB;}
	.st5{fill:#ED5C36;}
	.st6{fill:#AFB224;}
	.st7{fill:#15B2CC;}
</style>
<rect x="-8" y="-11" class="st0" width="48" height="11"/>
<text transform="matrix(1.0103 0 0 1 6.1816 -7.96)" class="st1 st2 st3">Body Type</text>
<g id="fuel-consumption_1_">
	<path class="st6" d="M16.999,10h-2c-0.552,0-1,0.448-1,1v2c0,0.552,0.448,1,1,1h2c0.552,0,1-0.448,1-1v-2
		C17.999,10.448,17.552,10,16.999,10z M16.999,13h-2v-2h2V13z"/>
	<path class="st6" d="M16,0C7.163,0,0,7.163,0,16s7.163,16,16,16s16-7.163,16-16S24.837,0,16,0z M16.939,24h-1.88
		c-0.03-0.095-0.06-0.192-0.06-0.297c0-0.551,0.449-1,1-1s1,0.449,1,1C16.999,23.808,16.969,23.905,16.939,24z M23.499,24h-5.53
		c0.015-0.098,0.03-0.195,0.03-0.297c0-0.322-0.083-0.622-0.219-0.892l1.363-0.893c0.231-0.151,0.296-0.461,0.144-0.692
		c-0.151-0.231-0.461-0.296-0.692-0.144l-1.474,0.966c-0.32-0.217-0.706-0.345-1.122-0.345c-1.105,0-2,0.895-2,2
		c0,0.102,0.015,0.199,0.03,0.297H8.501c-0.276,0-0.5-0.224-0.5-0.5s0.224-0.5,0.5-0.5h0.499c0-3.866,3.134-7,7-7
		c3.866,0,7,3.134,7,7h0.5c0.276,0,0.5,0.224,0.5,0.5S23.776,24,23.499,24z M23.999,16.5c0,0.276-0.224,0.5-0.5,0.5h-1.999
		c0,0,0,0,0,0s-0.001,0-0.001,0c-0.276,0-0.5-0.224-0.5-0.5V14h-1v2.082c-1.178-0.684-2.542-1.082-4-1.082s-2.822,0.398-4,1.082V9
		c0-0.552,0.448-1,1-1h6c0.552,0,1,0.448,1,1v4h1.5c0.276,0,0.5,0.224,0.5,0.5V16h1v-4.251L21.602,10.7
		c-0.221-0.166-0.266-0.479-0.1-0.7c0.166-0.221,0.479-0.266,0.7-0.1l1.598,1.2c0.01,0.008,0.015,0.02,0.025,0.028
		c0.023,0.02,0.041,0.044,0.06,0.068c0.022,0.028,0.043,0.055,0.059,0.087c0.011,0.023,0.018,0.048,0.025,0.073
		c0.012,0.039,0.021,0.076,0.023,0.116c0.001,0.01,0.006,0.018,0.006,0.028V16.5z"/>
</g>
</svg>
