<?xml version="1.0" encoding="utf-8"?>
<!-- Generator: Adobe Illustrator 21.0.0, SVG Export Plug-In . SVG Version: 6.00 Build 0)  -->
<svg version="1.1" id="icons" xmlns="http://www.w3.org/2000/svg" xmlns:xlink="http://www.w3.org/1999/xlink" x="0px" y="0px"
	 width="16px" height="16px" viewBox="0 0 16 16" style="enable-background:new 0 0 16 16;" xml:space="preserve">
<style type="text/css">
	.st0{fill:#5057FB;}
	.st1{fill:#C93789;}
	.st2{fill:#ED5C36;}
	.st3{fill:#AFB224;}
	.st4{fill:#15B2CC;}
</style>
<g id="fuel-canister_3_">
	<path d="M5.708,5.998L4.441,4.731c-0.195-0.195-0.512-0.195-0.707,0s-0.195,0.512,0,0.707L5,6.704v3.587l-1.267,1.266
		c-0.195,0.195-0.195,0.512,0,0.707c0.098,0.098,0.226,0.146,0.354,0.146c0.128,0,0.256-0.049,0.354-0.146l1.268-1.267H9.29
		l1.268,1.267c0.098,0.098,0.226,0.146,0.354,0.146s0.256-0.049,0.354-0.146c0.195-0.195,0.195-0.512,0-0.707l-1.267-1.266V6.704
		l0.56-0.559c0.195-0.195,0.195-0.512,0-0.707s-0.512-0.195-0.707,0l-0.56,0.56H5.708z M8.998,9.997H6V6.998h2.998V9.997z"/>
	<path d="M14.891,3.688l-2.002-2.5C12.794,1.069,12.65,1,12.498,1H9.997h0h0H5V0.5C5,0.224,4.776,0,4.5,0h-2C2.224,0,2,0.224,2,0.5
		V1H1.5C1.367,1,1.24,1.053,1.146,1.146S1,1.368,1,1.5l0.002,13c0,0.827,0.673,1.5,1.5,1.5h9.994c0.827,0,1.5-0.673,1.5-1.5V6.109
		l0.95-1.884C15.034,4.051,15.013,3.841,14.891,3.688z M13,14.5c0,0.276-0.229,0.5-0.504,0.5H2.502C2.227,15,2,14.776,2,14.5V2
		h7.753l0.076,0.098L13,6.167V14.5z M13.405,5.06L11.021,2h1.237l1.651,2.062L13.405,5.06z"/>
</g>
</svg>
