<?xml version="1.0" encoding="utf-8"?>
<!-- Generator: Adobe Illustrator 21.0.0, SVG Export Plug-In . SVG Version: 6.00 Build 0)  -->
<svg version="1.1" id="icons" xmlns="http://www.w3.org/2000/svg" xmlns:xlink="http://www.w3.org/1999/xlink" x="0px" y="0px"
	 width="16px" height="16px" viewBox="0 0 16 16" style="enable-background:new 0 0 16 16;" xml:space="preserve">
<style type="text/css">
	.st0{fill:#5057FB;}
	.st1{fill:#C93789;}
	.st2{fill:#ED5C36;}
	.st3{fill:#AFB224;}
	.st4{fill:#15B2CC;}
</style>
<g id="fuel-canister_1_">
	<path class="st0" d="M14.894,3.682l-2.009-2.502c-0.09-0.12-0.24-0.19-0.39-0.19H4.998V0.5c0-0.28-0.22-0.5-0.5-0.5H2.499
		C2.229,0,2,0.22,2,0.5v0.49H1.5c-0.13,0-0.26,0.05-0.35,0.15C1.05,1.231,1,1.361,1,1.491v13.008C1,15.33,1.67,16,2.499,16h9.996
		c0.83,0,1.499-0.67,1.499-1.501V6.104l0.95-1.881C15.034,4.043,15.014,3.832,14.894,3.682z M11.266,12.268
		c-0.1,0.1-0.23,0.14-0.36,0.14c-0.12,0-0.25-0.04-0.35-0.14l-1.269-1.271H5.708l-1.269,1.271c-0.1,0.1-0.22,0.14-0.35,0.14
		c-0.13,0-0.26-0.04-0.36-0.14c-0.19-0.2-0.19-0.51,0-0.71l1.269-1.271V6.704L3.729,5.433c-0.19-0.2-0.19-0.51,0-0.71
		c0.2-0.19,0.52-0.19,0.71,0l1.269,1.271h3.578l0.56-0.56c0.2-0.2,0.52-0.2,0.71,0c0.2,0.19,0.2,0.51,0,0.71l-0.56,0.56v3.582
		l1.269,1.271C11.456,11.757,11.456,12.068,11.266,12.268z M13.405,5.053l-2.059-2.642l-0.33-0.42h1.239l1.649,2.061L13.405,5.053z
		 M5.998,9.996h2.999V6.994H5.998V9.996z"/>
</g>
</svg>
