<?xml version="1.0" encoding="utf-8"?>
<!-- Generator: Adobe Illustrator 21.0.0, SVG Export Plug-In . SVG Version: 6.00 Build 0)  -->
<svg version="1.1" id="icons" xmlns="http://www.w3.org/2000/svg" xmlns:xlink="http://www.w3.org/1999/xlink" x="0px" y="0px"
	 width="32px" height="32px" viewBox="0 0 32 32" style="enable-background:new 0 0 32 32;" xml:space="preserve">
<style type="text/css">
	.st0{fill:#5057FB;}
	.st1{fill:#C93789;}
	.st2{fill:#ED5C36;}
	.st3{fill:#AFB224;}
	.st4{fill:#15B2CC;}
</style>
<g id="garage_2_">
	<path class="st1" d="M9,13.8V16h1v-1.5c0-0.02,0.01-0.04,0.01-0.07c0.01-0.03,0.01-0.06,0.02-0.1c0.01-0.03,0.03-0.05,0.05-0.08
		c0.01-0.03,0.03-0.06,0.05-0.08c0.02-0.03,0.05-0.05,0.08-0.07c0.02-0.01,0.03-0.03,0.05-0.04l5.5-3c0.02-0.01,0.03-0.01,0.05-0.01
		c0.03-0.02,0.06-0.03,0.1-0.03c0.03-0.01,0.06-0.01,0.09-0.01s0.06,0,0.09,0.01c0.04,0,0.07,0.01,0.1,0.03c0.02,0,0.03,0,0.05,0.01
		l5.5,3c0.03,0.02,0.04,0.04,0.07,0.06c0.02,0.01,0.04,0.03,0.05,0.04c0.03,0.04,0.06,0.07,0.08,0.11c0.01,0.02,0.02,0.03,0.02,0.05
		c0.02,0.05,0.03,0.1,0.03,0.15c0,0.01,0.01,0.02,0.01,0.03V16h1v-2.2l-7-3.73L9,13.8z"/>
	<path class="st1" d="M16,0C7.163,0,0,7.163,0,16s7.163,16,16,16s16-7.163,16-16S24.837,0,16,0z M19,23h-6v-1h6V23z M19,21h-6v-1h6
		V21z M19,19h-6v-1h6V19z M24,13.54c0,0,0,0,0,0.01v2.95c0,0.28-0.22,0.5-0.5,0.5H22v5.5c0,0.28-0.23,0.5-0.5,0.5H20v-5.5
		c0-0.07-0.01-0.14-0.04-0.2c-0.03-0.06-0.06-0.11-0.11-0.16C19.76,17.06,19.64,17,19.5,17h-7c-0.28,0-0.5,0.22-0.5,0.5V23h-1.5
		c-0.28,0-0.5-0.22-0.5-0.5V17H8.5C8.22,17,8,16.78,8,16.5v-3c0-0.02,0.01-0.04,0.01-0.07c0.01-0.03,0.01-0.07,0.02-0.1
		c0.01-0.03,0.03-0.06,0.05-0.08c0.01-0.03,0.03-0.06,0.05-0.08c0.02-0.03,0.05-0.05,0.08-0.07c0.02-0.01,0.03-0.03,0.05-0.04l7.5-4
		c0.02-0.01,0.04-0.01,0.05-0.02c0.03-0.01,0.06-0.02,0.1-0.02c0.03-0.01,0.06-0.01,0.09-0.01s0.06,0,0.09,0.01
		c0.04,0,0.07,0.01,0.1,0.02c0.01,0.01,0.03,0.01,0.05,0.02l7.5,4c0.02,0.01,0.04,0.03,0.06,0.05c0.02,0.02,0.05,0.03,0.07,0.05
		c0.02,0.03,0.04,0.07,0.06,0.1c0.01,0.02,0.03,0.04,0.03,0.06c0.02,0.05,0.03,0.09,0.03,0.13c0,0.02,0.01,0.03,0.01,0.05V13.54z"/>
</g>
</svg>
