<?xml version="1.0" encoding="utf-8"?>
<!-- Generator: Adobe Illustrator 21.0.0, SVG Export Plug-In . SVG Version: 6.00 Build 0)  -->
<svg version="1.1" id="icons" xmlns="http://www.w3.org/2000/svg" xmlns:xlink="http://www.w3.org/1999/xlink" x="0px" y="0px"
	 width="16px" height="16px" viewBox="0 0 16 16" style="enable-background:new 0 0 16 16;" xml:space="preserve">
<style type="text/css">
	.st0{fill:#5057FB;}
	.st1{fill:#C93789;}
	.st2{fill:#ED5C36;}
	.st3{fill:#AFB224;}
	.st4{fill:#15B2CC;}
</style>
<g id="garage_1_">
	<path class="st1" d="M15.99,5.443c0-0.04-0.01-0.08-0.03-0.13c0-0.02-0.02-0.04-0.03-0.06c-0.02-0.03-0.04-0.07-0.06-0.1
		c-0.02-0.02-0.05-0.03-0.07-0.05c-0.02-0.02-0.04-0.04-0.06-0.05L8.24,1.05C8.22,1.04,8.2,1.04,8.19,1.03
		c-0.03-0.01-0.06-0.02-0.1-0.02C8.06,1,8.03,1,8,1S7.94,1,7.91,1.01c-0.04,0-0.07,0.01-0.1,0.02C7.8,1.04,7.78,1.04,7.76,1.05
		l-7.5,4.003c-0.02,0.01-0.03,0.03-0.05,0.04c-0.03,0.02-0.06,0.04-0.08,0.07c-0.02,0.02-0.04,0.05-0.05,0.08
		c-0.02,0.02-0.04,0.05-0.05,0.08c-0.01,0.03-0.01,0.07-0.02,0.1c0,0.03-0.01,0.05-0.01,0.07v3.002c0,0.28,0.22,0.5,0.5,0.5H2V14.5
		C2,14.78,2.22,15,2.5,15H4V9.496c0-0.28,0.22-0.5,0.5-0.5h7c0.14,0,0.26,0.06,0.35,0.14c0.05,0.05,0.08,0.1,0.11,0.16
		c0.03,0.06,0.04,0.13,0.04,0.2V15h1.5c0.27,0,0.5-0.22,0.5-0.5V8.996h1.5c0.28,0,0.5-0.22,0.5-0.5V5.543c0-0.01,0-0.01,0-0.01
		v-0.04C16,5.473,15.99,5.463,15.99,5.443z M15,7.995h-1V6.494c0-0.01-0.01-0.02-0.01-0.03c0-0.05-0.01-0.1-0.03-0.15
		c0-0.02-0.01-0.03-0.02-0.05c-0.02-0.04-0.05-0.07-0.08-0.11c-0.01-0.01-0.03-0.03-0.05-0.04c-0.03-0.02-0.04-0.04-0.07-0.06
		l-5.5-3.002c-0.02-0.01-0.03-0.01-0.05-0.01c-0.03-0.02-0.06-0.03-0.1-0.03C8.06,3.001,8.03,3.001,8,3.001s-0.06,0-0.09,0.01
		c-0.04,0-0.07,0.01-0.1,0.03c-0.02,0-0.03,0-0.05,0.01l-5.5,3.002c-0.02,0.01-0.03,0.03-0.05,0.04c-0.03,0.02-0.06,0.04-0.08,0.07
		c-0.02,0.02-0.04,0.05-0.05,0.08c-0.02,0.03-0.04,0.05-0.05,0.08c-0.01,0.04-0.01,0.07-0.02,0.1c0,0.03-0.01,0.05-0.01,0.07v1.501
		H1V5.793l7-3.733l7,3.733V7.995z M5,11.998v1.001h6v-1.001H5z M5,9.996v1.001h6V9.996H5z"/>
	<g>
		<rect x="5" y="13.999" class="st1" width="6" height="1.001"/>
	</g>
</g>
</svg>
