<?xml version="1.0" encoding="utf-8"?>
<!-- Generator: Adobe Illustrator 21.0.0, SVG Export Plug-In . SVG Version: 6.00 Build 0)  -->
<svg version="1.1" id="icons" xmlns="http://www.w3.org/2000/svg" xmlns:xlink="http://www.w3.org/1999/xlink" x="0px" y="0px"
	 width="16px" height="16px" viewBox="0 0 16 16" style="enable-background:new 0 0 16 16;" xml:space="preserve">
<style type="text/css">
	.st0{fill:#5057FB;}
	.st1{fill:#C93789;}
	.st2{fill:#ED5C36;}
	.st3{fill:#AFB224;}
	.st4{fill:#15B2CC;}
</style>
<path id="garage_3_" d="M16,5.538V5.495c0-0.016-0.008-0.03-0.009-0.046c-0.004-0.045-0.01-0.088-0.026-0.13
	c-0.009-0.023-0.022-0.042-0.034-0.063c-0.019-0.034-0.038-0.067-0.065-0.097c-0.02-0.021-0.043-0.037-0.066-0.055
	c-0.022-0.017-0.038-0.038-0.062-0.051L8.236,1.052C8.221,1.044,8.205,1.044,8.19,1.038C8.159,1.025,8.128,1.016,8.094,1.01
	C8.063,1.004,8.032,1,8.001,1C7.969,1,7.939,1.004,7.908,1.01C7.874,1.016,7.843,1.025,7.812,1.038
	C7.796,1.044,7.78,1.044,7.766,1.052L0.265,5.054C0.243,5.065,0.23,5.084,0.211,5.098c-0.028,0.021-0.056,0.04-0.079,0.065
	C0.11,5.188,0.095,5.215,0.078,5.243C0.062,5.27,0.045,5.296,0.034,5.326C0.022,5.36,0.018,5.394,0.013,5.43
	C0.01,5.452,0,5.472,0,5.495v3.001c0,0.277,0.224,0.5,0.5,0.5L2,9v5.503C2,14.776,2.223,15,2.5,15h10.999
	c0.276,0,0.5-0.224,0.5-0.497V9L15.5,8.997c0.276,0,0.5-0.224,0.5-0.5V5.541C16,5.54,16,5.539,16,5.538z M8.001,4.064L13,6.791
	v7.212h-1.002v-1.494c0-0.003,0.002-0.006,0.002-0.01c0-0.003-0.002-0.006-0.002-0.01V8.51C11.998,8.507,12,8.504,12,8.5
	C12,8.224,11.776,8,11.5,8H4.502L4.501,8L4.5,8C4.224,8,4,8.224,4,8.5v5.502H3v-7.21L8.001,4.064z M4.999,10.998H11V12H4.999V10.998
	z M11,10H4.999V9H11V10z M4.999,12.999H11v1.003H4.999V12.999z M13.998,6.551c0.001-0.008,0-0.015,0-0.023V6.496
	c0-0.01-0.005-0.019-0.006-0.028c-0.003-0.052-0.011-0.102-0.03-0.151c-0.007-0.017-0.016-0.031-0.025-0.047
	c-0.021-0.04-0.043-0.077-0.074-0.11c-0.017-0.018-0.037-0.032-0.056-0.047c-0.023-0.018-0.04-0.041-0.066-0.055L8.24,3.055
	C8.224,3.046,8.206,3.046,8.19,3.04C8.159,3.027,8.128,3.017,8.095,3.01C8.063,3.004,8.033,3.001,8.001,3.002
	c-0.032,0-0.062,0.003-0.094,0.009C7.874,3.017,7.844,3.027,7.813,3.039C7.796,3.046,7.778,3.046,7.762,3.055L2.26,6.057
	c-0.02,0.011-0.032,0.029-0.05,0.042C2.182,6.12,2.153,6.14,2.129,6.167c-0.021,0.024-0.036,0.05-0.052,0.077
	C2.061,6.272,2.044,6.298,2.033,6.329C2.022,6.362,2.018,6.396,2.013,6.431C2.01,6.453,2,6.473,2,6.496V8H1V5.796l7.001-3.735
	L15,5.795L15,8h-1.002L13.998,6.551z"/>
</svg>
