<?xml version="1.0" encoding="utf-8"?>
<!-- Generator: Adobe Illustrator 21.0.0, SVG Export Plug-In . SVG Version: 6.00 Build 0)  -->
<svg version="1.1" id="icons" xmlns="http://www.w3.org/2000/svg" xmlns:xlink="http://www.w3.org/1999/xlink" x="0px" y="0px"
	 width="16px" height="16px" viewBox="0 0 16 16" style="enable-background:new 0 0 16 16;" xml:space="preserve">
<style type="text/css">
	.st0{fill:#5057FB;}
	.st1{fill:#C93789;}
	.st2{fill:#ED5C36;}
	.st3{fill:#AFB224;}
	.st4{fill:#15B2CC;}
</style>
<g id="gas-station_3_">
	<path d="M8.5,2h-4C4.224,2,4,2.224,4,2.5v4C4,6.776,4.224,7,4.5,7h4C8.776,7,9,6.776,9,6.5v-4C9,2.224,8.776,2,8.5,2z M8,6H5V3h3V6
		z"/>
	<path d="M14.854,5.143L12.85,3.139c-0.195-0.195-0.512-0.195-0.707,0s-0.195,0.512,0,0.707L14,5.703v5.793
		c0,0.276-0.225,0.5-0.5,0.5s-0.5-0.224-0.5-0.5v-4c0-0.827-0.673-1.5-1.5-1.5H11V2c0-1.103-0.897-2-2-2H4C2.897,0,2,0.897,2,2v13
		H1.5C1.224,15,1,15.224,1,15.5S1.224,16,1.5,16h1h8h1c0.276,0,0.5-0.224,0.5-0.5S11.776,15,11.5,15H11V6.996h0.5
		c0.275,0,0.5,0.224,0.5,0.5v4c0,0.827,0.673,1.5,1.5,1.5s1.5-0.673,1.5-1.5v-6C15,5.363,14.947,5.236,14.854,5.143z M3,15V2
		c0-0.551,0.448-1,1-1h5c0.552,0,1,0.449,1,1v13H3z"/>
</g>
</svg>
