<?xml version="1.0" encoding="utf-8"?>
<!-- Generator: Adobe Illustrator 21.0.0, SVG Export Plug-In . SVG Version: 6.00 Build 0)  -->
<svg version="1.1" id="icons" xmlns="http://www.w3.org/2000/svg" xmlns:xlink="http://www.w3.org/1999/xlink" x="0px" y="0px"
	 width="16px" height="16px" viewBox="0 0 16 16" style="enable-background:new 0 0 16 16;" xml:space="preserve">
<style type="text/css">
	.st0{fill:#5057FB;}
	.st1{fill:#C93789;}
	.st2{fill:#ED5C36;}
	.st3{fill:#AFB224;}
	.st4{fill:#15B2CC;}
</style>
<g id="gas-station_1_">
	<rect x="5" y="3" class="st4" width="3" height="3"/>
	<path class="st4" d="M14.854,5.143L12.85,3.139c-0.195-0.195-0.512-0.195-0.707,0s-0.195,0.512,0,0.707L14,5.703v5.793
		c0,0.276-0.225,0.5-0.5,0.5s-0.5-0.224-0.5-0.5v-4c0-0.827-0.673-1.5-1.5-1.5H11V2c0-1.1-0.9-2-2-2H4C2.9,0,2,0.9,2,2v13H1.5
		C1.22,15,1,15.22,1,15.5S1.22,16,1.5,16h10c0.28,0,0.5-0.22,0.5-0.5S11.78,15,11.5,15H11V6.996h0.5c0.275,0,0.5,0.224,0.5,0.5v4
		c0,0.827,0.673,1.5,1.5,1.5s1.5-0.673,1.5-1.5v-6C15,5.363,14.947,5.236,14.854,5.143z M4,2.5C4,2.22,4.22,2,4.5,2h4
		C8.78,2,9,2.22,9,2.5v4C9,6.78,8.78,7,8.5,7h-4C4.22,7,4,6.78,4,6.5V2.5z"/>
</g>
</svg>
