<?xml version="1.0" encoding="utf-8"?>
<!-- Generator: Adobe Illustrator 21.0.0, SVG Export Plug-In . SVG Version: 6.00 Build 0)  -->
<svg version="1.1" id="icons" xmlns="http://www.w3.org/2000/svg" xmlns:xlink="http://www.w3.org/1999/xlink" x="0px" y="0px"
	 width="32px" height="32px" viewBox="0 0 32 32" style="enable-background:new 0 0 32 32;" xml:space="preserve">
<style type="text/css">
	.st0{fill:#5057FB;}
	.st1{fill:#C93789;}
	.st2{fill:#ED5C36;}
	.st3{fill:#AFB224;}
	.st4{fill:#15B2CC;}
</style>
<g id="gas-station_2_">
	<path class="st4" d="M16.5,10h-4c-0.28,0-0.5,0.22-0.5,0.5v4c0,0.28,0.22,0.5,0.5,0.5h4c0.28,0,0.5-0.22,0.5-0.5v-4
		C17,10.22,16.78,10,16.5,10z M16,14h-3v-3h3V14z"/>
	<path class="st4" d="M16,0C7.163,0,0,7.163,0,16s7.163,16,16,16s16-7.163,16-16S24.837,0,16,0z M23,19.496
		c0,0.827-0.673,1.5-1.5,1.5s-1.5-0.673-1.5-1.5v-4c0-0.276-0.225-0.5-0.5-0.5H19V23h0.5c0.28,0,0.5,0.22,0.5,0.5S19.78,24,19.5,24
		h-10C9.22,24,9,23.78,9,23.5S9.22,23,9.5,23H10V10c0-1.1,0.9-2,2-2h5c1.1,0,2,0.9,2,2v3.996h0.5c0.827,0,1.5,0.673,1.5,1.5v4
		c0,0.276,0.225,0.5,0.5,0.5s0.5-0.224,0.5-0.5v-5.793l-1.857-1.857c-0.195-0.195-0.195-0.512,0-0.707s0.512-0.195,0.707,0
		l2.004,2.004C22.947,13.236,23,13.363,23,13.496V19.496z"/>
</g>
</svg>
