<?xml version="1.0" encoding="utf-8"?>
<!-- Generator: Adobe Illustrator 21.0.0, SVG Export Plug-In . SVG Version: 6.00 Build 0)  -->
<svg version="1.1" id="icons" xmlns="http://www.w3.org/2000/svg" xmlns:xlink="http://www.w3.org/1999/xlink" x="0px" y="0px"
	 width="32px" height="32px" viewBox="0 0 32 32" style="enable-background:new 0 0 32 32;" xml:space="preserve">
<style type="text/css">
	.st0{fill:#5057FB;}
	.st1{fill:#C93789;}
	.st2{fill:#ED5C36;}
	.st3{fill:#AFB224;}
	.st4{fill:#15B2CC;}
</style>
<g id="gas_2_">
	<path class="st2" d="M16,0C7.163,0,0,7.163,0,16s7.163,16,16,16s16-7.163,16-16S24.837,0,16,0z M16,23.985c-4.42,0-8-3.58-8-8
		s3.58-8,8-8c4.42,0,8,3.58,8,8S20.42,23.985,16,23.985z"/>
	<path class="st2" d="M15.68,11.016c-0.19-0.07-0.41-0.02-0.54,0.13c-0.14,0.14-0.18,0.36-0.1,0.55c0.01,0.01,0.43,0.95,0.46,1.8
		c0.01,0.39-0.07,0.73-0.22,0.88c-0.05,0.05-0.13,0.11-0.28,0.11c-0.21,0-0.29-0.07-0.35-0.13c-0.24-0.29-0.21-0.99-0.16-1.28
		c0.04-0.22-0.07-0.43-0.26-0.53c-0.2-0.1-0.43-0.07-0.59,0.09c-0.06,0.07-1.64,1.7-1.64,4.29c0,1.78,1.12,3.3,2.67,3.85
		c0.11,0.05,0.23,0.09,0.35,0.11c0.16,0.05,0.32,0.08,0.48,0.1c0.16,0.02,0.33,0.03,0.5,0.03c0.17,0,0.34-0.01,0.5-0.03
		c0.16-0.02,0.32-0.05,0.48-0.1c0.12-0.02,0.24-0.06,0.35-0.11c1.55-0.55,2.67-2.07,2.67-3.85C20,12.725,15.85,11.085,15.68,11.016z
		 M16.63,19.945c-0.14,0.34-0.39,0.72-0.63,1.06c-0.24-0.32-0.49-0.71-0.63-1.06c-0.07-0.18-0.12-0.34-0.12-0.48
		c0-0.43,0.34-0.79,0.75-0.79c0.41,0,0.75,0.36,0.75,0.79C16.75,19.605,16.71,19.766,16.63,19.945z M17.75,19.425
		c-0.02-0.97-0.8-1.75-1.75-1.75s-1.73,0.78-1.75,1.75c-0.75-0.55-1.25-1.47-1.25-2.5c0-1,0.29-1.84,0.6-2.46
		c0.06,0.19,0.16,0.37,0.29,0.53c0.5,0.59,1.54,0.66,2.11,0.08c0.34-0.36,0.52-0.94,0.5-1.62c-0.01-0.33-0.07-0.65-0.14-0.95
		c1.09,0.7,2.64,2.1,2.64,4.42C19,17.955,18.5,18.875,17.75,19.425z"/>
</g>
</svg>
