<?xml version="1.0" encoding="utf-8"?>
<!-- Generator: Adobe Illustrator 21.0.0, SVG Export Plug-In . SVG Version: 6.00 Build 0)  -->
<svg version="1.1" id="icons" xmlns="http://www.w3.org/2000/svg" xmlns:xlink="http://www.w3.org/1999/xlink" x="0px" y="0px"
	 width="16px" height="16px" viewBox="0 0 16 16" style="enable-background:new 0 0 16 16;" xml:space="preserve">
<style type="text/css">
	.st0{fill:#5057FB;}
	.st1{fill:#C93789;}
	.st2{fill:#ED5C36;}
	.st3{fill:#AFB224;}
	.st4{fill:#15B2CC;}
</style>
<g id="gas_3_">
	<path d="M7.68,3.03C7.49,2.96,7.27,3.01,7.14,3.16C7,3.3,6.96,3.52,7.04,3.71c0.01,0.01,0.43,0.95,0.46,1.8
		C7.51,5.9,7.43,6.24,7.28,6.39C7.23,6.44,7.15,6.5,7,6.5c-0.21,0-0.29-0.07-0.35-0.13C6.41,6.08,6.44,5.38,6.49,5.09
		c0.04-0.22-0.07-0.43-0.26-0.53c-0.2-0.1-0.43-0.07-0.59,0.09C5.58,4.72,4,6.35,4,8.94c0,1.78,1.12,3.3,2.67,3.85
		c0.11,0.05,0.23,0.09,0.35,0.11c0.16,0.05,0.32,0.08,0.48,0.1c0.16,0.02,0.33,0.03,0.5,0.03c0.17,0,0.34-0.01,0.5-0.03
		c0.16-0.02,0.32-0.05,0.48-0.1c0.12-0.02,0.24-0.06,0.35-0.11C10.88,12.24,12,10.72,12,8.94C12,4.74,7.85,3.1,7.68,3.03z M8,13.02
		c-0.24-0.32-0.49-0.71-0.63-1.06c-0.07-0.18-0.12-0.34-0.12-0.48c0-0.43,0.34-0.79,0.75-0.79c0.41,0,0.75,0.36,0.75,0.79
		c0,0.14-0.04,0.3-0.12,0.48C8.49,12.3,8.24,12.68,8,13.02z M9.75,11.44C9.73,10.47,8.95,9.69,8,9.69s-1.73,0.78-1.75,1.75
		C5.5,10.89,5,9.97,5,8.94c0-1,0.29-1.84,0.6-2.46c0.06,0.19,0.16,0.37,0.29,0.53C6.39,7.6,7.43,7.67,8,7.09
		c0.34-0.36,0.52-0.94,0.5-1.62C8.49,5.14,8.43,4.82,8.36,4.52C9.45,5.22,11,6.62,11,8.94C11,9.97,10.5,10.89,9.75,11.44z"/>
	<path d="M8,0C3.582,0,0,3.582,0,8s3.582,8,8,8s8-3.582,8-8S12.418,0,8,0z M8,15c-3.86,0-7-3.14-7-7s3.14-7,7-7s7,3.14,7,7
		S11.86,15,8,15z"/>
</g>
</svg>
