<?xml version="1.0" encoding="utf-8"?>
<!-- Generator: Adobe Illustrator 21.0.0, SVG Export Plug-In . SVG Version: 6.00 Build 0)  -->
<svg version="1.1" id="icons" xmlns="http://www.w3.org/2000/svg" xmlns:xlink="http://www.w3.org/1999/xlink" x="0px" y="0px"
	 width="16px" height="16px" viewBox="0 0 16 16" style="enable-background:new 0 0 16 16;" xml:space="preserve">
<style type="text/css">
	.st0{fill:#5057FB;}
	.st1{fill:#C93789;}
	.st2{fill:#ED5C36;}
	.st3{fill:#AFB224;}
	.st4{fill:#15B2CC;}
</style>
<g id="gas">
	<path d="M8,0C3.58,0,0,3.58,0,8s3.58,8,8,8c4.42,0,8-3.58,8-8S12.42,0,8,0z M9.33,12.79c-0.11,0.05-0.23,0.09-0.35,0.11
		C8.82,12.95,8.66,12.98,8.5,13c-0.16,0.02-0.33,0.03-0.5,0.03c-0.17,0-0.34-0.01-0.5-0.03c-0.16-0.02-0.32-0.05-0.48-0.1
		c-0.12-0.02-0.24-0.06-0.35-0.11C5.12,12.24,4,10.72,4,8.94c0-2.59,1.58-4.22,1.64-4.29C5.8,4.49,6.03,4.46,6.23,4.56
		c0.19,0.1,0.3,0.31,0.26,0.53C6.44,5.38,6.41,6.08,6.65,6.37C6.71,6.43,6.79,6.5,7,6.5c0.15,0,0.23-0.06,0.28-0.11
		C7.43,6.24,7.51,5.9,7.5,5.51c-0.03-0.85-0.45-1.79-0.46-1.8C6.96,3.52,7,3.3,7.14,3.16c0.13-0.15,0.35-0.2,0.54-0.13
		C7.85,3.1,12,4.74,12,8.94C12,10.72,10.88,12.24,9.33,12.79z M8.36,4.52c0.07,0.3,0.13,0.62,0.14,0.95C8.52,6.15,8.34,6.73,8,7.09
		C7.43,7.67,6.39,7.6,5.89,7.01C5.76,6.85,5.66,6.67,5.6,6.48C5.29,7.1,5,7.94,5,8.94c0,1.03,0.5,1.95,1.25,2.5
		C6.27,10.47,7.05,9.69,8,9.69s1.73,0.78,1.75,1.75C10.5,10.89,11,9.97,11,8.94C11,6.62,9.45,5.22,8.36,4.52z M8,10.69
		c-0.41,0-0.75,0.36-0.75,0.79c0,0.14,0.05,0.3,0.12,0.48C7.51,12.31,7.76,12.7,8,13.02c0.24-0.34,0.49-0.72,0.63-1.06
		c0.08-0.18,0.12-0.34,0.12-0.48C8.75,11.05,8.41,10.69,8,10.69z"/>
</g>
</svg>
