<?xml version="1.0" encoding="utf-8"?>
<!-- Generator: Adobe Illustrator 21.0.0, SVG Export Plug-In . SVG Version: 6.00 Build 0)  -->
<svg version="1.1" id="icons" xmlns="http://www.w3.org/2000/svg" xmlns:xlink="http://www.w3.org/1999/xlink" x="0px" y="0px"
	 width="16px" height="16px" viewBox="0 0 16 16" style="enable-background:new 0 0 16 16;" xml:space="preserve">
<style type="text/css">
	.st0{fill:#5057FB;}
	.st1{fill:#C93789;}
	.st2{fill:#ED5C36;}
	.st3{fill:#AFB224;}
	.st4{fill:#15B2CC;}
</style>
<g id="gps-navigator_1_">
	<path d="M7.646,12.596c-0.068-0.068-0.117-0.156-0.137-0.255L6.868,9.132L3.659,8.49c-0.217-0.043-0.38-0.225-0.4-0.444
		C3.239,7.825,3.366,7.618,3.572,7.535l7.071-2.828c0.372-0.148,0.798,0.279,0.65,0.65l-2.828,7.071
		c-0.083,0.206-0.29,0.333-0.511,0.312C7.835,12.729,7.727,12.677,7.646,12.596z M7.646,8.354C7.715,8.422,7.763,8.51,7.783,8.609
		l0.377,1.887l1.771-4.426L5.504,7.84l1.887,0.377C7.49,8.237,7.578,8.285,7.646,8.354z"/>
	<path d="M8,0C3.582,0,0,3.582,0,8s3.582,8,8,8s8-3.582,8-8S12.418,0,8,0z M8,15c-3.866,0-7-3.134-7-7c0-3.866,3.134-7,7-7
		s7,3.134,7,7C15,11.866,11.866,15,8,15z"/>
</g>
</svg>
