<?xml version="1.0" encoding="utf-8"?>
<!-- Generator: Adobe Illustrator 21.0.0, SVG Export Plug-In . SVG Version: 6.00 Build 0)  -->
<svg version="1.1" id="icons" xmlns="http://www.w3.org/2000/svg" xmlns:xlink="http://www.w3.org/1999/xlink" x="0px" y="0px"
	 width="16px" height="16px" viewBox="0 0 16 16" style="enable-background:new 0 0 16 16;" xml:space="preserve">
<style type="text/css">
	.st0{fill:#5057FB;}
	.st1{fill:#C93789;}
	.st2{fill:#ED5C36;}
	.st3{fill:#AFB224;}
	.st4{fill:#15B2CC;}
</style>
<path id="gps-navigator_2_" d="M8,0C3.582,0,0,3.582,0,8s3.582,8,8,8s8-3.582,8-8S12.418,0,8,0z M11.293,5.357l-2.828,7.071
	c-0.083,0.206-0.29,0.333-0.511,0.312c-0.119-0.011-0.227-0.064-0.307-0.144c-0.068-0.068-0.117-0.156-0.137-0.255L6.868,9.132
	L3.659,8.49c-0.217-0.043-0.38-0.225-0.4-0.444C3.239,7.825,3.366,7.618,3.572,7.535l7.071-2.828
	C11.014,4.559,11.441,4.986,11.293,5.357z"/>
</svg>
