<?xml version="1.0" encoding="utf-8"?>
<!-- Generator: Adobe Illustrator 21.0.0, SVG Export Plug-In . SVG Version: 6.00 Build 0)  -->
<svg version="1.1" id="icons" xmlns="http://www.w3.org/2000/svg" xmlns:xlink="http://www.w3.org/1999/xlink" x="0px" y="0px"
	 width="32px" height="32px" viewBox="0 0 32 32" style="enable-background:new 0 0 32 32;" xml:space="preserve">
<style type="text/css">
	.st0{fill:none;}
	.st1{fill:#C93789;}
	.st2{font-family:'OpenSans';}
	.st3{font-size:4px;}
	.st4{fill:#5057FB;}
	.st5{fill:#ED5C36;}
	.st6{fill:#AFB224;}
	.st7{fill:#15B2CC;}
</style>
<g id="gps-navigator">
	<path class="st6" d="M18.643,12.707l-7.071,2.828c-0.206,0.083-0.333,0.29-0.312,0.511c0.02,0.219,0.183,0.401,0.4,0.444
		l3.209,0.642l0.641,3.209c0.019,0.099,0.068,0.187,0.137,0.255c0.081,0.081,0.189,0.133,0.307,0.144
		c0.221,0.021,0.428-0.106,0.511-0.312l2.828-7.071C19.441,12.986,19.014,12.559,18.643,12.707z"/>
	<path class="st6" d="M16,0C7.163,0,0,7.163,0,16s7.163,16,16,16s16-7.163,16-16S24.837,0,16,0z M16,24c-4.418,0-8-3.582-8-8
		s3.582-8,8-8s8,3.582,8,8S20.418,24,16,24z"/>
</g>
</svg>
