<?xml version="1.0" encoding="utf-8"?>
<!-- Generator: Adobe Illustrator 21.0.0, SVG Export Plug-In . SVG Version: 6.00 Build 0)  -->
<svg version="1.1" id="icons" xmlns="http://www.w3.org/2000/svg" xmlns:xlink="http://www.w3.org/1999/xlink" x="0px" y="0px"
	 width="16px" height="16px" viewBox="0 0 16 16" style="enable-background:new 0 0 16 16;" xml:space="preserve">
<style type="text/css">
	.st0{fill:#5057FB;}
	.st1{fill:#C93789;}
	.st2{fill:#ED5C36;}
	.st3{fill:#AFB224;}
	.st4{fill:#15B2CC;}
</style>
<g id="hand-controls_4_">
	<path class="st1" d="M8,0C3.582,0,0,3.582,0,8s3.582,8,8,8s8-3.582,8-8S12.418,0,8,0z M8,2c2.8,0,5.151,1.93,5.81,4.528
		C12.275,5.56,10.274,5,8,5S3.725,5.56,2.19,6.528C2.849,3.93,5.2,2,8,2z M2.107,9.106c2.425,0.453,4.334,2.362,4.787,4.787
		C4.472,13.44,2.56,11.528,2.107,9.106z M6,9c0-1.103,0.897-2,2-2s2,0.897,2,2s-0.897,2-2,2S6,10.103,6,9z M9.106,13.893
		c0.453-2.425,2.362-4.334,4.787-4.787C13.44,11.528,11.528,13.44,9.106,13.893z"/>
	<circle class="st1" cx="8" cy="9" r="1"/>
</g>
</svg>
