<?xml version="1.0" encoding="utf-8"?>
<!-- Generator: Adobe Illustrator 21.0.0, SVG Export Plug-In . SVG Version: 6.00 Build 0)  -->
<svg version="1.1" id="icons" xmlns="http://www.w3.org/2000/svg" xmlns:xlink="http://www.w3.org/1999/xlink" x="0px" y="0px"
	 width="16px" height="16px" viewBox="0 0 16 16" style="enable-background:new 0 0 16 16;" xml:space="preserve">
<style type="text/css">
	.st0{fill:#5057FB;}
	.st1{fill:#C93789;}
	.st2{fill:#ED5C36;}
	.st3{fill:#AFB224;}
	.st4{fill:#15B2CC;}
</style>
<g id="hand-controls_2_">
	<path d="M8,11c-1.103,0-2-0.897-2-2s0.897-2,2-2s2,0.897,2,2S9.103,11,8,11z M8,8C7.448,8,7,8.448,7,9s0.448,1,1,1s1-0.448,1-1
		S8.552,8,8,8z"/>
	<path d="M15.927,6.975C15.423,3.042,12.07,0,8,0S0.577,3.042,0.073,6.975C0.03,7.311,0,7.652,0,8c0,0.2,0.016,0.395,0.03,0.591
		c0.012,0.164,0.029,0.326,0.051,0.486c0.046,0.339,0.113,0.671,0.2,0.995c0.737,2.75,2.897,4.909,5.646,5.646
		c0.324,0.087,0.656,0.154,0.995,0.2C7.276,15.967,7.634,16,8,16s0.724-0.033,1.078-0.081c0.339-0.046,0.671-0.113,0.995-0.2
		c2.75-0.737,4.909-2.897,5.646-5.646c0.087-0.324,0.154-0.656,0.2-0.995c0.022-0.161,0.039-0.323,0.051-0.486
		C15.984,8.395,16,8.2,16,8C16,7.652,15.97,7.311,15.927,6.975z M8,1c3.136,0,5.797,2.073,6.685,4.921C12.978,4.726,10.693,4,8,4
		S3.022,4.726,1.315,5.921C2.203,3.073,4.864,1,8,1z M1.303,10.031c2.512,0.154,4.513,2.155,4.667,4.667
		C3.74,14.02,1.98,12.26,1.303,10.031z M10.031,14.697c0.154-2.512,2.155-4.513,4.667-4.667C14.02,12.26,12.26,14.02,10.031,14.697z
		 M15,8c0,0.342-0.033,0.675-0.081,1.004c-3.249,0.043-5.872,2.666-5.915,5.915C8.675,14.967,8.342,15,8,15
		s-0.675-0.033-1.004-0.081C6.953,11.67,4.33,9.047,1.081,9.004C1.033,8.675,1,8.342,1,8c0-0.195,0.014-0.386,0.029-0.577
		C2.64,5.914,5.097,5,8,5s5.36,0.914,6.971,2.423C14.986,7.614,15,7.805,15,8z"/>
</g>
</svg>
