<?xml version="1.0" encoding="utf-8"?>
<!-- Generator: Adobe Illustrator 21.0.0, SVG Export Plug-In . SVG Version: 6.00 Build 0)  -->
<svg version="1.1" id="icons" xmlns="http://www.w3.org/2000/svg" xmlns:xlink="http://www.w3.org/1999/xlink" x="0px" y="0px"
	 width="32px" height="32px" viewBox="0 0 32 32" style="enable-background:new 0 0 32 32;" xml:space="preserve">
<style type="text/css">
	.st0{fill:none;}
	.st1{fill:#ED5C36;}
	.st2{font-family:'OpenSans';}
	.st3{font-size:4px;}
	.st4{fill:#5057FB;}
	.st5{fill:#C93789;}
	.st6{fill:#AFB224;}
	.st7{fill:#15B2CC;}
</style>
<g id="hand-controls_1_">
	<path class="st5" d="M18,17c0-1.103-0.897-2-2-2s-2,0.897-2,2s0.897,2,2,2S18,18.103,18,17z M16,18c-0.552,0-1-0.448-1-1
		s0.448-1,1-1s1,0.448,1,1S16.552,18,16,18z"/>
	<path class="st5" d="M17.106,21.893c2.422-0.454,4.333-2.365,4.787-4.787C19.468,17.559,17.559,19.468,17.106,21.893z"/>
	<path class="st5" d="M10.107,17.106c0.454,2.422,2.365,4.333,4.787,4.787C14.441,19.468,12.532,17.559,10.107,17.106z"/>
	<path class="st5" d="M16,0C7.163,0,0,7.163,0,16s7.163,16,16,16s16-7.163,16-16S24.837,0,16,0z M16,24c-4.418,0-8-3.582-8-8
		s3.582-8,8-8s8,3.582,8,8S20.418,24,16,24z"/>
	<path class="st5" d="M16,10c-2.8,0-5.151,1.93-5.81,4.528C11.725,13.56,13.726,13,16,13s4.275,0.56,5.81,1.528
		C21.151,11.93,18.8,10,16,10z"/>
</g>
</svg>
