<?xml version="1.0" encoding="utf-8"?>
<!-- Generator: Adobe Illustrator 21.0.0, SVG Export Plug-In . SVG Version: 6.00 Build 0)  -->
<svg version="1.1" id="icons" xmlns="http://www.w3.org/2000/svg" xmlns:xlink="http://www.w3.org/1999/xlink" x="0px" y="0px"
	 width="32px" height="32px" viewBox="0 0 32 32" style="enable-background:new 0 0 32 32;" xml:space="preserve">
<style type="text/css">
	.st0{fill:#5057FB;}
	.st1{fill:#C93789;}
	.st2{fill:#ED5C36;}
	.st3{fill:#AFB224;}
	.st4{fill:#15B2CC;}
</style>
<g id="tatchback">
	<path class="st1" d="M13.59,12.99h-1.23c-0.76,0-1.5,0.25-2.1,0.72c-0.43,0.34-0.75,0.78-0.96,1.27h4.69L13.59,12.99z M19.13,14.98
		l-2.38-1.69c-0.27-0.21-0.59-0.3-0.91-0.3h-1.23l0.38,1.89v0.1H19.13z M19.13,14.98l-2.38-1.69c-0.27-0.21-0.59-0.3-0.91-0.3h-1.23
		l0.38,1.89v0.1H19.13z M12.36,12.99c-0.76,0-1.5,0.25-2.1,0.72c-0.43,0.34-0.75,0.78-0.96,1.27h4.69l-0.4-1.99H12.36z M16,0
		C7.16,0,0,7.16,0,16c0,8.84,7.16,16,16,16s16-7.16,16-16C32,7.16,24.84,0,16,0z M11.62,20c-0.63,0-1.15-0.51-1.15-1.15
		c0-0.63,0.52-1.15,1.15-1.15c0.64,0,1.15,0.52,1.15,1.15C12.77,19.49,12.26,20,11.62,20z M20.37,20c-0.63,0-1.15-0.51-1.15-1.15
		c0-0.63,0.52-1.15,1.15-1.15c0.64,0,1.15,0.52,1.15,1.15C21.52,19.49,21.01,20,20.37,20z M23.99,17.07v0.01l-0.24,1.49
		c-0.04,0.24-0.25,0.42-0.5,0.42h-1.27c0-0.01,0.01-0.03,0-0.04C22,18.91,22,18.87,22,18.82c0-0.9-0.73-1.62-1.63-1.62
		s-1.62,0.72-1.62,1.62c0,0.05,0,0.09,0.02,0.13c-0.01,0.01,0,0.03,0,0.04h-5.54c0.01-0.01,0.01-0.03,0.01-0.04
		c0.01-0.04,0.01-0.09,0.01-0.13c0-0.89-0.73-1.62-1.63-1.62c-0.89,0-1.62,0.73-1.62,1.62c0,0.04,0,0.09,0.02,0.13
		c-0.01,0.01,0,0.03,0,0.04H9.5c-0.08,0-0.15-0.02-0.22-0.06l-1-0.49c-0.05-0.02-0.09-0.06-0.12-0.09C8.06,18.25,8,18.12,8,17.98
		v-1.65c0-0.12,0-0.24,0.02-0.36c0.02-0.18,0.05-0.36,0.09-0.53c0.01-0.05,0.02-0.1,0.04-0.15c0-0.03,0.01-0.06,0.02-0.09
		c0.03-0.08,0.05-0.16,0.08-0.24c0-0.03,0.01-0.07,0.02-0.1c0.01-0.01,0.01-0.02,0.02-0.04c0.01-0.03,0.03-0.07,0.05-0.1
		c0.03-0.07,0.06-0.14,0.08-0.21c0.01-0.03,0.02-0.06,0.04-0.08c0.09-0.17,0.18-0.34,0.29-0.51c0.06-0.1,0.13-0.19,0.2-0.28
		c0.08-0.11,0.17-0.22,0.27-0.32c0.13-0.13,0.27-0.26,0.42-0.37c0.77-0.61,1.73-0.95,2.72-0.95h3.48c0.53,0,1.07,0.18,1.5,0.5
		l2.88,2.03l2.67,0.73c0.06,0.02,0.12,0.05,0.17,0.09c0.05,0.03,0.09,0.08,0.12,0.13l0.75,1.25C23.98,16.8,24,16.89,24,16.98
		C24,17.01,24,17.04,23.99,17.07z M15.84,12.99h-1.23l0.38,1.89v0.1h4.14l-2.38-1.69C16.48,13.08,16.16,12.99,15.84,12.99z
		 M12.36,12.99c-0.76,0-1.5,0.25-2.1,0.72c-0.43,0.34-0.75,0.78-0.96,1.27h4.69l-0.4-1.99H12.36z M13.59,12.99h-1.23
		c-0.76,0-1.5,0.25-2.1,0.72c-0.43,0.34-0.75,0.78-0.96,1.27h4.69L13.59,12.99z M19.13,14.98l-2.38-1.69
		c-0.27-0.21-0.59-0.3-0.91-0.3h-1.23l0.38,1.89v0.1H19.13z M19.13,14.98l-2.38-1.69c-0.27-0.21-0.59-0.3-0.91-0.3h-1.23l0.38,1.89
		v0.1H19.13z M13.59,12.99h-1.23c-0.76,0-1.5,0.25-2.1,0.72c-0.43,0.34-0.75,0.78-0.96,1.27h4.69L13.59,12.99z"/>
</g>
</svg>
