<?xml version="1.0" encoding="utf-8"?>
<!-- Generator: Adobe Illustrator 21.0.0, SVG Export Plug-In . SVG Version: 6.00 Build 0)  -->
<svg version="1.1" id="icons" xmlns="http://www.w3.org/2000/svg" xmlns:xlink="http://www.w3.org/1999/xlink" x="0px" y="0px"
	 width="16px" height="16px" viewBox="0 0 16 16" style="enable-background:new 0 0 16 16;" xml:space="preserve">
<style type="text/css">
	.st0{fill:#5057FB;}
	.st1{fill:#C93789;}
	.st2{fill:#ED5C36;}
	.st3{fill:#AFB224;}
	.st4{fill:#15B2CC;}
</style>
<g id="hatchback_1_">
	<path class="st1" d="M13.524,10.849c0,0.636-0.516,1.151-1.15,1.151c-0.636,0-1.151-0.515-1.151-1.151
		c0-0.635,0.515-1.15,1.151-1.15C13.008,9.699,13.524,10.214,13.524,10.849"/>
	<path class="st1" d="M4.774,10.849c0,0.636-0.516,1.151-1.15,1.151c-0.636,0-1.151-0.515-1.151-1.151
		c0-0.635,0.515-1.15,1.151-1.15C4.258,9.699,4.774,10.214,4.774,10.849"/>
	<path class="st1" d="M15.929,8.73l-0.75-1.25c-0.029-0.05-0.069-0.1-0.12-0.13c-0.049-0.04-0.109-0.07-0.17-0.09l-2.67-0.73
		L9.34,4.5C8.91,4.18,8.37,4,7.84,4H4.36C3.37,4,2.41,4.34,1.639,4.95c-0.149,0.11-0.29,0.24-0.42,0.37
		C1.12,5.42,1.03,5.53,0.95,5.64c-0.07,0.09-0.141,0.18-0.2,0.28c-0.111,0.17-0.2,0.34-0.29,0.51C0.44,6.45,0.429,6.48,0.42,6.51
		C0.4,6.58,0.37,6.65,0.34,6.72C0.32,6.75,0.3,6.79,0.29,6.82C0.28,6.84,0.28,6.85,0.269,6.86C0.26,6.89,0.25,6.93,0.25,6.96
		C0.219,7.04,0.2,7.12,0.17,7.2C0.16,7.23,0.15,7.26,0.15,7.29c-0.02,0.05-0.03,0.1-0.04,0.15C0.07,7.61,0.04,7.79,0.019,7.97
		C0,8.09,0,8.21,0,8.33v1.65c0,0.14,0.059,0.27,0.16,0.37c0.03,0.03,0.07,0.07,0.12,0.09l1,0.49c0.069,0.04,0.14,0.06,0.22,0.06
		h0.519c0-0.01-0.009-0.03,0-0.04C2,10.91,2,10.86,2,10.82C2,9.93,2.73,9.2,3.62,9.2c0.899,0,1.63,0.73,1.63,1.62
		c0,0.04,0,0.09-0.01,0.13c0,0.01,0,0.03-0.01,0.04h5.539c0-0.01-0.009-0.03,0-0.04c-0.019-0.04-0.019-0.08-0.019-0.13
		c0-0.9,0.719-1.62,1.62-1.62c0.899,0,1.63,0.72,1.63,1.62c0,0.05,0,0.09-0.02,0.13c0.01,0.01,0,0.03,0,0.04h1.27
		c0.25,0,0.46-0.18,0.5-0.42l0.24-1.49V9.07C16,9.04,16,9.01,16,8.98C16,8.89,15.98,8.8,15.929,8.73 M1.3,6.98
		c0.21-0.49,0.53-0.93,0.96-1.27c0.6-0.47,1.339-0.72,2.1-0.72h1.23l0.4,1.99H1.3z M6.99,6.98v-0.1L6.61,4.99h1.23
		c0.32,0,0.64,0.09,0.91,0.3l2.38,1.69H6.99z"/>
</g>
</svg>
