<?xml version="1.0" encoding="utf-8"?>
<!-- Generator: Adobe Illustrator 21.0.0, SVG Export Plug-In . SVG Version: 6.00 Build 0)  -->
<svg version="1.1" id="icons" xmlns="http://www.w3.org/2000/svg" xmlns:xlink="http://www.w3.org/1999/xlink" x="0px" y="0px"
	 width="16px" height="16px" viewBox="0 0 16 16" style="enable-background:new 0 0 16 16;" xml:space="preserve">
<style type="text/css">
	.st0{fill:#5057FB;}
	.st1{fill:#C93789;}
	.st2{fill:#ED5C36;}
	.st3{fill:#AFB224;}
	.st4{fill:#15B2CC;}
</style>
<path id="hatchback_2_" d="M15.932,8.76l-0.75-1.25c-0.06-0.11-0.17-0.19-0.29-0.23l-2.67-0.74L9.341,4.5
	C8.911,4.18,8.371,4,7.841,4H4.361c-0.99,0-1.95,0.34-2.72,0.95C1.04,5.42,0.6,6.03,0.33,6.72C0.323,6.732,0.32,6.75,0.313,6.764
	c-0.017,0.032-0.029,0.065-0.039,0.1C0.271,6.877,0.262,6.886,0.26,6.9C0.09,7.36,0,7.86,0,8.36v1.66c0,0.19,0.11,0.36,0.28,0.45
	l1,0.47c0.07,0.04,0.14,0.05,0.22,0.05h0.62C2.36,11.58,2.95,12,3.621,12c0.68,0,1.27-0.42,1.51-1.01h5.751
	c0.23,0.59,0.81,1.01,1.49,1.01c0.68,0,1.26-0.42,1.5-1.01h1.38c0.25,0,0.46-0.17,0.5-0.42l0.24-1.47
	C16.013,8.98,15.992,8.86,15.932,8.76z M8.751,5.31l1.678,1.188h-3.52L6.608,5h1.233C8.161,5,8.481,5.1,8.751,5.31z M2.26,5.73
	C2.86,5.26,3.601,5,4.361,5h1.227l0.301,1.498H1.562C1.752,6.209,1.981,5.949,2.26,5.73z M1,9.71V8.36C1,8.07,1.04,7.78,1.11,7.5
	c0-0.001,0-0.001,0.001-0.002h4.888V9.99H5.201c-0.17-0.71-0.82-1.24-1.58-1.24s-1.4,0.53-1.57,1.24H1.62L1,9.71z M3.621,11
	c-0.04,0-0.08,0-0.12-0.01C3.211,10.93,3,10.68,3,10.38c0-0.15,0.05-0.28,0.14-0.39c0.11-0.15,0.28-0.24,0.48-0.24
	s0.38,0.09,0.49,0.24c0.09,0.11,0.14,0.24,0.14,0.39c0,0.3-0.21,0.55-0.5,0.61C3.711,11,3.661,11,3.621,11z M12.372,11
	c-0.04,0-0.08,0-0.12-0.01c-0.29-0.06-0.5-0.32-0.5-0.62c0-0.14,0.05-0.27,0.13-0.38c0.11-0.14,0.29-0.24,0.49-0.24
	s0.38,0.1,0.5,0.24c0.08,0.11,0.13,0.24,0.13,0.38c0,0.3-0.21,0.56-0.5,0.62C12.462,11,12.412,11,12.372,11z M14.832,9.99h-0.88
	c-0.17-0.71-0.81-1.24-1.58-1.24s-1.41,0.53-1.57,1.24H6.999V7.498h4.936L11.942,7.5l2.49,0.69l0.55,0.93L14.832,9.99z"/>
</svg>
