<?xml version="1.0" encoding="utf-8"?>
<!-- Generator: Adobe Illustrator 21.0.0, SVG Export Plug-In . SVG Version: 6.00 Build 0)  -->
<svg version="1.1" id="icons" xmlns="http://www.w3.org/2000/svg" xmlns:xlink="http://www.w3.org/1999/xlink" x="0px" y="0px"
	 width="32px" height="32px" viewBox="0 0 32 32" style="enable-background:new 0 0 32 32;" xml:space="preserve">
<style type="text/css">
	.st0{fill:none;}
	.st1{fill:#AFB224;}
	.st2{font-family:'OpenSans';}
	.st3{font-size:4px;}
	.st4{fill:#5057FB;}
	.st5{fill:#C93789;}
	.st6{fill:#ED5C36;}
	.st7{fill:#15B2CC;}
</style>
<g id="heated-seats_3_">
	<path class="st4" d="M16,18c-1.103,0-2,0.897-2,2s0.897,2,2,2s2-0.897,2-2S17.103,18,16,18z M16,21c-0.552,0-1-0.448-1-1
		s0.448-1,1-1c0.552,0,1,0.448,1,1S16.552,21,16,21z"/>
	<path class="st4" d="M16,0C7.163,0,0,7.163,0,16s7.163,16,16,16s16-7.163,16-16S24.837,0,16,0z M10.5,10h2
		c0.276,0,0.5,0.224,0.5,0.5S12.776,11,12.5,11h-2c-0.276,0-0.5-0.224-0.5-0.5S10.224,10,10.5,10z M13,12.5
		c0,0.276-0.224,0.5-0.5,0.5h-1c-0.276,0-0.5-0.224-0.5-0.5s0.224-0.5,0.5-0.5h1C12.776,12,13,12.224,13,12.5z M10,14.5
		c0-0.276,0.224-0.5,0.5-0.5h2c0.276,0,0.5,0.224,0.5,0.5S12.776,15,12.5,15h-2C10.224,15,10,14.776,10,14.5z M16,24
		c-2.206,0-4-1.794-4-4c0-1.435,0.78-2.746,2-3.451V10c0-1.103,0.897-2,2-2s2,0.897,2,2v6.549c1.22,0.706,2,2.016,2,3.451
		C20,22.206,18.206,24,16,24z M21.5,15h-2c-0.276,0-0.5-0.224-0.5-0.5s0.224-0.5,0.5-0.5h2c0.276,0,0.5,0.224,0.5,0.5
		S21.776,15,21.5,15z M19,12.5c0-0.276,0.224-0.5,0.5-0.5h1c0.276,0,0.5,0.224,0.5,0.5S20.776,13,20.5,13h-1
		C19.224,13,19,12.776,19,12.5z M21.5,11h-2c-0.276,0-0.5-0.224-0.5-0.5s0.224-0.5,0.5-0.5h2c0.276,0,0.5,0.224,0.5,0.5
		S21.776,11,21.5,11z"/>
</g>
</svg>
