<?xml version="1.0" encoding="utf-8"?>
<!-- Generator: Adobe Illustrator 21.0.0, SVG Export Plug-In . SVG Version: 6.00 Build 0)  -->
<svg version="1.1" id="icons" xmlns="http://www.w3.org/2000/svg" xmlns:xlink="http://www.w3.org/1999/xlink" x="0px" y="0px"
	 width="16px" height="16px" viewBox="0 0 16 16" style="enable-background:new 0 0 16 16;" xml:space="preserve">
<style type="text/css">
	.st0{fill:#5057FB;}
	.st1{fill:#C93789;}
	.st2{fill:#ED5C36;}
	.st3{fill:#AFB224;}
	.st4{fill:#15B2CC;}
</style>
<g id="heated-seats">
	<path d="M11,6.5C11,6.224,11.224,6,11.5,6h2C13.776,6,14,6.224,14,6.5S13.776,7,13.5,7h-2C11.224,7,11,6.776,11,6.5z"/>
	<path d="M11,4.5C11,4.224,11.224,4,11.5,4h1C12.776,4,13,4.224,13,4.5S12.776,5,12.5,5h-1C11.224,5,11,4.776,11,4.5z"/>
	<path d="M11,2.5C11,2.224,11.224,2,11.5,2h2C13.776,2,14,2.224,14,2.5S13.776,3,13.5,3h-2C11.224,3,11,2.776,11,2.5z"/>
	<path d="M2,6.5C2,6.224,2.224,6,2.5,6h2C4.776,6,5,6.224,5,6.5S4.776,7,4.5,7h-2C2.224,7,2,6.776,2,6.5z"/>
	<path d="M3,4.5C3,4.224,3.224,4,3.5,4h1C4.776,4,5,4.224,5,4.5S4.776,5,4.5,5h-1C3.224,5,3,4.776,3,4.5z"/>
	<path d="M2,2.5C2,2.224,2.224,2,2.5,2h2C4.776,2,5,2.224,5,2.5S4.776,3,4.5,3h-2C2.224,3,2,2.776,2,2.5z"/>
	<path d="M8,11c0.552,0,1,0.448,1,1s-0.448,1-1,1s-1-0.448-1-1S7.448,11,8,11 M8,10c-1.103,0-2,0.897-2,2s0.897,2,2,2s2-0.897,2-2
		S9.103,10,8,10L8,10z"/>
	<path d="M8,1c0.552,0,1,0.448,1,1v7.184c1.163,0.413,2,1.512,2,2.816c0,1.657-1.343,3-3,3s-3-1.343-3-3
		c0-1.304,0.837-2.403,2-2.816V2C7,1.448,7.448,1,8,1 M8,0C6.897,0,6,0.897,6,2v6.549C4.78,9.254,4,10.565,4,12c0,2.206,1.794,4,4,4
		s4-1.794,4-4c0-1.435-0.78-2.746-2-3.451V2C10,0.897,9.103,0,8,0L8,0z"/>
</g>
</svg>
