<?xml version="1.0" encoding="utf-8"?>
<!-- Generator: Adobe Illustrator 21.0.0, SVG Export Plug-In . SVG Version: 6.00 Build 0)  -->
<svg version="1.1" id="icons" xmlns="http://www.w3.org/2000/svg" xmlns:xlink="http://www.w3.org/1999/xlink" x="0px" y="0px"
	 width="32px" height="32px" viewBox="0 0 32 32" style="enable-background:new 0 0 32 32;" xml:space="preserve">
<style type="text/css">
	.st0{fill:none;}
	.st1{fill:#5057FB;}
	.st2{font-family:'OpenSans';}
	.st3{font-size:4px;}
	.st4{fill:#C93789;}
	.st5{fill:#ED5C36;}
	.st6{fill:#AFB224;}
	.st7{fill:#15B2CC;}
</style>
<rect x="-8" y="-11" class="st0" width="48" height="11"/>
<text transform="matrix(1.0104 0 0 1 6.1699 -7.9595)" class="st1 st2 st3">Order Info</text>
<g id="key_1_">
	<ellipse class="st7" cx="13.5" cy="13.503" rx="1.5" ry="1.503"/>
	<path class="st7" d="M16,0C7.163,0,0,7.163,0,16s7.163,16,16,16s16-7.163,16-16S24.837,0,16,0z M15.599,19.388l-0.033,0.033
		c-0.348,0.35-0.812,0.544-1.307,0.545c-0.001,0-0.003,0-0.004,0c-0.492,0-0.956-0.191-1.305-0.538l-4.406-4.444
		c-0.722-0.719-0.725-1.892-0.007-2.616l3.806-3.824c0.719-0.723,1.893-0.727,2.616-0.007l4.405,4.444
		c0.722,0.719,0.726,1.89,0.01,2.612L15.599,19.388L15.599,19.388z M23.853,23.851C23.757,23.947,23.628,24,23.495,24
		c-0.028,0-0.056-0.002-0.084-0.007l-1.724-0.29c-0.104-0.017-0.198-0.067-0.272-0.141l-4.296-4.28l2.138-2.148l4.296,4.28
		c0.074,0.074,0.123,0.168,0.141,0.271l0.299,1.722C24.021,23.57,23.969,23.735,23.853,23.851z"/>
	<path class="st7" d="M16.104,14.694l-1.425,1.433c-0.197,0.198-0.196,0.517,0.002,0.714c0.198,0.197,0.518,0.196,0.715-0.002
		l1.425-1.433c0.197-0.198,0.196-0.518-0.002-0.714C16.621,14.495,16.302,14.496,16.104,14.694z"/>
</g>
</svg>
