<?xml version="1.0" encoding="utf-8"?>
<!-- Generator: Adobe Illustrator 21.0.0, SVG Export Plug-In . SVG Version: 6.00 Build 0)  -->
<svg version="1.1" id="icons" xmlns="http://www.w3.org/2000/svg" xmlns:xlink="http://www.w3.org/1999/xlink" x="0px" y="0px"
	 width="16px" height="16px" viewBox="0 0 16 16" style="enable-background:new 0 0 16 16;" xml:space="preserve">
<style type="text/css">
	.st0{fill:#5057FB;}
	.st1{fill:#C93789;}
	.st2{fill:#ED5C36;}
	.st3{fill:#AFB224;}
	.st4{fill:#15B2CC;}
</style>
<g id="key_2_">
	<path d="M5.464,6.992c-0.399,0-0.774-0.155-1.058-0.437c-0.284-0.283-0.441-0.66-0.442-1.061C3.963,5.092,4.118,4.714,4.4,4.43
		S5.06,3.987,5.46,3.986c0.001,0,0.003,0,0.003,0c0.4,0,0.775,0.155,1.059,0.437c0.284,0.283,0.441,0.66,0.442,1.061
		C6.965,5.887,6.81,6.264,6.527,6.549c-0.282,0.284-0.659,0.442-1.06,0.443C5.467,6.992,5.465,6.992,5.464,6.992z M5.464,4.988
		L5.464,4.988c-0.135,0-0.26,0.053-0.354,0.148C5.016,5.231,4.964,5.356,4.964,5.49c0,0.134,0.053,0.259,0.147,0.354
		C5.206,5.938,5.331,5.99,5.464,5.99h0.001c0.134,0,0.259-0.053,0.354-0.148c0.095-0.095,0.146-0.221,0.146-0.354
		c0-0.134-0.053-0.26-0.147-0.354C5.722,5.04,5.597,4.988,5.464,4.988z"/>
	<path d="M8.821,7.406L7.396,8.839C7.199,9.037,6.879,9.038,6.681,8.841C6.483,8.644,6.482,8.324,6.679,8.127l1.426-1.433
		c0.197-0.198,0.517-0.199,0.715-0.002S9.018,7.208,8.821,7.406z"/>
	<path d="M15.693,13.686c-0.018-0.103-0.067-0.198-0.141-0.271l-5.007-4.988l0.826-0.83c0.719-0.722,0.717-1.895-0.007-2.616
		L6.959,0.538c-0.723-0.72-1.897-0.716-2.616,0.007L0.537,4.369c-0.719,0.723-0.716,1.896,0.007,2.616l4.406,4.444
		c0.348,0.347,0.812,0.538,1.305,0.538c0.001,0,0.003,0,0.004,0c0.494-0.001,0.958-0.195,1.307-0.545l0.842-0.846l5.007,4.988
		c0.074,0.074,0.169,0.123,0.272,0.141l1.724,0.29C15.439,15.998,15.467,16,15.495,16c0.133,0,0.263-0.053,0.358-0.149
		c0.115-0.116,0.168-0.281,0.139-0.443L15.693,13.686z M6.849,10.709c-0.158,0.159-0.368,0.247-0.592,0.247
		c-0.001,0-0.002,0-0.002,0c-0.224,0-0.433-0.087-0.592-0.244L1.256,6.269C0.929,5.942,0.928,5.409,1.253,5.081l3.806-3.824
		C5.223,1.093,5.438,1.01,5.654,1.01c0.214,0,0.428,0.081,0.592,0.244l4.405,4.443c0.328,0.327,0.33,0.859,0.003,1.188L9.83,7.714
		L6.849,10.709z M14.013,14.734L9.12,9.859l0.713-0.716l4.892,4.874l0.15,0.861L14.013,14.734z"/>
</g>
</svg>
