<?xml version="1.0" encoding="utf-8"?>
<!-- Generator: Adobe Illustrator 21.0.0, SVG Export Plug-In . SVG Version: 6.00 Build 0)  -->
<svg version="1.1" id="icons" xmlns="http://www.w3.org/2000/svg" xmlns:xlink="http://www.w3.org/1999/xlink" x="0px" y="0px"
	 width="16px" height="16px" viewBox="0 0 16 16" style="enable-background:new 0 0 16 16;" xml:space="preserve">
<style type="text/css">
	.st0{fill:#5057FB;}
	.st1{fill:#C93789;}
	.st2{fill:#ED5C36;}
	.st3{fill:#AFB224;}
	.st4{fill:#15B2CC;}
</style>
<g id="key_4_">
	<path class="st4" d="M15.693,13.686c-0.018-0.103-0.067-0.198-0.141-0.271l-4.296-4.28l-2.138,2.148l4.296,4.28
		c0.074,0.074,0.169,0.123,0.272,0.141l1.724,0.29C15.439,15.998,15.467,16,15.495,16c0.133,0,0.263-0.053,0.358-0.149
		c0.115-0.116,0.168-0.281,0.139-0.443L15.693,13.686z"/>
	<path class="st4" d="M11.364,4.981L6.959,0.538c-0.723-0.72-1.897-0.716-2.616,0.007L0.537,4.369
		c-0.719,0.723-0.716,1.896,0.007,2.616l4.406,4.444c0.348,0.347,0.812,0.538,1.305,0.538c0.001,0,0.003,0,0.004,0
		c0.494-0.001,0.958-0.195,1.307-0.545l0.033-0.033l0,0l3.776-3.794C12.09,6.871,12.087,5.701,11.364,4.981z M5.464,6.992
		c-0.828,0-1.5-0.673-1.5-1.503s0.672-1.503,1.5-1.503s1.5,0.673,1.5,1.503S6.292,6.992,5.464,6.992z M8.821,7.406L7.396,8.839
		C7.199,9.037,6.879,9.038,6.681,8.841C6.483,8.644,6.482,8.324,6.679,8.127l1.426-1.433c0.197-0.198,0.517-0.199,0.715-0.002
		C9.017,6.889,9.018,7.208,8.821,7.406z"/>
</g>
</svg>
