<?xml version="1.0" encoding="utf-8"?>
<!-- Generator: Adobe Illustrator 21.0.0, SVG Export Plug-In . SVG Version: 6.00 Build 0)  -->
<svg version="1.1" id="icons" xmlns="http://www.w3.org/2000/svg" xmlns:xlink="http://www.w3.org/1999/xlink" x="0px" y="0px"
	 width="32px" height="32px" viewBox="0 0 32 32" style="enable-background:new 0 0 32 32;" xml:space="preserve">
<style type="text/css">
	.st0{fill:#5057FB;}
	.st1{fill:#C93789;}
	.st2{fill:#ED5C36;}
	.st3{fill:#AFB224;}
	.st4{fill:#15B2CC;}
</style>
<path id="limousine" class="st4" d="M16,0C7.163,0,0,7.163,0,16s7.163,16,16,16s16-7.163,16-16S24.837,0,16,0z M12,18.005
	c-0.414,0-0.75-0.336-0.75-0.75c0-0.414,0.336-0.75,0.75-0.75c0.414,0,0.75,0.336,0.75,0.75C12.75,17.669,12.414,18.005,12,18.005z
	 M20,18.005c-0.414,0-0.75-0.336-0.75-0.75c0-0.414,0.336-0.75,0.75-0.75c0.414,0,0.75,0.336,0.75,0.75
	C20.75,17.669,20.414,18.005,20,18.005z M24,17.006c0,0.28-0.22,0.5-0.5,0.5h-2.28c0.02-0.08,0.03-0.16,0.03-0.25
	c0-0.69-0.56-1.25-1.25-1.25s-1.25,0.56-1.25,1.25c0,0.09,0.01,0.17,0.03,0.25h-5.56c0.02-0.08,0.03-0.16,0.03-0.25
	c0-0.69-0.56-1.25-1.25-1.25s-1.25,0.56-1.25,1.25c0,0.09,0.01,0.17,0.03,0.25H8.5c-0.28,0-0.5-0.22-0.5-0.5v-1.25
	c0-0.25,0.19-0.47,0.44-0.5l1.83-0.22l0.87-0.88c0.05-0.05,0.11-0.09,0.17-0.11c0.06-0.03,0.12-0.04,0.19-0.04h9
	c0.07,0,0.13,0.01,0.19,0.04c0.06,0.02,0.12,0.06,0.17,0.11l0.87,0.88l1.83,0.22c0.25,0.03,0.44,0.25,0.44,0.5V17.006z"/>
</svg>
