<?xml version="1.0" encoding="utf-8"?>
<!-- Generator: Adobe Illustrator 21.0.0, SVG Export Plug-In . SVG Version: 6.00 Build 0)  -->
<svg version="1.1" id="icons" xmlns="http://www.w3.org/2000/svg" xmlns:xlink="http://www.w3.org/1999/xlink" x="0px" y="0px"
	 width="16px" height="16px" viewBox="0 0 16 16" style="enable-background:new 0 0 16 16;" xml:space="preserve">
<style type="text/css">
	.st0{fill:#5057FB;}
	.st1{fill:#C93789;}
	.st2{fill:#ED5C36;}
	.st3{fill:#AFB224;}
	.st4{fill:#15B2CC;}
</style>
<path id="limousine_1_" d="M15.998,8.992V7.75c0-0.253-0.188-0.465-0.438-0.496l-1.829-0.227l-0.877-0.879
	c-0.047-0.047-0.102-0.084-0.164-0.11C12.628,6.013,12.563,6,12.498,6H3.5C3.435,6,3.37,6.013,3.309,6.038
	c-0.062,0.026-0.118,0.063-0.164,0.11L2.267,7.028L0.438,7.254C0.188,7.285,0,7.498,0,7.75v1.251c0,0.276,0.224,0.5,0.5,0.5h2.654
	C3.329,9.794,3.635,10,4,10S4.67,9.794,4.845,9.501h6.309C11.328,9.794,11.634,10,11.999,10s0.671-0.206,0.845-0.499H15.5
	c0.276,0,0.5-0.224,0.5-0.5C16,8.998,15.998,8.995,15.998,8.992z M2.561,7.999c0.11-0.014,0.214-0.064,0.292-0.143L3.706,7h8.585
	l0.853,0.856c0.078,0.079,0.182,0.129,0.292,0.143l1.561,0.193v0.309h-2.152C12.672,8.207,12.365,8,11.999,8
	s-0.673,0.207-0.847,0.502H4.847C4.673,8.207,4.366,8,4,8S3.326,8.207,3.152,8.501H1V8.192L2.561,7.999z"/>
</svg>
