<?xml version="1.0" encoding="utf-8"?>
<!-- Generator: Adobe Illustrator 21.0.0, SVG Export Plug-In . SVG Version: 6.00 Build 0)  -->
<svg version="1.1" id="icons" xmlns="http://www.w3.org/2000/svg" xmlns:xlink="http://www.w3.org/1999/xlink" x="0px" y="0px"
	 width="16px" height="16px" viewBox="0 0 16 16" style="enable-background:new 0 0 16 16;" xml:space="preserve">
<style type="text/css">
	.st0{fill:#5057FB;}
	.st1{fill:#C93789;}
	.st2{fill:#ED5C36;}
	.st3{fill:#AFB224;}
	.st4{fill:#15B2CC;}
</style>
<g id="limoisine">
	<path d="M15.56,7.25l-1.83-0.22l-0.87-0.88c-0.05-0.05-0.11-0.09-0.17-0.11C12.63,6.01,12.57,6,12.5,6h-9
		C3.43,6,3.37,6.01,3.31,6.04C3.25,6.06,3.19,6.1,3.14,6.15L2.27,7.03L0.44,7.25C0.19,7.28,0,7.5,0,7.75v1.25
		c0,0.28,0.22,0.5,0.5,0.5h2.28c-0.02-0.08-0.03-0.16-0.03-0.25C2.75,8.561,3.31,8,4,8s1.25,0.56,1.25,1.25
		c0,0.09-0.01,0.17-0.03,0.25h5.56c-0.02-0.08-0.03-0.16-0.03-0.25C10.75,8.561,11.31,8,12,8s1.25,0.56,1.25,1.25
		c0,0.09-0.01,0.17-0.03,0.25h2.28c0.28,0,0.5-0.22,0.5-0.5V7.75C16,7.5,15.81,7.28,15.56,7.25z"/>
	<g>
		<circle cx="4" cy="9.25" r="0.75"/>
	</g>
	<g>
		<circle cx="12" cy="9.25" r="0.75"/>
	</g>
</g>
</svg>
