<?xml version="1.0" encoding="utf-8"?>
<!-- Generator: Adobe Illustrator 21.0.0, SVG Export Plug-In . SVG Version: 6.00 Build 0)  -->
<svg version="1.1" id="icons" xmlns="http://www.w3.org/2000/svg" xmlns:xlink="http://www.w3.org/1999/xlink" x="0px" y="0px"
	 width="16px" height="16px" viewBox="0 0 16 16" style="enable-background:new 0 0 16 16;" xml:space="preserve">
<style type="text/css">
	.st0{fill:#5057FB;}
	.st1{fill:#C93789;}
	.st2{fill:#ED5C36;}
	.st3{fill:#AFB224;}
	.st4{fill:#15B2CC;}
</style>
<g id="location_2_">
	<path d="M8,16c-0.128,0-0.256-0.049-0.354-0.146C7.416,15.623,2,10.159,2,6c0-3.309,2.691-6,6-6s6,2.691,6,6
		c0,4.159-5.416,9.623-5.646,9.854C8.256,15.951,8.128,16,8,16z M8,1C5.243,1,3,3.243,3,6c0,3.177,3.806,7.499,5,8.776
		C9.194,13.498,13,9.174,13,6C13,3.243,10.757,1,8,1z"/>
	<path d="M8,8C6.621,8,5.5,6.879,5.5,5.5S6.621,3,8,3s2.5,1.121,2.5,2.5S9.379,8,8,8z M8,4C7.173,4,6.5,4.673,6.5,5.5S7.173,7,8,7
		s1.5-0.673,1.5-1.5S8.827,4,8,4z"/>
</g>
</svg>
