<?xml version="1.0" encoding="utf-8"?>
<!-- Generator: Adobe Illustrator 21.0.0, SVG Export Plug-In . SVG Version: 6.00 Build 0)  -->
<svg version="1.1" id="icons" xmlns="http://www.w3.org/2000/svg" xmlns:xlink="http://www.w3.org/1999/xlink" x="0px" y="0px"
	 width="32px" height="32px" viewBox="0 0 32 32" style="enable-background:new 0 0 32 32;" xml:space="preserve">
<style type="text/css">
	.st0{fill:none;}
	.st1{fill:#AFB224;}
	.st2{font-family:'OpenSans';}
	.st3{font-size:4px;}
	.st4{fill:#5057FB;}
	.st5{fill:#C93789;}
	.st6{fill:#ED5C36;}
	.st7{fill:#15B2CC;}
</style>
<g id="location_1_">
	<g>
		<path class="st4" d="M15.5,11c-1.379,0-2.5,1.121-2.5,2.5s1.121,2.5,2.5,2.5s2.5-1.121,2.5-2.5S16.879,11,15.5,11z M15.5,15
			c-0.827,0-1.5-0.673-1.5-1.5s0.673-1.5,1.5-1.5s1.5,0.673,1.5,1.5S16.327,15,15.5,15z"/>
		<path class="st4" d="M16,0C7.163,0,0,7.163,0,16s7.163,16,16,16s16-7.163,16-16S24.837,0,16,0z M15.854,23.854
			C15.756,23.951,15.628,24,15.5,24s-0.256-0.049-0.354-0.146C14.916,23.623,9.5,18.159,9.5,14c0-3.309,2.691-6,6-6s6,2.691,6,6
			C21.5,18.159,16.084,23.623,15.854,23.854z"/>
	</g>
</g>
</svg>
