<?xml version="1.0" encoding="utf-8"?>
<!-- Generator: Adobe Illustrator 21.0.0, SVG Export Plug-In . SVG Version: 6.00 Build 0)  -->
<svg version="1.1" id="icons" xmlns="http://www.w3.org/2000/svg" xmlns:xlink="http://www.w3.org/1999/xlink" x="0px" y="0px"
	 width="16px" height="16px" viewBox="0 0 16 16" style="enable-background:new 0 0 16 16;" xml:space="preserve">
<style type="text/css">
	.st0{fill:#5057FB;}
	.st1{fill:#C93789;}
	.st2{fill:#ED5C36;}
	.st3{fill:#AFB224;}
	.st4{fill:#15B2CC;}
</style>
<g id="location_3_">
	<path d="M8,0C4.691,0,2,2.691,2,6c0,4.159,5.416,9.623,5.646,9.854C7.744,15.951,7.872,16,8,16s0.256-0.049,0.354-0.146
		C8.584,15.623,14,10.159,14,6C14,2.691,11.309,0,8,0z M8,8C6.621,8,5.5,6.879,5.5,5.5S6.621,3,8,3s2.5,1.121,2.5,2.5S9.379,8,8,8z"
		/>
	<circle cx="8" cy="5.5" r="1.5"/>
</g>
</svg>
