<?xml version="1.0" encoding="utf-8"?>
<!-- Generator: Adobe Illustrator 21.0.0, SVG Export Plug-In . SVG Version: 6.00 Build 0)  -->
<svg version="1.1" id="icons" xmlns="http://www.w3.org/2000/svg" xmlns:xlink="http://www.w3.org/1999/xlink" x="0px" y="0px"
	 width="32px" height="32px" viewBox="0 0 32 32" style="enable-background:new 0 0 32 32;" xml:space="preserve">
<style type="text/css">
	.st0{fill:#5057FB;}
	.st1{fill:#C93789;}
	.st2{fill:#ED5C36;}
	.st3{fill:#AFB224;}
	.st4{fill:#15B2CC;}
</style>
<g id="luggage-quantity_1_">
	<path class="st1" d="M22.5,20H21v-1.5c0-0.276-0.224-0.5-0.5-0.5S20,18.224,20,18.5V20h-1.5c-0.276,0-0.5,0.224-0.5,0.5
		s0.224,0.5,0.5,0.5H20v1.5c0,0.276,0.224,0.5,0.5,0.5s0.5-0.224,0.5-0.5V21h1.5c0.276,0,0.5-0.224,0.5-0.5S22.776,20,22.5,20z"/>
	<rect x="12" y="9" class="st1" width="2" height="2"/>
	<path class="st1" d="M16,0C7.163,0,0,7.163,0,16s7.163,16,16,16s16-7.163,16-16S24.837,0,16,0z M8,13c0-1.103,0.897-2,2-2h1V8.5
		C11,8.224,11.224,8,11.5,8h3C14.776,8,15,8.224,15,8.5V11h1c1.103,0,2,0.897,2,2v1H8V13z M16,23v0.5c0,0.276-0.224,0.5-0.5,0.5
		S15,23.776,15,23.5V23h-4v0.5c0,0.276-0.224,0.5-0.5,0.5S10,23.776,10,23.5V23c-1.103,0-2-0.897-2-2v-6h10v1.76
		c-1.205,0.807-2,2.18-2,3.74c0,0.873,0.259,1.68,0.689,2.37C16.474,22.95,16.243,23,16,23z M20.5,24c-1.933,0-3.5-1.567-3.5-3.5
		s1.567-3.5,3.5-3.5s3.5,1.567,3.5,3.5S22.433,24,20.5,24z"/>
</g>
</svg>
