<?xml version="1.0" encoding="utf-8"?>
<!-- Generator: Adobe Illustrator 21.0.0, SVG Export Plug-In . SVG Version: 6.00 Build 0)  -->
<svg version="1.1" id="icons" xmlns="http://www.w3.org/2000/svg" xmlns:xlink="http://www.w3.org/1999/xlink" x="0px" y="0px"
	 width="16px" height="16px" viewBox="0 0 16 16" style="enable-background:new 0 0 16 16;" xml:space="preserve">
<style type="text/css">
	.st0{fill:#5057FB;}
	.st1{fill:#C93789;}
	.st2{fill:#ED5C36;}
	.st3{fill:#AFB224;}
	.st4{fill:#15B2CC;}
</style>
<g id="luggage-quantity_2_">
	<path d="M13.5,11H12V9.5C12,9.224,11.776,9,11.5,9S11,9.224,11,9.5V11H9.5C9.224,11,9,11.224,9,11.5S9.224,12,9.5,12H11v1.5
		c0,0.276,0.224,0.5,0.5,0.5s0.5-0.224,0.5-0.5V12h1.5c0.276,0,0.5-0.224,0.5-0.5S13.776,11,13.5,11z"/>
	<path d="M11.5,7c-0.529,0-1.029,0.108-1.5,0.276V5c0-1.103-0.897-2-2-2H7V0.5C7,0.224,6.776,0,6.5,0h-3C3.224,0,3,0.224,3,0.5V3H2
		C0.897,3,0,3.897,0,5v8c0,1.103,0.897,2,2,2v0.5C2,15.776,2.224,16,2.5,16S3,15.776,3,15.5V15h4v0.5C7,15.776,7.224,16,7.5,16
		S8,15.776,8,15.5V15c0.205,0,0.399-0.04,0.585-0.098C9.372,15.577,10.382,16,11.5,16c2.485,0,4.5-2.015,4.5-4.5S13.985,7,11.5,7z
		 M8,4c0.552,0,1,0.448,1,1v1H7V4H8z M4,4h2v2H4V4z M4,1h2v2H4V1z M1,5c0-0.552,0.448-1,1-1h1v2H1V5z M1,13V7h8v0.76
		C7.795,8.567,7,9.94,7,11.5c0,0.925,0.281,1.785,0.76,2.5H2C1.448,14,1,13.552,1,13z M11.5,15C9.567,15,8,13.433,8,11.5
		S9.567,8,11.5,8S15,9.567,15,11.5S13.433,15,11.5,15z"/>
</g>
</svg>
