<?xml version="1.0" encoding="utf-8"?>
<!-- Generator: Adobe Illustrator 21.0.0, SVG Export Plug-In . SVG Version: 6.00 Build 0)  -->
<svg version="1.1" id="icons" xmlns="http://www.w3.org/2000/svg" xmlns:xlink="http://www.w3.org/1999/xlink" x="0px" y="0px"
	 width="16px" height="16px" viewBox="0 0 16 16" style="enable-background:new 0 0 16 16;" xml:space="preserve">
<style type="text/css">
	.st0{fill:#5057FB;}
	.st1{fill:#C93789;}
	.st2{fill:#ED5C36;}
	.st3{fill:#AFB224;}
	.st4{fill:#15B2CC;}
</style>
<g id="luggage-quantity_4_">
	<path class="st1" d="M0,7v6c0,1.103,0.897,2,2,2v0.5C2,15.776,2.224,16,2.5,16S3,15.776,3,15.5V15h4v0.5C7,15.776,7.224,16,7.5,16
		S8,15.776,8,15.5V15c0.243,0,0.474-0.05,0.689-0.13C8.259,14.18,8,13.373,8,12.5c0-1.56,0.795-2.933,2-3.74V7H0z"/>
	<path class="st1" d="M12.5,9C10.567,9,9,10.567,9,12.5s1.567,3.5,3.5,3.5s3.5-1.567,3.5-3.5S14.433,9,12.5,9z M14.5,13H13v1.5
		c0,0.276-0.224,0.5-0.5,0.5S12,14.776,12,14.5V13h-1.5c-0.276,0-0.5-0.224-0.5-0.5s0.224-0.5,0.5-0.5H12v-1.5
		c0-0.276,0.224-0.5,0.5-0.5s0.5,0.224,0.5,0.5V12h1.5c0.276,0,0.5,0.224,0.5,0.5S14.776,13,14.5,13z"/>
	<path class="st1" d="M8,3H7V0.5C7,0.224,6.776,0,6.5,0h-3C3.224,0,3,0.224,3,0.5V3H2C0.897,3,0,3.897,0,5v1h10V5
		C10,3.897,9.103,3,8,3z M4,3V1h2v2H4z"/>
</g>
</svg>
