<?xml version="1.0" encoding="utf-8"?>
<!-- Generator: Adobe Illustrator 21.0.0, SVG Export Plug-In . SVG Version: 6.00 Build 0)  -->
<svg version="1.1" id="icons" xmlns="http://www.w3.org/2000/svg" xmlns:xlink="http://www.w3.org/1999/xlink" x="0px" y="0px"
	 width="16px" height="16px" viewBox="0 0 16 16" style="enable-background:new 0 0 16 16;" xml:space="preserve">
<style type="text/css">
	.st0{fill:#5057FB;}
	.st1{fill:#C93789;}
	.st2{fill:#ED5C36;}
	.st3{fill:#AFB224;}
	.st4{fill:#15B2CC;}
</style>
<g id="manual-transmission_1_">
	<path d="M4,12c-0.552,0-1,0.448-1,1h12c0-0.552-0.448-1-1-1H4z"/>
	<path d="M1,14c-0.552,0-1,0.448-1,1l0,0c0,0.552,0.448,1,1,1h14c0.552,0,1-0.448,1-1l0,0c0-0.552-0.448-1-1-1H1z"/>
	<path d="M14.47,0.196C13.2-0.339,11.731,0.259,11.196,1.53c-0.469,1.113-0.068,2.377,0.893,3.034L10.221,10H7c-0.552,0-1,0.448-1,1
		h8c0-0.552-0.448-1-1-1h-1.694l1.705-5.048c1.141,0.228,2.325-0.369,2.794-1.481C16.339,2.2,15.741,0.731,14.47,0.196z"/>
</g>
</svg>
