<?xml version="1.0" encoding="utf-8"?>
<!-- Generator: Adobe Illustrator 21.0.0, SVG Export Plug-In . SVG Version: 6.00 Build 0)  -->
<svg version="1.1" id="icons" xmlns="http://www.w3.org/2000/svg" xmlns:xlink="http://www.w3.org/1999/xlink" x="0px" y="0px"
	 width="16px" height="16px" viewBox="0 0 16 16" style="enable-background:new 0 0 16 16;" xml:space="preserve">
<style type="text/css">
	.st0{fill:#5057FB;}
	.st1{fill:#C93789;}
	.st2{fill:#ED5C36;}
	.st3{fill:#AFB224;}
	.st4{fill:#15B2CC;}
</style>
<path id="manual-transmission_2_" d="M15,13v-1c0-0.552-0.448-1-1-1v-1c0-0.552-0.448-1-1-1h-1.694l1.705-4.048
	c1.141,0.228,2.325-0.369,2.794-1.481c0.535-1.271-0.063-2.739-1.334-3.274C13.2-0.339,11.731,0.259,11.196,1.53
	c-0.469,1.113-0.068,2.377,0.893,3.034L10.221,9H7c-0.552,0-1,0.448-1,1v1H4c-0.552,0-1,0.448-1,1v1H1c-0.552,0-1,0.448-1,1v1
	c0,0.552,0.448,1,1,1h14c0.552,0,1-0.448,1-1v-1C16,13.448,15.552,13,15,13z M12.118,1.918c0.321-0.763,1.201-1.122,1.965-0.8
	c0.763,0.321,1.122,1.201,0.8,1.965c-0.321,0.763-1.201,1.122-1.965,0.8S11.796,2.681,12.118,1.918z M7,10h6v1H7V10z M4,12h10v1H4
	V12z M15,15H1v-1h14V15z"/>
</svg>
