<?xml version="1.0" encoding="utf-8"?>
<!-- Generator: Adobe Illustrator 21.0.0, SVG Export Plug-In . SVG Version: 6.00 Build 0)  -->
<svg version="1.1" id="icons" xmlns="http://www.w3.org/2000/svg" xmlns:xlink="http://www.w3.org/1999/xlink" x="0px" y="0px"
	 width="32px" height="32px" viewBox="0 0 32 32" style="enable-background:new 0 0 32 32;" xml:space="preserve">
<style type="text/css">
	.st0{fill:none;}
	.st1{fill:#ED5C36;}
	.st2{font-family:'OpenSans';}
	.st3{font-size:4px;}
	.st4{fill:#5057FB;}
	.st5{fill:#C93789;}
	.st6{fill:#AFB224;}
	.st7{fill:#15B2CC;}
</style>
<g id="map_2_">
	<path class="st5" d="M18,12c0-1.103-0.897-2-2-2s-2,0.897-2,2s0.897,2,2,2S18,13.103,18,12z M15,12c0-0.552,0.448-1,1-1
		s1,0.448,1,1s-0.448,1-1,1S15,12.552,15,12z"/>
	<path class="st5" d="M16,0C7.163,0,0,7.163,0,16s7.163,16,16,16s16-7.163,16-16S24.837,0,16,0z M16,8c2.206,0,4,1.682,4,3.75
		c0,2.599-3.611,6.014-3.764,6.158C16.17,17.969,16.085,18,16,18s-0.171-0.031-0.236-0.092C15.61,17.764,12,14.349,12,11.75
		C12,9.682,13.794,8,16,8z M23.901,23.798C23.807,23.925,23.658,24,23.5,24h-15c-0.158,0-0.307-0.075-0.401-0.202
		c-0.094-0.127-0.123-0.292-0.077-0.443l3.021-9.015c0.054-0.181,0.211-0.292,0.39-0.328c-0.041-0.001,0.012-0.002,0.139-0.003
		c1.047,2.271,3.195,4.334,3.509,4.629C15.329,18.871,15.656,19,16,19s0.671-0.129,0.92-0.362c0.314-0.294,2.468-2.363,3.513-4.638
		c0.076,0,0.121,0,0.14,0c0.197,0.022,0.37,0.146,0.428,0.34l2.979,9.015C24.024,23.507,23.995,23.671,23.901,23.798z"/>
</g>
</svg>
