<?xml version="1.0" encoding="utf-8"?>
<!-- Generator: Adobe Illustrator 21.0.0, SVG Export Plug-In . SVG Version: 6.00 Build 0)  -->
<svg version="1.1" id="icons" xmlns="http://www.w3.org/2000/svg" xmlns:xlink="http://www.w3.org/1999/xlink" x="0px" y="0px"
	 width="15.997px" height="16px" viewBox="0 0 15.997 16" style="enable-background:new 0 0 15.997 16;" xml:space="preserve">
<style type="text/css">
	.st0{fill:#5057FB;}
	.st1{fill:#C93789;}
	.st2{fill:#ED5C36;}
	.st3{fill:#AFB224;}
	.st4{fill:#15B2CC;}
</style>
<g id="map_3_">
	<path d="M7.997,6c1.103,0,2-0.897,2-2s-0.897-2-2-2s-2,0.897-2,2S6.895,6,7.997,6z M7.997,3c0.552,0,1,0.448,1,1s-0.448,1-1,1
		s-1-0.448-1-1S7.446,3,7.997,3z"/>
	<path d="M15.977,15.36l-2.98-9C12.937,6.14,12.737,6,12.517,6h-1.1c0.38-0.79,0.58-1.49,0.58-2.11c0-2.15-1.79-3.89-4-3.89
		s-4,1.74-4,3.89c0,0.62,0.2,1.32,0.58,2.11h-1.06c-0.22,0-0.41,0.14-0.48,0.36l-3.02,9c-0.04,0.15-0.01,0.31,0.08,0.44
		c0.09,0.12,0.24,0.2,0.4,0.2h15c0.16,0,0.31-0.08,0.4-0.2C15.997,15.67,16.017,15.51,15.977,15.36z M7.997,1c1.65,0,3,1.29,3,2.89
		c0,0.59-0.25,1.26-0.6,1.92c-0.03,0.06-0.08,0.13-0.11,0.19c-0.15,0.26-0.3,0.52-0.47,0.77C9.767,6.85,9.707,6.92,9.657,7
		c-0.6,0.85-1.26,1.58-1.66,2c-0.39-0.42-1.05-1.15-1.66-2c-0.05-0.08-0.11-0.15-0.16-0.23C6.007,6.52,5.857,6.26,5.717,6
		c-0.04-0.06-0.08-0.13-0.12-0.19c-0.35-0.66-0.6-1.33-0.6-1.92C4.997,2.29,6.347,1,7.997,1z M1.167,15l2.72-8h1.25
		c0.07,0.11,0.14,0.23,0.21,0.33c0.69,1.02,1.5,1.92,1.93,2.36c0.18,0.2,0.45,0.31,0.72,0.31s0.54-0.11,0.72-0.31
		c0.43-0.44,1.24-1.34,1.93-2.36c0.07-0.1,0.14-0.22,0.21-0.33h1.29l2.68,8H1.167z"/>
</g>
</svg>
