<?xml version="1.0" encoding="utf-8"?>
<!-- Generator: Adobe Illustrator 21.0.0, SVG Export Plug-In . SVG Version: 6.00 Build 0)  -->
<svg version="1.1" id="icons" xmlns="http://www.w3.org/2000/svg" xmlns:xlink="http://www.w3.org/1999/xlink" x="0px" y="0px"
	 width="16px" height="16px" viewBox="0 0 16 16" style="enable-background:new 0 0 16 16;" xml:space="preserve">
<style type="text/css">
	.st0{fill:#5057FB;}
	.st1{fill:#C93789;}
	.st2{fill:#ED5C36;}
	.st3{fill:#AFB224;}
	.st4{fill:#15B2CC;}
</style>
<g id="map_1_">
	<circle class="st1" cx="8" cy="4" r="1"/>
	<path class="st1" d="M8,0C5.794,0,4,1.682,4,3.75C4,6.349,7.61,9.764,7.764,9.908C7.829,9.97,7.914,10,8,10S8.17,9.97,8.235,9.908
		C8.389,9.764,12,6.349,12,3.75C12,1.682,10.205,0,8,0z M8,6C6.897,6,6,5.103,6,4s0.897-2,2-2s2,0.897,2,2S9.102,6,8,6z"/>
	<path class="st1" d="M15.978,15.355L13,6.34C12.942,6.146,12.769,6.022,12.572,6c-0.019,0-0.064,0-0.14,0
		c-1.045,2.275-3.199,4.343-3.513,4.638C8.671,10.871,8.344,11,8,11s-0.671-0.129-0.919-0.362c-0.314-0.294-2.462-2.357-3.509-4.629
		C3.444,6.01,3.392,6.011,3.432,6.013C3.253,6.048,3.097,6.16,3.043,6.34l-3.021,9.015c-0.046,0.152-0.017,0.316,0.077,0.443
		C0.193,15.925,0.342,16,0.5,16h15c0.158,0,0.307-0.075,0.401-0.202C15.995,15.671,16.024,15.507,15.978,15.355z"/>
</g>
</svg>
