<?xml version="1.0" encoding="utf-8"?>
<!-- Generator: Adobe Illustrator 21.0.0, SVG Export Plug-In . SVG Version: 6.00 Build 0)  -->
<svg version="1.1" id="icons" xmlns="http://www.w3.org/2000/svg" xmlns:xlink="http://www.w3.org/1999/xlink" x="0px" y="0px"
	 width="16px" height="16px" viewBox="0 0 16 16" style="enable-background:new 0 0 16 16;" xml:space="preserve">
<style type="text/css">
	.st0{fill:#5057FB;}
	.st1{fill:#C93789;}
	.st2{fill:#ED5C36;}
	.st3{fill:#AFB224;}
	.st4{fill:#15B2CC;}
</style>
<g id="minivan_1_">
	<path class="st3" d="M4.392,10.85c0,0.635-0.515,1.15-1.149,1.15c-0.636,0-1.151-0.515-1.151-1.15c0-0.635,0.515-1.15,1.151-1.15
		C3.877,9.7,4.392,10.215,4.392,10.85"/>
	<path class="st3" d="M12.892,10.85c0,0.635-0.515,1.15-1.149,1.15c-0.636,0-1.151-0.515-1.151-1.15c0-0.635,0.515-1.15,1.151-1.15
		C12.377,9.7,12.892,10.215,12.892,10.85"/>
	<path class="st3" d="M15.78,8.09l-2.19-1.46L11.64,4.2V4.19c-0.02-0.03-0.05-0.06-0.08-0.07C11.48,4.04,11.36,4,11.25,4H1
		C0.88,4,0.76,4.05,0.68,4.12C0.59,4.2,0.53,4.29,0.51,4.41l-0.5,2.55C0.01,6.98,0,6.99,0,7v3.5v0.01c0,0.14,0.06,0.26,0.14,0.35
		C0.24,10.95,0.36,11,0.5,11h1.01C1.5,10.95,1.5,10.91,1.5,10.86c0-0.97,0.78-1.75,1.75-1.75S5,9.89,5,10.86
		c0,0.05,0,0.09-0.01,0.14h5.02C10,10.95,10,10.91,10,10.86c0-0.97,0.78-1.75,1.75-1.75s1.75,0.78,1.75,1.75
		c0,0.05,0,0.09-0.01,0.14h2.01c0.14,0,0.26-0.05,0.36-0.14c0.08-0.09,0.14-0.21,0.14-0.35V10.5v-2C16,8.34,15.92,8.18,15.78,8.09
		 M4,7.01H1.01L1.41,5H4V7.01z M8,7.01H5V5h3V7.01z M9,7.01V5h2.01l1.6,2.01H9z"/>
</g>
</svg>
