<?xml version="1.0" encoding="utf-8"?>
<!-- Generator: Adobe Illustrator 21.0.0, SVG Export Plug-In . SVG Version: 6.00 Build 0)  -->
<svg version="1.1" id="icons" xmlns="http://www.w3.org/2000/svg" xmlns:xlink="http://www.w3.org/1999/xlink" x="0px" y="0px"
	 width="32px" height="32px" viewBox="0 0 32 32" style="enable-background:new 0 0 32 32;" xml:space="preserve">
<style type="text/css">
	.st0{fill:#5057FB;}
	.st1{fill:#C93789;}
	.st2{fill:#ED5C36;}
	.st3{fill:#AFB224;}
	.st4{fill:#15B2CC;}
</style>
<g id="minivan_2_">
	<path class="st3" d="M9.41,13l-0.4,2.01H12V13H9.41z M13,13v2.01h3V13H13z M19.01,13H17v2.01h3.61L19.01,13z M19.01,13H17v2.01
		h3.61L19.01,13z M13,15.01h3V13h-3V15.01z M9.01,15.01H12V13H9.41L9.01,15.01z M16,0C7.16,0,0,7.16,0,16c0,8.84,7.16,16,16,16
		s16-7.16,16-16C32,7.16,24.84,0,16,0z M11.24,20c-0.63,0-1.15-0.51-1.15-1.15c0-0.63,0.52-1.15,1.15-1.15
		c0.64,0,1.15,0.52,1.15,1.15C12.39,19.49,11.88,20,11.24,20z M19.74,20c-0.63,0-1.15-0.51-1.15-1.15c0-0.63,0.52-1.15,1.15-1.15
		c0.64,0,1.15,0.52,1.15,1.15C20.89,19.49,20.38,20,19.74,20z M24,18.51c0,0.14-0.06,0.26-0.14,0.35C23.76,18.95,23.64,19,23.5,19
		h-2.01c0.01-0.05,0.01-0.09,0.01-0.14c0-0.97-0.78-1.75-1.75-1.75S18,17.89,18,18.86c0,0.05,0,0.09,0.01,0.14h-5.02
		C13,18.95,13,18.91,13,18.86c0-0.97-0.78-1.75-1.75-1.75S9.5,17.89,9.5,18.86c0,0.05,0,0.09,0.01,0.14H8.5
		c-0.14,0-0.26-0.05-0.36-0.14C8.06,18.77,8,18.65,8,18.51V15c0-0.01,0.01-0.02,0.01-0.04l0.5-2.55c0.02-0.12,0.08-0.21,0.17-0.29
		C8.76,12.05,8.88,12,9,12h10.25c0.11,0,0.23,0.04,0.31,0.12c0.03,0.01,0.06,0.04,0.08,0.07v0.01l1.95,2.43l2.19,1.46
		C23.92,16.18,24,16.34,24,16.5V18.51z M17,13v2.01h3.61L19.01,13H17z M13,15.01h3V13h-3V15.01z M9.01,15.01H12V13H9.41L9.01,15.01z
		 M9.41,13l-0.4,2.01H12V13H9.41z M13,13v2.01h3V13H13z M19.01,13H17v2.01h3.61L19.01,13z M19.01,13H17v2.01h3.61L19.01,13z M13,13
		v2.01h3V13H13z M9.41,13l-0.4,2.01H12V13H9.41z"/>
</g>
</svg>
