<?xml version="1.0" encoding="utf-8"?>
<!-- Generator: Adobe Illustrator 21.0.0, SVG Export Plug-In . SVG Version: 6.00 Build 0)  -->
<svg version="1.1" id="icons" xmlns="http://www.w3.org/2000/svg" xmlns:xlink="http://www.w3.org/1999/xlink" x="0px" y="0px"
	 width="16px" height="16px" viewBox="0 0 16 16" style="enable-background:new 0 0 16 16;" xml:space="preserve">
<style type="text/css">
	.st0{fill:#5057FB;}
	.st1{fill:#C93789;}
	.st2{fill:#ED5C36;}
	.st3{fill:#AFB224;}
	.st4{fill:#15B2CC;}
</style>
<path id="minivan_3_" d="M15.777,8.085l-2.186-1.457l-1.951-2.44C11.546,4.069,11.402,4,11.25,4L1,4C0.762,4,0.557,4.169,0.51,4.402
	L0.008,6.96C0.007,6.974,0,6.986,0,7c0,0,0,0,0,0.001l0,0.001V10.5c0,0.002,0.001,0.004,0.001,0.006C0.005,10.783,0.222,11,0.5,11
	h1.18c0.27,0.59,0.87,1,1.57,1c0.69,0,1.3-0.41,1.57-1h5.36c0.27,0.59,0.88,1,1.57,1s1.3-0.41,1.57-1h2.18
	c0.278,0,0.496-0.217,0.499-0.494c0-0.002,0.001-0.004,0.001-0.006V8.501C16,8.334,15.917,8.178,15.777,8.085z M15,10h-1.53
	c-0.11-0.85-0.85-1.5-1.72-1.5s-1.61,0.65-1.72,1.5H4.97C4.86,9.15,4.12,8.5,3.25,8.5c-0.88,0-1.61,0.65-1.72,1.5H0.999L0.991,7.5
	h12.106L15,8.768V10z M4.998,6.5V5l3,0v1.5H4.998z M12.209,6.5H8.998V5l2.012,0L12.209,6.5z M3.998,5v1.5H1.11L1.41,5L3.998,5z
	 M3.25,11c-0.42,0-0.75-0.34-0.75-0.75c0-0.09,0.01-0.17,0.05-0.25c0.09-0.29,0.37-0.5,0.7-0.5c0.32,0,0.6,0.21,0.7,0.5
	C3.99,10.08,4,10.16,4,10.25C4,10.66,3.66,11,3.25,11z M11.75,11C11.34,11,11,10.66,11,10.25c0-0.09,0.01-0.17,0.05-0.25
	c0.1-0.29,0.38-0.5,0.7-0.5s0.6,0.21,0.7,0.5c0.04,0.08,0.05,0.16,0.05,0.25C12.5,10.66,12.16,11,11.75,11z"/>
</svg>
