<?xml version="1.0" encoding="utf-8"?>
<!-- Generator: Adobe Illustrator 21.0.0, SVG Export Plug-In . SVG Version: 6.00 Build 0)  -->
<svg version="1.1" id="icons" xmlns="http://www.w3.org/2000/svg" xmlns:xlink="http://www.w3.org/1999/xlink" x="0px" y="0px"
	 width="32px" height="32px" viewBox="0 0 32 32" style="enable-background:new 0 0 32 32;" xml:space="preserve">
<style type="text/css">
	.st0{fill:#5057FB;}
	.st1{fill:#C93789;}
	.st2{fill:#ED5C36;}
	.st3{fill:#AFB224;}
	.st4{fill:#15B2CC;}
</style>
<g id="motorcycle">
	<path class="st0" d="M21.495,16.513c-0.07,0-0.14,0.02-0.21,0.03l0.65,1.23c0.13,0.25,0.04,0.55-0.19,0.68
		c-0.09,0.04-0.17,0.06-0.25,0.06c-0.17,0-0.35-0.09-0.44-0.26l-0.67-1.25c-0.15,0.18-0.29,0.39-0.34,0.62
		c-0.12,0.48-0.02,0.95,0.28,1.32c0.28,0.36,0.71,0.57,1.17,0.57c0.13,0,0.27-0.01,0.39-0.05c0.51-0.12,0.95-0.55,1.06-1.06
		c0.12-0.48,0.02-0.95-0.26-1.32C22.385,16.724,21.955,16.513,21.495,16.513z"/>
	<path class="st0" d="M10.498,16.513c-0.12,0-0.25,0.02-0.39,0.05c-0.51,0.12-0.94,0.55-1.06,1.06c-0.11,0.48-0.02,0.95,0.28,1.32
		c0.28,0.36,0.71,0.57,1.17,0.57c0.13,0,0.27-0.01,0.4-0.05c0.51-0.12,0.94-0.55,1.05-1.06c0.12-0.48,0.02-0.95-0.27-1.32
		C11.397,16.724,10.957,16.513,10.498,16.513z M10.498,18.513c-0.28,0-0.5-0.22-0.5-0.5c0-0.27,0.22-0.5,0.5-0.5
		c0.29,0,0.5,0.23,0.5,0.5C10.997,18.293,10.787,18.513,10.498,18.513z"/>
	<path class="st0" d="M16,0C7.163,0,0,7.163,0,16s7.163,16,16,16s16-7.163,16-16S24.837,0,16,0z M12.927,18.633
		c-0.2,0.88-0.93,1.6-1.81,1.81c-0.2,0.05-0.42,0.07-0.62,0.07c-1.57,0-2.819-1.47-2.419-3.12c0.22-0.88,0.92-1.59,1.81-1.8
		c0.2-0.05,0.42-0.08,0.61-0.08C12.077,15.513,13.327,16.983,12.927,18.633z M23.925,18.633c-0.2,0.88-0.93,1.6-1.81,1.81
		c-0.21,0.05-0.41,0.07-0.62,0.07c-1.58,0-2.819-1.47-2.419-3.12c0.13-0.51,0.43-0.96,0.83-1.29l-0.3-0.56
		c-0.72,0.54-1.19,1.43-1.18,2.47v1.04c0,0.28-0.21,0.5-0.5,0.5h-3.929c-0.27,0-0.5-0.22-0.5-0.5v-1.04c0-1.71-1.22-3.01-2.869-3.03
		c-1.06-0.02-1.89,0.39-1.91,0.39c-0.25,0.12-0.55,0.02-0.67-0.23c-0.11-0.24-0.02-0.54,0.23-0.66c0.03-0.02,0.85-0.45,1.71-0.73
		c1.31-0.42,2.859-0.72,2.929-0.73c0.14-0.03,0.3,0.01,0.42,0.11c0.29,0.26,1.21,0.94,1.92,0.94c1.56,0,2.15-0.94,2.39-1.56h-0.35
		c-0.29,0-0.5-0.23-0.5-0.5c0-0.28,0.21-0.5,0.5-0.5h1c0.05,0,1.21,0,2.28,0.6c1.25,0.69,1.86,2.15,1.88,2.21
		c0.07,0.16,0.05,0.35-0.06,0.49c-0.1,0.15-0.3,0.22-0.47,0.2c-0.18-0.03-0.4-0.04-0.62-0.03c-0.29,0-0.54,0.05-0.8,0.12l0.29,0.52
		c0.03-0.01,0.06-0.03,0.09-0.03c0.2-0.05,0.42-0.08,0.61-0.08C23.075,15.513,24.325,16.983,23.925,18.633z"/>
</g>
</svg>
