<?xml version="1.0" encoding="utf-8"?>
<!-- Generator: Adobe Illustrator 21.0.0, SVG Export Plug-In . SVG Version: 6.00 Build 0)  -->
<svg version="1.1" id="icons" xmlns="http://www.w3.org/2000/svg" xmlns:xlink="http://www.w3.org/1999/xlink" x="0px" y="0px"
	 width="16.002px" height="16px" viewBox="0 0 16.002 16" style="enable-background:new 0 0 16.002 16;" xml:space="preserve">
<style type="text/css">
	.st0{fill:#5057FB;}
	.st1{fill:#C93789;}
	.st2{fill:#ED5C36;}
	.st3{fill:#AFB224;}
	.st4{fill:#15B2CC;}
</style>
<g id="motorcycle_1_">
	<path d="M2.501,7.005c-0.202,0-0.41,0.024-0.621,0.075C1.005,7.291,0.287,8.008,0.076,8.883c-0.397,1.651,0.842,3.122,2.425,3.122
		c0.203,0,0.411-0.024,0.622-0.074c0.875-0.211,1.593-0.929,1.804-1.804C5.324,8.477,4.085,7.005,2.501,7.005z M3.954,9.893
		c-0.123,0.514-0.552,0.941-1.065,1.065c-0.129,0.031-0.26,0.047-0.388,0.047c-0.462,0-0.893-0.209-1.179-0.572
		c-0.292-0.37-0.389-0.837-0.273-1.315c0.123-0.514,0.552-0.941,1.064-1.065c0.13-0.031,0.261-0.047,0.388-0.047
		c0.463,0,0.893,0.209,1.18,0.573C3.973,8.948,4.069,9.415,3.954,9.893z"/>
	<path d="M13.501,7.005c-0.202,0-0.41,0.024-0.621,0.075c-0.032,0.008-0.061,0.027-0.092,0.036L12.51,6.599
		c0.252-0.072,0.513-0.125,0.792-0.129c0.226-0.001,0.435,0.003,0.633,0.029c0.166,0.02,0.355-0.049,0.463-0.19
		c0.109-0.143,0.134-0.332,0.064-0.498c-0.025-0.062-0.643-1.513-1.88-2.204C11.508,3.007,10.343,3,10.293,3h-0.001l0,0h-1
		c-0.276,0-0.5,0.224-0.5,0.5S9.016,4,9.292,4h0.354C9.411,4.628,8.81,5.562,7.252,5.562c-0.701,0-1.624-0.673-1.92-0.933
		C5.216,4.526,5.059,4.485,4.908,4.514c-0.065,0.013-1.617,0.31-2.92,0.734C1.131,5.526,0.306,5.952,0.271,5.97
		c-0.243,0.126-0.34,0.424-0.218,0.669c0.123,0.244,0.422,0.344,0.665,0.226C0.727,6.86,1.571,6.456,2.63,6.47
		c1.637,0.023,2.872,1.328,2.872,3.035v1.042c0,0.275,0.224,0.5,0.5,0.5h3.929c0.276,0,0.5-0.225,0.5-0.5V9.5
		c-0.011-1.039,0.447-1.924,1.179-2.466l0.301,0.559c-0.401,0.335-0.711,0.777-0.834,1.289c-0.398,1.651,0.842,3.122,2.425,3.122
		c0.203,0,0.411-0.024,0.622-0.074c0.875-0.211,1.593-0.929,1.804-1.804C16.324,8.477,15.085,7.005,13.501,7.005z M9.431,9.505
		v0.542H6.502V9.505C6.502,7.768,5.476,6.31,4,5.733c0.362-0.086,0.671-0.151,0.867-0.191c0.421,0.331,1.415,1.02,2.385,1.02
		c2.185,0,3.146-1.459,3.443-2.527c0.356,0.047,0.894,0.164,1.399,0.446c0.442,0.246,0.79,0.643,1.033,0.994
		C10.986,5.585,9.408,7.293,9.431,9.505z M14.954,9.893c-0.123,0.514-0.552,0.941-1.065,1.065c-0.129,0.031-0.26,0.047-0.388,0.047
		c-0.462,0-0.893-0.209-1.179-0.572c-0.292-0.37-0.389-0.837-0.273-1.315c0.056-0.233,0.182-0.445,0.344-0.623l0.669,1.247
		c0.09,0.168,0.263,0.264,0.441,0.264c0.08,0,0.161-0.02,0.236-0.06c0.243-0.131,0.335-0.434,0.204-0.677l-0.663-1.236
		c0.074-0.011,0.149-0.027,0.222-0.027c0.463,0,0.893,0.209,1.18,0.573C14.973,8.948,15.069,9.415,14.954,9.893z"/>
	<circle cx="2.501" cy="9.505" r="0.5"/>
</g>
</svg>
