<?xml version="1.0" encoding="utf-8"?>
<!-- Generator: Adobe Illustrator 21.0.0, SVG Export Plug-In . SVG Version: 6.00 Build 0)  -->
<svg version="1.1" id="icons" xmlns="http://www.w3.org/2000/svg" xmlns:xlink="http://www.w3.org/1999/xlink" x="0px" y="0px"
	 width="16px" height="16px" viewBox="0 0 16 16" style="enable-background:new 0 0 16 16;" xml:space="preserve">
<style type="text/css">
	.st0{fill:#5057FB;}
	.st1{fill:#C93789;}
	.st2{fill:#ED5C36;}
	.st3{fill:#AFB224;}
	.st4{fill:#15B2CC;}
</style>
<path id="mpv_3_" d="M15.86,8.16l-0.71-0.75c-0.07-0.08-0.16-0.13-0.26-0.15l-2.194-0.469c-0.003-0.001-0.007-0.002-0.01-0.003
	C12.683,6.785,12.678,6.78,12.67,6.78L9.22,5.05C9.15,5.02,9.08,5,9,5H1.75c-0.16,0-0.31,0.07-0.4,0.2l-0.5,0.67
	C0.17,6.77,0.02,7.43,0,8.46v0.79C0,9.49,0.18,9.7,0.42,9.74L2,10h0.09c0.2,0.58,0.76,1,1.41,1c0.65,0,1.21-0.42,1.41-1h6.18
	c0.2,0.58,0.76,1,1.41,1c0.65,0,1.21-0.42,1.41-1h1.59c0.28,0,0.5-0.22,0.5-0.5v-1C16,8.37,15.95,8.25,15.86,8.16z M10.38,6.75
	H7.998V6H8.88L10.38,6.75z M4.5,6.75V6h2.498v0.75H4.5z M1.65,6.47L2,6h1.5v0.75H1.45C1.51,6.66,1.58,6.57,1.65,6.47z M3,9.5
	c0-0.24,0.17-0.44,0.4-0.49c0,0,0,0,0.01,0C3.44,9,3.47,9,3.5,9c0.03,0,0.06,0,0.09,0.01c0.01,0,0.01,0,0.01,0
	C3.83,9.06,4,9.26,4,9.5C4,9.78,3.78,10,3.5,10C3.22,10,3,9.78,3,9.5z M12,9.5c0-0.27,0.21-0.49,0.48-0.5c0.01,0,0.01,0,0.02,0
	s0.01,0,0.02,0C12.79,9.01,13,9.23,13,9.5c0,0.28-0.22,0.5-0.5,0.5C12.22,10,12,9.78,12,9.5z M15,9h-1.09c-0.2-0.58-0.76-1-1.41-1
	c-0.65,0-1.21,0.42-1.41,1L4.91,9.01C4.72,8.42,4.16,8,3.5,8C2.84,8,2.28,8.42,2.09,9.01H2.08L1,8.83V8.67
	C1,8.3,1.01,8.01,1.06,7.75h11.38l2.09,0.46L15,8.7V9z"/>
</svg>
