<?xml version="1.0" encoding="utf-8"?>
<!-- Generator: Adobe Illustrator 21.0.0, SVG Export Plug-In . SVG Version: 6.00 Build 0)  -->
<svg version="1.1" id="icons" xmlns="http://www.w3.org/2000/svg" xmlns:xlink="http://www.w3.org/1999/xlink" x="0px" y="0px"
	 width="32px" height="32px" viewBox="0 0 32 32" style="enable-background:new 0 0 32 32;" xml:space="preserve">
<style type="text/css">
	.st0{fill:#5057FB;}
	.st1{fill:#C93789;}
	.st2{fill:#ED5C36;}
	.st3{fill:#AFB224;}
	.st4{fill:#15B2CC;}
</style>
<g id="mpv_2_">
	<path class="st4" d="M10,14.01l-0.61,0.86c-0.06,0.08-0.06,0.18-0.02,0.26c0.04,0.08,0.13,0.13,0.22,0.13h1.91v-1.25H10z
		 M12.5,14.01v1.25H15v-1.25H12.5z M16.88,14.01H16v1.25h3.38L16.88,14.01z M16.88,14.01H16v1.25h3.38L16.88,14.01z M12.5,15.26H15
		v-1.25h-2.5V15.26z M9.39,14.87c-0.06,0.08-0.06,0.18-0.02,0.26c0.04,0.08,0.13,0.13,0.22,0.13h1.91v-1.25H10L9.39,14.87z M16,0
		C7.16,0,0,7.16,0,16c0,8.84,7.16,16,16,16s16-7.16,16-16C32,7.16,24.84,0,16,0z M11.5,19c-0.55,0-1-0.45-1-1s0.45-1,1-1s1,0.45,1,1
		S12.05,19,11.5,19z M20.5,19c-0.55,0-1-0.44-1-1c0-0.55,0.45-0.99,1-0.99s1,0.44,1,0.99C21.5,18.56,21.05,19,20.5,19z M24,17.5
		c0,0.28-0.22,0.5-0.5,0.5H22c-0.01-0.83-0.67-1.49-1.5-1.49S19.01,17.17,19,18h-6c-0.01-0.83-0.67-1.49-1.5-1.49S10.01,17.17,10,18
		l-1.58-0.26C8.18,17.7,8,17.49,8,17.25v-0.79c0.02-1.03,0.17-1.69,0.85-2.59l0.5-0.67c0.02-0.03,0.04-0.05,0.08-0.08
		c0.09-0.07,0.2-0.11,0.32-0.11H17c0.08,0,0.15,0.02,0.22,0.05l3.45,1.73c0.01,0,0.01,0.01,0.02,0.01h0.01l2.19,0.47
		c0.1,0.02,0.19,0.07,0.26,0.15l0.71,0.74v0.01c0.05,0.05,0.09,0.1,0.1,0.16C23.99,16.39,24,16.44,24,16.5V17.5z M16,14.01v1.25
		h3.38l-2.5-1.25H16z M12.5,15.26H15v-1.25h-2.5V15.26z M9.39,14.87c-0.06,0.08-0.06,0.18-0.02,0.26c0.04,0.08,0.13,0.13,0.22,0.13
		h1.91v-1.25H10L9.39,14.87z M10,14.01l-0.61,0.86c-0.06,0.08-0.06,0.18-0.02,0.26c0.04,0.08,0.13,0.13,0.22,0.13h1.91v-1.25H10z
		 M12.5,14.01v1.25H15v-1.25H12.5z M16.88,14.01H16v1.25h3.38L16.88,14.01z M16.88,14.01H16v1.25h3.38L16.88,14.01z M12.5,14.01
		v1.25H15v-1.25H12.5z M10,14.01l-0.61,0.86c-0.06,0.08-0.06,0.18-0.02,0.26c0.04,0.08,0.13,0.13,0.22,0.13h1.91v-1.25H10z"/>
</g>
</svg>
