<?xml version="1.0" encoding="utf-8"?>
<!-- Generator: Adobe Illustrator 21.0.0, SVG Export Plug-In . SVG Version: 6.00 Build 0)  -->
<svg version="1.1" id="icons" xmlns="http://www.w3.org/2000/svg" xmlns:xlink="http://www.w3.org/1999/xlink" x="0px" y="0px"
	 width="16px" height="16px" viewBox="0 0 16 16" style="enable-background:new 0 0 16 16;" xml:space="preserve">
<style type="text/css">
	.st0{fill:#5057FB;}
	.st1{fill:#C93789;}
	.st2{fill:#ED5C36;}
	.st3{fill:#AFB224;}
	.st4{fill:#15B2CC;}
</style>
<g id="mpv_1_">
	<path class="st4" d="M15.96,8.33c-0.01-0.06-0.05-0.11-0.1-0.16V8.16l-0.71-0.74c-0.07-0.08-0.16-0.13-0.26-0.15L12.7,6.8h-0.01
		c-0.01,0-0.01-0.01-0.02-0.01L9.22,5.06C9.15,5.03,9.08,5.01,9,5.01H1.75c-0.12,0-0.23,0.04-0.32,0.11
		C1.39,5.15,1.37,5.17,1.35,5.2l-0.5,0.67C0.17,6.77,0.02,7.43,0,8.46v0.79C0,9.49,0.18,9.7,0.42,9.74L2,10
		c0.01-0.83,0.67-1.49,1.5-1.49S4.99,9.17,5,10h6c0.01-0.83,0.67-1.49,1.5-1.49S13.99,9.17,14,10h1.5c0.28,0,0.5-0.22,0.5-0.5v-1
		C16,8.44,15.99,8.39,15.96,8.33 M3.5,7.26H1.59c-0.09,0-0.18-0.05-0.22-0.13S1.33,6.95,1.39,6.87L2,6.01h1.5V7.26z M7,7.26H4.5
		V6.01H7V7.26z M8,7.26V6.01h0.88l2.5,1.25H8z"/>
	<path class="st4" d="M4.5,9.997c0,0.55-0.447,0.997-1,0.997s-1-0.447-1-0.997C2.5,9.446,2.947,9,3.5,9S4.5,9.446,4.5,9.997"/>
	<path class="st4" d="M13.5,10.003c0,0.551-0.447,0.997-1,0.997c-0.553,0-1-0.446-1-0.997c0-0.55,0.447-0.997,1-0.997
		C13.053,9.006,13.5,9.453,13.5,10.003"/>
	<path class="st4" d="M15.96,8.33c-0.01-0.06-0.05-0.11-0.1-0.16V8.16l-0.71-0.74V7.41c-0.07-0.08-0.16-0.13-0.26-0.15L12.7,6.79
		h-0.01c-0.01,0-0.01-0.01-0.02-0.01L9.22,5.05C9.15,5.02,9.08,5,9,5H1.75C1.63,5,1.51,5.04,1.43,5.12C1.39,5.15,1.37,5.17,1.35,5.2
		l-0.5,0.67C0.17,6.77,0.02,7.43,0,8.46v0.79C0,9.49,0.18,9.7,0.42,9.74L2,10c0.01-0.83,0.67-1.49,1.5-1.49S4.99,9.17,5,10h6
		c0.01-0.83,0.67-1.49,1.5-1.49S13.99,9.17,14,10h1.5c0.28,0,0.5-0.22,0.5-0.5v-1C16,8.44,15.99,8.39,15.96,8.33 M3.5,7.26H1.59
		c-0.09,0-0.18-0.05-0.22-0.13S1.33,6.95,1.39,6.87L2,6.01h1.5V7.26z M7,7.26H4.5V6.01H7V7.26z M8,7.26V6.01h0.88l2.5,1.25H8z"/>
</g>
</svg>
