<?xml version="1.0" encoding="utf-8"?>
<!-- Generator: Adobe Illustrator 21.0.0, SVG Export Plug-In . SVG Version: 6.00 Build 0)  -->
<svg version="1.1" id="icons" xmlns="http://www.w3.org/2000/svg" xmlns:xlink="http://www.w3.org/1999/xlink" x="0px" y="0px"
	 width="32px" height="32px" viewBox="0 0 32 32" style="enable-background:new 0 0 32 32;" xml:space="preserve">
<style type="text/css">
	.st0{fill:#5057FB;}
	.st1{fill:#C93789;}
	.st2{fill:#ED5C36;}
	.st3{fill:#AFB224;}
	.st4{fill:#15B2CC;}
</style>
<g id="number-of-seats_1_">
	<path class="st2" d="M14.5,18h3c0.276,0,0.5-0.224,0.5-0.5S17.776,17,17.5,17h-3c-0.276,0-0.5,0.224-0.5,0.5S14.224,18,14.5,18z"/>
	<rect x="15" y="11" class="st2" width="2" height="1"/>
	<path class="st2" d="M14.5,16h3c0.276,0,0.5-0.224,0.5-0.5S17.776,15,17.5,15h-3c-0.276,0-0.5,0.224-0.5,0.5S14.224,16,14.5,16z"/>
	<path class="st2" d="M16,0C7.163,0,0,7.163,0,16s7.163,16,16,16s16-7.163,16-16S24.837,0,16,0z M11.183,18.539l0.675-5.4
		C11.939,12.488,12.492,12,13.148,12H14v-1h-0.5c-0.276,0-0.5-0.224-0.5-0.5v-2C13,8.224,13.224,8,13.5,8h5
		C18.776,8,19,8.224,19,8.5v2c0,0.276-0.224,0.5-0.5,0.5H18v1h0.852c0.656,0,1.209,0.488,1.29,1.139l0.675,5.4
		C20.914,19.315,20.309,20,19.527,20h-7.055C11.691,20,11.086,19.315,11.183,18.539z M19.5,24h-7c-0.827,0-1.5-0.673-1.5-1.5
		s0.673-1.5,1.5-1.5h7c0.827,0,1.5,0.673,1.5,1.5S20.327,24,19.5,24z"/>
</g>
</svg>
