<?xml version="1.0" encoding="utf-8"?>
<!-- Generator: Adobe Illustrator 21.0.0, SVG Export Plug-In . SVG Version: 6.00 Build 0)  -->
<svg version="1.1" id="icons" xmlns="http://www.w3.org/2000/svg" xmlns:xlink="http://www.w3.org/1999/xlink" x="0px" y="0px"
	 width="32px" height="32px" viewBox="0 0 32 32" style="enable-background:new 0 0 32 32;" xml:space="preserve">
<style type="text/css">
	.st0{fill:#5057FB;}
	.st1{fill:#C93789;}
	.st2{fill:#ED5C36;}
	.st3{fill:#AFB224;}
	.st4{fill:#15B2CC;}
</style>
<g id="number-of-doors_1_">
	<path class="st0" d="M16,0C7.163,0,0,7.163,0,16s7.163,16,16,16s16-7.163,16-16S24.837,0,16,0z M24,17h-1.5
		c-0.276,0-0.5,0.224-0.5,0.5s0.224,0.5,0.5,0.5H24v2.27c0,0.954-0.776,1.73-1.73,1.73H22.16c-0.735,0-1.361-0.462-1.611-1.11
		c-0.057,0.058-0.097,0.101-0.099,0.103c-0.095,0.109-0.233,0.174-0.379,0.174h-5.143c-0.146,0-0.284-0.064-0.379-0.174
		c-0.002-0.002-0.041-0.045-0.099-0.103c-0.251,0.647-0.876,1.11-1.61,1.11h-0.109C11.776,22,11,21.224,11,20.27V20H8.5
		C8.224,20,8,19.776,8,19.5v-9C8,10.224,8.224,10,8.5,10h1.8c0.071,0,0.142,0.016,0.207,0.045c0.08,0.036,1.583,0.771,2.21,2.699
		l0.168-0.272C13.445,11.563,14.468,11,15.552,11h3.897c1.084,0,2.106,0.563,2.667,1.472l1.514,2.452
		c0.242,0.393,0.37,0.843,0.37,1.303V17z"/>
	<path class="st0" d="M19.5,18h-4c-0.276,0-0.5,0.224-0.5,0.5s0.224,0.5,0.5,0.5h4c0.276,0,0.5-0.224,0.5-0.5S19.776,18,19.5,18z"/>
	<path class="st0" d="M11.959,13.971c-0.201-1.935-1.432-2.776-1.78-2.971H9v3h2.941L11.959,13.971z"/>
	<path class="st0" d="M12.5,17H11v1h1.5c0.276,0,0.5-0.224,0.5-0.5S12.776,17,12.5,17z"/>
	<path class="st0" d="M19.449,12h-3.897c-0.74,0-1.437,0.382-1.815,0.997l-0.899,1.457c0.05,0.014,0.103,0.029,0.163,0.045
		c0.85,0.232,2.686,0.668,4.5,0.668c1.942,0,3.909-0.499,4.664-0.713l-0.899-1.457C20.886,12.382,20.189,12,19.449,12z"/>
</g>
</svg>
