<?xml version="1.0" encoding="utf-8"?>
<!-- Generator: Adobe Illustrator 21.0.0, SVG Export Plug-In . SVG Version: 6.00 Build 0)  -->
<svg version="1.1" id="icons" xmlns="http://www.w3.org/2000/svg" xmlns:xlink="http://www.w3.org/1999/xlink" x="0px" y="0px"
	 width="16px" height="16px" viewBox="0 0 16 16" style="enable-background:new 0 0 16 16;" xml:space="preserve">
<style type="text/css">
	.st0{fill:#5057FB;}
	.st1{fill:#C93789;}
	.st2{fill:#ED5C36;}
	.st3{fill:#AFB224;}
	.st4{fill:#15B2CC;}
</style>
<path id="number-of-doors_3_" d="M15.63,6.924l-1.514-2.452C13.556,3.563,12.533,3,11.449,3H7.552C6.468,3,5.445,3.563,4.885,4.472
	L4.717,4.744c-0.627-1.928-2.13-2.662-2.21-2.699C2.441,2.016,2.371,2,2.3,2H0.5C0.224,2,0,2.224,0,2.5v9C0,11.776,0.224,12,0.5,12
	H3v0.27C3,13.224,3.776,14,4.731,14h0.109c0.735,0,1.36-0.462,1.61-1.11c0.057,0.058,0.097,0.101,0.099,0.103
	c0.095,0.109,0.233,0.174,0.379,0.174h5.143c0.146,0,0.284-0.064,0.379-0.174c0.002-0.002,0.041-0.045,0.099-0.103
	C12.799,13.538,13.425,14,14.16,14h0.109c0.954,0,1.73-0.776,1.73-1.73V10h-1.5C14.224,10,14,9.776,14,9.5S14.224,9,14.5,9H16V8.227
	C16,7.767,15.872,7.316,15.63,6.924z M1,6V3h1.179c0.348,0.195,1.579,1.037,1.78,2.971L3.941,6H1z M4.5,10H3V9h1.5
	C4.776,9,5,9.224,5,9.5S4.776,10,4.5,10z M11.5,11h-4C7.224,11,7,10.776,7,10.5S7.224,10,7.5,10h4c0.276,0,0.5,0.224,0.5,0.5
	S11.776,11,11.5,11z M9.5,7.167c-1.814,0-3.651-0.436-4.5-0.668C4.94,6.483,4.887,6.468,4.837,6.454l0.899-1.457
	C6.115,4.382,6.812,4,7.552,4h3.897c0.74,0,1.437,0.382,1.815,0.997l0.899,1.457C13.409,6.668,11.442,7.167,9.5,7.167z"/>
</svg>
