<?xml version="1.0" encoding="utf-8"?>
<!-- Generator: Adobe Illustrator 21.0.0, SVG Export Plug-In . SVG Version: 6.00 Build 0)  -->
<svg version="1.1" id="icons" xmlns="http://www.w3.org/2000/svg" xmlns:xlink="http://www.w3.org/1999/xlink" x="0px" y="0px"
	 width="16px" height="16px" viewBox="0 0 16 16" style="enable-background:new 0 0 16 16;" xml:space="preserve">
<style type="text/css">
	.st0{fill:#5057FB;}
	.st1{fill:#C93789;}
	.st2{fill:#ED5C36;}
	.st3{fill:#AFB224;}
	.st4{fill:#15B2CC;}
</style>
<g id="number-of-doors_2_">
	<path d="M11.5,11h-4C7.224,11,7,10.776,7,10.5S7.224,10,7.5,10h4c0.276,0,0.5,0.224,0.5,0.5S11.776,11,11.5,11z"/>
	<path d="M15.63,6.924l-1.514-2.452C13.556,3.563,12.533,3,11.449,3H7.552C6.468,3,5.445,3.563,4.885,4.472L4.717,4.744
		c-0.627-1.928-2.13-2.662-2.21-2.699C2.441,2.016,2.371,2,2.3,2H0.5C0.224,2,0,2.224,0,2.5v9C0,11.776,0.224,12,0.5,12H3v0.27
		C3,13.224,3.776,14,4.731,14h0.109c0.735,0,1.36-0.462,1.61-1.11c0.057,0.058,0.097,0.101,0.099,0.103
		c0.095,0.109,0.233,0.174,0.379,0.174h5.143c0.146,0,0.284-0.064,0.379-0.174c0.002-0.002,0.041-0.045,0.099-0.103
		C12.799,13.538,13.425,14,14.16,14h0.109c0.954,0,1.73-0.776,1.73-1.73V8.227C16,7.767,15.872,7.316,15.63,6.924z M4.975,6.23
		l0.761-1.233C6.115,4.382,6.812,4,7.552,4h3.897c0.74,0,1.437,0.382,1.815,0.997l0.899,1.457C13.409,6.668,11.442,7.167,9.5,7.167
		c-1.814,0-3.651-0.436-4.5-0.668C4.94,6.483,4.887,6.468,4.837,6.454L4.975,6.23z M3,8.227c0,0,0,2.821,0,2.773H1V7h2.338
		C3.123,7.376,3,7.795,3,8.227z M3.941,6H1V3h1.179c0.348,0.195,1.579,1.037,1.78,2.971L3.941,6z M5.571,12.27
		c0,0.402-0.328,0.73-0.73,0.73H4.731C4.328,13,4,12.672,4,12.27V11.55c-0.003-0.001-0.007,0-0.01-0.001
		C3.992,11.532,4,11.518,4,11.5v0.05c0.612,0.099,1.148,0.354,1.571,0.629V12.27z M15,12.27c0,0.402-0.328,0.73-0.73,0.73H14.16
		c-0.403,0-0.731-0.328-0.731-0.73v-0.09c0.423-0.276,0.959-0.531,1.571-0.629V12.27z M15,9h-1.5C13.224,9,13,9.224,13,9.5
		s0.224,0.5,0.5,0.5H15v0.53c-0.24,0.029-0.467,0.082-0.687,0.146c-0.252,0.072-0.489,0.163-0.711,0.266
		c-0.469,0.217-0.865,0.477-1.174,0.72c-0.25,0.197-0.45,0.379-0.574,0.505H7.146c-0.125-0.126-0.324-0.309-0.574-0.505
		c-0.309-0.243-0.705-0.503-1.174-0.72c-0.222-0.103-0.458-0.193-0.71-0.266C4.467,10.613,4.24,10.559,4,10.53V10h1.5
		C5.776,10,6,9.776,6,9.5S5.776,9,5.5,9H4V8.227c0-0.273,0.077-0.542,0.223-0.777l0.07-0.113C4.766,7.483,7.108,8.167,9.5,8.167
		s4.735-0.684,5.209-0.831l0.07,0.113C14.924,7.684,15,7.952,15,8.227V9z"/>
</g>
</svg>
