<?xml version="1.0" encoding="utf-8"?>
<!-- Generator: Adobe Illustrator 21.0.0, SVG Export Plug-In . SVG Version: 6.00 Build 0)  -->
<svg version="1.1" id="icons" xmlns="http://www.w3.org/2000/svg" xmlns:xlink="http://www.w3.org/1999/xlink" x="0px" y="0px"
	 width="16px" height="16px" viewBox="0 0 16 16" style="enable-background:new 0 0 16 16;" xml:space="preserve">
<style type="text/css">
	.st0{fill:#5057FB;}
	.st1{fill:#C93789;}
	.st2{fill:#ED5C36;}
	.st3{fill:#AFB224;}
	.st4{fill:#15B2CC;}
</style>
<g id="number-of-seats_2_">
	<path d="M10,8.5C10,8.776,9.776,9,9.5,9h-3C6.224,9,6,8.776,6,8.5S6.224,8,6.5,8h3C9.776,8,10,8.224,10,8.5z"/>
	<path d="M10,10.5c0,0.276-0.224,0.5-0.5,0.5h-3C6.224,11,6,10.776,6,10.5S6.224,10,6.5,10h3C9.776,10,10,10.224,10,10.5z"/>
	<path d="M12.452,13.35c0.012-0.013,0.027-0.023,0.039-0.036c0.385-0.436,0.564-1.017,0.493-1.595l-0.647-6.182
		C12.227,4.661,11.478,4,10.594,4H10V3h0.5C10.776,3,11,2.776,11,2.5v-2C11,0.224,10.776,0,10.5,0h-5C5.224,0,5,0.224,5,0.5v2
		C5,2.776,5.224,3,5.5,3H6v1H5.406C4.523,4,3.773,4.661,3.663,5.539l-0.647,6.18c-0.072,0.578,0.107,1.159,0.492,1.595
		c0.012,0.014,0.028,0.023,0.04,0.037C3.216,13.626,3,14.036,3,14.5C3,15.327,3.673,16,4.5,16h7c0.827,0,1.5-0.673,1.5-1.5
		C13,14.036,12.784,13.626,12.452,13.35z M6,1h4v1H6V1z M7,3h2v1H7V3z M4.655,5.663C4.703,5.285,5.025,5,5.406,5h5.187
		c0.381,0,0.703,0.285,0.751,0.662l0.647,6.181c0.037,0.298-0.052,0.585-0.25,0.81S11.27,13,10.971,13H5.029
		c-0.3,0-0.574-0.124-0.772-0.349c-0.197-0.224-0.286-0.511-0.249-0.809L4.655,5.663z M11.5,15h-7C4.225,15,4,14.775,4,14.5
		S4.225,14,4.5,14h0.529h5.941H11.5c0.275,0,0.5,0.225,0.5,0.5S11.775,15,11.5,15z"/>
</g>
</svg>
