<?xml version="1.0" encoding="utf-8"?>
<!-- Generator: Adobe Illustrator 21.0.0, SVG Export Plug-In . SVG Version: 6.00 Build 0)  -->
<svg version="1.1" id="icons" xmlns="http://www.w3.org/2000/svg" xmlns:xlink="http://www.w3.org/1999/xlink" x="0px" y="0px"
	 width="16px" height="16px" viewBox="0 0 16 16" style="enable-background:new 0 0 16 16;" xml:space="preserve">
<style type="text/css">
	.st0{fill:#5057FB;}
	.st1{fill:#C93789;}
	.st2{fill:#ED5C36;}
	.st3{fill:#AFB224;}
	.st4{fill:#15B2CC;}
</style>
<g id="number-of-seats_4_">
	<path class="st2" d="M12.817,10.539l-0.675-5.4C12.061,4.488,11.508,4,10.852,4H10V3h0.5C10.776,3,11,2.776,11,2.5v-2
		C11,0.224,10.776,0,10.5,0h-5C5.224,0,5,0.224,5,0.5v2C5,2.776,5.224,3,5.5,3H6v1H5.148c-0.656,0-1.209,0.488-1.29,1.139
		l-0.675,5.4C3.086,11.315,3.691,12,4.473,12h7.055C12.309,12,12.914,11.315,12.817,10.539z M7,3h2v1H7V3z M9.5,10h-3
		C6.224,10,6,9.776,6,9.5S6.224,9,6.5,9h3C9.776,9,10,9.224,10,9.5S9.776,10,9.5,10z M9.5,8h-3C6.224,8,6,7.776,6,7.5S6.224,7,6.5,7
		h3C9.776,7,10,7.224,10,7.5S9.776,8,9.5,8z"/>
	<path class="st2" d="M11.5,16h-7C3.673,16,3,15.327,3,14.5S3.673,13,4.5,13h7c0.827,0,1.5,0.673,1.5,1.5S12.327,16,11.5,16z"/>
</g>
</svg>
