<?xml version="1.0" encoding="utf-8"?>
<!-- Generator: Adobe Illustrator 21.0.0, SVG Export Plug-In . SVG Version: 6.00 Build 0)  -->
<svg version="1.1" id="icons" xmlns="http://www.w3.org/2000/svg" xmlns:xlink="http://www.w3.org/1999/xlink" x="0px" y="0px"
	 width="32px" height="32px" viewBox="0 0 32 32" style="enable-background:new 0 0 32 32;" xml:space="preserve">
<style type="text/css">
	.st0{fill:#5057FB;}
	.st1{fill:#C93789;}
	.st2{fill:#ED5C36;}
	.st3{fill:#AFB224;}
	.st4{fill:#15B2CC;}
</style>
<g id="oil-canister_2_">
	<path class="st1" d="M9,18.698c0,0.298,0.5,0.298,0.5,0c0-0.135-0.104-0.406-0.25-0.705C9.103,18.292,9,18.563,9,18.698z"/>
	<path class="st1" d="M22.5,14.975H22v2h0.5c0.275,0,0.5-0.224,0.5-0.5v-1C23,15.2,22.775,14.975,22.5,14.975z"/>
	<path class="st1" d="M16,0C7.163,0,0,7.163,0,16s7.163,16,16,16s16-7.163,16-16S24.837,0,16,0z M9.25,19.968
		c-0.689,0-1.25-0.57-1.25-1.27c0-0.656,0.635-1.691,0.83-1.993c0.184-0.285,0.656-0.285,0.84,0c0.195,0.302,0.83,1.337,0.83,1.993
		C10.5,19.398,9.939,19.968,9.25,19.968z M24,16.475c0,0.827-0.673,1.5-1.5,1.5H22v0.5c0,0.827-0.673,1.5-1.5,1.5h-6
		c-0.827,0-1.5-0.673-1.5-1.5v-1.217l-4.757-2.854C8.092,14.314,8,14.151,8,13.975v-0.5c0-0.15,0.067-0.292,0.183-0.387
		c0.117-0.094,0.27-0.131,0.415-0.104l4.951,0.99h3.199v-1H16c-0.276,0-0.5-0.224-0.5-0.5s0.224-0.5,0.5-0.5h1.248h0.5H19
		c0.276,0,0.5,0.224,0.5,0.5s-0.224,0.5-0.5,0.5h-0.752v1H21.5h1c0.827,0,1.5,0.673,1.5,1.5V16.475z"/>
</g>
</svg>
