<?xml version="1.0" encoding="utf-8"?>
<!-- Generator: Adobe Illustrator 21.0.0, SVG Export Plug-In . SVG Version: 6.00 Build 0)  -->
<svg version="1.1" id="icons" xmlns="http://www.w3.org/2000/svg" xmlns:xlink="http://www.w3.org/1999/xlink" x="0px" y="0px"
	 width="16px" height="16px" viewBox="0 0 16 16" style="enable-background:new 0 0 16 16;" xml:space="preserve">
<style type="text/css">
	.st0{fill:#5057FB;}
	.st1{fill:#C93789;}
	.st2{fill:#ED5C36;}
	.st3{fill:#AFB224;}
	.st4{fill:#15B2CC;}
</style>
<g id="oil-canister_3_">
	<path d="M14.5,6h-1H10V5h0.5C10.776,5,11,4.776,11,4.5S10.776,4,10.5,4H9.748h-0.5H8.5C8.224,4,8,4.224,8,4.5S8.224,5,8.5,5H9v1
		H5.549L0.598,5.01C0.45,4.982,0.3,5.019,0.183,5.113C0.067,5.208,0,5.35,0,5.5V6c0,0.176,0.092,0.338,0.243,0.429L5,9.283V10.5
		C5,11.327,5.673,12,6.5,12h6c0.827,0,1.5-0.673,1.5-1.5V10h0.5c0.827,0,1.5-0.673,1.5-1.5v-1C16,6.673,15.327,6,14.5,6z
		 M1.982,6.307L5,6.91v1.207L1.982,6.307z M13,10.5c0,0.276-0.225,0.5-0.5,0.5h-6C6.225,11,6,10.776,6,10.5V7h3.248h0.5H13v2.5V10.5
		z M15,8.5C15,8.776,14.775,9,14.5,9H14V7h0.5C14.775,7,15,7.224,15,7.5V8.5z"/>
	<path d="M0.83,8.729C0.635,9.031,0,10.066,0,10.722c0,0.7,0.561,1.27,1.25,1.27s1.25-0.57,1.25-1.27
		c0-0.656-0.635-1.691-0.83-1.993C1.486,8.444,1.014,8.444,0.83,8.729z M1,10.722c0-0.134,0.104-0.405,0.25-0.705
		c0.146,0.299,0.25,0.57,0.25,0.705C1.5,11.02,1,11.02,1,10.722z"/>
</g>
</svg>
