<?xml version="1.0" encoding="utf-8"?>
<!-- Generator: Adobe Illustrator 21.0.0, SVG Export Plug-In . SVG Version: 6.00 Build 0)  -->
<svg version="1.1" id="icons" xmlns="http://www.w3.org/2000/svg" xmlns:xlink="http://www.w3.org/1999/xlink" x="0px" y="0px"
	 width="16px" height="16px" viewBox="0 0 16 16" style="enable-background:new 0 0 16 16;" xml:space="preserve">
<style type="text/css">
	.st0{fill:#5057FB;}
	.st1{fill:#C93789;}
	.st2{fill:#ED5C36;}
	.st3{fill:#AFB224;}
	.st4{fill:#15B2CC;}
</style>
<g id="order-info_2_">
	<path d="M12,1c0.552,0,1,0.448,1,1v12c0,0.552-0.448,1-1,1H4c-0.552,0-1-0.448-1-1V2c0-0.552,0.448-1,1-1H12 M12,0H4
		C2.897,0,2,0.897,2,2v12c0,1.103,0.897,2,2,2h8c1.103,0,2-0.897,2-2V2C14,0.897,13.103,0,12,0L12,0z"/>
	<path d="M6,6.5C6,6.224,6.224,6,6.5,6h5C11.776,6,12,6.224,12,6.5S11.776,7,11.5,7h-5C6.224,7,6,6.776,6,6.5z"/>
	<path d="M6,3.5C6,3.224,6.224,3,6.5,3h5C11.776,3,12,3.224,12,3.5S11.776,4,11.5,4h-5C6.224,4,6,3.776,6,3.5z"/>
	<path d="M6,9.5C6,9.224,6.224,9,6.5,9h5C11.776,9,12,9.224,12,9.5S11.776,10,11.5,10h-5C6.224,10,6,9.776,6,9.5z"/>
	<path d="M6,12.5C6,12.224,6.224,12,6.5,12h5c0.276,0,0.5,0.224,0.5,0.5S11.776,13,11.5,13h-5C6.224,13,6,12.776,6,12.5z"/>
	<path d="M4,6.5C4,6.224,4.224,6,4.5,6l0,0C4.776,6,5,6.224,5,6.5S4.776,7,4.5,7l0,0C4.224,7,4,6.776,4,6.5z"/>
	<path d="M4,3.5C4,3.224,4.224,3,4.5,3l0,0C4.776,3,5,3.224,5,3.5S4.776,4,4.5,4l0,0C4.224,4,4,3.776,4,3.5z"/>
	<path d="M4,9.5C4,9.224,4.224,9,4.5,9l0,0C4.776,9,5,9.224,5,9.5S4.776,10,4.5,10l0,0C4.224,10,4,9.776,4,9.5z"/>
	<path d="M4,12.5C4,12.224,4.224,12,4.5,12l0,0C4.776,12,5,12.224,5,12.5S4.776,13,4.5,13l0,0C4.224,13,4,12.776,4,12.5z"/>
</g>
</svg>
