<?xml version="1.0" encoding="utf-8"?>
<!-- Generator: Adobe Illustrator 21.0.0, SVG Export Plug-In . SVG Version: 6.00 Build 0)  -->
<svg version="1.1" id="icons" xmlns="http://www.w3.org/2000/svg" xmlns:xlink="http://www.w3.org/1999/xlink" x="0px" y="0px"
	 width="16px" height="16px" viewBox="0 0 16 16" style="enable-background:new 0 0 16 16;" xml:space="preserve">
<style type="text/css">
	.st0{fill:#5057FB;}
	.st1{fill:#C93789;}
	.st2{fill:#ED5C36;}
	.st3{fill:#AFB224;}
	.st4{fill:#15B2CC;}
</style>
<path id="order-info_4_" class="st0" d="M12,0H4C2.897,0,2,0.897,2,2v12c0,1.103,0.897,2,2,2h8c1.103,0,2-0.897,2-2V2
	C14,0.897,13.103,0,12,0z M11.5,13h-4C7.224,13,7,12.776,7,12.5S7.224,12,7.5,12h4c0.276,0,0.5,0.224,0.5,0.5S11.776,13,11.5,13z
	 M11.5,10h-4C7.224,10,7,9.776,7,9.5S7.224,9,7.5,9h4C11.776,9,12,9.224,12,9.5S11.776,10,11.5,10z M11.5,7h-4
	C7.224,7,7,6.776,7,6.5S7.224,6,7.5,6h4C11.776,6,12,6.224,12,6.5S11.776,7,11.5,7z M11.5,4h-4C7.224,4,7,3.776,7,3.5S7.224,3,7.5,3
	h4C11.776,3,12,3.224,12,3.5S11.776,4,11.5,4z M5.5,4h-1C4.224,4,4,3.776,4,3.5S4.224,3,4.5,3h1C5.776,3,6,3.224,6,3.5
	S5.776,4,5.5,4z M5.5,7h-1C4.224,7,4,6.776,4,6.5S4.224,6,4.5,6h1C5.776,6,6,6.224,6,6.5S5.776,7,5.5,7z M5.5,10h-1
	C4.224,10,4,9.776,4,9.5S4.224,9,4.5,9h1C5.776,9,6,9.224,6,9.5S5.776,10,5.5,10z M5.5,13h-1C4.224,13,4,12.776,4,12.5
	S4.224,12,4.5,12h1C5.776,12,6,12.224,6,12.5S5.776,13,5.5,13z"/>
</svg>
