<?xml version="1.0" encoding="utf-8"?>
<!-- Generator: Adobe Illustrator 21.0.0, SVG Export Plug-In . SVG Version: 6.00 Build 0)  -->
<svg version="1.1" id="icons" xmlns="http://www.w3.org/2000/svg" xmlns:xlink="http://www.w3.org/1999/xlink" x="0px" y="0px"
	 width="32px" height="32px" viewBox="0 0 32 32" style="enable-background:new 0 0 32 32;" xml:space="preserve">
<style type="text/css">
	.st0{fill:#5057FB;}
	.st1{fill:#C93789;}
	.st2{fill:#ED5C36;}
	.st3{fill:#AFB224;}
	.st4{fill:#15B2CC;}
</style>
<path id="parking_2_" class="st4" d="M16,0C7.16,0,0,7.16,0,16c0,8.84,7.16,16,16,16s16-7.16,16-16C32,7.16,24.84,0,16,0z M17,16.5
	h-0.52l0.1,0.17c0.08,0.13,0.12,0.27,0.18,0.41c0.12,0.3,0.21,0.6,0.23,0.92H15c-0.28,0-0.5,0.22-0.5,0.5c0,0.28,0.22,0.5,0.5,0.5h2
	v3c0,1.1-0.9,2-2,2c-0.89,0-1.65-0.6-1.9-1.41c-0.13,0.13-0.21,0.23-0.22,0.23C12.79,22.93,12.65,23,12.5,23H8v-2h3.5
	c0.28,0,0.5-0.22,0.5-0.5c0-0.28-0.22-0.5-0.5-0.5H8v-3.08c0.16,0.02,0.33,0.03,0.5,0.04C8.83,16.99,9.17,17,9.5,17
	c2.39,0,4.81-0.66,5.58-0.88l-1.12-1.88C13.5,13.47,12.66,13,11.77,13H8v-1h3.77c1.24,0,2.41,0.66,3.05,1.72l1.07,1.79l0.01,0.01
	c0.03-0.01,0.06-0.02,0.1-0.02h1c0.28,0,0.5,0.22,0.5,0.5C17.5,16.28,17.28,16.5,17,16.5z M23.5,23c0.28,0,0.5,0.23,0.5,0.5
	c0,0.28-0.22,0.5-0.5,0.5h-4c-0.28,0-0.5-0.22-0.5-0.5c0-0.27,0.22-0.5,0.5-0.5H21V12.95c-1.14-0.23-2-1.24-2-2.45
	C19,9.12,20.12,8,21.5,8S24,9.12,24,10.5c0,1.21-0.86,2.22-2,2.45V23H23.5z"/>
</svg>
