<?xml version="1.0" encoding="utf-8"?>
<!-- Generator: Adobe Illustrator 21.0.0, SVG Export Plug-In . SVG Version: 6.00 Build 0)  -->
<svg version="1.1" id="icons" xmlns="http://www.w3.org/2000/svg" xmlns:xlink="http://www.w3.org/1999/xlink" x="0px" y="0px"
	 width="16px" height="16px" viewBox="0 0 16 16" style="enable-background:new 0 0 16 16;" xml:space="preserve">
<style type="text/css">
	.st0{fill:#5057FB;}
	.st1{fill:#C93789;}
	.st2{fill:#ED5C36;}
	.st3{fill:#AFB224;}
	.st4{fill:#15B2CC;}
</style>
<g id="parking_3_">
	<g>
		<path d="M15.5,15H14V4.95c1.14-0.23,2-1.24,2-2.45C16,1.12,14.88,0,13.5,0S11,1.12,11,2.5c0,1.21,0.86,2.22,2,2.45V15h-1.5
			c-0.28,0-0.5,0.22-0.5,0.5s0.22,0.5,0.5,0.5h4c0.28,0,0.5-0.22,0.5-0.5S15.78,15,15.5,15z M12,2.5C12,1.67,12.67,1,13.5,1
			S15,1.67,15,2.5C15,3.33,14.33,4,13.5,4S12,3.33,12,2.5z"/>
	</g>
	<g>
		<g>
			<path d="M4,12.5C4,12.78,3.78,13,3.5,13H0v-1h3.5C3.78,12,4,12.22,4,12.5z"/>
		</g>
		<g>
			<path d="M9,8H8C7.96,8,7.93,7.77,7.9,7.77L7.89,7.64L6.82,5.78C6.18,4.72,5.01,4,3.77,4H0v1h3.77C4.66,5,5.5,5.47,5.96,6.24
				l1.12,1.88C6.31,8.34,3.89,9,1.5,9C1.07,9,0.47,8.98,0,8.94v1.01C0.44,9.98,0.95,10,1.38,10c2.86,0,5.74-0.87,6.17-1.01L7.7,9.18
				c0.07,0.13,0.14,0.27,0.18,0.41S7.97,9.86,7.98,10H7c-0.28,0-0.5,0.22-0.5,0.5S6.72,11,7,11h1v1.03
				c-0.19,0.02-0.37,0.06-0.54,0.1c-0.51,0.11-0.98,0.29-1.39,0.51C5.65,12.86,5.3,13.11,5,13.35C4.68,13.6,4.43,13.85,4.28,14H0v1
				h4.5c0.15,0,0.29-0.07,0.38-0.18c0.01,0,0.09-0.1,0.22-0.23C5.36,15.4,6.11,16,7,16c1.1,0,2-0.9,2-2v-3.83
				c0-0.38-0.1-0.74-0.24-1.09C8.74,9.03,8.72,9.01,8.7,9H9c0.28,0,0.5-0.22,0.5-0.5S9.28,8,9,8z M8,14c0,0.55-0.45,1-1,1
				s-1-0.45-1-1v-0.15c0.53-0.36,1.21-0.69,2-0.8V14z"/>
		</g>
	</g>
</g>
</svg>
