<?xml version="1.0" encoding="utf-8"?>
<!-- Generator: Adobe Illustrator 21.0.0, SVG Export Plug-In . SVG Version: 6.00 Build 0)  -->
<svg version="1.1" id="icons" xmlns="http://www.w3.org/2000/svg" xmlns:xlink="http://www.w3.org/1999/xlink" x="0px" y="0px"
	 width="16px" height="16px" viewBox="0 0 16 16" style="enable-background:new 0 0 16 16;" xml:space="preserve">
<style type="text/css">
	.st0{fill:#5057FB;}
	.st1{fill:#C93789;}
	.st2{fill:#ED5C36;}
	.st3{fill:#AFB224;}
	.st4{fill:#15B2CC;}
</style>
<g id="parking_1_">
	<path class="st4" d="M15.5,15H14V4.949c1.14-0.232,2-1.242,2-2.449C16,1.122,14.879,0,13.5,0S11,1.122,11,2.5
		c0,1.207,0.86,2.217,2,2.449V15h-1.5c-0.276,0-0.5,0.224-0.5,0.5s0.224,0.5,0.5,0.5h4c0.276,0,0.5-0.224,0.5-0.5S15.776,15,15.5,15
		"/>
	<path class="st4" d="M9.5,8c0,0.28-0.22,0.5-0.5,0.5H8.48l0.1,0.17C8.66,8.8,8.7,8.94,8.76,9.08c0.12,0.3,0.21,0.6,0.23,0.92H7
		c-0.28,0-0.5,0.22-0.5,0.5C6.5,10.78,6.72,11,7,11h2v3c0,1.1-0.9,2-2,2c-0.89,0-1.65-0.6-1.9-1.41c-0.13,0.13-0.21,0.23-0.22,0.23
		C4.79,14.93,4.65,15,4.5,15H0v-2h3.5C3.78,13,4,12.78,4,12.5S3.78,12,3.5,12H0V8.92c0.16,0.02,0.33,0.03,0.5,0.04
		C0.83,8.99,1.17,9,1.5,9c2.39,0,4.81-0.66,5.58-0.88L5.96,6.24C5.5,5.47,4.66,5,3.77,5H0V4h3.77c1.24,0,2.41,0.66,3.05,1.72
		l1.07,1.79L7.9,7.52C7.93,7.51,7.96,7.5,8,7.5h1C9.28,7.5,9.5,7.72,9.5,8"/>
</g>
</svg>
