<?xml version="1.0" encoding="utf-8"?>
<!-- Generator: Adobe Illustrator 21.0.0, SVG Export Plug-In . SVG Version: 6.00 Build 0)  -->
<svg version="1.1" id="icons" xmlns="http://www.w3.org/2000/svg" xmlns:xlink="http://www.w3.org/1999/xlink" x="0px" y="0px"
	 width="32px" height="32px" viewBox="0 0 32 32" style="enable-background:new 0 0 32 32;" xml:space="preserve">
<style type="text/css">
	.st0{fill:#5057FB;}
	.st1{fill:#C93789;}
	.st2{fill:#ED5C36;}
	.st3{fill:#AFB224;}
	.st4{fill:#15B2CC;}
</style>
<path id="passengers_1_" class="st3" d="M16,0C7.163,0,0,7.163,0,16s7.163,16,16,16s16-7.163,16-16S24.837,0,16,0z M17,22h-1H9
	c-0.276,0-0.526-0.112-0.707-0.293S8,21.276,8,21c0-2.757,2.243-5,5-5c-1.654,0-3-1.346-3-3s1.346-3,3-3s3,1.346,3,3s-1.346,3-3,3
	c1.538,0,2.898,0.713,3.816,1.808C17.544,18.677,18,19.781,18,21C18,21.552,17.552,22,17,22z M23,22h-4.278
	C18.894,21.705,19,21.366,19,21c0-1.386-0.477-2.659-1.268-3.676C18.275,17.116,18.872,17,19.5,17c-1.381,0-2.5-1.119-2.5-2.5
	c0-1.381,1.119-2.5,2.5-2.5c1.381,0,2.5,1.119,2.5,2.5c0,1.381-1.119,2.5-2.5,2.5c2.481,0,4.5,1.794,4.5,4
	C24,21.552,23.552,22,23,22z"/>
</svg>
