<?xml version="1.0" encoding="utf-8"?>
<!-- Generator: Adobe Illustrator 21.0.0, SVG Export Plug-In . SVG Version: 6.00 Build 0)  -->
<svg version="1.1" id="icons" xmlns="http://www.w3.org/2000/svg" xmlns:xlink="http://www.w3.org/1999/xlink" x="0px" y="0px"
	 width="16px" height="16px" viewBox="0 0 16 16" style="enable-background:new 0 0 16 16;" xml:space="preserve">
<style type="text/css">
	.st0{fill:#5057FB;}
	.st1{fill:#C93789;}
	.st2{fill:#ED5C36;}
	.st3{fill:#AFB224;}
	.st4{fill:#15B2CC;}
</style>
<g id="passengers_2_">
	<path d="M8,5c0-1.654-1.346-3-3-3S2,3.346,2,5s1.346,3,3,3S8,6.654,8,5z M5,7C3.897,7,3,6.103,3,5s0.897-2,2-2s2,0.897,2,2
		S6.103,7,5,7z"/>
	<path d="M11.5,9c-0.979,0-1.917,0.291-2.685,0.799C7.878,8.682,6.486,8,5,8c-2.757,0-5,2.243-5,5c0,0.552,0.448,1,1,1h7h1h6
		c0.552,0,1-0.448,1-1C16,10.794,13.981,9,11.5,9z M8,13H7H1c0-2.209,1.791-4,4-4c1.231,0,2.322,0.563,3.053,1.439
		c0.011,0.014,0.021,0.029,0.032,0.043c0.206,0.253,0.387,0.528,0.527,0.826C8.854,11.823,9,12.393,9,13H8z M10,13
		c0-0.723-0.162-1.436-0.483-2.117c-0.041-0.088-0.086-0.175-0.133-0.261C9.998,10.221,10.748,10,11.5,10c1.93,0,3.5,1.346,3.5,3H10
		z"/>
	<path d="M14,6.5C14,5.119,12.881,4,11.5,4S9,5.119,9,6.5C9,7.881,10.119,9,11.5,9S14,7.881,14,6.5z M11.5,8
		C10.673,8,10,7.327,10,6.5S10.673,5,11.5,5S13,5.673,13,6.5S12.327,8,11.5,8z"/>
</g>
</svg>
