<?xml version="1.0" encoding="utf-8"?>
<!-- Generator: Adobe Illustrator 21.0.0, SVG Export Plug-In . SVG Version: 6.00 Build 0)  -->
<svg version="1.1" id="icons" xmlns="http://www.w3.org/2000/svg" xmlns:xlink="http://www.w3.org/1999/xlink" x="0px" y="0px"
	 width="16px" height="16px" viewBox="0 0 16 16" style="enable-background:new 0 0 16 16;" xml:space="preserve">
<style type="text/css">
	.st0{fill:#5057FB;}
	.st1{fill:#C93789;}
	.st2{fill:#ED5C36;}
	.st3{fill:#AFB224;}
	.st4{fill:#15B2CC;}
</style>
<g id="passengers_4_">
	<path class="st3" d="M11.5,4C10.119,4,9,5.119,9,6.5S10.119,9,11.5,9S14,7.881,14,6.5S12.881,4,11.5,4L11.5,4z"/>
	<path class="st3" d="M11.5,9c-0.628,0-1.225,0.116-1.768,0.324C10.523,10.341,11,11.614,11,13c0,0.366-0.106,0.705-0.278,1H15
		c0.552,0,1-0.448,1-1C16,10.794,13.981,9,11.5,9z"/>
	<path class="st3" d="M8.816,9.808C7.898,8.713,6.538,8,5,8c-2.757,0-5,2.243-5,5c0,0.276,0.112,0.526,0.293,0.707S0.724,14,1,14h7
		h1c0.552,0,1-0.448,1-1C10,11.781,9.544,10.677,8.816,9.808z"/>
	<path class="st3" d="M5,8C3.346,8,2,6.654,2,5s1.346-3,3-3s3,1.346,3,3S6.654,8,5,8z"/>
</g>
</svg>
