<?xml version="1.0" encoding="utf-8"?>
<!-- Generator: Adobe Illustrator 21.0.0, SVG Export Plug-In . SVG Version: 6.00 Build 0)  -->
<svg version="1.1" id="icons" xmlns="http://www.w3.org/2000/svg" xmlns:xlink="http://www.w3.org/1999/xlink" x="0px" y="0px"
	 width="16px" height="16px" viewBox="0 0 16 16" style="enable-background:new 0 0 16 16;" xml:space="preserve">
<style type="text/css">
	.st0{fill:#5057FB;}
	.st1{fill:#C93789;}
	.st2{fill:#ED5C36;}
	.st3{fill:#AFB224;}
	.st4{fill:#15B2CC;}
</style>
<g id="pick-up-date_3_">
	<path d="M9.997,2.031V0.5c0-0.276-0.224-0.5-0.5-0.5s-0.5,0.224-0.5,0.5v1.503H3V0.5C3,0.224,2.776,0,2.5,0S2,0.224,2,0.5v1.531
		C0.975,2.167,0.166,2.977,0.03,4.003H11.97C11.834,2.975,11.023,2.165,9.997,2.031z"/>
	<path d="M12,8.05V5.003H0v6.7c0,1.268,1.032,2.3,2.3,2.3h5.976C8.108,13.531,8,13.03,8,12.5C8,10.186,9.753,8.302,12,8.05z
		 M3.001,12c-0.552,0-0.999-0.447-0.999-0.999s0.447-0.999,0.999-0.999S4,10.45,4,11.001S3.553,12,3.001,12z M2.999,9
		C2.447,9,2,8.553,2,8.001s0.447-0.999,0.999-0.999S3.997,7.45,3.997,8.001S3.55,9,2.999,9z M5.999,9C5.447,9,5,8.553,5,8.001
		s0.447-0.999,0.999-0.999S6.997,7.45,6.997,8.001S6.55,9,5.999,9z"/>
	<path d="M12.296,12.004l-0.15-0.151c-0.195-0.195-0.195-0.512,0-0.707c0.195-0.195,0.512-0.195,0.707,0l1,1.004
		c0.195,0.195,0.195,0.512,0,0.707l-1,0.995c-0.195,0.195-0.512,0.195-0.707,0c-0.195-0.195-0.195-0.512,0-0.707l0.143-0.142
		l-3.238,0C9.297,14.696,10.74,16,12.5,16c1.933,0,3.5-1.567,3.5-3.5S14.433,9,12.5,9c-1.763,0-3.208,1.308-3.45,3.004
		L12.296,12.004z"/>
</g>
</svg>
