<?xml version="1.0" encoding="utf-8"?>
<!-- Generator: Adobe Illustrator 21.0.0, SVG Export Plug-In . SVG Version: 6.00 Build 0)  -->
<svg version="1.1" id="icons" xmlns="http://www.w3.org/2000/svg" xmlns:xlink="http://www.w3.org/1999/xlink" x="0px" y="0px"
	 width="32px" height="32px" viewBox="0 0 32 32" style="enable-background:new 0 0 32 32;" xml:space="preserve">
<style type="text/css">
	.st0{fill:none;}
	.st1{fill:#5057FB;}
	.st2{font-family:'OpenSans';}
	.st3{font-size:4px;}
	.st4{fill:#C93789;}
	.st5{fill:#ED5C36;}
	.st6{fill:#AFB224;}
	.st7{fill:#15B2CC;}
</style>
<g id="pick-up-date_1_">
	<circle class="st6" cx="13.999" cy="16.001" r="0.999"/>
	<circle class="st6" cx="11.001" cy="19.001" r="0.999"/>
	<circle class="st6" cx="10.999" cy="16.001" r="0.999"/>
	<path class="st6" d="M16,0C7.163,0,0,7.163,0,16s7.163,16,16,16s16-7.163,16-16S24.837,0,16,0z M10,10.031V8.5
		C10,8.224,10.224,8,10.5,8S11,8.224,11,8.5v1.503h5.997V8.5c0-0.276,0.224-0.5,0.5-0.5s0.5,0.224,0.5,0.5v1.531
		c1.026,0.135,1.837,0.945,1.973,1.972H8.03C8.166,10.977,8.975,10.167,10,10.031z M10.3,22.003c-1.268,0-2.3-1.032-2.3-2.3v-6.7h12
		v3.047c-2.247,0.252-4,2.136-4,4.45c0,0.53,0.108,1.031,0.276,1.503H10.3z M20.5,24c-1.76,0-3.203-1.304-3.449-2.996l3.238,0
		l-0.143,0.142c-0.195,0.195-0.195,0.512,0,0.707c0.195,0.195,0.512,0.195,0.707,0l1-0.995c0.195-0.195,0.195-0.512,0-0.707
		l-1-1.004c-0.195-0.195-0.512-0.195-0.707,0c-0.195,0.195-0.195,0.512,0,0.707l0.15,0.151l-3.247,0
		C17.292,18.308,18.737,17,20.5,17c1.933,0,3.5,1.567,3.5,3.5S22.433,24,20.5,24z"/>
</g>
</svg>
