<?xml version="1.0" encoding="utf-8"?>
<!-- Generator: Adobe Illustrator 21.0.0, SVG Export Plug-In . SVG Version: 6.00 Build 0)  -->
<svg version="1.1" id="icons" xmlns="http://www.w3.org/2000/svg" xmlns:xlink="http://www.w3.org/1999/xlink" x="0px" y="0px"
	 width="16px" height="16px" viewBox="0 0 16 16" style="enable-background:new 0 0 16 16;" xml:space="preserve">
<style type="text/css">
	.st0{fill:#5057FB;}
	.st1{fill:#C93789;}
	.st2{fill:#ED5C36;}
	.st3{fill:#AFB224;}
	.st4{fill:#15B2CC;}
</style>
<path id="price_3_" d="M15.854,0.146c-0.195-0.195-0.512-0.195-0.707,0l-0.905,0.905C14.156,1.029,14.071,1,13.982,1
	c0,0-0.002,0-0.003,0H8.236C7.967,1.001,7.674,1.124,7.484,1.314L0.298,8.5C0.107,8.691,0,8.95,0,9.22
	c0,0.27,0.107,0.529,0.298,0.72l5.761,5.761C6.258,15.901,6.519,16,6.78,16c0.261,0,0.521-0.099,0.72-0.298l7.186-7.186
	c0.19-0.19,0.314-0.482,0.314-0.751V2.022c0-0.091-0.028-0.177-0.052-0.263l0.905-0.905C16.049,0.658,16.049,0.342,15.854,0.146z
	 M8.354,11.354C8.256,11.451,8.128,11.5,8,11.5s-0.256-0.049-0.354-0.146l-3-3c-0.195-0.195-0.195-0.512,0-0.707
	s0.512-0.195,0.707,0l3,3C8.549,10.842,8.549,11.158,8.354,11.354z M12,6c0,1.105-0.895,2-2,2S8,7.105,8,6c0-1.105,0.895-2,2-2
	c0.37,0,0.713,0.108,1.01,0.283l-0.772,0.772C10.158,5.035,10.081,5,9.999,5C9.79,5,9.58,5.065,9.4,5.2
	c-0.442,0.331-0.532,0.958-0.201,1.4C9.396,6.862,9.696,7,10,7c0.209,0,0.419-0.065,0.599-0.2c0.336-0.252,0.466-0.674,0.364-1.056
	l0.754-0.754C11.892,5.287,12,5.63,12,6z"/>
</svg>
