<?xml version="1.0" encoding="utf-8"?>
<!-- Generator: Adobe Illustrator 21.0.0, SVG Export Plug-In . SVG Version: 6.00 Build 0)  -->
<svg version="1.1" id="icons" xmlns="http://www.w3.org/2000/svg" xmlns:xlink="http://www.w3.org/1999/xlink" x="0px" y="0px"
	 width="32px" height="32px" viewBox="0 0 32 32" style="enable-background:new 0 0 32 32;" xml:space="preserve">
<style type="text/css">
	.st0{fill:none;}
	.st1{fill:#ED5C36;}
	.st2{font-family:'OpenSans';}
	.st3{font-size:4px;}
	.st4{fill:#5057FB;}
	.st5{fill:#C93789;}
	.st6{fill:#AFB224;}
	.st7{fill:#15B2CC;}
</style>
<rect x="-8" y="-10.999" class="st0" width="48" height="11"/>
<text transform="matrix(1.0104 0 0 1 8.459 -7.9585)" class="st1 st2 st3">Sunroof</text>
<g id="price_1_">
	<path class="st7" d="M18.963,13.744c0.102,0.383-0.028,0.805-0.364,1.056C18.419,14.935,18.209,15,18,15
		c-0.304,0-0.605-0.138-0.801-0.401c-0.331-0.442-0.241-1.069,0.201-1.4c0.18-0.135,0.39-0.2,0.599-0.2
		c0.082,0,0.159,0.035,0.239,0.055l0.772-0.772C18.713,12.108,18.37,12,18,12c-1.105,0-2,0.895-2,2c0,1.105,0.895,2,2,2s2-0.895,2-2
		c0-0.37-0.108-0.713-0.283-1.01L18.963,13.744z"/>
	<path class="st7" d="M13.354,15.646c-0.195-0.195-0.512-0.195-0.707,0s-0.195,0.512,0,0.707l3,3C15.744,19.451,15.872,19.5,16,19.5
		s0.256-0.049,0.354-0.146c0.195-0.195,0.195-0.512,0-0.707L13.354,15.646z"/>
	<path class="st7" d="M16,0C7.163,0,0,7.163,0,16s7.163,16,16,16s16-7.163,16-16S24.837,0,16,0z M23.854,8.854l-0.905,0.905
		C22.972,9.845,23,9.931,23,10.022v5.743c-0.001,0.269-0.124,0.561-0.314,0.751L15.5,23.702C15.301,23.901,15.04,24,14.78,24
		c-0.261,0-0.521-0.099-0.72-0.298L8.298,17.94C8.107,17.749,8,17.49,8,17.22c0-0.27,0.107-0.529,0.298-0.72l7.186-7.186
		c0.19-0.19,0.483-0.314,0.752-0.314h5.743c0.001,0,0.003,0,0.003,0c0.09,0,0.174,0.029,0.26,0.052l0.905-0.905
		c0.195-0.195,0.512-0.195,0.707,0S24.049,8.658,23.854,8.854z"/>
</g>
</svg>
