<?xml version="1.0" encoding="utf-8"?>
<!-- Generator: Adobe Illustrator 21.0.0, SVG Export Plug-In . SVG Version: 6.00 Build 0)  -->
<svg version="1.1" id="icons" xmlns="http://www.w3.org/2000/svg" xmlns:xlink="http://www.w3.org/1999/xlink" x="0px" y="0px"
	 width="16px" height="16px" viewBox="0 0 16 16" style="enable-background:new 0 0 16 16;" xml:space="preserve">
<style type="text/css">
	.st0{fill:#5057FB;}
	.st1{fill:#C93789;}
	.st2{fill:#ED5C36;}
	.st3{fill:#AFB224;}
	.st4{fill:#15B2CC;}
</style>
<g id="price_2_">
	<path d="M5.354,7.646c-0.195-0.195-0.512-0.195-0.707,0s-0.195,0.512,0,0.707l3,3C7.744,11.451,7.872,11.5,8,11.5
		s0.256-0.049,0.354-0.146c0.195-0.195,0.195-0.512,0-0.707L5.354,7.646z"/>
	<path d="M15.854,0.146c-0.195-0.195-0.512-0.195-0.707,0l-0.905,0.905C14.156,1.029,14.071,1,13.982,1c0,0-0.002,0-0.003,0H8.236
		C7.967,1.001,7.674,1.124,7.484,1.314L0.298,8.5C0.107,8.691,0,8.95,0,9.22c0,0.27,0.107,0.529,0.298,0.72l5.761,5.761
		C6.258,15.901,6.519,16,6.78,16c0.261,0,0.521-0.099,0.72-0.298l7.186-7.186c0.19-0.19,0.314-0.482,0.314-0.751V2.022
		c0-0.091-0.028-0.177-0.052-0.263l0.905-0.905C16.049,0.658,16.049,0.342,15.854,0.146z M13.979,7.809l-7.212,7.185L1.005,9.207
		l7.183-7.183C8.2,2.015,8.23,2.002,8.236,2h5.057l-2.286,2.286C10.703,4.108,10.358,4,9.999,4h0c-0.435,0-0.85,0.138-1.198,0.399
		C8.373,4.72,8.096,5.187,8.02,5.716C7.944,6.245,8.079,6.772,8.399,7.199C8.775,7.701,9.373,8,10,8c0.435,0,0.85-0.138,1.198-0.399
		c0.428-0.32,0.705-0.788,0.781-1.317c0.065-0.454-0.034-0.903-0.264-1.293L14,2.707l0,5.048C13.998,7.77,13.986,7.8,13.979,7.809z
		 M10.146,5.854C10.244,5.951,10.372,6,10.5,6s0.256-0.049,0.354-0.146l0.11-0.11c0.102,0.383-0.028,0.805-0.364,1.056
		C10.419,6.935,10.209,7,10,7C9.696,7,9.396,6.862,9.199,6.599C8.868,6.157,8.958,5.531,9.4,5.2C9.58,5.065,9.79,5,9.999,5
		c0.082,0,0.159,0.035,0.239,0.055l-0.091,0.091C9.951,5.342,9.951,5.658,10.146,5.854z"/>
</g>
</svg>
