<?xml version="1.0" encoding="utf-8"?>
<!-- Generator: Adobe Illustrator 21.0.0, SVG Export Plug-In . SVG Version: 6.00 Build 0)  -->
<svg version="1.1" id="icons" xmlns="http://www.w3.org/2000/svg" xmlns:xlink="http://www.w3.org/1999/xlink" x="0px" y="0px"
	 width="32px" height="32px" viewBox="0 0 32 32" style="enable-background:new 0 0 32 32;" xml:space="preserve">
<style type="text/css">
	.st0{fill:none;}
	.st1{fill:#AFB224;}
	.st2{font-family:'OpenSans';}
	.st3{font-size:4px;}
	.st4{fill:#5057FB;}
	.st5{fill:#C93789;}
	.st6{fill:#ED5C36;}
	.st7{fill:#15B2CC;}
</style>
<g id="reservation-form_1_">
	<path class="st5" d="M18.5,19h-5c-0.276,0-0.5,0.224-0.5,0.5s0.224,0.5,0.5,0.5h5c0.276,0,0.5-0.224,0.5-0.5S18.776,19,18.5,19z"/>
	<rect x="14.2" y="9" class="st5" width="3.8" height="2"/>
	<path class="st5" d="M18.5,17h-5c-0.276,0-0.5,0.224-0.5,0.5s0.224,0.5,0.5,0.5h5c0.276,0,0.5-0.224,0.5-0.5S18.776,17,18.5,17z"/>
	<path class="st5" d="M16,0C7.163,0,0,7.163,0,16s7.163,16,16,16s16-7.163,16-16S24.837,0,16,0z M22,22c0,1.103-0.897,2-2,2h-8
		c-1.103,0-2-0.897-2-2V11c0-1.103,0.897-2,2-2h1.2c0-0.552,0.448-1,1-1H18c0.552,0,1,0.448,1,1h1c1.103,0,2,0.897,2,2V22z"/>
	<path class="st5" d="M18.5,15h-5c-0.276,0-0.5,0.224-0.5,0.5s0.224,0.5,0.5,0.5h5c0.276,0,0.5-0.224,0.5-0.5S18.776,15,18.5,15z"/>
</g>
</svg>
