<?xml version="1.0" encoding="utf-8"?>
<!-- Generator: Adobe Illustrator 21.0.0, SVG Export Plug-In . SVG Version: 6.00 Build 0)  -->
<svg version="1.1" id="icons" xmlns="http://www.w3.org/2000/svg" xmlns:xlink="http://www.w3.org/1999/xlink" x="0px" y="0px"
	 width="16px" height="16px" viewBox="0 0 16 16" style="enable-background:new 0 0 16 16;" xml:space="preserve">
<style type="text/css">
	.st0{fill:#5057FB;}
	.st1{fill:#C93789;}
	.st2{fill:#ED5C36;}
	.st3{fill:#AFB224;}
	.st4{fill:#15B2CC;}
</style>
<path id="reservation-form_3_" d="M12,1h-1c0-0.552-0.448-1-1-1H6.2c-0.552,0-1,0.448-1,1H4C2.897,1,2,1.897,2,3v11
	c0,1.103,0.897,2,2,2h8c1.103,0,2-0.897,2-2V3C14,1.897,13.103,1,12,1z M6,1h4v2H6V1z M10.5,12h-5C5.224,12,5,11.776,5,11.5
	S5.224,11,5.5,11h5c0.276,0,0.5,0.224,0.5,0.5S10.776,12,10.5,12z M10.5,10h-5C5.224,10,5,9.776,5,9.5S5.224,9,5.5,9h5
	C10.776,9,11,9.224,11,9.5S10.776,10,10.5,10z M10.5,8h-5C5.224,8,5,7.776,5,7.5S5.224,7,5.5,7h5C10.776,7,11,7.224,11,7.5
	S10.776,8,10.5,8z"/>
</svg>
