<?xml version="1.0" encoding="utf-8"?>
<!-- Generator: Adobe Illustrator 21.0.0, SVG Export Plug-In . SVG Version: 6.00 Build 0)  -->
<svg version="1.1" id="icons" xmlns="http://www.w3.org/2000/svg" xmlns:xlink="http://www.w3.org/1999/xlink" x="0px" y="0px"
	 width="16px" height="16px" viewBox="0 0 16 16" style="enable-background:new 0 0 16 16;" xml:space="preserve">
<style type="text/css">
	.st0{fill:#5057FB;}
	.st1{fill:#C93789;}
	.st2{fill:#ED5C36;}
	.st3{fill:#AFB224;}
	.st4{fill:#15B2CC;}
</style>
<g id="reservation-form_2_">
	<path d="M5,7.5C5,7.224,5.224,7,5.5,7h5C10.776,7,11,7.224,11,7.5S10.776,8,10.5,8h-5C5.224,8,5,7.776,5,7.5z"/>
	<path d="M5,9.5C5,9.224,5.224,9,5.5,9h5C10.776,9,11,9.224,11,9.5S10.776,10,10.5,10h-5C5.224,10,5,9.776,5,9.5z"/>
	<path d="M5,11.5C5,11.224,5.224,11,5.5,11h5c0.276,0,0.5,0.224,0.5,0.5S10.776,12,10.5,12h-5C5.224,12,5,11.776,5,11.5z"/>
	<path d="M12,1h-1c0-0.552-0.448-1-1-1H6C5.448,0,5,0.448,5,1H4C2.897,1,2,1.897,2,3v11c0,1.103,0.897,2,2,2h8c1.103,0,2-0.897,2-2
		V3C14,1.897,13.103,1,12,1z M10,1v1v1H6V2V1H10z M13,14c0,0.552-0.448,1-1,1H4c-0.552,0-1-0.448-1-1V3c0-0.552,0.448-1,1-1h1v1
		c0,0.552,0.448,1,1,1h4c0.552,0,1-0.448,1-1V2h1c0.552,0,1,0.448,1,1V14z"/>
</g>
</svg>
