<?xml version="1.0" encoding="utf-8"?>
<!-- Generator: Adobe Illustrator 21.0.0, SVG Export Plug-In . SVG Version: 6.00 Build 0)  -->
<svg version="1.1" id="icons" xmlns="http://www.w3.org/2000/svg" xmlns:xlink="http://www.w3.org/1999/xlink" x="0px" y="0px"
	 width="32px" height="32px" viewBox="0 0 32 32" style="enable-background:new 0 0 32 32;" xml:space="preserve">
<style type="text/css">
	.st0{fill:#5057FB;}
	.st1{fill:#C93789;}
	.st2{fill:#ED5C36;}
	.st3{fill:#AFB224;}
	.st4{fill:#15B2CC;}
</style>
<g id="sale-car_3_">
	<path class="st0" d="M20.5,12c0.276,0,0.5-0.224,0.5-0.5v-1c0-0.276-0.224-0.5-0.5-0.5S20,10.224,20,10.5v1
		C20,11.776,20.224,12,20.5,12z"/>
	<path class="st0" d="M16,0C7.163,0,0,7.163,0,16s7.163,16,16,16s16-7.163,16-16S24.837,0,16,0z M9,16v-0.5
		c0-2.447,1.77-4.48,4.095-4.908c0.048-0.107,0.11-0.211,0.198-0.299l2-2C15.48,8.105,15.735,8,16,8h6c0.552,0,1,0.448,1,1v4
		c0,0.552-0.448,1-1,1h-6c-0.265,0-0.52-0.105-0.707-0.293l-2-2c-0.037-0.037-0.054-0.086-0.084-0.127
		C11.381,11.948,10,13.565,10,15.5V16v0.5c0,0.276-0.224,0.5-0.5,0.5S9,16.776,9,16.5V16z M12,24c-0.552,0-1-0.448-1-1s0.448-1,1-1
		c0.552,0,1,0.448,1,1S12.553,24,12,24z M20,24c-0.552,0-1-0.448-1-1s0.448-1,1-1c0.552,0,1,0.448,1,1S20.553,24,20,24z M24,22.5
		c0,0.276-0.224,0.5-0.5,0.5H22c0-1.105-0.895-2-2-2s-2,0.895-2,2h-4c0-1.105-0.895-2-2-2s-2,0.895-2,2H9.997l-1.594-0.304
		c-0.266-0.052-0.442-0.308-0.396-0.575L8.2,21h0.3C8.776,21,9,20.776,9,20.5S8.776,20,8.5,20H8.253l-0.007-0.731
		c-0.001-0.231,0.157-0.434,0.383-0.488l1.143-0.274c0.251-0.202,0.966-0.771,1.263-0.973C11.29,17.359,11.977,17,12.463,17h2.893
		c0.202,0,0.866,0.055,1.242,0.298l2.289,1.202l4.187,0.865c0.158,0.032,0.291,0.14,0.355,0.287l0.528,1.197
		C23.986,20.913,24,20.982,24,21.052V22.5z"/>
</g>
</svg>
