<?xml version="1.0" encoding="utf-8"?>
<!-- Generator: Adobe Illustrator 21.0.0, SVG Export Plug-In . SVG Version: 6.00 Build 0)  -->
<svg version="1.1" id="icons" xmlns="http://www.w3.org/2000/svg" xmlns:xlink="http://www.w3.org/1999/xlink" x="0px" y="0px"
	 width="16px" height="16px" viewBox="0 0 16 16" style="enable-background:new 0 0 16 16;" xml:space="preserve">
<style type="text/css">
	.st0{fill:#5057FB;}
	.st1{fill:#C93789;}
	.st2{fill:#ED5C36;}
	.st3{fill:#AFB224;}
	.st4{fill:#15B2CC;}
</style>
<g id="sale-car_1_">
	<g id="sale-car_2_">
		<path d="M14,0H8C7.735,0,7.48,0.105,7.293,0.293l-2,2c-0.088,0.088-0.15,0.191-0.198,0.299C2.77,3.02,1,5.053,1,7.5V8v0.5
			C1,8.776,1.224,9,1.5,9S2,8.776,2,8.5V8V7.5c0-1.935,1.381-3.552,3.209-3.92c0.03,0.042,0.047,0.09,0.084,0.127l2,2
			C7.48,5.895,7.735,6,8,6h6c0.552,0,1-0.448,1-1V1C15,0.448,14.552,0,14,0z M13,3.5C13,3.776,12.776,4,12.5,4S12,3.776,12,3.5v-1
			C12,2.224,12.224,2,12.5,2S13,2.224,13,2.5V3.5z"/>
	</g>
	<g>
		<path d="M15.957,12.85l-0.528-1.197c-0.064-0.147-0.197-0.255-0.355-0.287L10.887,10.5L8.598,9.298C8.222,9.055,7.558,9,7.356,9
			H4.463C3.977,9,3.29,9.359,3.035,9.533c-0.297,0.201-1.012,0.771-1.263,0.973L0.629,10.78c-0.226,0.055-0.384,0.257-0.383,0.488
			L0.253,12H0.5C0.776,12,1,12.224,1,12.5S0.776,13,0.5,13H0.2l-0.193,1.121c-0.046,0.268,0.131,0.523,0.396,0.575L1.997,15H2
			c0-1.105,0.895-2,2-2s2,0.895,2,2h4c0-1.105,0.895-2,2-2s2,0.895,2,2h1.5c0.276,0,0.5-0.224,0.5-0.5v-1.448
			C16,12.982,15.986,12.913,15.957,12.85z"/>
		<circle cx="4" cy="15" r="1"/>
		<circle cx="12" cy="15" r="1"/>
	</g>
</g>
</svg>
