<?xml version="1.0" encoding="utf-8"?>
<!-- Generator: Adobe Illustrator 21.0.0, SVG Export Plug-In . SVG Version: 6.00 Build 0)  -->
<svg version="1.1" id="icons" xmlns="http://www.w3.org/2000/svg" xmlns:xlink="http://www.w3.org/1999/xlink" x="0px" y="0px"
	 width="16px" height="16px" viewBox="0 0 16 16" style="enable-background:new 0 0 16 16;" xml:space="preserve">
<style type="text/css">
	.st0{fill:#5057FB;}
	.st1{fill:#C93789;}
	.st2{fill:#ED5C36;}
	.st3{fill:#AFB224;}
	.st4{fill:#15B2CC;}
</style>
<g id="sale-car_4_">
	<path d="M12.5,4C12.777,4,13,3.776,13,3.5v-1C13,2.224,12.777,2,12.5,2S12,2.224,12,2.5v1C12,3.776,12.224,4,12.5,4z"/>
	<path d="M14,0H8c-0.265,0-0.52,0.105-0.707,0.293l-2,2c-0.088,0.088-0.15,0.191-0.198,0.299C2.77,3.02,1,5.053,1,7.5v1
		C1,8.776,1.224,9,1.5,9S2,8.776,2,8.5v-1c0-1.935,1.381-3.552,3.209-3.92c0.03,0.042,0.047,0.09,0.084,0.127l2,2
		C7.481,5.895,7.735,6,8,6h6c0.552,0,1-0.448,1-1V1C15,0.448,14.553,0,14,0z M14,5H8L6,3l2-2h6V5z"/>
	<path d="M15.957,12.85l-0.528-1.197c-0.064-0.147-0.197-0.255-0.355-0.287L10.887,10.5L8.598,9.298C8.222,9.055,7.558,9,7.356,9
		H4.463C3.977,9,3.29,9.359,3.035,9.533c-0.297,0.201-1.012,0.771-1.263,0.973L0.629,10.78c-0.226,0.055-0.384,0.257-0.383,0.488
		l0.013,1.387l-0.252,1.466c-0.046,0.268,0.131,0.523,0.396,0.575L1.997,15h0.095C2.3,15.581,2.849,16,3.5,16s1.201-0.419,1.408-1
		h5.184c0.207,0.581,0.757,1,1.408,1s1.201-0.419,1.408-1H15.5c0.276,0,0.5-0.224,0.5-0.5v-1.448
		C16,12.982,15.986,12.913,15.957,12.85z M3,14.5c0-0.26,0.203-0.468,0.457-0.491C3.472,14.007,3.485,14,3.5,14
		c0.015,0,0.028,0.007,0.043,0.009C3.798,14.032,4,14.24,4,14.5C4,14.775,3.776,15,3.5,15S3,14.775,3,14.5z M11,14.5
		c0-0.271,0.218-0.49,0.487-0.497c0.005,0,0.008-0.003,0.013-0.003s0.008,0.003,0.013,0.003C11.783,14.01,12,14.229,12,14.5
		c0,0.275-0.225,0.5-0.5,0.5S11,14.775,11,14.5z M15,14l-2.092,0.002C12.702,13.42,12.152,13,11.5,13
		c-0.652,0-1.203,0.421-1.409,1.004l-5.181,0.004C4.706,13.423,4.154,13,3.5,13c-0.654,0-1.206,0.424-1.411,1.009l-1.016-0.2
		L1.209,13H1.5C1.776,13,2,12.776,2,12.5S1.776,12,1.5,12H1.25l-0.001-0.34l0.866-0.208c0.071-0.018,0.139-0.051,0.196-0.098
		c0.268-0.215,1.019-0.813,1.285-0.993C3.86,10.182,4.323,10,4.463,10h2.893c0.241,0,0.61,0.08,0.738,0.16l2.391,1.258
		c0.041,0.021,0.085,0.038,0.131,0.047l4.003,0.827L15,13.157V14z"/>
</g>
</svg>
