<?xml version="1.0" encoding="utf-8"?>
<!-- Generator: Adobe Illustrator 21.0.0, SVG Export Plug-In . SVG Version: 6.00 Build 0)  -->
<svg version="1.1" id="icons" xmlns="http://www.w3.org/2000/svg" xmlns:xlink="http://www.w3.org/1999/xlink" x="0px" y="0px"
	 width="16px" height="16px" viewBox="0 0 16 16" style="enable-background:new 0 0 16 16;" xml:space="preserve">
<style type="text/css">
	.st0{fill:#5057FB;}
	.st1{fill:#C93789;}
	.st2{fill:#ED5C36;}
	.st3{fill:#AFB224;}
	.st4{fill:#15B2CC;}
</style>
<g id="search-car_3_">
	<g>
		<path class="st1" d="M15.957,12.85l-0.528-1.197c-0.064-0.147-0.197-0.255-0.355-0.287L10.887,10.5L8.598,9.298
			C8.222,9.055,7.558,9,7.356,9H4.463C3.977,9,3.29,9.359,3.035,9.533c-0.297,0.201-1.012,0.771-1.263,0.973L0.629,10.78
			c-0.226,0.055-0.384,0.257-0.383,0.488L0.253,12H0.5C0.776,12,1,12.224,1,12.5S0.776,13,0.5,13H0.2l-0.193,1.121
			c-0.046,0.268,0.131,0.523,0.396,0.575L1.997,15H2c0-1.105,0.895-2,2-2s2,0.895,2,2h4c0-1.105,0.895-2,2-2s2,0.895,2,2h1.5
			c0.276,0,0.5-0.224,0.5-0.5v-1.448C16,12.982,15.986,12.913,15.957,12.85z"/>
		<circle class="st1" cx="4" cy="15" r="1"/>
		<circle class="st1" cx="12" cy="15" r="1"/>
	</g>
	<path class="st1" d="M15.224,6.553L11.74,4.811C11.905,4.405,12,3.964,12,3.5C12,1.57,10.43,0,8.5,0S5,1.57,5,3.5S6.57,7,8.5,7
		c1.106,0,2.082-0.526,2.724-1.329l3.553,1.776C14.849,7.483,14.925,7.5,15,7.5c0.183,0,0.359-0.102,0.447-0.276
		C15.57,6.977,15.471,6.677,15.224,6.553z M8.5,5.5c-1.103,0-2-0.897-2-2C6.5,3.224,6.724,3,7,3s0.5,0.224,0.5,0.5
		c0,0.551,0.448,1,1,1C8.776,4.5,9,4.724,9,5S8.776,5.5,8.5,5.5z"/>
</g>
</svg>
