<?xml version="1.0" encoding="utf-8"?>
<!-- Generator: Adobe Illustrator 21.0.0, SVG Export Plug-In . SVG Version: 6.00 Build 0)  -->
<svg version="1.1" id="icons" xmlns="http://www.w3.org/2000/svg" xmlns:xlink="http://www.w3.org/1999/xlink" x="0px" y="0px"
	 width="32px" height="32px" viewBox="0 0 32 32" style="enable-background:new 0 0 32 32;" xml:space="preserve">
<style type="text/css">
	.st0{fill:#5057FB;}
	.st1{fill:#C93789;}
	.st2{fill:#ED5C36;}
	.st3{fill:#AFB224;}
	.st4{fill:#15B2CC;}
</style>
<g id="search-car">
	<path class="st1" d="M16.5,13.5c0.276,0,0.5-0.224,0.5-0.5s-0.224-0.5-0.5-0.5c-0.552,0-1-0.449-1-1c0-0.276-0.224-0.5-0.5-0.5
		s-0.5,0.224-0.5,0.5C14.5,12.603,15.397,13.5,16.5,13.5z"/>
	<path class="st1" d="M16,0C7.163,0,0,7.163,0,16s7.163,16,16,16s16-7.163,16-16S24.837,0,16,0z M16.5,8c1.93,0,3.5,1.57,3.5,3.5
		c0,0.464-0.095,0.905-0.26,1.311l3.484,1.742c0.247,0.124,0.347,0.424,0.224,0.671C23.359,15.398,23.183,15.5,23,15.5
		c-0.075,0-0.151-0.017-0.224-0.053l-3.553-1.776C18.582,14.474,17.606,15,16.5,15c-1.93,0-3.5-1.57-3.5-3.5S14.57,8,16.5,8z M12,24
		c-0.552,0-1-0.448-1-1s0.448-1,1-1c0.552,0,1,0.448,1,1S12.553,24,12,24z M20,24c-0.552,0-1-0.448-1-1s0.448-1,1-1
		c0.552,0,1,0.448,1,1S20.553,24,20,24z M24,22.5c0,0.276-0.224,0.5-0.5,0.5H22c0-1.105-0.895-2-2-2s-2,0.895-2,2h-4
		c0-1.105-0.895-2-2-2s-2,0.895-2,2H9.997l-1.594-0.304c-0.266-0.052-0.442-0.308-0.396-0.575L8.2,21h0.3C8.776,21,9,20.776,9,20.5
		S8.776,20,8.5,20H8.253l-0.007-0.731c-0.001-0.231,0.157-0.434,0.383-0.488l1.143-0.274c0.251-0.202,0.966-0.771,1.263-0.973
		C11.29,17.359,11.977,17,12.463,17h2.893c0.202,0,0.866,0.055,1.242,0.298l2.289,1.202l4.187,0.865
		c0.158,0.032,0.291,0.14,0.355,0.287l0.528,1.197C23.986,20.913,24,20.982,24,21.052V22.5z"/>
</g>
</svg>
