<?xml version="1.0" encoding="utf-8"?>
<!-- Generator: Adobe Illustrator 21.0.0, SVG Export Plug-In . SVG Version: 6.00 Build 0)  -->
<svg version="1.1" id="icons" xmlns="http://www.w3.org/2000/svg" xmlns:xlink="http://www.w3.org/1999/xlink" x="0px" y="0px"
	 width="16px" height="16px" viewBox="0 0 16 16" style="enable-background:new 0 0 16 16;" xml:space="preserve">
<style type="text/css">
	.st0{fill:#5057FB;}
	.st1{fill:#C93789;}
	.st2{fill:#ED5C36;}
	.st3{fill:#AFB224;}
	.st4{fill:#15B2CC;}
</style>
<g id="sedan">
	<path d="M15.86,8.148l-0.71-0.73c-0.06-0.07-0.14-0.12-0.23-0.14l-2.7-0.73l-0.87-0.52L9.76,5.07C9.68,5.02,9.59,5,9.5,5H4
		C3.89,5,3.79,5.03,3.7,5.1L3.45,5.29L1.83,6.499H0.5c-0.02,0-0.04,0-0.06,0.01c-0.02,0.01-0.04,0.01-0.06,0.01H0.37
		c-0.08,0.03-0.14,0.06-0.2,0.1c0,0.01-0.01,0.01-0.01,0.01c-0.03,0.03-0.06,0.06-0.08,0.09c-0.02,0.03-0.03,0.06-0.04,0.09
		c-0.01,0.02-0.02,0.05-0.02,0.07C0,6.919,0,6.959,0,6.999v2.249c0,0.23,0.16,0.43,0.38,0.48l1,0.25c0.04,0.02,0.08,0.02,0.12,0.02
		H2c0-0.41,0.17-0.78,0.44-1.049c0.13-0.14,0.29-0.25,0.48-0.32c0.18-0.08,0.37-0.12,0.58-0.12s0.4,0.04,0.58,0.12
		c0.19,0.07,0.35,0.18,0.48,0.32C4.83,9.218,5,9.588,5,9.997h6c0-0.41,0.17-0.78,0.44-1.049c0.13-0.14,0.29-0.25,0.48-0.32
		c0.18-0.08,0.37-0.12,0.58-0.12s0.4,0.04,0.58,0.12c0.19,0.07,0.35,0.18,0.48,0.32C13.83,9.218,14,9.588,14,9.997h1.5
		c0.28,0,0.5-0.22,0.5-0.5V8.498C16,8.368,15.95,8.248,15.86,8.148"/>
	<path d="M4.5,9.999c0,0.553-0.448,1-1,1s-1-0.448-1-1c0-0.553,0.448-1,1-1S4.5,9.447,4.5,9.999"/>
	<path d="M13.5,9.999c0,0.553-0.448,1-1,1c-0.552,0-1-0.448-1-1c0-0.553,0.448-1,1-1C13.052,8.999,13.5,9.447,13.5,9.999"/>
</g>
</svg>
