<?xml version="1.0" encoding="utf-8"?>
<!-- Generator: Adobe Illustrator 21.0.0, SVG Export Plug-In . SVG Version: 6.00 Build 0)  -->
<svg version="1.1" id="icons" xmlns="http://www.w3.org/2000/svg" xmlns:xlink="http://www.w3.org/1999/xlink" x="0px" y="0px"
	 width="16px" height="16px" viewBox="0 0 16 16" style="enable-background:new 0 0 16 16;" xml:space="preserve">
<style type="text/css">
	.st0{fill:#5057FB;}
	.st1{fill:#C93789;}
	.st2{fill:#ED5C36;}
	.st3{fill:#AFB224;}
	.st4{fill:#15B2CC;}
</style>
<path id="sedan_3_" d="M13.41,10h2.09c0.28,0,0.5-0.22,0.5-0.5v-1c0-0.13-0.05-0.25-0.14-0.35l-0.71-0.74
	c-0.06-0.07-0.14-0.12-0.23-0.14l-2.7-0.72L9.76,5.07C9.68,5.02,9.59,5,9.5,5H4C3.89,5,3.79,5.03,3.7,5.1L1.83,6.5H0.5
	C0.22,6.5,0,6.72,0,7v2.25c0,0.23,0.16,0.43,0.38,0.48l1,0.25C1.42,10,1.46,10,1.5,10h1.09c0.2,0.58,0.76,1,1.41,1
	c0.65,0,1.21-0.42,1.41-1h5.18c0.2,0.58,0.76,1,1.41,1C12.65,11,13.21,10.58,13.41,10z M4,10c-0.28,0-0.5-0.22-0.5-0.5S3.72,9,4,9
	c0.28,0,0.5,0.22,0.5,0.5S4.28,10,4,10z M10.59,9H5.41C5.21,8.42,4.65,8,4,8C3.35,8,2.79,8.42,2.59,9H1.56L1,8.86V7.5h1
	c0.11,0,0.21-0.03,0.3-0.1L4.17,6h5.19l2.41,1.45c0.04,0.02,0.08,0.04,0.13,0.05l2.62,0.7L15,8.7V9h-1.59c-0.2-0.58-0.76-1-1.41-1
	C11.35,8,10.79,8.42,10.59,9z M12,10c-0.27,0-0.5-0.22-0.5-0.5S11.73,9,12,9c0.28,0,0.5,0.22,0.5,0.5S12.28,10,12,10z"/>
</svg>
