<?xml version="1.0" encoding="utf-8"?>
<!-- Generator: Adobe Illustrator 21.0.0, SVG Export Plug-In . SVG Version: 6.00 Build 0)  -->
<svg version="1.1" id="icons" xmlns="http://www.w3.org/2000/svg" xmlns:xlink="http://www.w3.org/1999/xlink" x="0px" y="0px"
	 width="32px" height="32px" viewBox="0 0 32 32" style="enable-background:new 0 0 32 32;" xml:space="preserve">
<style type="text/css">
	.st0{fill:#5057FB;}
	.st1{fill:#C93789;}
	.st2{fill:#ED5C36;}
	.st3{fill:#AFB224;}
	.st4{fill:#15B2CC;}
</style>
<path id="sedan_2_" class="st2" d="M16,0C7.16,0,0,7.16,0,16c0,8.84,7.16,16,16,16s16-7.16,16-16C32,7.16,24.84,0,16,0z M11.5,19
	c-0.55,0-1-0.45-1-1s0.45-1,1-1s1,0.45,1,1S12.05,19,11.5,19z M20.5,19c-0.55,0-1-0.45-1-1s0.45-1,1-1s1,0.45,1,1S21.05,19,20.5,19z
	 M24,17.5c0,0.28-0.22,0.5-0.5,0.5H22c0-0.41-0.17-0.78-0.44-1.05c-0.13-0.14-0.29-0.25-0.48-0.32c-0.18-0.08-0.37-0.12-0.58-0.12
	s-0.4,0.04-0.58,0.12c-0.19,0.07-0.35,0.18-0.48,0.32C19.17,17.22,19,17.59,19,18h-6c0-0.41-0.17-0.78-0.44-1.05
	c-0.13-0.14-0.29-0.25-0.48-0.32c-0.18-0.08-0.37-0.12-0.58-0.12s-0.4,0.04-0.58,0.12c-0.19,0.07-0.35,0.18-0.48,0.32
	C10.17,17.22,10,17.59,10,18H9.5c-0.04,0-0.08,0-0.12-0.02l-1-0.25C8.16,17.68,8,17.48,8,17.25V15c0-0.04,0-0.08,0.02-0.12
	c0-0.02,0.01-0.05,0.02-0.07c0.01-0.03,0.02-0.06,0.04-0.09c0.02-0.03,0.05-0.06,0.08-0.09c0,0,0.01,0,0.01-0.01
	c0.06-0.04,0.12-0.07,0.2-0.1h0.01c0.02,0,0.04,0,0.06-0.01C8.46,14.5,8.48,14.5,8.5,14.5h1.33l1.62-1.21l0.25-0.19
	c0.09-0.07,0.19-0.1,0.3-0.1h5.5c0.09,0,0.18,0.02,0.26,0.07l1.59,0.96l0.87,0.52l2.7,0.73c0.09,0.02,0.17,0.07,0.23,0.14l0.71,0.73
	c0.09,0.1,0.14,0.22,0.14,0.35V17.5z"/>
</svg>
