<?xml version="1.0" encoding="utf-8"?>
<!-- Generator: Adobe Illustrator 21.0.0, SVG Export Plug-In . SVG Version: 6.00 Build 0)  -->
<svg version="1.1" id="icons" xmlns="http://www.w3.org/2000/svg" xmlns:xlink="http://www.w3.org/1999/xlink" x="0px" y="0px"
	 width="16px" height="16px" viewBox="0 0 16 16" style="enable-background:new 0 0 16 16;" xml:space="preserve">
<style type="text/css">
	.st0{fill:#5057FB;}
	.st1{fill:#C93789;}
	.st2{fill:#ED5C36;}
	.st3{fill:#AFB224;}
	.st4{fill:#15B2CC;}
</style>
<g id="smartcar_3_">
	<path d="M14.95,7.24l-4.28-3.06C9.7,3.42,8.49,3,7.27,3H2C1.79,3,1.61,3.13,1.53,3.32C1.51,3.39,0.92,4.93,0.76,5.94
		C0.57,7.07,0.52,7.91,0.51,8.28L0.15,8.65C0.05,8.74,0,8.87,0,9v2c0,1.1,0.9,2,2,2c0.74,0,1.38-0.4,1.73-1h8.54
		c0.35,0.6,0.99,1,1.73,1c1.1,0,2-0.9,2-2V9.27C16,8.47,15.61,7.71,14.95,7.24z M4.5,4h2.77c1,0,1.99,0.34,2.8,0.98L12.2,6.5H5
		C4.72,6.5,4.5,6.28,4.5,6V4z M1,11c0-0.07,0.01-0.13,0.02-0.19C1.11,10.35,1.52,10,2,10c0.55,0,1,0.45,1,1s-0.45,1-1,1
		S1,11.55,1,11z M4,11c0-1.11-0.9-2-2-2C1.64,9,1.29,9.1,1,9.27V9.21l0.35-0.36C1.45,8.76,1.5,8.63,1.5,8.5
		c0-0.01,0.01-0.97,0.24-2.4C1.85,5.45,2.17,4.49,2.35,4H3.5v2c0,0.83,0.67,1.5,1.5,1.5h8.6l0.77,0.56C14.77,8.34,15,8.79,15,9.27
		C14.71,9.1,14.36,9,14,9c-1.1,0-2,0.89-2,2H4z M13,11c0-0.55,0.45-1,1-1c0.48,0,0.89,0.35,0.98,0.81C14.99,10.87,15,10.93,15,11
		c0,0.55-0.45,1-1,1S13,11.55,13,11z"/>
	<path d="M6.5,8h-1C5.224,8,5,8.224,5,8.5S5.224,9,5.5,9h1C6.776,9,7,8.776,7,8.5S6.776,8,6.5,8z"/>
</g>
</svg>
