<?xml version="1.0" encoding="utf-8"?>
<!-- Generator: Adobe Illustrator 21.0.0, SVG Export Plug-In . SVG Version: 6.00 Build 0)  -->
<svg version="1.1" id="icons" xmlns="http://www.w3.org/2000/svg" xmlns:xlink="http://www.w3.org/1999/xlink" x="0px" y="0px"
	 width="16px" height="16px" viewBox="0 0 16 16" style="enable-background:new 0 0 16 16;" xml:space="preserve">
<style type="text/css">
	.st0{fill:#5057FB;}
	.st1{fill:#C93789;}
	.st2{fill:#ED5C36;}
	.st3{fill:#AFB224;}
	.st4{fill:#15B2CC;}
</style>
<g id="smartcar_1_">
	<path class="st1" d="M15.37,7.542l-4.7-3.362C9.7,3.42,8.49,3,7.27,3H2C1.79,3,1.61,3.13,1.53,3.32
		C1.51,3.39,0.92,4.931,0.76,5.941C0.57,7.072,0.52,7.912,0.51,8.283l-0.36,0.37C0.05,8.743,0,8.873,0,9.003v2.001
		c0,0.05,0.01,0.1,0.03,0.15C0.19,10.214,1.02,9.503,2,9.503c1.1,0,2,0.89,2,2.001C4,11.674,3.98,11.84,3.93,12h8.14
		C12.02,11.84,12,11.674,12,11.504c0-1.111,0.9-2.001,2-2.001c0.98,0,1.81,0.71,1.97,1.651c0.02-0.05,0.03-0.1,0.03-0.15V8.763
		C16,8.283,15.77,7.822,15.37,7.542z M6.5,9.003h-1c-0.28,0-0.5-0.22-0.5-0.5c0-0.28,0.22-0.5,0.5-0.5h1c0.28,0,0.5,0.22,0.5,0.5
		C7,8.783,6.78,9.003,6.5,9.003z M5,7.002c-0.28,0-0.5-0.22-0.5-0.5V4h2.77c1,0,1.99,0.34,2.8,0.98l2.83,2.021H5z"/>
	<g>
		<path class="st1" d="M14,13c-0.827,0-1.5-0.673-1.5-1.501c0-0.828,0.673-1.501,1.5-1.501s1.5,0.673,1.5,1.501
			C15.5,12.327,14.828,13,14,13z"/>
	</g>
	<g>
		<path class="st1" d="M2,13c-0.827,0-1.5-0.673-1.5-1.501c0-0.828,0.673-1.501,1.5-1.501s1.5,0.673,1.5,1.501
			C3.5,12.327,2.828,13,2,13z"/>
	</g>
</g>
</svg>
