<?xml version="1.0" encoding="utf-8"?>
<!-- Generator: Adobe Illustrator 21.0.0, SVG Export Plug-In . SVG Version: 6.00 Build 0)  -->
<svg version="1.1" id="icons" xmlns="http://www.w3.org/2000/svg" xmlns:xlink="http://www.w3.org/1999/xlink" x="0px" y="0px"
	 width="32px" height="32px" viewBox="0 0 32 32" style="enable-background:new 0 0 32 32;" xml:space="preserve">
<style type="text/css">
	.st0{fill:#5057FB;}
	.st1{fill:#C93789;}
	.st2{fill:#ED5C36;}
	.st3{fill:#AFB224;}
	.st4{fill:#15B2CC;}
</style>
<g id="smartcar_2_">
	<path class="st1" d="M15,16.51c0,0.28-0.22,0.5-0.5,0.5h-1c-0.28,0-0.5-0.22-0.5-0.5c0-0.28,0.22-0.5,0.5-0.5h1
		C14.78,16.01,15,16.23,15,16.51z"/>
	<path class="st1" d="M18.07,12.98L20.9,15H13c-0.28,0-1-0.21-1-0.49V12h3.27C16.27,12,17.26,12.34,18.07,12.98z"/>
	<path class="st1" d="M16,0C7.16,0,0,7.16,0,16c0,8.84,7.16,16,16,16s16-7.16,16-16C32,7.16,24.84,0,16,0z M10,21
		c-0.83,0-1.5-0.67-1.5-1.5c0-0.83,0.67-1.5,1.5-1.5s1.5,0.67,1.5,1.5C11.5,20.33,10.83,21,10,21z M22,21c-0.83,0-1.5-0.67-1.5-1.5
		c0-0.83,0.67-1.5,1.5-1.5s1.5,0.67,1.5,1.5C23.5,20.33,22.83,21,22,21z M24,19.01c0,0.05-0.01,0.1-0.03,0.15
		c-0.16-0.94-0.99-1.65-1.97-1.65c-1.1,0-2,0.88-2,2c0,0.16,0.02,0.49,0.07,0.49h-8.14c0.05,0,0.07-0.33,0.07-0.49c0-1.12-0.9-2-2-2
		c-0.98,0-1.81,0.71-1.97,1.65C8.01,19.11,8,19.06,8,19.01v-2c0-0.13,0.05-0.26,0.15-0.35l0.36-0.37c0.01-0.37,0.06-1.21,0.25-2.34
		c0.16-1.01,0.75-2.56,0.77-2.63C9.61,11.14,9.79,11,10,11h5.27c1.22,0,2.43,0.42,3.4,1.18l4.7,3.37c0.4,0.28,0.63,0.74,0.63,1.22
		V19.01z"/>
</g>
</svg>
