<?xml version="1.0" encoding="utf-8"?>
<!-- Generator: Adobe Illustrator 21.0.0, SVG Export Plug-In . SVG Version: 6.00 Build 0)  -->
<svg version="1.1" id="icons" xmlns="http://www.w3.org/2000/svg" xmlns:xlink="http://www.w3.org/1999/xlink" x="0px" y="0px"
	 width="16px" height="16px" viewBox="0 0 16 16" style="enable-background:new 0 0 16 16;" xml:space="preserve">
<style type="text/css">
	.st0{fill:#5057FB;}
	.st1{fill:#C93789;}
	.st2{fill:#ED5C36;}
	.st3{fill:#AFB224;}
	.st4{fill:#15B2CC;}
</style>
<g id="speedometer">
	<path d="M8,0C3.58,0,0,3.58,0,8s3.58,8,8,8c4.42,0,8-3.58,8-8S12.42,0,8,0z M10.07,3.42l0.5-0.87c0.13-0.24,0.44-0.32,0.68-0.18
		s0.32,0.44,0.18,0.68l-0.5,0.87c-0.09,0.16-0.26,0.25-0.43,0.25c-0.09,0-0.17-0.02-0.25-0.07C10.01,3.96,9.93,3.66,10.07,3.42z
		 M7.5,2c0-0.28,0.22-0.5,0.5-0.5c0.28,0,0.5,0.22,0.5,0.5v1c0,0.28-0.22,0.5-0.5,0.5C7.72,3.5,7.5,3.28,7.5,3V2z M8,6.25
		c0.46,0,0.88,0.18,1.2,0.48l3.74-2.16c0.24-0.14,0.55-0.06,0.69,0.18s0.05,0.55-0.19,0.68L9.7,7.6C9.73,7.73,9.75,7.86,9.75,8
		c0,0.96-0.79,1.75-1.75,1.75C7.04,9.75,6.25,8.96,6.25,8S7.04,6.25,8,6.25z M1.5,8c0-0.28,0.22-0.5,0.5-0.5h1
		c0.28,0,0.5,0.22,0.5,0.5S3.28,8.5,3,8.5H2C1.72,8.5,1.5,8.28,1.5,8z M3.92,10.93l-0.87,0.5C2.98,11.48,2.89,11.5,2.8,11.5
		c-0.17,0-0.34-0.09-0.43-0.25c-0.14-0.24-0.06-0.54,0.18-0.68l0.87-0.5c0.24-0.14,0.54-0.06,0.68,0.18
		C4.24,10.49,4.16,10.79,3.92,10.93z M4.1,5.75C4.01,5.91,3.84,6,3.67,6C3.58,6,3.5,5.98,3.42,5.93l-0.87-0.5
		C2.31,5.29,2.23,4.99,2.37,4.75c0.14-0.24,0.44-0.32,0.68-0.18l0.87,0.5C4.16,5.21,4.24,5.51,4.1,5.75z M5.75,4.1
		C5.67,4.15,5.59,4.17,5.5,4.17c-0.17,0-0.34-0.09-0.43-0.25l-0.5-0.87C4.43,2.81,4.51,2.51,4.75,2.37s0.54-0.06,0.68,0.18l0.5,0.87
		C6.07,3.66,5.99,3.96,5.75,4.1z M9.5,14h-3C6.22,14,6,13.78,6,13.5S6.22,13,6.5,13h3c0.28,0,0.5,0.22,0.5,0.5S9.78,14,9.5,14z
		 M13.63,11.25c-0.09,0.16-0.26,0.25-0.43,0.25c-0.09,0-0.18-0.02-0.25-0.07l-0.87-0.5c-0.24-0.14-0.32-0.44-0.18-0.68
		c0.13-0.24,0.44-0.32,0.68-0.18l0.87,0.5C13.69,10.71,13.77,11.01,13.63,11.25z M14,8.5h-1c-0.28,0-0.5-0.22-0.5-0.5
		s0.22-0.5,0.5-0.5h1c0.28,0,0.5,0.22,0.5,0.5S14.28,8.5,14,8.5z M8,8.75c0.41,0,0.75-0.34,0.75-0.75S8.41,7.25,8,7.25
		C7.59,7.25,7.25,7.59,7.25,8S7.59,8.75,8,8.75z"/>
</g>
</svg>
