<?xml version="1.0" encoding="utf-8"?>
<!-- Generator: Adobe Illustrator 21.0.0, SVG Export Plug-In . SVG Version: 6.00 Build 0)  -->
<svg version="1.1" id="icons" xmlns="http://www.w3.org/2000/svg" xmlns:xlink="http://www.w3.org/1999/xlink" x="0px" y="0px"
	 width="32px" height="32px" viewBox="0 0 32 32" style="enable-background:new 0 0 32 32;" xml:space="preserve">
<style type="text/css">
	.st0{fill:#5057FB;}
	.st1{fill:#C93789;}
	.st2{fill:#ED5C36;}
	.st3{fill:#AFB224;}
	.st4{fill:#15B2CC;}
</style>
<g id="speedometer_2_">
	<path class="st1" d="M11.92,13.055l-0.87-0.5c-0.24-0.14-0.54-0.06-0.68,0.18c-0.14,0.24-0.06,0.54,0.18,0.68l0.87,0.5
		c0.08,0.05,0.16,0.07,0.25,0.07c0.17,0,0.34-0.09,0.43-0.25C12.24,13.495,12.16,13.195,11.92,13.055z"/>
	<path class="st1" d="M13.43,10.535c-0.14-0.24-0.44-0.32-0.68-0.18s-0.32,0.44-0.18,0.68l0.5,0.87c0.09,0.16,0.26,0.25,0.43,0.25
		c0.09,0,0.17-0.02,0.25-0.07c0.24-0.14,0.32-0.44,0.18-0.68L13.43,10.535z"/>
	<path class="st1" d="M11.42,18.055l-0.87,0.5c-0.24,0.14-0.32,0.44-0.18,0.68c0.09,0.16,0.26,0.25,0.43,0.25
		c0.09,0,0.18-0.02,0.25-0.07l0.87-0.5c0.24-0.14,0.32-0.44,0.18-0.68C11.96,17.995,11.66,17.915,11.42,18.055z"/>
	<path class="st1" d="M11.5,15.985c0-0.28-0.22-0.5-0.5-0.5h-1c-0.28,0-0.5,0.22-0.5,0.5s0.22,0.5,0.5,0.5h1
		C11.28,16.485,11.5,16.266,11.5,15.985z"/>
	<path class="st1" d="M17.5,20.985h-3c-0.28,0-0.5,0.22-0.5,0.5s0.22,0.5,0.5,0.5h3c0.28,0,0.5-0.22,0.5-0.5
		S17.78,20.985,17.5,20.985z"/>
	<path class="st1" d="M16,11.485c0.28,0,0.5-0.22,0.5-0.5v-1c0-0.28-0.22-0.5-0.5-0.5c-0.28,0-0.5,0.22-0.5,0.5v1
		C15.5,11.266,15.72,11.485,16,11.485z"/>
	<path class="st1" d="M18.25,12.085c0.08,0.05,0.16,0.07,0.25,0.07c0.17,0,0.34-0.09,0.43-0.25l0.5-0.87
		c0.14-0.24,0.06-0.54-0.18-0.68s-0.55-0.06-0.68,0.18l-0.5,0.87C17.93,11.645,18.01,11.945,18.25,12.085z"/>
	<path class="st1" d="M16,0C7.163,0,0,7.163,0,16s7.163,16,16,16s16-7.163,16-16S24.837,0,16,0z M16,23.985c-4.42,0-8-3.58-8-8
		s3.58-8,8-8c4.42,0,8,3.58,8,8S20.42,23.985,16,23.985z"/>
	<path class="st1" d="M20.5,15.985c0,0.28,0.22,0.5,0.5,0.5h1c0.28,0,0.5-0.22,0.5-0.5s-0.22-0.5-0.5-0.5h-1
		C20.72,15.485,20.5,15.705,20.5,15.985z"/>
	<path class="st1" d="M20.94,12.555l-3.74,2.16c-0.32-0.3-0.74-0.48-1.2-0.48c-0.96,0-1.75,0.79-1.75,1.75s0.79,1.75,1.75,1.75
		c0.96,0,1.75-0.79,1.75-1.75c0-0.14-0.02-0.27-0.05-0.4l3.74-2.17c0.24-0.13,0.33-0.44,0.19-0.68S21.18,12.415,20.94,12.555z
		 M16,16.735c-0.41,0-0.75-0.34-0.75-0.75s0.34-0.75,0.75-0.75c0.41,0,0.75,0.34,0.75,0.75S16.41,16.735,16,16.735z"/>
	<path class="st1" d="M21.45,18.555l-0.87-0.5c-0.24-0.14-0.55-0.06-0.68,0.18c-0.14,0.24-0.06,0.54,0.18,0.68l0.87,0.5
		c0.07,0.05,0.16,0.07,0.25,0.07c0.17,0,0.34-0.09,0.43-0.25C21.77,18.995,21.69,18.695,21.45,18.555z"/>
</g>
</svg>
