<?xml version="1.0" encoding="utf-8"?>
<!-- Generator: Adobe Illustrator 21.0.0, SVG Export Plug-In . SVG Version: 6.00 Build 0)  -->
<svg version="1.1" id="icons" xmlns="http://www.w3.org/2000/svg" xmlns:xlink="http://www.w3.org/1999/xlink" x="0px" y="0px"
	 width="16px" height="16px" viewBox="0 0 16 16" style="enable-background:new 0 0 16 16;" xml:space="preserve">
<style type="text/css">
	.st0{fill:#5057FB;}
	.st1{fill:#C93789;}
	.st2{fill:#ED5C36;}
	.st3{fill:#AFB224;}
	.st4{fill:#15B2CC;}
</style>
<g id="speedometer_3_">
	<path d="M8,0C3.582,0,0,3.582,0,8s3.582,8,8,8s8-3.582,8-8S12.418,0,8,0z M8,15c-3.86,0-7-3.14-7-7s3.14-7,7-7s7,3.14,7,7
		S11.86,15,8,15z"/>
	<path d="M8,3.5c0.276,0,0.5-0.224,0.5-0.5V2c0-0.276-0.224-0.5-0.5-0.5S7.5,1.724,7.5,2v1C7.5,3.276,7.724,3.5,8,3.5z"/>
	<path d="M10.25,4.103c0.079,0.045,0.165,0.067,0.25,0.067c0.173,0,0.341-0.09,0.434-0.25l0.5-0.866
		c0.138-0.239,0.056-0.545-0.183-0.683s-0.545-0.056-0.683,0.183l-0.5,0.866C9.929,3.659,10.011,3.965,10.25,4.103z"/>
	<path d="M14,7.5h-1c-0.276,0-0.5,0.224-0.5,0.5s0.224,0.5,0.5,0.5h1c0.276,0,0.5-0.224,0.5-0.5S14.276,7.5,14,7.5z"/>
	<path d="M13.446,10.567l-0.866-0.5c-0.239-0.139-0.545-0.056-0.683,0.183s-0.056,0.545,0.183,0.683l0.866,0.5
		c0.079,0.045,0.165,0.067,0.25,0.067c0.173,0,0.341-0.09,0.434-0.25C13.768,11.011,13.686,10.705,13.446,10.567z"/>
	<path d="M5.433,2.554C5.294,2.314,4.988,2.232,4.75,2.371C4.511,2.509,4.429,2.814,4.567,3.054l0.5,0.866
		C5.16,4.08,5.328,4.17,5.5,4.17c0.085,0,0.171-0.021,0.25-0.067C5.989,3.965,6.071,3.659,5.933,3.42L5.433,2.554z"/>
	<path d="M3.92,5.067l-0.866-0.5C2.814,4.428,2.509,4.511,2.371,4.75C2.232,4.989,2.314,5.295,2.554,5.433l0.866,0.5
		C3.499,5.979,3.584,6,3.669,6C3.842,6,4.01,5.91,4.103,5.75C4.241,5.511,4.159,5.205,3.92,5.067z"/>
	<path d="M3.5,8c0-0.276-0.224-0.5-0.5-0.5H2C1.724,7.5,1.5,7.724,1.5,8S1.724,8.5,2,8.5h1C3.276,8.5,3.5,8.276,3.5,8z"/>
	<path d="M3.42,10.067l-0.866,0.5c-0.239,0.138-0.321,0.444-0.183,0.683c0.093,0.16,0.261,0.25,0.434,0.25
		c0.085,0,0.171-0.021,0.25-0.067l0.866-0.5c0.239-0.138,0.321-0.444,0.183-0.683C3.964,10.011,3.657,9.928,3.42,10.067z"/>
	<path d="M8,9.75c0.965,0,1.75-0.785,1.75-1.75c0-0.139-0.021-0.273-0.052-0.403l3.746-2.163c0.239-0.138,0.321-0.444,0.183-0.683
		c-0.139-0.24-0.446-0.321-0.683-0.183L9.198,6.731C8.884,6.435,8.464,6.25,8,6.25C7.035,6.25,6.25,7.035,6.25,8S7.035,9.75,8,9.75z
		 M8,7.25c0.414,0,0.75,0.336,0.75,0.75S8.414,8.75,8,8.75S7.25,8.414,7.25,8S7.586,7.25,8,7.25z"/>
	<path d="M9.5,12h-3C6.224,12,6,12.224,6,12.5S6.224,13,6.5,13h3c0.276,0,0.5-0.224,0.5-0.5S9.776,12,9.5,12z"/>
</g>
</svg>
