<?xml version="1.0" encoding="utf-8"?>
<!-- Generator: Adobe Illustrator 21.0.0, SVG Export Plug-In . SVG Version: 6.00 Build 0)  -->
<svg version="1.1" id="icons" xmlns="http://www.w3.org/2000/svg" xmlns:xlink="http://www.w3.org/1999/xlink" x="0px" y="0px"
	 width="16px" height="16px" viewBox="0 0 16 16" style="enable-background:new 0 0 16 16;" xml:space="preserve">
<style type="text/css">
	.st0{fill:#5057FB;}
	.st1{fill:#C93789;}
	.st2{fill:#ED5C36;}
	.st3{fill:#AFB224;}
	.st4{fill:#15B2CC;}
</style>
<g id="sportcar_1_">
	<path class="st3" d="M15.84,8.137c-0.04-0.03-0.98-0.892-2.69-1.433c-0.95-0.301-2.16-0.411-2.52-0.441L8.32,5.1
		C8.19,5.04,8.03,5,7.88,5H4.12C3.97,5,3.81,5.04,3.67,5.11L1.44,6.223l-0.82-0.21c-0.15-0.04-0.31,0-0.43,0.09
		C0.07,6.203,0,6.343,0,6.503V9.76c0,0.18,0.11,0.361,0.27,0.441l0.45,0.23h0.01l0.04,0.03c0.08,0.03,0.15,0.05,0.23,0.05h1.09
		C2.03,10.361,2,10.191,2,10.01c0-0.832,0.67-1.503,1.5-1.503S5,9.179,5,10.01c0,0.18-0.03,0.351-0.09,0.501h5.18
		C10.03,10.361,10,10.191,10,10.01c0-0.832,0.67-1.503,1.5-1.503S13,9.179,13,10.01c0,0.18-0.03,0.351-0.09,0.501h2.59
		c0.28,0,0.5-0.22,0.5-0.501V8.507C16,8.367,15.94,8.237,15.84,8.137z"/>
	<g>
		<path class="st3" d="M3.6,9.018c-0.03-0.01-0.07-0.01-0.1-0.01s-0.07,0-0.1,0.01c-0.5,0.05-0.9,0.471-0.9,0.992
			c0,0.251,0.09,0.481,0.26,0.661c0.38,0.441,1.11,0.431,1.47,0.01c0.18-0.19,0.27-0.421,0.27-0.671C4.5,9.489,4.1,9.068,3.6,9.018z
			"/>
	</g>
	<g>
		<path class="st3" d="M11.6,9.018c-0.03-0.01-0.07-0.01-0.1-0.01s-0.07,0-0.1,0.01c-0.5,0.05-0.9,0.471-0.9,0.992
			c0,0.251,0.09,0.481,0.26,0.661c0.38,0.441,1.11,0.431,1.47,0.01c0.18-0.19,0.27-0.421,0.27-0.671
			C12.5,9.489,12.1,9.068,11.6,9.018z"/>
	</g>
</g>
</svg>
