<?xml version="1.0" encoding="utf-8"?>
<!-- Generator: Adobe Illustrator 21.0.0, SVG Export Plug-In . SVG Version: 6.00 Build 0)  -->
<svg version="1.1" id="icons" xmlns="http://www.w3.org/2000/svg" xmlns:xlink="http://www.w3.org/1999/xlink" x="0px" y="0px"
	 width="16px" height="16px" viewBox="0 0 16 16" style="enable-background:new 0 0 16 16;" xml:space="preserve">
<style type="text/css">
	.st0{fill:#5057FB;}
	.st1{fill:#C93789;}
	.st2{fill:#ED5C36;}
	.st3{fill:#AFB224;}
	.st4{fill:#15B2CC;}
</style>
<path id="sportcar_3_" d="M15.839,8.133C15.8,8.097,14.863,7.243,13.151,6.7c-0.951-0.302-2.157-0.415-2.517-0.442l-2.31-1.154
	C8.187,5.036,8.033,5,7.88,5H4.12C3.968,5,3.813,5.036,3.671,5.106L1.443,6.223L0.623,6.014c-0.15-0.039-0.309-0.005-0.43,0.09
	C0.071,6.198,0,6.344,0,6.498v3.247c0,0.188,0.106,0.36,0.273,0.445l0.444,0.227c0.001,0.001,0.002,0.002,0.003,0.003
	c0.002,0.001,0.005,0.001,0.007,0.002l0.046,0.023C0.846,10.482,0.923,10.5,1,10.5l0,0l0,0h1.39C2.66,10.81,3.06,11,3.5,11
	s0.84-0.19,1.11-0.5h3.24h2.54c0.27,0.31,0.67,0.5,1.11,0.5s0.84-0.19,1.11-0.5h2.89c0.276,0,0.5-0.224,0.5-0.5V8.5
	C16,8.36,15.942,8.227,15.839,8.133z M3,9.5C3,9.22,3.22,9,3.5,9S4,9.22,4,9.5S3.78,10,3.5,10S3,9.78,3,9.5z M11.5,10
	C11.22,10,11,9.78,11,9.5S11.22,9,11.5,9S12,9.22,12,9.5S11.78,10,11.5,10z M15,9.5h-2C13,8.67,12.33,8,11.5,8S10,8.67,10,9.5H7.85
	H5C5,8.67,4.33,8,3.5,8S2,8.67,2,9.5H1.12L1,9.438V7.142l0.377,0.096C1.493,7.269,1.616,7.254,1.724,7.2L4.12,6h3.761l2.395,1.196
	c0.06,0.03,0.125,0.048,0.192,0.052c0.014,0.001,1.39,0.091,2.38,0.405c1.107,0.352,1.844,0.85,2.151,1.084V9.5z"/>
</svg>
