<?xml version="1.0" encoding="utf-8"?>
<!-- Generator: Adobe Illustrator 21.0.0, SVG Export Plug-In . SVG Version: 6.00 Build 0)  -->
<svg version="1.1" id="icons" xmlns="http://www.w3.org/2000/svg" xmlns:xlink="http://www.w3.org/1999/xlink" x="0px" y="0px"
	 width="32px" height="32px" viewBox="0 0 32 32" style="enable-background:new 0 0 32 32;" xml:space="preserve">
<style type="text/css">
	.st0{fill:#5057FB;}
	.st1{fill:#C93789;}
	.st2{fill:#ED5C36;}
	.st3{fill:#AFB224;}
	.st4{fill:#15B2CC;}
</style>
<path id="sportcar_2_" class="st3" d="M16,0C7.163,0,0,7.163,0,16s7.163,16,16,16s16-7.163,16-16S24.837,0,16,0z M12.23,18.676
	c-0.36,0.42-1.09,0.43-1.47-0.01c-0.17-0.18-0.26-0.41-0.26-0.66c0-0.52,0.4-0.94,0.9-0.99c0.03-0.01,0.07-0.01,0.1-0.01
	s0.07,0,0.1,0.01c0.5,0.05,0.9,0.47,0.9,0.99C12.5,18.256,12.41,18.486,12.23,18.676z M20.23,18.676c-0.36,0.42-1.09,0.43-1.47-0.01
	c-0.17-0.18-0.26-0.41-0.26-0.66c0-0.52,0.4-0.94,0.9-0.99c0.03-0.01,0.07-0.01,0.1-0.01s0.07,0,0.1,0.01
	c0.5,0.05,0.9,0.47,0.9,0.99C20.5,18.256,20.41,18.486,20.23,18.676z M24,18.006c0,0.28-0.22,0.5-0.5,0.5h-2.59
	c0.06-0.15,0.09-0.32,0.09-0.5c0-0.83-0.67-1.5-1.5-1.5s-1.5,0.67-1.5,1.5c0,0.18,0.03,0.35,0.09,0.5h-5.18
	c0.06-0.15,0.09-0.32,0.09-0.5c0-0.83-0.67-1.5-1.5-1.5s-1.5,0.67-1.5,1.5c0,0.18,0.03,0.35,0.09,0.5H9c-0.08,0-0.15-0.02-0.23-0.05
	l-0.04-0.03H8.72l-0.45-0.23C8.11,18.116,8,17.936,8,17.756v-3.25c0-0.16,0.07-0.3,0.19-0.4c0.12-0.09,0.28-0.13,0.43-0.09
	l0.82,0.21l2.23-1.11c0.14-0.07,0.3-0.11,0.45-0.11h3.76c0.15,0,0.31,0.04,0.44,0.1l2.31,1.16c0.36,0.03,1.57,0.14,2.52,0.44
	c1.71,0.54,2.65,1.4,2.69,1.43c0.1,0.1,0.16,0.23,0.16,0.37V18.006z"/>
</svg>
