<?xml version="1.0" encoding="utf-8"?>
<!-- Generator: Adobe Illustrator 21.0.0, SVG Export Plug-In . SVG Version: 6.00 Build 0)  -->
<svg version="1.1" id="icons" xmlns="http://www.w3.org/2000/svg" xmlns:xlink="http://www.w3.org/1999/xlink" x="0px" y="0px"
	 width="16px" height="16px" viewBox="0 0 16 16" style="enable-background:new 0 0 16 16;" xml:space="preserve">
<style type="text/css">
	.st0{fill:#5057FB;}
	.st1{fill:#C93789;}
	.st2{fill:#ED5C36;}
	.st3{fill:#AFB224;}
	.st4{fill:#15B2CC;}
</style>
<g id="station-wagon_1_">
	<path class="st0" d="M3.75,8.99c-0.56,0-1,0.45-1,1c0,0.56,0.44,1,1,1c0.55,0,1-0.44,1-1C4.75,9.44,4.3,8.99,3.75,8.99"/>
	<path class="st0" d="M12.75,9c-0.56,0-1,0.45-1,1s0.44,1,1,1c0.55,0,1-0.45,1-1S13.3,9,12.75,9"/>
	<path class="st0" d="M15.86,8.17l-0.71-0.75V7.41c-0.07-0.08-0.16-0.13-0.26-0.15l-2.22-0.48L9.22,5.05C9.15,5.02,9.08,5,9,5H1
		C0.88,5,0.77,5.04,0.69,5.12C0.6,5.18,0.54,5.28,0.51,5.39c-0.02,0.08-0.44,1.88-0.5,3.04C0,8.45,0,8.48,0,8.51v0.74
		C0,9.49,0.18,9.7,0.42,9.74L2,10h0.25c0-0.39,0.15-0.74,0.39-1c0.21-0.23,0.49-0.4,0.81-0.46c0.01,0,0.02-0.01,0.04,0
		c0.08-0.02,0.17-0.03,0.26-0.03s0.18,0.01,0.26,0.03c0.02-0.01,0.03,0,0.04,0C4.37,8.6,4.65,8.77,4.86,9
		c0.24,0.26,0.39,0.61,0.39,1h6c0-0.39,0.15-0.74,0.39-1c0.21-0.23,0.49-0.4,0.81-0.46c0.01,0,0.02-0.01,0.04,0
		c0.08-0.02,0.17-0.03,0.26-0.03s0.18,0.01,0.26,0.03c0.02-0.01,0.03,0,0.04,0c0.32,0.06,0.6,0.23,0.81,0.46
		c0.24,0.26,0.39,0.61,0.39,1h1.25c0.28,0,0.5-0.23,0.5-0.5V8.51C16,8.38,15.95,8.26,15.86,8.17 M4,7H1.21
		c0.01-0.08,0.03-0.17,0.04-0.25C1.26,6.68,1.28,6.6,1.29,6.54C1.3,6.47,1.32,6.4,1.33,6.34c0.01-0.06,0.02-0.12,0.04-0.18L1.4,6.01
		H4V7z M7,7H5V6.01h2V7z M8,7V6.01h0.88L10.86,7H8z"/>
</g>
</svg>
