<?xml version="1.0" encoding="utf-8"?>
<!-- Generator: Adobe Illustrator 21.0.0, SVG Export Plug-In . SVG Version: 6.00 Build 0)  -->
<svg version="1.1" id="icons" xmlns="http://www.w3.org/2000/svg" xmlns:xlink="http://www.w3.org/1999/xlink" x="0px" y="0px"
	 width="32px" height="32px" viewBox="0 0 32 32" style="enable-background:new 0 0 32 32;" xml:space="preserve">
<style type="text/css">
	.st0{fill:#5057FB;}
	.st1{fill:#C93789;}
	.st2{fill:#ED5C36;}
	.st3{fill:#AFB224;}
	.st4{fill:#15B2CC;}
</style>
<g id="station-wagon_2_">
	<path class="st0" d="M9.4,14.01l-0.03,0.15c-0.02,0.06-0.03,0.12-0.04,0.18s-0.03,0.13-0.04,0.2c-0.01,0.06-0.03,0.14-0.04,0.21
		C9.24,14.83,9.22,14.92,9.21,15H12v-0.99H9.4z M13,14.01V15h2v-0.99H13z M16.88,14.01H16V15h2.86L16.88,14.01z M16.88,14.01H16V15
		h2.86L16.88,14.01z M13,15h2v-0.99h-2V15z M9.37,14.16c-0.02,0.06-0.03,0.12-0.04,0.18s-0.03,0.13-0.04,0.2
		c-0.01,0.06-0.03,0.14-0.04,0.21C9.24,14.83,9.22,14.92,9.21,15H12v-0.99H9.4L9.37,14.16z M16,0C7.16,0,0,7.16,0,16
		c0,8.84,7.16,16,16,16s16-7.16,16-16C32,7.16,24.84,0,16,0z M11.75,18.99c-0.56,0-1-0.44-1-1c0-0.55,0.44-1,1-1c0.55,0,1,0.45,1,1
		C12.75,18.55,12.3,18.99,11.75,18.99z M20.75,19c-0.56,0-1-0.45-1-1s0.44-1,1-1c0.55,0,1,0.45,1,1S21.3,19,20.75,19z M24,17.5
		c0,0.27-0.22,0.5-0.5,0.5h-1.25c0-0.39-0.15-0.74-0.39-1c-0.21-0.23-0.49-0.4-0.81-0.46c-0.01,0-0.02-0.01-0.04,0
		c-0.08-0.02-0.17-0.03-0.26-0.03s-0.18,0.01-0.26,0.03c-0.02-0.01-0.03,0-0.04,0c-0.32,0.06-0.6,0.23-0.81,0.46
		c-0.24,0.26-0.39,0.61-0.39,1h-6c0-0.39-0.15-0.74-0.39-1c-0.21-0.23-0.49-0.4-0.81-0.46c-0.01,0-0.02-0.01-0.04,0
		c-0.08-0.02-0.17-0.03-0.26-0.03s-0.18,0.01-0.26,0.03c-0.02-0.01-0.03,0-0.04,0c-0.32,0.06-0.6,0.23-0.81,0.46
		c-0.24,0.26-0.39,0.61-0.39,1H10l-1.58-0.26C8.18,17.7,8,17.49,8,17.25v-0.74c0-0.03,0-0.06,0.01-0.08
		c0.06-1.16,0.48-2.96,0.5-3.04c0.03-0.11,0.09-0.21,0.18-0.27C8.77,13.04,8.88,13,9,13h8c0.08,0,0.15,0.02,0.22,0.05l3.45,1.73
		l2.22,0.48c0.1,0.02,0.19,0.07,0.26,0.15v0.01l0.71,0.75c0.09,0.09,0.14,0.21,0.14,0.34V17.5z M16,14.01V15h2.86l-1.98-0.99H16z
		 M13,15h2v-0.99h-2V15z M9.37,14.16c-0.02,0.06-0.03,0.12-0.04,0.18s-0.03,0.13-0.04,0.2c-0.01,0.06-0.03,0.14-0.04,0.21
		C9.24,14.83,9.22,14.92,9.21,15H12v-0.99H9.4L9.37,14.16z M9.4,14.01l-0.03,0.15c-0.02,0.06-0.03,0.12-0.04,0.18
		s-0.03,0.13-0.04,0.2c-0.01,0.06-0.03,0.14-0.04,0.21C9.24,14.83,9.22,14.92,9.21,15H12v-0.99H9.4z M13,14.01V15h2v-0.99H13z
		 M16.88,14.01H16V15h2.86L16.88,14.01z M16.88,14.01H16V15h2.86L16.88,14.01z M13,14.01V15h2v-0.99H13z M9.4,14.01l-0.03,0.15
		c-0.02,0.06-0.03,0.12-0.04,0.18s-0.03,0.13-0.04,0.2c-0.01,0.06-0.03,0.14-0.04,0.21C9.24,14.83,9.22,14.92,9.21,15H12v-0.99H9.4z
		"/>
</g>
</svg>
