<?xml version="1.0" encoding="utf-8"?>
<!-- Generator: Adobe Illustrator 21.0.0, SVG Export Plug-In . SVG Version: 6.00 Build 0)  -->
<svg version="1.1" id="icons" xmlns="http://www.w3.org/2000/svg" xmlns:xlink="http://www.w3.org/1999/xlink" x="0px" y="0px"
	 width="16px" height="16px" viewBox="0 0 16 16" style="enable-background:new 0 0 16 16;" xml:space="preserve">
<style type="text/css">
	.st0{fill:#5057FB;}
	.st1{fill:#C93789;}
	.st2{fill:#ED5C36;}
	.st3{fill:#AFB224;}
	.st4{fill:#15B2CC;}
</style>
<path id="station-wagon_3_" d="M13.954,9.998H15.5c0.276,0,0.5-0.224,0.5-0.5V8.5c0-0.128-0.049-0.252-0.138-0.345L15.15,7.407
	c-0.069-0.072-0.158-0.123-0.256-0.144l-2.229-0.487L9.224,5.053C9.154,5.018,9.078,5,9,5H1C0.769,5,0.567,5.159,0.514,5.384
	c-0.02,0.081-0.446,1.874-0.506,3.032C0.002,8.443,0,8.472,0,8.5v0.748c0,0.245,0.177,0.453,0.418,0.493L2,9.998h0.546
	C2.665,10.565,3.145,11,3.746,11s1.081-0.435,1.2-1.002h6.608c0.119,0.567,0.598,1.002,1.2,1.002S13.835,10.565,13.954,9.998z
	 M10.379,6.75H7.998V6h0.884L10.379,6.75z M4.996,6.75V6h2.002v0.75H4.996z M3.996,6v0.75h-2.75C1.301,6.463,1.356,6.198,1.399,6
	H3.996z M1,8.825V8.67c0-0.257,0.032-0.581,0.079-0.92h11.357l2.095,0.458L15,8.7v0.299l-1.273,0.001
	C13.498,8.703,13.156,8.5,12.754,8.5c-0.403,0-0.745,0.204-0.974,0.5L4.722,9.004C4.494,8.705,4.15,8.5,3.746,8.5
	c-0.405,0-0.748,0.206-0.977,0.505l-0.687,0L1,8.825z"/>
</svg>
