<?xml version="1.0" encoding="utf-8"?>
<!-- Generator: Adobe Illustrator 21.0.0, SVG Export Plug-In . SVG Version: 6.00 Build 0)  -->
<svg version="1.1" id="icons" xmlns="http://www.w3.org/2000/svg" xmlns:xlink="http://www.w3.org/1999/xlink" x="0px" y="0px"
	 width="16px" height="16px" viewBox="0 0 16 16" style="enable-background:new 0 0 16 16;" xml:space="preserve">
<style type="text/css">
	.st0{fill:#5057FB;}
	.st1{fill:#C93789;}
	.st2{fill:#ED5C36;}
	.st3{fill:#AFB224;}
	.st4{fill:#15B2CC;}
</style>
<path id="suitcases_2_" d="M14,3h-3V1.5C11,1.224,10.776,1,10.5,1h-5C5.224,1,5,1.224,5,1.5V3H2C0.897,3,0,3.897,0,5v8
	c0,1.103,0.897,2,2,2h12c1.103,0,2-0.897,2-2V5C16,3.897,15.103,3,14,3z M6,2h4v1H6V2z M2,14c-0.552,0-1-0.448-1-1V5
	c0-0.552,0.448-1,1-1h1v10H2z M4,14V4h1v10H4z M6,14V4h4v10H6z M11,14V4h1v10H11z M15,13c0,0.552-0.448,1-1,1h-1V4h1
	c0.552,0,1,0.448,1,1V13z"/>
</svg>
