<?xml version="1.0" encoding="utf-8"?>
<!-- Generator: Adobe Illustrator 21.0.0, SVG Export Plug-In . SVG Version: 6.00 Build 0)  -->
<svg version="1.1" id="icons" xmlns="http://www.w3.org/2000/svg" xmlns:xlink="http://www.w3.org/1999/xlink" x="0px" y="0px"
	 width="16px" height="16px" viewBox="0 0 16 16" style="enable-background:new 0 0 16 16;" xml:space="preserve">
<style type="text/css">
	.st0{fill:#5057FB;}
	.st1{fill:#C93789;}
	.st2{fill:#ED5C36;}
	.st3{fill:#AFB224;}
	.st4{fill:#15B2CC;}
</style>
<g id="suitcases_4_">
	<path class="st4" d="M14,3h-2v12h2c1.103,0,2-0.897,2-2V5C16,3.897,15.103,3,14,3z"/>
	<path class="st4" d="M2,3C0.897,3,0,3.897,0,5v8c0,1.103,0.897,2,2,2h2V3H2z"/>
	<path class="st4" d="M11,2V1.5C11,1.224,10.776,1,10.5,1h-5C5.224,1,5,1.224,5,1.5V2v1v12h6V3V2z M10,3H6V2h4V3z"/>
</g>
</svg>
