<?xml version="1.0" encoding="utf-8"?>
<!-- Generator: Adobe Illustrator 21.0.0, SVG Export Plug-In . SVG Version: 6.00 Build 0)  -->
<svg version="1.1" id="icons" xmlns="http://www.w3.org/2000/svg" xmlns:xlink="http://www.w3.org/1999/xlink" x="0px" y="0px"
	 width="16px" height="16px" viewBox="0 0 16 16" style="enable-background:new 0 0 16 16;" xml:space="preserve">
<style type="text/css">
	.st0{fill:#5057FB;}
	.st1{fill:#C93789;}
	.st2{fill:#ED5C36;}
	.st3{fill:#AFB224;}
	.st4{fill:#15B2CC;}
</style>
<g id="sunroof_4_">
	<circle class="st2" cx="4" cy="11" r="1"/>
	<circle class="st2" cx="12" cy="11" r="1"/>
	<path class="st2" d="M15.957,8.85l-0.528-1.197c-0.064-0.147-0.197-0.255-0.355-0.287L10.887,6.5L8.598,5.298
		C8.222,5.055,7.558,5,7.356,5H6.31L5.948,4.277C5.824,4.029,5.524,3.929,5.277,4.053S4.93,4.477,5.053,4.724L5.192,5H4.463
		C3.977,5,3.29,5.359,3.035,5.533C2.738,5.734,2.023,6.304,1.772,6.506L0.629,6.78C0.404,6.835,0.246,7.037,0.247,7.269L0.253,8H0.5
		C0.776,8,1,8.224,1,8.5S0.776,9,0.5,9H0.2l-0.193,1.121c-0.046,0.268,0.131,0.523,0.396,0.575L1.997,11H2c0-1.105,0.895-2,2-2
		s2,0.895,2,2h4c0-1.105,0.895-2,2-2s2,0.895,2,2h1.5c0.276,0,0.5-0.224,0.5-0.5V9.052C16,8.982,15.986,8.913,15.957,8.85z"/>
</g>
</svg>
