<?xml version="1.0" encoding="utf-8"?>
<!-- Generator: Adobe Illustrator 21.0.0, SVG Export Plug-In . SVG Version: 6.00 Build 0)  -->
<svg version="1.1" id="icons" xmlns="http://www.w3.org/2000/svg" xmlns:xlink="http://www.w3.org/1999/xlink" x="0px" y="0px"
	 width="32px" height="32px" viewBox="0 0 32 32" style="enable-background:new 0 0 32 32;" xml:space="preserve">
<style type="text/css">
	.st0{fill:none;}
	.st1{fill:#15B2CC;}
	.st2{font-family:'OpenSans';}
	.st3{font-size:4px;}
	.st4{fill:#5057FB;}
	.st5{fill:#C93789;}
	.st6{fill:#ED5C36;}
	.st7{fill:#AFB224;}
</style>
<path id="sunroof_1_" class="st6" d="M16,0C7.163,0,0,7.163,0,16s7.163,16,16,16s16-7.163,16-16S24.837,0,16,0z M12,20
	c-0.552,0-1-0.448-1-1c0-0.552,0.448-1,1-1s1,0.448,1,1C13,19.552,12.552,20,12,20z M20,20c-0.552,0-1-0.448-1-1
	c0-0.552,0.448-1,1-1s1,0.448,1,1C21,19.552,20.552,20,20,20z M24,18.5c0,0.276-0.224,0.5-0.5,0.5H22c0-1.105-0.895-2-2-2
	s-2,0.895-2,2h-4c0-1.105-0.895-2-2-2s-2,0.895-2,2H9.997l-1.594-0.304c-0.266-0.052-0.442-0.308-0.396-0.575L8.2,17h0.3
	C8.776,17,9,16.776,9,16.5S8.776,16,8.5,16H8.253l-0.007-0.731c-0.001-0.231,0.157-0.434,0.383-0.488l1.143-0.274
	c0.251-0.202,0.966-0.771,1.263-0.973C11.29,13.359,11.977,13,12.463,13h0.728l-0.138-0.276c-0.124-0.247-0.024-0.547,0.224-0.671
	s0.547-0.024,0.671,0.224L14.309,13h1.046c0.202,0,0.866,0.055,1.242,0.298l2.289,1.202l4.187,0.865
	c0.158,0.032,0.291,0.14,0.355,0.287l0.528,1.197C23.985,16.913,24,16.982,24,17.052V18.5z"/>
</svg>
