<?xml version="1.0" encoding="utf-8"?>
<!-- Generator: Adobe Illustrator 21.0.0, SVG Export Plug-In . SVG Version: 6.00 Build 0)  -->
<svg version="1.1" id="icons" xmlns="http://www.w3.org/2000/svg" xmlns:xlink="http://www.w3.org/1999/xlink" x="0px" y="0px"
	 width="16px" height="16px" viewBox="0 0 16 16" style="enable-background:new 0 0 16 16;" xml:space="preserve">
<style type="text/css">
	.st0{fill:#5057FB;}
	.st1{fill:#C93789;}
	.st2{fill:#ED5C36;}
	.st3{fill:#AFB224;}
	.st4{fill:#15B2CC;}
</style>
<path id="sunroof_2_" d="M15.957,8.849l-0.528-1.197c-0.064-0.147-0.197-0.255-0.355-0.287l-4.187-0.865L8.598,5.297
	C8.295,5.101,7.31,5.028,6.831,5.007L6.359,4.24C6.215,4.004,5.907,3.93,5.672,4.075C5.436,4.219,5.362,4.527,5.507,4.762L6.12,5.76
	c0.093,0.151,0.253,0.226,0.417,0.23c0.016,0.002,0.029,0.009,0.046,0.009c0.241,0,1.383,0.08,1.511,0.16l2.391,1.258
	c0.041,0.021,0.085,0.038,0.131,0.047l4.003,0.827L15,9.156v0.843L13.909,10c-0.207-0.581-0.757-1.001-1.408-1.001
	c-0.652,0-1.203,0.421-1.409,1.003l-6.181,0.005C4.706,9.422,4.154,8.999,3.5,8.999c-0.654,0-1.206,0.424-1.411,1.009L1.074,9.809
	l0.18-1.071L1.248,7.659l0.866-0.208c0.071-0.018,0.139-0.051,0.196-0.098C2.579,7.139,3.33,6.541,3.596,6.361
	c0.264-0.18,0.727-0.361,0.867-0.361c0.276,0,0.5-0.224,0.5-0.5s-0.224-0.5-0.5-0.5c-0.486,0-1.173,0.359-1.429,0.533
	C2.738,5.734,2.023,6.303,1.772,6.505L0.629,6.779C0.404,6.834,0.246,7.036,0.247,7.268L0.26,8.654L0.007,10.12
	c-0.046,0.268,0.13,0.523,0.396,0.575l1.594,0.304h0.095c0.207,0.581,0.757,1,1.408,1s1.201-0.419,1.408-1h6.184
	c0.207,0.581,0.757,1,1.408,1s1.201-0.419,1.408-1H15.5c0.276,0,0.5-0.224,0.5-0.5V9.051C16,8.982,15.986,8.912,15.957,8.849z
	 M3,10.499c0-0.26,0.203-0.468,0.457-0.491l0.086,0C3.798,10.031,4,10.239,4,10.499c0,0.275-0.225,0.5-0.5,0.5S3,10.775,3,10.499z
	 M12,10.499c0-0.272,0.22-0.493,0.491-0.498h0.019C12.781,10.006,13,10.227,13,10.499c0,0.275-0.225,0.5-0.5,0.5
	S12,10.775,12,10.499z"/>
</svg>
