<?xml version="1.0" encoding="utf-8"?>
<!-- Generator: Adobe Illustrator 21.0.0, SVG Export Plug-In . SVG Version: 6.00 Build 0)  -->
<svg version="1.1" id="icons" xmlns="http://www.w3.org/2000/svg" xmlns:xlink="http://www.w3.org/1999/xlink" x="0px" y="0px"
	 width="32px" height="32px" viewBox="0 0 32 32" style="enable-background:new 0 0 32 32;" xml:space="preserve">
<style type="text/css">
	.st0{fill:#5057FB;}
	.st1{fill:#C93789;}
	.st2{fill:#ED5C36;}
	.st3{fill:#AFB224;}
	.st4{fill:#15B2CC;}
</style>
<g id="suv_2_">
	<path class="st0" d="M9.81,13L9,14.62V15h2.07l0.34-2H9.81z M12.42,13l-0.25,1.5L12.09,15H15v-2H12.42z M18.74,14.5l-1.96-1.17
		c-0.25-0.19-0.51-0.27-0.78-0.3V15h3.58L18.74,14.5z M18.74,14.5l-1.96-1.17c-0.25-0.19-0.51-0.27-0.78-0.3V15h3.58L18.74,14.5z
		 M12.17,14.5L12.09,15H15v-2h-2.58L12.17,14.5z M9,14.62V15h2.07l0.34-2h-1.6L9,14.62z M16,0C7.16,0,0,7.16,0,16
		c0,8.84,7.16,16,16,16s16-7.16,16-16C32,7.16,24.84,0,16,0z M12.64,18.99C12.57,19.56,12.09,20,11.5,20
		c-0.58,0-1.07-0.44-1.14-1.01c-0.01-0.04-0.01-0.09-0.01-0.14c0-0.64,0.52-1.15,1.15-1.15c0.64,0,1.15,0.51,1.15,1.15
		C12.65,18.9,12.65,18.95,12.64,18.99z M21.64,18.99C21.57,19.56,21.08,20,20.5,20c-0.59,0-1.07-0.44-1.14-1.01
		c-0.01-0.04-0.01-0.09-0.01-0.14c0-0.64,0.51-1.15,1.15-1.15c0.63,0,1.15,0.51,1.15,1.15C21.65,18.9,21.65,18.95,21.64,18.99z
		 M23.97,17.16l-0.5,1.49c-0.06,0.2-0.25,0.34-0.47,0.34h-0.86c0.01-0.04,0.01-0.09,0.01-0.14c0-0.91-0.74-1.64-1.65-1.64
		s-1.65,0.73-1.65,1.64c0,0.05,0,0.1,0.01,0.14h-5.72c0.01-0.04,0.01-0.09,0.01-0.14c0-0.91-0.74-1.64-1.65-1.64
		s-1.65,0.73-1.65,1.64c0,0.05,0,0.1,0.01,0.14H9.5c-0.08,0-0.15-0.02-0.22-0.05l-1-0.5C8.11,18.36,8,18.18,8,17.99V14.5
		c0-0.08,0.02-0.15,0.05-0.22l1-2.01C9.14,12.1,9.31,12,9.5,12h6.34c0.53,0,1.07,0.18,1.5,0.5l3.17,1.89l2.61,0.62
		c0.16,0.04,0.3,0.17,0.35,0.33l0.5,1.51C24.01,16.95,24.01,17.06,23.97,17.16z M16.78,13.33c-0.25-0.19-0.51-0.27-0.78-0.3V15h3.58
		l-0.84-0.5L16.78,13.33z M12.17,14.5L12.09,15H15v-2h-2.58L12.17,14.5z M9,14.62V15h2.07l0.34-2h-1.6L9,14.62z M9.81,13L9,14.62V15
		h2.07l0.34-2H9.81z M12.42,13l-0.25,1.5L12.09,15H15v-2H12.42z M18.74,14.5l-1.96-1.17c-0.25-0.19-0.51-0.27-0.78-0.3V15h3.58
		L18.74,14.5z M18.74,14.5l-1.96-1.17c-0.25-0.19-0.51-0.27-0.78-0.3V15h3.58L18.74,14.5z M12.42,13l-0.25,1.5L12.09,15H15v-2H12.42
		z M9.81,13L9,14.62V15h2.07l0.34-2H9.81z"/>
</g>
</svg>
