<?xml version="1.0" encoding="utf-8"?>
<!-- Generator: Adobe Illustrator 21.0.0, SVG Export Plug-In . SVG Version: 6.00 Build 0)  -->
<svg version="1.1" id="icons" xmlns="http://www.w3.org/2000/svg" xmlns:xlink="http://www.w3.org/1999/xlink" x="0px" y="0px"
	 width="16px" height="16px" viewBox="0 0 16 16" style="enable-background:new 0 0 16 16;" xml:space="preserve">
<style type="text/css">
	.st0{fill:#5057FB;}
	.st1{fill:#C93789;}
	.st2{fill:#ED5C36;}
	.st3{fill:#AFB224;}
	.st4{fill:#15B2CC;}
</style>
<path id="suv_3_" d="M15.97,8.85l-0.5-1.51c-0.05-0.16-0.19-0.29-0.35-0.33l-2.61-0.62L9.34,4.5C8.91,4.18,8.37,4,7.84,4H1.5
	C1.31,4,1.14,4.1,1.05,4.27l-1,2.01C0.02,6.35,0,6.42,0,6.5V10c0,0.19,0.11,0.37,0.28,0.45l1,0.5C1.35,10.98,1.42,11,1.5,11h0.43
	c0.27,0.59,0.87,1,1.57,1c0.69,0,1.3-0.41,1.57-1h5.86c0.27,0.59,0.88,1,1.57,1s1.3-0.41,1.57-1H15c0.22,0,0.41-0.14,0.47-0.34
	l0.5-1.5C16.01,9.06,16.01,8.95,15.97,8.85z M10.737,6.498H8V5.01c0.27,0.03,0.53,0.13,0.78,0.32L10.737,6.498z M4.109,6.498
	L4.409,5H7v1.498H4.109z M1.81,5h1.579L3.088,6.498H1.061L1.81,5z M2.75,10.25c0-0.09,0.02-0.17,0.05-0.25
	c0.1-0.29,0.37-0.5,0.7-0.5c0.32,0,0.6,0.21,0.7,0.5c0.03,0.08,0.05,0.16,0.05,0.25C4.25,10.67,3.91,11,3.5,11
	C3.08,11,2.75,10.67,2.75,10.25z M11.75,10.25c0-0.09,0.02-0.17,0.05-0.25c0.1-0.29,0.38-0.5,0.7-0.5s0.6,0.21,0.7,0.5
	c0.03,0.08,0.05,0.16,0.05,0.25c0,0.42-0.34,0.75-0.75,0.75C12.09,11,11.75,10.67,11.75,10.25z M14.64,10h-0.42
	c-0.11-0.84-0.85-1.5-1.72-1.5s-1.61,0.66-1.72,1.5H5.22C5.11,9.16,4.37,8.5,3.5,8.5c-0.88,0-1.61,0.66-1.72,1.5H1.62L1,9.69V7.498
	h11.832L12.84,7.5l1.77,0.42L14.97,9L14.64,10z"/>
</svg>
