<?xml version="1.0" encoding="utf-8"?>
<!-- Generator: Adobe Illustrator 21.0.0, SVG Export Plug-In . SVG Version: 6.00 Build 0)  -->
<svg version="1.1" id="icons" xmlns="http://www.w3.org/2000/svg" xmlns:xlink="http://www.w3.org/1999/xlink" x="0px" y="0px"
	 width="16px" height="16px" viewBox="0 0 16 16" style="enable-background:new 0 0 16 16;" xml:space="preserve">
<style type="text/css">
	.st0{fill:#5057FB;}
	.st1{fill:#C93789;}
	.st2{fill:#ED5C36;}
	.st3{fill:#AFB224;}
	.st4{fill:#15B2CC;}
</style>
<g id="suv">
	<path d="M12.5,9.703c-0.64,0-1.15,0.509-1.15,1.149c0,0.05,0,0.1,0.01,0.14C11.43,11.561,11.91,12,12.5,12
		c0.58,0,1.07-0.439,1.14-1.009c0.01-0.04,0.01-0.09,0.01-0.14C13.65,10.212,13.13,9.703,12.5,9.703"/>
	<path d="M3.5,9.703c-0.63,0-1.15,0.509-1.15,1.149c0,0.05,0,0.1,0.01,0.14C2.43,11.561,2.92,12,3.5,12
		c0.59,0,1.07-0.439,1.14-1.009c0.01-0.04,0.01-0.09,0.01-0.14C4.65,10.212,4.14,9.703,3.5,9.703"/>
	<path d="M15.97,8.844l-0.5-1.508c-0.05-0.16-0.19-0.29-0.35-0.33l-2.61-0.619L9.34,4.499C8.91,4.18,8.37,4,7.84,4H1.5
		C1.31,4,1.14,4.1,1.05,4.27l-1,2.007C0.02,6.347,0,6.417,0,6.497v3.496c0,0.19,0.11,0.37,0.28,0.449l1,0.499
		c0.07,0.03,0.14,0.05,0.22,0.05h0.36c-0.01-0.04-0.01-0.09-0.01-0.14c0-0.909,0.74-1.648,1.65-1.648s1.65,0.739,1.65,1.648
		c0,0.05,0,0.1-0.01,0.14h5.72c-0.01-0.04-0.01-0.09-0.01-0.14c0-0.909,0.74-1.648,1.65-1.648c0.91,0,1.65,0.739,1.65,1.648
		c0,0.05,0,0.1-0.01,0.14H15c0.22,0,0.41-0.14,0.47-0.34l0.5-1.498C16.01,9.054,16.01,8.944,15.97,8.844 M3.07,7H1V6.617l0.81-1.618
		h1.6L3.07,7z M7,7H4.09l0.08-0.503l0.25-1.498H7V7z M8,7V5.029c0.27,0.03,0.53,0.11,0.78,0.3l1.96,1.169L11.58,7H8z"/>
</g>
</svg>
