<?xml version="1.0" encoding="utf-8"?>
<!-- Generator: Adobe Illustrator 21.0.0, SVG Export Plug-In . SVG Version: 6.00 Build 0)  -->
<svg version="1.1" id="icons" xmlns="http://www.w3.org/2000/svg" xmlns:xlink="http://www.w3.org/1999/xlink" x="0px" y="0px"
	 width="32px" height="32px" viewBox="0 0 32 32" style="enable-background:new 0 0 32 32;" xml:space="preserve">
<style type="text/css">
	.st0{fill:none;}
	.st1{fill:#AFB224;}
	.st2{font-family:'OpenSans';}
	.st3{font-size:4px;}
	.st4{fill:#5057FB;}
	.st5{fill:#C93789;}
	.st6{fill:#ED5C36;}
	.st7{fill:#15B2CC;}
</style>
<g id="tachometer_2_">
	<path class="st4" d="M17.5,20.985h-3c-0.28,0-0.5,0.22-0.5,0.5s0.22,0.5,0.5,0.5h3c0.28,0,0.5-0.22,0.5-0.5
		S17.78,20.985,17.5,20.985z"/>
	<path class="st4" d="M21.2,12.985c-0.01-0.01-0.02-0.02-0.03-0.03c-1.04-1.77-2.97-2.97-5.17-2.97c-3.31,0-6,2.69-6,6
		c0,1.17,0.34,2.3,0.98,3.28c0.09,0.15,0.25,0.23,0.41,0.23c0.1,0,0.19-0.03,0.28-0.09c0.23-0.15,0.29-0.46,0.14-0.69
		c-0.53-0.81-0.81-1.75-0.81-2.73c0-2.76,2.24-5,5-5c1.67,0,3.14,0.83,4.05,2.09l-3.08,1.77c-0.26-0.22-0.6-0.36-0.97-0.36
		c-0.83,0-1.5,0.67-1.5,1.5s0.67,1.5,1.5,1.5c0.83,0,1.5-0.67,1.5-1.5c0-0.09-0.01-0.18-0.03-0.27l3.08-1.78
		c0.28,0.63,0.45,1.32,0.45,2.05c0,0.97-0.28,1.92-0.81,2.73c-0.15,0.23-0.08,0.54,0.15,0.69c0.23,0.15,0.54,0.08,0.69-0.15
		c0.63-0.97,0.97-2.1,0.97-3.27c0-1.08-0.29-2.09-0.79-2.97C21.2,13.005,21.2,12.995,21.2,12.985z M16,16.485
		c-0.28,0-0.5-0.22-0.5-0.5s0.22-0.5,0.5-0.5c0.28,0,0.5,0.22,0.5,0.5S16.28,16.485,16,16.485z"/>
	<path class="st4" d="M16,0C7.163,0,0,7.163,0,16s7.163,16,16,16s16-7.163,16-16S24.837,0,16,0z M16,23.985c-4.42,0-8-3.58-8-8
		s3.58-8,8-8c4.42,0,8,3.58,8,8S20.42,23.985,16,23.985z"/>
</g>
</svg>
