<?xml version="1.0" encoding="utf-8"?>
<!-- Generator: Adobe Illustrator 21.0.0, SVG Export Plug-In . SVG Version: 6.00 Build 0)  -->
<svg version="1.1" id="icons" xmlns="http://www.w3.org/2000/svg" xmlns:xlink="http://www.w3.org/1999/xlink" x="0px" y="0px"
	 width="16px" height="16px" viewBox="0 0 16 16" style="enable-background:new 0 0 16 16;" xml:space="preserve">
<style type="text/css">
	.st0{fill:#5057FB;}
	.st1{fill:#C93789;}
	.st2{fill:#ED5C36;}
	.st3{fill:#AFB224;}
	.st4{fill:#15B2CC;}
</style>
<g id="tachometer_3_">
	<path d="M8,0C3.582,0,0,3.582,0,8s3.582,8,8,8s8-3.582,8-8S12.418,0,8,0z M8,15c-3.86,0-7-3.14-7-7s3.14-7,7-7s7,3.14,7,7
		S11.86,15,8,15z"/>
	<path d="M13.206,5.03c-0.005-0.01-0.005-0.02-0.01-0.03c-0.007-0.012-0.018-0.018-0.026-0.029C12.127,3.197,10.203,2,8,2
		C4.691,2,2,4.691,2,8c0,1.17,0.337,2.304,0.975,3.28c0.096,0.147,0.256,0.227,0.419,0.227c0.094,0,0.188-0.026,0.273-0.082
		c0.231-0.151,0.296-0.461,0.145-0.692C3.281,9.92,3,8.975,3,8c0-2.757,2.243-5,5-5c1.667,0,3.137,0.828,4.046,2.087L8.968,6.864
		C8.706,6.64,8.371,6.5,8,6.5C7.173,6.5,6.5,7.173,6.5,8S7.173,9.5,8,9.5S9.5,8.827,9.5,8c0-0.093-0.011-0.184-0.028-0.273
		l3.077-1.776C12.833,6.578,13,7.268,13,8c0,0.973-0.28,1.916-0.809,2.727c-0.151,0.231-0.085,0.541,0.146,0.692
		c0.229,0.15,0.54,0.084,0.692-0.146C13.664,10.299,14,9.167,14,8C14,6.919,13.709,5.907,13.206,5.03z M8,8.5
		C7.724,8.5,7.5,8.276,7.5,8S7.724,7.5,8,7.5S8.5,7.724,8.5,8S8.276,8.5,8,8.5z"/>
	<path d="M9.5,12h-3C6.224,12,6,12.224,6,12.5S6.224,13,6.5,13h3c0.276,0,0.5-0.224,0.5-0.5S9.776,12,9.5,12z"/>
</g>
</svg>
