<?xml version="1.0" encoding="utf-8"?>
<!-- Generator: Adobe Illustrator 21.0.0, SVG Export Plug-In . SVG Version: 6.00 Build 0)  -->
<svg version="1.1" id="icons" xmlns="http://www.w3.org/2000/svg" xmlns:xlink="http://www.w3.org/1999/xlink" x="0px" y="0px"
	 width="16px" height="16px" viewBox="0 0 16 16" style="enable-background:new 0 0 16 16;" xml:space="preserve">
<style type="text/css">
	.st0{fill:#5057FB;}
	.st1{fill:#C93789;}
	.st2{fill:#ED5C36;}
	.st3{fill:#AFB224;}
	.st4{fill:#15B2CC;}
</style>
<g id="tachometer">
	<path d="M8,7.5C7.72,7.5,7.5,7.72,7.5,8S7.72,8.5,8,8.5c0.28,0,0.5-0.22,0.5-0.5S8.28,7.5,8,7.5z M8,7.5C7.72,7.5,7.5,7.72,7.5,8
		S7.72,8.5,8,8.5c0.28,0,0.5-0.22,0.5-0.5S8.28,7.5,8,7.5z M8,0C3.58,0,0,3.58,0,8s3.58,8,8,8c4.42,0,8-3.58,8-8S12.42,0,8,0z
		 M9.5,14h-3C6.22,14,6,13.78,6,13.5S6.22,13,6.5,13h3c0.28,0,0.5,0.22,0.5,0.5S9.78,14,9.5,14z M13.03,11.27
		c-0.15,0.23-0.46,0.3-0.69,0.15c-0.23-0.15-0.3-0.46-0.15-0.69C12.72,9.92,13,8.97,13,8c0-0.73-0.17-1.42-0.45-2.05L9.47,7.73
		C9.49,7.82,9.5,7.91,9.5,8c0,0.83-0.67,1.5-1.5,1.5C7.17,9.5,6.5,8.83,6.5,8S7.17,6.5,8,6.5c0.37,0,0.71,0.14,0.97,0.36l3.08-1.77
		C11.14,3.83,9.67,3,8,3C5.24,3,3,5.24,3,8c0,0.98,0.28,1.92,0.81,2.73c0.15,0.23,0.09,0.54-0.14,0.69
		c-0.09,0.06-0.18,0.09-0.28,0.09c-0.16,0-0.32-0.08-0.41-0.23C2.34,10.3,2,9.17,2,8c0-3.31,2.69-6,6-6c2.2,0,4.13,1.2,5.17,2.97
		C13.18,4.98,13.19,4.99,13.2,5c0,0.01,0,0.02,0.01,0.03C13.71,5.91,14,6.92,14,8C14,9.17,13.66,10.3,13.03,11.27z M8,7.5
		C7.72,7.5,7.5,7.72,7.5,8S7.72,8.5,8,8.5c0.28,0,0.5-0.22,0.5-0.5S8.28,7.5,8,7.5z"/>
</g>
</svg>
