<?xml version="1.0" encoding="utf-8"?>
<!-- Generator: Adobe Illustrator 21.0.0, SVG Export Plug-In . SVG Version: 6.00 Build 0)  -->
<svg version="1.1" id="icons" xmlns="http://www.w3.org/2000/svg" xmlns:xlink="http://www.w3.org/1999/xlink" x="0px" y="0px"
	 width="16px" height="16px" viewBox="0 0 16 16" style="enable-background:new 0 0 16 16;" xml:space="preserve">
<style type="text/css">
	.st0{fill:#5057FB;}
	.st1{fill:#C93789;}
	.st2{fill:#ED5C36;}
	.st3{fill:#AFB224;}
	.st4{fill:#15B2CC;}
</style>
<g id="timing-belt_3_">
	<path d="M14.691,8.427l0.011-0.01L8.529,2.051C8.075,1.417,7.337,1,6.5,1C5.372,1,4.427,1.756,4.117,2.784l-3.858,7.999
		l0.003,0.002C0.097,11.157,0,11.567,0,12c0,1.654,1.346,3,3,3h9v-0.025C12.084,14.98,12.164,15,12.25,15
		c2.068,0,3.75-1.682,3.75-3.75C16,10.119,15.486,9.115,14.691,8.427z M11.923,7.533L11.92,7.517L11.653,7.56
		c-0.074,0.012-0.149,0.02-0.222,0.036L7.444,8.242L6.186,5.968C6.29,5.981,6.392,6,6.5,6c1.232,0,2.252-0.898,2.457-2.072
		l3.482,3.591C12.375,7.516,12.315,7.5,12.25,7.5C12.138,7.5,12.032,7.523,11.923,7.533z M7.959,9.172l1.348-0.219
		c-0.322,0.412-0.562,0.886-0.69,1.409L7.959,9.172z M2.613,9.039C2.459,9.059,2.31,9.09,2.165,9.133l2.146-4.45
		c0.056,0.103,0.115,0.203,0.184,0.297l1.9,3.433L2.61,9.025L2.613,9.039z M6.5,2C7.327,2,8,2.673,8,3.5S7.327,5,6.5,5
		C6.03,5,5.615,4.778,5.34,4.439L5.086,3.981C5.034,3.829,5,3.669,5,3.5C5,2.673,5.673,2,6.5,2z M1,12c0-1.103,0.897-2,2-2
		s2,0.897,2,2s-0.897,2-2,2S1,13.103,1,12z M5.22,14C5.699,13.468,6,12.771,6,12c0-0.944-0.447-1.777-1.13-2.327l2.04-0.331
		l2.01,3.633l0.015-0.008C9.138,13.356,9.4,13.705,9.72,14H5.22z M12.25,14c-1.517,0-2.75-1.233-2.75-2.75
		c0-1.301,0.91-2.388,2.125-2.672l0.245-0.04C11.995,8.521,12.12,8.5,12.25,8.5c1.517,0,2.75,1.233,2.75,2.75S13.767,14,12.25,14z"
		/>
	<circle cx="6.5" cy="3.5" r="0.5"/>
	<circle cx="3" cy="12" r="0.5"/>
	<path d="M12.25,9.75c-0.827,0-1.5,0.673-1.5,1.5s0.673,1.5,1.5,1.5s1.5-0.673,1.5-1.5S13.077,9.75,12.25,9.75z M12.25,11.75
		c-0.276,0-0.5-0.224-0.5-0.5s0.224-0.5,0.5-0.5s0.5,0.224,0.5,0.5S12.526,11.75,12.25,11.75z"/>
</g>
</svg>
