<?xml version="1.0" encoding="utf-8"?>
<!-- Generator: Adobe Illustrator 21.0.0, SVG Export Plug-In . SVG Version: 6.00 Build 0)  -->
<svg version="1.1" id="icons" xmlns="http://www.w3.org/2000/svg" xmlns:xlink="http://www.w3.org/1999/xlink" x="0px" y="0px"
	 width="32px" height="32px" viewBox="0 0 32 32" style="enable-background:new 0 0 32 32;" xml:space="preserve">
<style type="text/css">
	.st0{fill:#5057FB;}
	.st1{fill:#C93789;}
	.st2{fill:#ED5C36;}
	.st3{fill:#AFB224;}
	.st4{fill:#15B2CC;}
</style>
<g id="timing-belt_2_">
	<circle class="st3" cx="14.5" cy="11.485" r="0.5"/>
	<path class="st3" d="M17.31,16.935l-1.35,0.22l0.66,1.19C16.75,17.826,16.99,17.355,17.31,16.935z"/>
	<circle class="st3" cx="11" cy="19.985" r="0.5"/>
	<path class="st3" d="M14.19,13.955l1.25,2.27l3.99-0.64c0.07-0.02,0.15-0.03,0.22-0.04l0.27-0.04v0.01
		c0.11-0.01,0.22-0.03,0.33-0.03c0.06,0,0.13,0.02,0.19,0.02l-3.48-3.59c-0.21,1.17-1.23,2.07-2.46,2.07
		C14.39,13.985,14.29,13.965,14.19,13.955z"/>
	<path class="st3" d="M10.61,17.016l3.79-0.62l-1.9-3.43c-0.07-0.09-0.13-0.19-0.19-0.3l-2.15,4.45c0.15-0.04,0.3-0.07,0.45-0.09
		V17.016z"/>
	<path class="st3" d="M20.25,17.735c-0.83,0-1.5,0.67-1.5,1.5s0.67,1.5,1.5,1.5s1.5-0.67,1.5-1.5S21.08,17.735,20.25,17.735z
		 M20.25,19.735c-0.28,0-0.5-0.22-0.5-0.5s0.22-0.5,0.5-0.5s0.5,0.22,0.5,0.5S20.53,19.735,20.25,19.735z"/>
	<path class="st3" d="M16,0C7.163,0,0,7.163,0,16s7.163,16,16,16s16-7.163,16-16S24.837,0,16,0z M20.25,22.985
		c-0.09,0-0.17-0.02-0.25-0.03v0.03h-9c-1.65,0-3-1.35-3-3c0-0.43,0.1-0.84,0.26-1.22l3.86-8c0.31-1.02,1.25-1.78,2.38-1.78
		c0.84,0,1.58,0.42,2.03,1.05l6.17,6.37l-0.01,0.01c0.8,0.69,1.31,1.69,1.31,2.82C24,21.305,22.32,22.985,20.25,22.985z"/>
	<path class="st3" d="M16.92,20.955l-2.01-3.63l-2.04,0.33c0.68,0.55,1.13,1.39,1.13,2.33c0,0.77-0.3,1.47-0.78,2h4.5
		c-0.32-0.29-0.58-0.64-0.78-1.03H16.92z"/>
</g>
</svg>
