<?xml version="1.0" encoding="utf-8"?>
<!-- Generator: Adobe Illustrator 21.0.0, SVG Export Plug-In . SVG Version: 6.00 Build 0)  -->
<svg version="1.1" id="icons" xmlns="http://www.w3.org/2000/svg" xmlns:xlink="http://www.w3.org/1999/xlink" x="0px" y="0px"
	 width="16px" height="16px" viewBox="0 0 16 16" style="enable-background:new 0 0 16 16;" xml:space="preserve">
<style type="text/css">
	.st0{fill:#5057FB;}
	.st1{fill:#C93789;}
	.st2{fill:#ED5C36;}
	.st3{fill:#AFB224;}
	.st4{fill:#15B2CC;}
</style>
<g id="timing-belt_1_">
	<path class="st3" d="M12.25,10.75c-0.28,0-0.5,0.22-0.5,0.5s0.22,0.5,0.5,0.5s0.5-0.22,0.5-0.5S12.53,10.75,12.25,10.75z
		 M12.25,10.75c-0.28,0-0.5,0.22-0.5,0.5s0.22,0.5,0.5,0.5s0.5-0.22,0.5-0.5S12.53,10.75,12.25,10.75z M14.69,8.43l0.01-0.01
		L8.53,2.05C8.08,1.42,7.34,1,6.5,1C5.37,1,4.43,1.76,4.12,2.78l-3.86,8C0.1,11.16,0,11.57,0,12c0,1.65,1.35,3,3,3h9v-0.03
		c0.08,0.01,0.16,0.03,0.25,0.03c2.07,0,3.75-1.68,3.75-3.75C16,10.12,15.49,9.12,14.69,8.43z M8.96,3.93l3.48,3.59
		c-0.06,0-0.13-0.02-0.19-0.02c-0.11,0-0.22,0.02-0.33,0.03V7.52l-0.27,0.04c-0.07,0.01-0.15,0.02-0.22,0.04L7.44,8.24L6.19,5.97
		C6.29,5.98,6.39,6,6.5,6C7.73,6,8.75,5.1,8.96,3.93z M9.31,8.95c-0.32,0.42-0.56,0.89-0.69,1.41L7.96,9.17L9.31,8.95z M6.5,3
		C6.78,3,7,3.22,7,3.5S6.78,4,6.5,4S6,3.78,6,3.5S6.22,3,6.5,3z M4.31,4.68c0.06,0.11,0.12,0.21,0.19,0.3l1.9,3.43L2.61,9.03v0.01
		c-0.15,0.02-0.3,0.05-0.45,0.09L4.31,4.68z M3,12.5c-0.28,0-0.5-0.22-0.5-0.5s0.22-0.5,0.5-0.5s0.5,0.22,0.5,0.5S3.28,12.5,3,12.5z
		 M5.22,14C5.7,13.47,6,12.77,6,12c0-0.94-0.45-1.78-1.13-2.33l2.04-0.33l2.01,3.63h0.02c0.2,0.39,0.46,0.74,0.78,1.03H5.22z
		 M12.25,12.75c-0.83,0-1.5-0.67-1.5-1.5s0.67-1.5,1.5-1.5s1.5,0.67,1.5,1.5S13.08,12.75,12.25,12.75z M12.25,10.75
		c-0.28,0-0.5,0.22-0.5,0.5s0.22,0.5,0.5,0.5s0.5-0.22,0.5-0.5S12.53,10.75,12.25,10.75z"/>
</g>
</svg>
