<?xml version="1.0" encoding="utf-8"?>
<!-- Generator: Adobe Illustrator 21.0.0, SVG Export Plug-In . SVG Version: 6.00 Build 0)  -->
<svg version="1.1" id="icons" xmlns="http://www.w3.org/2000/svg" xmlns:xlink="http://www.w3.org/1999/xlink" x="0px" y="0px"
	 width="32px" height="32px" viewBox="0 0 32 32" style="enable-background:new 0 0 32 32;" xml:space="preserve">
<style type="text/css">
	.st0{fill:#5057FB;}
	.st1{fill:#C93789;}
	.st2{fill:#ED5C36;}
	.st3{fill:#AFB224;}
	.st4{fill:#15B2CC;}
</style>
<g id="truck_2_">
	<path class="st1" d="M16,0C7.16,0,0,7.16,0,16c0,8.84,7.16,16,16,16s16-7.16,16-16C32,7.16,24.84,0,16,0z M11.5,20
		c-0.55,0-0.99-0.45-0.99-1s0.44-1,0.99-1s1,0.45,1,1S12.05,20,11.5,20z M18.47,19h-5.48c0-0.83-0.67-1.5-1.49-1.5
		c-0.83,0-1.5,0.67-1.5,1.5H8.5C8.22,19,8,18.78,8,18.5v-6C8,12.23,8.22,12,8.5,12h9.47c0.28,0,0.5,0.23,0.5,0.5V19z M21.5,20
		c-0.55,0-0.99-0.45-0.99-1s0.44-1,0.99-1s1,0.45,1,1S22.05,20,21.5,20z M23.53,19H23c0-0.83-0.67-1.5-1.5-1.5
		c-0.39,0-0.73,0.15-0.99,0.39c-0.31,0.27-0.5,0.67-0.5,1.11h-1.04v-6h2.97c0.15,0,0.29,0.07,0.39,0.19
		c0.02,0.02,0.45,0.56,1.06,1.55c0.04,0.07,0.08,0.16,0.12,0.26c0.01,0.02,0.01,0.04,0.02,0.06c0.02,0.07,0.04,0.14,0.06,0.21
		c0.07,0.21,0.12,0.47,0.16,0.74c0.04,0.19,0.07,0.4,0.09,0.61c0.04,0.29,0.07,0.56,0.09,0.82c0.04,0.44,0.06,0.81,0.07,1.03
		C24.02,18.75,23.81,18.99,23.53,19z M22.37,15c-0.08-0.11-0.14-0.22-0.21-0.32c-0.07-0.1-0.13-0.2-0.19-0.28
		c-0.11-0.17-0.21-0.3-0.28-0.4h-1.72v2.01h2.77c-0.06-0.36-0.13-0.63-0.21-0.75C22.47,15.17,22.42,15.08,22.37,15z"/>
</g>
</svg>
