<?xml version="1.0" encoding="utf-8"?>
<!-- Generator: Adobe Illustrator 21.0.0, SVG Export Plug-In . SVG Version: 6.00 Build 0)  -->
<svg version="1.1" id="icons" xmlns="http://www.w3.org/2000/svg" xmlns:xlink="http://www.w3.org/1999/xlink" x="0px" y="0px"
	 width="16px" height="16px" viewBox="0 0 16 16" style="enable-background:new 0 0 16 16;" xml:space="preserve">
<style type="text/css">
	.st0{fill:#5057FB;}
	.st1{fill:#C93789;}
	.st2{fill:#ED5C36;}
	.st3{fill:#AFB224;}
	.st4{fill:#15B2CC;}
</style>
<g id="truck">
	<g>
		<path d="M15.929,9.439c-0.02-0.26-0.05-0.535-0.09-0.825c-0.02-0.21-0.05-0.42-0.09-0.61c-0.04-0.27-0.09-0.52-0.16-0.73
			c-0.02-0.07-0.04-0.14-0.06-0.21c-0.01-0.02-0.01-0.04-0.02-0.06c-0.04-0.1-0.08-0.19-0.12-0.26
			c-0.608-0.991-1.037-1.531-1.057-1.551c-0.1-0.12-0.239-0.19-0.389-0.19h-2.972V11h1.036c0-0.44,0.19-0.841,0.499-1.111
			c0.259-0.24,0.608-0.39,0.997-0.39C14.332,9.499,15,10.169,15,11h0.53c0.279-0.01,0.489-0.25,0.469-0.53
			C15.989,10.249,15.969,9.879,15.929,9.439z M11.969,8.003V6.002h1.726c0.07,0.1,0.17,0.23,0.279,0.4
			c0.06,0.08,0.12,0.18,0.19,0.28c0.07,0.1,0.13,0.21,0.209,0.32c0.05,0.08,0.1,0.17,0.16,0.26c0.08,0.12,0.15,0.38,0.209,0.741
			H11.969z"/>
		<path d="M0,4.5V10.5C0,10.776,0.223,11,0.499,11H2c0-0.831,0.668-1.501,1.496-1.501c0.828,0,1.496,0.67,1.496,1.501h5.481V4.5
			c0-0.276-0.223-0.5-0.499-0.5H0.499C0.223,4,0,4.224,0,4.5z"/>
	</g>
	<ellipse cx="3.503" cy="10.999" rx="0.997" ry="1.001"/>
	<ellipse cx="13.503" cy="10.999" rx="0.997" ry="1.001"/>
</g>
</svg>
