<?xml version="1.0" encoding="utf-8"?>
<!-- Generator: Adobe Illustrator 21.0.0, SVG Export Plug-In . SVG Version: 6.00 Build 0)  -->
<svg version="1.1" id="icons" xmlns="http://www.w3.org/2000/svg" xmlns:xlink="http://www.w3.org/1999/xlink" x="0px" y="0px"
	 width="16.001px" height="16px" viewBox="0 0 16.001 16" style="enable-background:new 0 0 16.001 16;" xml:space="preserve">
<style type="text/css">
	.st0{fill:#5057FB;}
	.st1{fill:#C93789;}
	.st2{fill:#ED5C36;}
	.st3{fill:#AFB224;}
	.st4{fill:#15B2CC;}
</style>
<path id="truck_3_" d="M15.67,7.5V7.47c-0.014-0.05-0.025-0.089-0.036-0.129c-0.005-0.014-0.006-0.03-0.012-0.044
	c0-0.002-0.002-0.005-0.002-0.007c0,0,0,0,0-0.01c-0.06-0.22-0.13-0.41-0.21-0.54c-0.6-0.98-1-1.52-1.02-1.54
	C14.3,5.07,14.15,5,13.99,5H11V4.5C11,4.22,10.78,4,10.5,4h-10C0.22,4,0,4.22,0,4.5v6C0,10.78,0.22,11,0.5,11h1.09
	c0.2,0.58,0.76,1,1.41,1c0.65,0,1.21-0.42,1.41-1h6.09h1.09c0.2,0.58,0.76,1,1.41,1s1.21-0.42,1.41-1h1.09
	c0.14,0,0.27-0.06,0.36-0.15c0.1-0.1,0.15-0.23,0.14-0.37C15.98,9.95,15.9,8.49,15.67,7.5z M14.399,6.999h-1.401V6h0.742
	C13.88,6.2,14.11,6.53,14.399,6.999z M1,5h9v5H4.41C4.21,9.42,3.65,9,3,9c-0.65,0-1.21,0.42-1.41,1H1V5z M2.5,10.5
	C2.5,10.22,2.73,10,3,10c0.28,0,0.5,0.22,0.5,0.5S3.28,11,3,11C2.73,11,2.5,10.78,2.5,10.5z M12.5,10.5c0-0.28,0.23-0.5,0.5-0.5
	c0.28,0,0.5,0.22,0.5,0.5S13.28,11,13,11C12.73,11,12.5,10.78,12.5,10.5z M14.41,10c-0.2-0.58-0.76-1-1.41-1s-1.21,0.42-1.41,1H11V6
	h0.998v1.499c0,0.276,0.224,0.5,0.5,0.5h2.262l0,0.001c0.09,0.54,0.17,1.28,0.21,2H14.41z"/>
</svg>
