<?xml version="1.0" encoding="utf-8"?>
<!-- Generator: Adobe Illustrator 21.0.0, SVG Export Plug-In . SVG Version: 6.00 Build 0)  -->
<svg version="1.1" id="icons" xmlns="http://www.w3.org/2000/svg" xmlns:xlink="http://www.w3.org/1999/xlink" x="0px" y="0px"
	 width="16px" height="16px" viewBox="0 0 16 16" style="enable-background:new 0 0 16 16;" xml:space="preserve">
<style type="text/css">
	.st0{fill:#5057FB;}
	.st1{fill:#C93789;}
	.st2{fill:#ED5C36;}
	.st3{fill:#AFB224;}
	.st4{fill:#15B2CC;}
</style>
<g id="van_1_">
	<path class="st2" d="M4,10.994c0,0.552-0.448,1-1,1c-0.553,0-1-0.448-1-1c0-0.552,0.447-1,1-1C3.552,9.994,4,10.442,4,10.994"/>
	<path class="st2" d="M14,11c0,0.552-0.448,1-1,1c-0.553,0-1-0.448-1-1c0-0.552,0.447-1,1-1C13.552,10,14,10.448,14,11"/>
	<path class="st2" d="M15.87,7.67c-0.02-0.03-0.05-0.06-0.09-0.08V7.58l-1.32-0.86l-0.09-0.06l-0.01-0.01
		c-0.01-0.01-0.02-0.02-0.03-0.03V6.61l-0.49-0.6L12.39,4.2V4.19c-0.02-0.03-0.05-0.06-0.08-0.07c-0.03-0.03-0.06-0.04-0.09-0.06
		c-0.02,0-0.03-0.01-0.04-0.02c-0.02-0.009-0.04-0.009-0.06-0.009C12.11,4.02,12.11,4.02,12.1,4.02h-0.02h-0.01
		C12.04,4.01,12.03,4,12,4H0.5C0.4,4,0.3,4.031,0.22,4.09C0.19,4.11,0.17,4.13,0.14,4.16C0.05,4.25,0,4.37,0,4.5v6
		c0,0.14,0.06,0.26,0.14,0.36c0.03,0.03,0.07,0.05,0.11,0.07c0.05,0.03,0.1,0.05,0.15,0.06C0.42,11,0.43,11,0.45,11H1.5
		C1.51,10.17,2.17,9.51,3,9.51S4.49,10.17,4.5,11h7c0.01-0.83,0.67-1.49,1.5-1.49s1.49,0.66,1.5,1.49h1.05c0.02,0,0.03,0,0.05-0.01
		c0.05-0.01,0.1-0.03,0.15-0.06c0.04-0.02,0.08-0.04,0.11-0.07c0.08-0.1,0.14-0.22,0.14-0.36V8C16,7.88,15.96,7.76,15.87,7.67
		 M10,7.01v-2h1.76l1.6,2H10z"/>
</g>
</svg>
