<?xml version="1.0" encoding="utf-8"?>
<!-- Generator: Adobe Illustrator 21.0.0, SVG Export Plug-In . SVG Version: 6.00 Build 0)  -->
<svg version="1.1" id="icons" xmlns="http://www.w3.org/2000/svg" xmlns:xlink="http://www.w3.org/1999/xlink" x="0px" y="0px"
	 width="16px" height="16px" viewBox="0 0 16 16" style="enable-background:new 0 0 16 16;" xml:space="preserve">
<style type="text/css">
	.st0{fill:#5057FB;}
	.st1{fill:#C93789;}
	.st2{fill:#ED5C36;}
	.st3{fill:#AFB224;}
	.st4{fill:#15B2CC;}
</style>
<path id="van_3_" d="M15.78,7.58l-1.41-0.92c0,0,0,0-0.01-0.01c-0.01-0.01-0.02-0.02-0.03-0.03V6.61l-1.94-2.42
	C12.3,4.07,12.15,4,12,4H0.5C0.22,4,0,4.23,0,4.5v6C0,10.78,0.22,11,0.5,11h1.09c0.2,0.58,0.76,1,1.41,1c0.65,0,1.21-0.42,1.41-1
	h7.18c0.2,0.58,0.76,1,1.41,1c0.65,0,1.21-0.42,1.41-1h1.09c0.28,0,0.5-0.22,0.5-0.5V8C16,7.83,15.92,7.68,15.78,7.58z M12.96,6.5
	H11V5h0.76L12.96,6.5z M2.5,10.5C2.5,10.22,2.72,10,3,10c0.28,0,0.5,0.22,0.5,0.5S3.28,11,3,11C2.72,11,2.5,10.78,2.5,10.5z
	 M12.5,10.5c0-0.28,0.22-0.5,0.5-0.5c0.28,0,0.5,0.22,0.5,0.5S13.28,11,13,11C12.72,11,12.5,10.78,12.5,10.5z M15,10h-0.59
	c-0.2-0.58-0.76-1-1.41-1c-0.65,0-1.21,0.42-1.41,1H4.41C4.21,9.42,3.65,9,3,9c-0.65,0-1.21,0.42-1.41,1H1V5h9v2
	c0,0.276,0.224,0.5,0.5,0.5h3.34L15,8.27V10z"/>
</svg>
