<?xml version="1.0" encoding="utf-8"?>
<!-- Generator: Adobe Illustrator 21.0.0, SVG Export Plug-In . SVG Version: 6.00 Build 0)  -->
<svg version="1.1" id="icons" xmlns="http://www.w3.org/2000/svg" xmlns:xlink="http://www.w3.org/1999/xlink" x="0px" y="0px"
	 width="32px" height="32px" viewBox="0 0 32 32" style="enable-background:new 0 0 32 32;" xml:space="preserve">
<style type="text/css">
	.st0{fill:#5057FB;}
	.st1{fill:#C93789;}
	.st2{fill:#ED5C36;}
	.st3{fill:#AFB224;}
	.st4{fill:#15B2CC;}
</style>
<g id="van_2_">
	<path class="st2" d="M19.76,13.01H18v2h3.36L19.76,13.01z M19.76,13.01H18v2h3.36L19.76,13.01z M16,0C7.16,0,0,7.16,0,16
		c0,8.84,7.16,16,16,16s16-7.16,16-16C32,7.16,24.84,0,16,0z M11,20c-0.55,0-1-0.45-1-1c0-0.56,0.45-1,1-1s1,0.44,1,1
		C12,19.55,11.55,20,11,20z M21,20c-0.55,0-1-0.45-1-1s0.45-1,1-1s1,0.45,1,1S21.55,20,21,20z M24,18.5c0,0.14-0.06,0.26-0.14,0.36
		c-0.03,0.03-0.07,0.05-0.11,0.07c-0.05,0.03-0.1,0.05-0.15,0.06C23.58,19,23.57,19,23.55,19H22.5c-0.01-0.83-0.67-1.49-1.5-1.49
		s-1.49,0.66-1.5,1.49h-7c-0.01-0.83-0.67-1.49-1.5-1.49S9.51,18.17,9.5,19H8.45c-0.02,0-0.03,0-0.05-0.01
		c-0.05-0.01-0.1-0.03-0.15-0.06c-0.04-0.02-0.08-0.04-0.11-0.07C8.06,18.76,8,18.64,8,18.5v-6c0-0.13,0.05-0.25,0.14-0.34
		c0.03-0.03,0.05-0.05,0.08-0.07C8.3,12.03,8.4,12,8.5,12H20c0.03,0,0.04,0.01,0.07,0.02h0.03c0.01,0,0.01,0,0.02,0.01
		c0.02,0,0.04,0,0.06,0.01c0.01,0.01,0.02,0.02,0.04,0.02c0.03,0.02,0.06,0.03,0.09,0.06c0.03,0.01,0.06,0.04,0.08,0.07v0.01
		l1.45,1.81l0.49,0.6v0.01c0.01,0.01,0.02,0.02,0.03,0.03l0.01,0.01l0.09,0.06l1.32,0.86v0.01c0.04,0.02,0.07,0.05,0.09,0.08
		C23.96,15.76,24,15.88,24,16V18.5z M18,13.01v2h3.36l-1.6-2H18z M19.76,13.01H18v2h3.36L19.76,13.01z M19.76,13.01H18v2h3.36
		L19.76,13.01z"/>
</g>
</svg>
