<?xml version="1.0" encoding="utf-8"?>
<!-- Generator: Adobe Illustrator 21.0.0, SVG Export Plug-In . SVG Version: 6.00 Build 0)  -->
<svg version="1.1" id="icons" xmlns="http://www.w3.org/2000/svg" xmlns:xlink="http://www.w3.org/1999/xlink" x="0px" y="0px"
	 width="32px" height="32px" viewBox="0 0 32 32" style="enable-background:new 0 0 32 32;" xml:space="preserve">
<style type="text/css">
	.st0{fill:#5057FB;}
	.st1{fill:#C93789;}
	.st2{fill:#ED5C36;}
	.st3{fill:#AFB224;}
	.st4{fill:#15B2CC;}
</style>
<g id="vehicle-classes_1_">
	<path class="st0" d="M15.5,20h-3c-0.276,0-0.5,0.224-0.5,0.5s0.224,0.5,0.5,0.5h3c0.276,0,0.5-0.224,0.5-0.5S15.776,20,15.5,20z"/>
	<path class="st0" d="M15.536,14h-3.073c-0.719,0-1.395,0.38-1.765,0.992l-0.752,1.245L9.631,16.76
		c0.631,0.285,1.927,0.74,3.869,0.74c2.011,0,3.932-0.458,4.878-0.724l-1.077-1.783C16.931,14.38,16.255,14,15.536,14z"/>
	<path class="st0" d="M16,0C7.163,0,0,7.163,0,16s7.163,16,16,16s16-7.163,16-16S24.837,0,16,0z M20,19h-1.5
		c-0.276,0-0.5,0.224-0.5,0.5s0.224,0.5,0.5,0.5H20v2.282C20,23.229,19.229,24,18.282,24h-0.08c-0.727,0-1.346-0.455-1.596-1.094
		c-0.046,0.049-0.076,0.082-0.077,0.084c-0.096,0.112-0.235,0.178-0.383,0.178h-4.292c-0.147,0-0.287-0.065-0.383-0.178
		c-0.002-0.002-0.031-0.034-0.077-0.083C11.143,23.545,10.524,24,9.798,24h-0.08C8.771,24,8,23.229,8,22.282V20h1.5
		c0.276,0,0.5-0.224,0.5-0.5S9.776,19,9.5,19H8v-0.773c0-0.457,0.125-0.906,0.36-1.298l0.53-0.877l0.685-1.134l0.268-0.443
		c0.549-0.91,1.553-1.476,2.62-1.476h3.073c1.067,0,2.071,0.565,2.62,1.477l1.481,2.451C19.875,17.321,20,17.771,20,18.227V19z
		 M22,20.5c0,0.276-0.224,0.5-0.5,0.5S21,20.776,21,20.5v-5.273c0-0.274-0.075-0.545-0.219-0.782l-1.48-2.451
		C18.931,11.38,18.255,11,17.536,11H12.5c-0.276,0-0.5-0.224-0.5-0.5s0.224-0.5,0.5-0.5h5.036c1.067,0,2.071,0.565,2.62,1.477
		l1.481,2.451C21.875,14.321,22,14.771,22,15.227V20.5z M24,18.5c0,0.276-0.224,0.5-0.5,0.5S23,18.776,23,18.5v-5.273
		c0-0.274-0.075-0.545-0.219-0.782l-1.48-2.451C20.931,9.38,20.255,9,19.536,9H14.5C14.224,9,14,8.776,14,8.5S14.224,8,14.5,8h5.036
		c1.067,0,2.071,0.565,2.62,1.477l1.481,2.451C23.875,12.321,24,12.771,24,13.227V18.5z"/>
</g>
</svg>
