<?xml version="1.0" encoding="utf-8"?>
<!-- Generator: Adobe Illustrator 21.0.0, SVG Export Plug-In . SVG Version: 6.00 Build 0)  -->
<svg version="1.1" id="icons" xmlns="http://www.w3.org/2000/svg" xmlns:xlink="http://www.w3.org/1999/xlink" x="0px" y="0px"
	 width="16px" height="16px" viewBox="0 0 16 16" style="enable-background:new 0 0 16 16;" xml:space="preserve">
<style type="text/css">
	.st0{fill:#5057FB;}
	.st1{fill:#C93789;}
	.st2{fill:#ED5C36;}
	.st3{fill:#AFB224;}
	.st4{fill:#15B2CC;}
</style>
<g id="vehicle-classes_3_">
	<path d="M13.638,5.928l-1.481-2.451C11.607,2.565,10.604,2,9.536,2H4.5C4.224,2,4,2.224,4,2.5S4.224,3,4.5,3h5.036
		c0.719,0,1.395,0.38,1.765,0.993l1.48,2.451C12.925,6.682,13,6.952,13,7.227V12.5c0,0.276,0.224,0.5,0.5,0.5s0.5-0.224,0.5-0.5
		V7.227C14,6.771,13.875,6.321,13.638,5.928z"/>
	<path d="M15.638,3.928l-1.481-2.451C13.607,0.565,12.604,0,11.536,0H6.5C6.224,0,6,0.224,6,0.5S6.224,1,6.5,1h5.036
		c0.719,0,1.395,0.38,1.765,0.993l1.48,2.451C14.925,4.682,15,4.952,15,5.227V10.5c0,0.276,0.224,0.5,0.5,0.5s0.5-0.224,0.5-0.5
		V5.227C16,4.771,15.875,4.321,15.638,3.928z"/>
	<path d="M10.5,11H12v-0.773c0-0.456-0.125-0.905-0.362-1.299l-1.481-2.451C9.607,5.565,8.604,5,7.536,5H4.463
		c-1.067,0-2.071,0.565-2.62,1.476L1.575,6.918L0.89,8.052L0.36,8.929C0.125,9.32,0,9.77,0,10.227V11h1.5C1.776,11,2,11.224,2,11.5
		S1.776,12,1.5,12H0v2.282C0,15.229,0.771,16,1.718,16h0.08c0.727,0,1.346-0.455,1.596-1.094c0.046,0.049,0.075,0.081,0.077,0.083
		c0.096,0.112,0.235,0.178,0.383,0.178h4.292c0.147,0,0.287-0.065,0.383-0.178c0.002-0.002,0.031-0.035,0.077-0.084
		C8.856,15.545,9.475,16,10.202,16h0.08C11.229,16,12,15.229,12,14.282V12h-1.5c-0.276,0-0.5-0.224-0.5-0.5S10.224,11,10.5,11z
		 M7.5,13h-3C4.224,13,4,12.776,4,12.5S4.224,12,4.5,12h3C7.776,12,8,12.224,8,12.5S7.776,13,7.5,13z M5.5,9.5
		c-1.942,0-3.238-0.455-3.869-0.74l0.316-0.523l0.752-1.245C3.068,6.38,3.744,6,4.463,6h3.073c0.719,0,1.395,0.38,1.765,0.993
		l1.077,1.783C9.432,9.042,7.511,9.5,5.5,9.5z"/>
</g>
</svg>
