<?xml version="1.0" encoding="utf-8"?>
<!-- Generator: Adobe Illustrator 21.0.0, SVG Export Plug-In . SVG Version: 6.00 Build 0)  -->
<svg version="1.1" id="icons" xmlns="http://www.w3.org/2000/svg" xmlns:xlink="http://www.w3.org/1999/xlink" x="0px" y="0px"
	 width="32px" height="32px" viewBox="0 0 32 32" style="enable-background:new 0 0 32 32;" xml:space="preserve">
<style type="text/css">
	.st0{fill:none;}
	.st1{fill:#C93789;}
	.st2{font-family:'OpenSans';}
	.st3{font-size:4px;}
	.st4{fill:#5057FB;}
	.st5{fill:#ED5C36;}
	.st6{fill:#AFB224;}
	.st7{fill:#15B2CC;}
</style>
<g id="wheel_2_">
	<circle class="st6" cx="16" cy="14.485" r="0.5"/>
	<path class="st6" d="M16.59,16.795c-0.23,0.16-0.28,0.47-0.11,0.7c0.16,0.22,0.47,0.27,0.7,0.11c0.22-0.16,0.27-0.48,0.11-0.7
		C17.12,16.685,16.81,16.635,16.59,16.795z"/>
	<path class="st6" d="M14.71,16.905c-0.16,0.22-0.11,0.54,0.11,0.7c0.23,0.16,0.54,0.11,0.7-0.11c0.17-0.23,0.12-0.54-0.11-0.7
		C15.19,16.635,14.88,16.685,14.71,16.905z"/>
	<path class="st6" d="M17.27,15.045c-0.26,0.09-0.4,0.37-0.32,0.63c0.09,0.26,0.37,0.41,0.63,0.32c0.26-0.08,0.41-0.37,0.32-0.63
		C17.82,15.105,17.53,14.965,17.27,15.045z"/>
	<path class="st6" d="M16,11.985c-2.21,0-4,1.79-4,4s1.79,4,4,4c2.21,0,4-1.79,4-4S18.21,11.985,16,11.985z M16,18.985
		c-1.65,0-3-1.35-3-3s1.35-3,3-3c1.65,0,3,1.35,3,3S17.65,18.985,16,18.985z"/>
	<path class="st6" d="M15.05,15.675c0.08-0.26-0.06-0.54-0.32-0.63c-0.26-0.08-0.55,0.06-0.63,0.32c-0.09,0.26,0.06,0.55,0.32,0.63
		C14.68,16.085,14.96,15.935,15.05,15.675z"/>
	<path class="st6" d="M16,0C7.163,0,0,7.163,0,16s7.163,16,16,16s16-7.163,16-16S24.837,0,16,0z M23.97,16.645l-0.99-0.99
		c0.02,0.11,0.02,0.22,0.02,0.33c0,0.35-0.03,0.7-0.08,1.03l0.86,0.86c-0.24,0.97-0.66,1.88-1.21,2.67l-0.36-1.34
		c-0.21,0.41-0.46,0.79-0.74,1.14l0.32,1.16c-0.68,0.71-1.48,1.3-2.38,1.72l0.36-1.34c-0.38,0.24-0.78,0.45-1.21,0.61l-0.31,1.17
		c-0.71,0.21-1.47,0.32-2.25,0.32c-0.22,0-0.44-0.01-0.66-0.03l0.99-0.99c-0.11,0.02-0.22,0.02-0.33,0.02
		c-0.35,0-0.69-0.03-1.02-0.08l-0.87,0.86c-0.97-0.24-1.88-0.66-2.67-1.21l1.34-0.36c-0.4-0.2-0.78-0.45-1.13-0.73l-1.17,0.31
		c-0.71-0.68-1.3-1.48-1.72-2.38l1.34,0.36c-0.24-0.38-0.45-0.78-0.61-1.21l-1.17-0.31C8.11,17.525,8,16.766,8,15.985
		c0-0.22,0.01-0.44,0.03-0.66l0.99,0.99C9,16.205,9,16.095,9,15.985c0-0.35,0.03-0.69,0.09-1.02l-0.87-0.87
		c0.24-0.97,0.66-1.88,1.21-2.67l0.36,1.34c0.2-0.4,0.45-0.78,0.73-1.13l-0.31-1.17c0.68-0.71,1.48-1.3,2.38-1.72l-0.36,1.34
		c0.38-0.24,0.78-0.45,1.2-0.61l0.31-1.17c0.72-0.21,1.47-0.32,2.26-0.32c0.23,0,0.45,0.01,0.67,0.03l-1,0.99
		c0.11-0.02,0.22-0.02,0.33-0.02c0.35,0,0.7,0.02,1.03,0.08l0.85-0.86c0.98,0.24,1.88,0.65,2.68,1.21l-1.34,0.36
		c0.4,0.2,0.78,0.45,1.13,0.73l1.17-0.31c0.71,0.68,1.3,1.48,1.72,2.38l-1.34-0.36c0.24,0.38,0.45,0.78,0.61,1.2l1.17,0.31
		c0.21,0.72,0.32,1.47,0.32,2.26C24,16.205,23.99,16.425,23.97,16.645z"/>
</g>
</svg>
