<?xml version="1.0" encoding="utf-8"?>
<!-- Generator: Adobe Illustrator 21.0.0, SVG Export Plug-In . SVG Version: 6.00 Build 0)  -->
<svg version="1.1" id="icons" xmlns="http://www.w3.org/2000/svg" xmlns:xlink="http://www.w3.org/1999/xlink" x="0px" y="0px"
	 width="16px" height="16px" viewBox="0 0 16 16" style="enable-background:new 0 0 16 16;" xml:space="preserve">
<style type="text/css">
	.st0{fill:#5057FB;}
	.st1{fill:#C93789;}
	.st2{fill:#ED5C36;}
	.st3{fill:#AFB224;}
	.st4{fill:#15B2CC;}
</style>
<g id="wheel_3_">
	<path d="M8,0C3.582,0,0,3.582,0,8s3.582,8,8,8s8-3.582,8-8S12.418,0,8,0z M11.771,13.888l0.05-0.186
		c0.071-0.267-0.087-0.541-0.354-0.612c-0.265-0.07-0.541,0.087-0.612,0.354l-0.284,1.061c-0.701,0.278-1.458,0.443-2.248,0.479
		l0.135-0.135c0.195-0.195,0.195-0.512,0-0.707s-0.512-0.195-0.707,0l-0.775,0.775c-0.78-0.115-1.518-0.355-2.192-0.706l0.188-0.05
		c0.267-0.071,0.425-0.346,0.354-0.612c-0.072-0.267-0.344-0.426-0.612-0.354l-1.058,0.284c-0.603-0.48-1.124-1.056-1.542-1.707
		l0.186,0.05c0.043,0.012,0.087,0.017,0.13,0.017c0.221,0,0.423-0.147,0.482-0.371c0.071-0.267-0.087-0.541-0.354-0.612L1.495,10.57
		C1.217,9.869,1.052,9.112,1.016,8.322l0.135,0.135c0.098,0.098,0.226,0.146,0.354,0.146s0.256-0.049,0.354-0.146
		c0.195-0.195,0.195-0.512,0-0.707L1.084,6.975c0.115-0.78,0.355-1.518,0.706-2.192l0.05,0.188C1.9,5.195,2.102,5.342,2.323,5.342
		c0.043,0,0.086-0.005,0.13-0.017c0.267-0.071,0.425-0.346,0.354-0.612L2.522,3.654c0.48-0.603,1.056-1.124,1.707-1.542L4.18,2.297
		C4.108,2.564,4.267,2.838,4.533,2.91c0.043,0.012,0.087,0.017,0.13,0.017c0.221,0,0.423-0.147,0.482-0.371L5.43,1.495
		c0.701-0.278,1.458-0.443,2.248-0.479L7.543,1.151c-0.195,0.195-0.195,0.512,0,0.707c0.098,0.098,0.226,0.146,0.354,0.146
		S8.152,1.956,8.25,1.858l0.775-0.775c0.78,0.115,1.518,0.355,2.192,0.706l-0.188,0.05c-0.267,0.071-0.425,0.346-0.354,0.612
		c0.06,0.224,0.262,0.371,0.482,0.371c0.043,0,0.086-0.005,0.13-0.017l1.058-0.284c0.603,0.48,1.124,1.056,1.542,1.707l-0.186-0.05
		c-0.265-0.07-0.541,0.087-0.612,0.354c-0.071,0.267,0.087,0.541,0.354,0.612l1.061,0.284c0.278,0.701,0.443,1.458,0.479,2.248
		l-0.135-0.135c-0.195-0.195-0.512-0.195-0.707,0s-0.195,0.512,0,0.707l0.775,0.775c-0.115,0.78-0.355,1.518-0.706,2.192
		l-0.05-0.188c-0.071-0.268-0.346-0.424-0.612-0.354c-0.267,0.071-0.425,0.346-0.354,0.612l0.284,1.058
		C12.998,12.949,12.421,13.47,11.771,13.888z"/>
	<path d="M8,4C5.791,4,4,5.791,4,8c0,2.209,1.791,4,4,4c2.209,0,4-1.791,4-4C12,5.791,10.209,4,8,4z M8,11c-1.654,0-3-1.346-3-3
		c0-1.654,1.346-3,3-3c1.654,0,3,1.346,3,3C11,9.654,9.654,11,8,11z"/>
	<circle cx="8" cy="6.5" r="0.5"/>
	<ellipse transform="matrix(0.309 -0.9511 0.9511 0.309 -2.6255 11.4592)" cx="6.573" cy="7.536" rx="0.5" ry="0.5"/>
	<ellipse transform="matrix(0.5878 -0.809 0.809 0.5878 -4.5196 9.5564)" cx="7.118" cy="9.214" rx="0.5" ry="0.5"/>
	<ellipse transform="matrix(0.809 -0.5878 0.5878 0.809 -3.7193 6.98)" cx="8.882" cy="9.214" rx="0.5" ry="0.5"/>
	<ellipse transform="matrix(0.9511 -0.309 0.309 0.9511 -1.8676 3.2819)" cx="9.427" cy="7.536" rx="0.5" ry="0.5"/>
</g>
</svg>
