<?xml version="1.0" encoding="utf-8"?>
<!-- Generator: Adobe Illustrator 21.0.0, SVG Export Plug-In . SVG Version: 6.00 Build 0)  -->
<svg version="1.1" id="icons" xmlns="http://www.w3.org/2000/svg" xmlns:xlink="http://www.w3.org/1999/xlink" x="0px" y="0px"
	 width="16px" height="16px" viewBox="0 0 16 16" style="enable-background:new 0 0 16 16;" xml:space="preserve">
<style type="text/css">
	.st0{fill:#5057FB;}
	.st1{fill:#C93789;}
	.st2{fill:#ED5C36;}
	.st3{fill:#AFB224;}
	.st4{fill:#15B2CC;}
</style>
<g id="wheel_1_">
	<path class="st3" d="M16,8c0-0.79-0.11-1.54-0.32-2.26l-1.17-0.31c-0.16-0.42-0.37-0.82-0.61-1.2l1.34,0.36
		c-0.42-0.9-1.01-1.7-1.72-2.38l-1.17,0.31C12,2.24,11.62,1.99,11.22,1.79l1.34-0.36c-0.8-0.56-1.7-0.97-2.68-1.21L9.03,1.08
		C8.7,1.02,8.35,1,8,1C7.89,1,7.78,1,7.67,1.02l1-0.99C8.45,0.01,8.23,0,8,0C7.21,0,6.46,0.11,5.74,0.32L5.43,1.49
		C5.01,1.65,4.61,1.86,4.23,2.1l0.36-1.34c-0.9,0.42-1.7,1.01-2.38,1.72l0.31,1.17C2.24,4,1.99,4.38,1.79,4.78L1.43,3.44
		c-0.55,0.79-0.97,1.7-1.21,2.67l0.87,0.87C1.03,7.31,1,7.65,1,8c0,0.11,0,0.22,0.02,0.33L0.03,7.34C0.01,7.56,0,7.78,0,8
		c0,0.78,0.11,1.54,0.32,2.25l1.17,0.31c0.16,0.43,0.37,0.83,0.61,1.21l-1.34-0.36c0.42,0.9,1.01,1.7,1.72,2.38l1.17-0.31
		c0.35,0.28,0.73,0.53,1.13,0.73l-1.34,0.36c0.79,0.55,1.7,0.97,2.67,1.21l0.87-0.86C7.31,14.97,7.65,15,8,15
		c0.11,0,0.22,0,0.33-0.02l-0.99,0.99C7.56,15.99,7.78,16,8,16c0.78,0,1.54-0.11,2.25-0.32l0.31-1.17c0.43-0.16,0.83-0.37,1.21-0.61
		l-0.36,1.34c0.9-0.42,1.7-1.01,2.38-1.72l-0.32-1.16c0.28-0.35,0.53-0.73,0.74-1.14l0.36,1.34c0.55-0.79,0.97-1.7,1.21-2.67
		l-0.86-0.86C14.97,8.7,15,8.35,15,8c0-0.11,0-0.22-0.02-0.33l0.99,0.99C15.99,8.44,16,8.22,16,8z M8,12c-2.21,0-4-1.79-4-4
		s1.79-4,4-4c2.21,0,4,1.79,4,4S10.21,12,8,12z"/>
	<path class="st3" d="M8,5C6.35,5,5,6.35,5,8s1.35,3,3,3c1.65,0,3-1.35,3-3S9.65,5,8,5z M6.42,8.01C6.16,7.93,6.01,7.64,6.1,7.38
		c0.08-0.26,0.37-0.4,0.63-0.32c0.26,0.09,0.4,0.37,0.32,0.63C6.96,7.95,6.68,8.1,6.42,8.01z M7.52,9.51
		c-0.16,0.22-0.47,0.27-0.7,0.11C6.6,9.46,6.55,9.14,6.71,8.92c0.17-0.22,0.48-0.27,0.7-0.11C7.64,8.97,7.69,9.28,7.52,9.51z M8,7
		C7.72,7,7.5,6.78,7.5,6.5S7.72,6,8,6c0.28,0,0.5,0.22,0.5,0.5S8.28,7,8,7z M9.18,9.62c-0.23,0.16-0.54,0.11-0.7-0.11
		c-0.17-0.23-0.12-0.54,0.11-0.7c0.22-0.16,0.53-0.11,0.7,0.11C9.45,9.14,9.4,9.46,9.18,9.62z M9.58,8.01
		C9.32,8.1,9.04,7.95,8.95,7.69C8.87,7.43,9.01,7.15,9.27,7.06C9.53,6.98,9.82,7.12,9.9,7.38C9.99,7.64,9.84,7.93,9.58,8.01z"/>
</g>
</svg>
