<?xml version="1.0" encoding="utf-8"?>
<!-- Generator: Adobe Illustrator 24.1.2, SVG Export Plug-In . SVG Version: 6.00 Build 0)  -->
<svg version="1.1" id="Layer_1" xmlns="http://www.w3.org/2000/svg" xmlns:xlink="http://www.w3.org/1999/xlink" x="0px" y="0px"
	 viewBox="0 0 40 40" style="enable-background:new 0 0 40 40;" xml:space="preserve">
<style type="text/css">
	.st0{fill:#F68521;}
</style>
<g>
	<path class="st0" d="M116,30.3c7.2,0,14.3,0,21.5,0c-0.3-5-1.1-9.7-4.8-13.3c-3.9-3.8-9.3-3.5-12.8,0.8c-2.5,3-3.4,6.6-3.8,10.4
		C116.1,28.9,116.1,29.5,116,30.3z"/>
	<path class="st0" d="M138,30.3c3.2,0,6.2,0,9.5,0c-0.3-1.8-0.4-3.5-0.9-5.2c-0.8-3.2-2.3-6.1-5.5-7.7c-2.3-1.1-4.6-0.9-6.9,0.5
		C136.9,21.6,137.8,25.8,138,30.3z"/>
	<path class="st0" d="M121.5,8.1c0,3.3,2.4,5.9,5.4,5.8c2.6-0.1,4.9-2.5,4.9-5.5c0-0.9-0.1-1.8-0.5-2.6c-0.9-2.4-3.3-3.8-5.6-3.3
		C123.3,2.9,121.5,5.2,121.5,8.1z"/>
	<path class="st0" d="M133.7,11.5c0,2.6,2,4.7,4.4,4.7c2.5,0,4.5-2.1,4.5-4.7c0-2.5-2-4.7-4.4-4.7C135.7,6.8,133.7,8.9,133.7,11.5z"
		/>
</g>
<rect x="-165" y="-38" class="st0" width="67" height="33"/>
<g>
	<path class="st0" d="M72,19c-1,3.4-1.5,2.6-3,2.7c-0.4,0-0.9,0-1.4,0c-0.8,0-1.2-0.4-1.2-1.2c0-1.1,0-2.3,0-3.4
		c0-0.7-0.2-0.9-0.9-0.9c-0.6,0-1,0-0.9,0.8C64.7,18,65,31.5,65,33.7c0,0.1-0.1,0.3-0.3,0.3H50.4c-0.2,0-0.4-0.2-0.3-0.3
		c0-2.4,0.2-15.1,0.2-15.6c0-3.4,0-6.8,0-10.2c0-2.2,0.9-2.6,3.9-2.3c2.2,0.2,4.5,0.3,6.7,0c2.9-0.4,3.9,0.1,3.9,2.2
		c0,1.9,0,3.8,0,5.8c0,0.7,0.1,1,0.9,1c3-0.1,2.7-0.1,2.7,2.8c0,0.5,0,1.1,0,1.6c0,0.7,0,1.1,0.9,1.1c0.9,0,0.9-0.4,0.9-1.1
		c0-1.9,0-3.8,0-5.7c0-0.7-0.2-1.2-0.8-1.6c-0.5-0.3-1-0.7-1.5-1.1c-0.5-0.4-0.9-0.8-0.5-1.4c0.5-0.7,1-0.5,1.6-0.1
		c0.3,0.2,0.5,0.4,0.8,0.6C72,13,72,16,72,19z M53.8,12.7c0,3.5,0.1,3.6,3.6,3.6c0,0,0.1,0,0.1,0c3.4,0,3.5-0.2,3.5-3.6
		c0-3.6-0.1-3.7-3.6-3.7C54,9.1,53.8,9.2,53.8,12.7z"/>
	<path class="st0" d="M57.4,14.5c-1.8,0-1.8,0-1.8-2.2c0-1.4,0-1.4,2.2-1.4c1.4,0,1.4,0,1.4,2.3C59.3,14.5,59.3,14.5,57.4,14.5z"/>
</g>
<g>
	<path class="st0" d="M19,34.8c-2-0.8-2.7-2.2-2.6-4.3c0.1-2.2,0-4.5,0-6.8c1.2,0,2.4,0,3.7,0c0,1.6,0,3.2,0,4.8c0,0.5-0.1,1,0,1.4
		c0.2,0.4,0.6,0.8,0.9,1.1c0.3-0.4,0.9-0.7,0.9-1.1c0.1-1.8,0-3.6,0-5.5c0-0.2,0-0.4,0-0.7c1.2,0,2.4,0,3.7,0c0,1.4,0,2.7,0,4.1
		c0,0.9-0.1,1.8,0,2.7c0.2,2.1-0.6,3.5-2.6,4.3C21.8,34.8,20.4,34.8,19,34.8z"/>
	<path class="st0" d="M12.7,18.1c-2.9-0.2-3.6-0.6-3.6-1.8c-0.1-1.3,0.7-1.7,3.6-2c0.7-2.8,1.8-3.6,4.8-3.6c3.3,0,6.6,0,9.9,0
		c2.5,0,4,1.5,4.1,4c0,1.1,0,2.2,0,3.4c-0.1,2.1-1.5,3.7-3.7,3.7c-3.8,0-7.5,0-11.3,0C14.4,21.7,13.2,20.5,12.7,18.1z"/>
	<path class="st0" d="M16.5,8.7c-0.1-2,1.2-3.5,3.1-3.7c1-0.1,2-0.1,3,0c1.9,0.1,3.2,1.7,3,3.6C22.6,8.7,19.6,8.7,16.5,8.7z"/>
	<path class="st0" d="M10.9,10.6c-1,0-1.9-0.8-1.9-1.8c0-1,0.8-1.9,1.8-1.9c1,0,1.9,0.8,1.9,1.8C12.7,9.7,11.9,10.6,10.9,10.6z"/>
	<path class="st0" d="M12.7,23.7c0,1-0.9,1.8-1.9,1.8c-1,0-1.8-0.9-1.8-1.9c0-1,0.9-1.8,1.9-1.8C11.9,21.8,12.7,22.6,12.7,23.7z"/>
	<path class="st0" d="M12.7,31c0,1-0.8,1.9-1.8,1.9c-1,0-1.9-0.8-1.9-1.8c0-1,0.8-1.9,1.8-1.9C11.9,29.2,12.7,30,12.7,31z"/>
</g>
</svg>
