<?xml version="1.0" encoding="utf-8"?>
<!-- Generator: Adobe Illustrator 24.1.2, SVG Export Plug-In . SVG Version: 6.00 Build 0)  -->
<svg version="1.1" id="Layer_1" xmlns="http://www.w3.org/2000/svg" xmlns:xlink="http://www.w3.org/1999/xlink" x="0px" y="0px"
	 viewBox="0 0 40 40" style="enable-background:new 0 0 40 40;" xml:space="preserve">
<style type="text/css">
	.st0{fill:#F68521;}
</style>
<g>
	<path class="st0" d="M116,30.3c7.2,0,14.3,0,21.5,0c-0.3-5-1.1-9.7-4.8-13.3c-3.9-3.8-9.3-3.5-12.8,0.8c-2.5,3-3.4,6.6-3.8,10.4
		C116.1,28.9,116.1,29.5,116,30.3z"/>
	<path class="st0" d="M138,30.3c3.2,0,6.2,0,9.5,0c-0.3-1.8-0.4-3.5-0.9-5.2c-0.8-3.2-2.3-6.1-5.5-7.7c-2.3-1.1-4.6-0.9-6.9,0.5
		C136.9,21.6,137.8,25.8,138,30.3z"/>
	<path class="st0" d="M121.5,8.1c0,3.3,2.4,5.9,5.4,5.8c2.6-0.1,4.9-2.5,4.9-5.5c0-0.9-0.1-1.8-0.5-2.6c-0.9-2.4-3.3-3.8-5.6-3.3
		C123.3,2.9,121.5,5.2,121.5,8.1z"/>
	<path class="st0" d="M133.7,11.5c0,2.6,2,4.7,4.4,4.7c2.5,0,4.5-2.1,4.5-4.7c0-2.5-2-4.7-4.4-4.7C135.7,6.8,133.7,8.9,133.7,11.5z"
		/>
</g>
<rect x="-165" y="-38" class="st0" width="67" height="33"/>
<g>
	<path class="st0" d="M72,19c-1,3.4-1.5,2.6-3,2.7c-0.4,0-0.9,0-1.4,0c-0.8,0-1.2-0.4-1.2-1.2c0-1.1,0-2.3,0-3.4
		c0-0.7-0.2-0.9-0.9-0.9c-0.6,0-1,0-0.9,0.8C64.7,18,65,31.5,65,33.7c0,0.1-0.1,0.3-0.3,0.3H50.4c-0.2,0-0.4-0.2-0.3-0.3
		c0-2.4,0.2-15.1,0.2-15.6c0-3.4,0-6.8,0-10.2c0-2.2,0.9-2.6,3.9-2.3c2.2,0.2,4.5,0.3,6.7,0c2.9-0.4,3.9,0.1,3.9,2.2
		c0,1.9,0,3.8,0,5.8c0,0.7,0.1,1,0.9,1c3-0.1,2.7-0.1,2.7,2.8c0,0.5,0,1.1,0,1.6c0,0.7,0,1.1,0.9,1.1c0.9,0,0.9-0.4,0.9-1.1
		c0-1.9,0-3.8,0-5.7c0-0.7-0.2-1.2-0.8-1.6c-0.5-0.3-1-0.7-1.5-1.1c-0.5-0.4-0.9-0.8-0.5-1.4c0.5-0.7,1-0.5,1.6-0.1
		c0.3,0.2,0.5,0.4,0.8,0.6C72,13,72,16,72,19z M53.8,12.7c0,3.5,0.1,3.6,3.6,3.6c0,0,0.1,0,0.1,0c3.4,0,3.5-0.2,3.5-3.6
		c0-3.6-0.1-3.7-3.6-3.7C54,9.1,53.8,9.2,53.8,12.7z"/>
	<path class="st0" d="M57.4,14.5c-1.8,0-1.8,0-1.8-2.2c0-1.4,0-1.4,2.2-1.4c1.4,0,1.4,0,1.4,2.3C59.3,14.5,59.3,14.5,57.4,14.5z"/>
</g>
<g>
	<path class="st0" d="M-23,32.8c-2-0.8-2.7-2.2-2.6-4.3c0.1-2.2,0-4.5,0-6.8c1.2,0,2.4,0,3.7,0c0,1.6,0,3.2,0,4.8c0,0.5-0.1,1,0,1.4
		c0.2,0.4,0.6,0.8,0.9,1.1c0.3-0.4,0.9-0.7,0.9-1.1c0.1-1.8,0-3.6,0-5.5c0-0.2,0-0.4,0-0.7c1.2,0,2.4,0,3.7,0c0,1.4,0,2.7,0,4.1
		c0,0.9-0.1,1.8,0,2.7c0.2,2.1-0.6,3.5-2.6,4.3C-20.2,32.8-21.6,32.8-23,32.8z"/>
	<path class="st0" d="M-29.3,16.1c-2.9-0.2-3.6-0.6-3.6-1.8c-0.1-1.3,0.7-1.7,3.6-2c0.7-2.8,1.8-3.6,4.8-3.6c3.3,0,6.6,0,9.9,0
		c2.5,0,4,1.5,4.1,4c0,1.1,0,2.2,0,3.4c-0.1,2.1-1.5,3.7-3.7,3.7c-3.8,0-7.5,0-11.3,0C-27.6,19.7-28.8,18.5-29.3,16.1z"/>
	<path class="st0" d="M-25.5,6.7c-0.1-2,1.2-3.5,3.1-3.7c1-0.1,2-0.1,3,0c1.9,0.1,3.2,1.7,3,3.6C-19.4,6.7-22.4,6.7-25.5,6.7z"/>
	<path class="st0" d="M-31.1,8.6c-1,0-1.9-0.8-1.9-1.8c0-1,0.8-1.9,1.8-1.9c1,0,1.9,0.8,1.9,1.8C-29.3,7.7-30.1,8.6-31.1,8.6z"/>
	<path class="st0" d="M-29.3,21.7c0,1-0.9,1.8-1.9,1.8c-1,0-1.8-0.9-1.8-1.9c0-1,0.9-1.8,1.9-1.8C-30.1,19.8-29.3,20.6-29.3,21.7z"
		/>
	<path class="st0" d="M-29.3,29c0,1-0.8,1.9-1.8,1.9c-1,0-1.9-0.8-1.9-1.8c0-1,0.8-1.9,1.8-1.9C-30.1,27.2-29.3,28-29.3,29z"/>
</g>
<g>
	<path class="st0" d="M-12.8,4.3c0,1,0,1.9,0,2.9c-1,0-2-0.1-3,0c-0.4,0.1-0.8,0.6-1.2,0.9c0.4,0.4,0.7,1,1.2,1c1,0.2,2,0.1,3,0.1
		c0,1.9,0,3.8,0,5.7c-0.8,0.8-1.4,1.8-2.3,2.3c-1.7,0.9-3.3,0.2-4.8-1.6c-4.3,0-8.5,0-12.8,0c-0.9,1.5-2.3,2.2-4.1,1.9
		c-2.1-0.4-3-2-3-4.1c-1.5,0-2.9,0.1-4.4,0c-0.6,0-1.2-0.3-1.8-0.5c0-6.6,0-13.1,0-19.7c2-0.8,4.2-1.1,6,0.2c1.6,1.2,2.7,3,4.1,4.5
		c1.6-2.8,4.5-3.3,7.7-3.1c1.8,0.1,3.7,0,5.6,0c2.7,0,4.7,1.1,6.1,3.4C-15.3,0.1-14,2.2-12.8,4.3z M-35.9,1.8c6.5,2,12.8,2,19.3,0
		c-0.7-1.2-1.3-2.3-2.1-3.3c-0.9-1.2-2.1-1.8-3.6-1.8c-2.7,0-5.3,0-8,0c-1.5,0-2.8,0.6-3.6,1.9C-34.6-0.4-35.2,0.7-35.9,1.8z
		 M-37.9,0.9c-0.3-4-2.7-6.5-6-6c0,2,0,4,0,6C-41.8,0.9-39.9,0.9-37.9,0.9z M-26.3,9.2c-1.3,0-2.6-0.1-3.9,0c-0.5,0-1.2,0.5-1.2,0.9
		c-0.2,0.8,0.5,1.1,1.2,1.1c2.6,0,5.2,0,7.7,0c0.4,0,1.2-0.5,1.2-0.9c0.2-0.8-0.5-1.1-1.2-1.1C-23.7,9.2-25,9.2-26.3,9.2z
		 M-39.7,9.2c1,0,2,0.1,2.9,0c0.4-0.1,0.8-0.6,1.1-1c-0.4-0.4-0.7-1-1.1-1c-1-0.2-2,0-3,0C-39.7,7.8-39.7,8.4-39.7,9.2z"/>
</g>
<g>
	<path class="st0" d="M-140.1,13.5c0.2,0.5,0.4,1.1,0.5,1.6c0.1,1.3,0,2.6,0,4.1c1.9,0,3.7-0.2,5,1.6c0.9,1.2,0.8,2.6,0.7,4.1
		c-6.3,0-12.5,0-18.8,0c-0.8-3.7,0.7-5.2,5.5-5.7c0-1.3,0-2.6,0-4c0-0.6,0.3-1.1,0.5-1.6C-144.6,13.5-142.3,13.5-140.1,13.5z
		 M-145.3,15.5c0,1.3,0,2.5,0,3.7c1.3,0,2.5,0,3.6,0c0-1.3,0-2.5,0-3.7C-142.9,15.5-144.1,15.5-145.3,15.5z"/>
	<path class="st0" d="M-122.6,38.5c-0.8,2.6-2.2,4.5-5,5.2c-3.5,0.9-7-1.1-8.1-4.5c-1-3.4,0.8-7.1,4.2-8.2c3.4-1.2,7.1,0.5,8.4,3.9
		c0.2,0.4,0.3,0.8,0.5,1.2C-122.6,36.9-122.6,37.7-122.6,38.5z M-128.3,38.2c1,0,1.9,0.1,2.7,0c0.4-0.1,0.7-0.6,1.1-0.9
		c-0.4-0.3-0.7-0.8-1.2-0.9c-0.8-0.1-1.7,0-2.6,0c0-1,0.1-1.8,0-2.6c-0.1-0.4-0.5-1.1-0.9-1.1c-0.7-0.1-1,0.5-1,1.1
		c0,0.8,0,1.7,0,2.6c-1,0-1.9-0.1-2.7,0c-0.4,0.1-0.7,0.6-1.1,0.9c0.4,0.3,0.7,0.8,1.2,0.9c0.8,0.1,1.7,0,2.6,0c0,1-0.1,1.8,0,2.6
		c0.1,0.4,0.5,1.1,0.9,1.1c0.7,0.1,1-0.5,1-1.1C-128.3,40-128.3,39.2-128.3,38.2z"/>
	<path class="st0" d="M-134,26.9c0,1,0,1.9,0,2.9c0,0.2-0.1,0.5-0.3,0.6c-3.8,3.2-4.4,7-2.3,11.4c-0.4,0.1-0.7,0.2-1.1,0.4
		c0.1,0.1,0.2,0.2,0.3,0.2c-0.4,0.5-0.9,1-1.3,1.6c-0.4-0.5-0.8-1-1.4-1.8c-2,0-4.5,0-6.6,0c-0.6,0.8-1,1.3-1.5,1.8
		c-0.4-0.5-0.8-1-1.3-1.5c0.1,0,0.1-0.1,0.2-0.1c-0.9-0.5-1.9-0.8-2.6-1.5c-0.5-0.5-1-1.3-1-2c-0.1-3.9,0-7.9,0-11.9
		C-146.6,26.9-140.3,26.9-134,26.9z"/>
</g>
<g>
	<path d="M16.7,20.1c-0.2,0.6,0.2,1,0.6,1.2c2.3,1.1,4.6,2.3,6.9,3.5c0.5,0.2,0.8,0.2,1.2-0.1c1.6-1.3,4-1.2,5.6,0.2
		c1.5,1.4,1.8,3.8,0.7,5.6c-1,1.7-3.3,2.4-5.2,1.6c-1.9-0.7-3.1-2.7-2.7-4.8c0.1-0.7,0-1-0.6-1.3c-2.2-1-4.4-2.1-6.6-3.3
		c-0.5-0.2-0.7-0.2-1,0.2c-1.4,1.5-3.5,1.9-5.3,1c-1.6-0.8-2.6-2.8-2.3-4.6c0.4-2.1,1.9-3.4,4-3.6c1.4-0.1,2.7,0.4,3.6,1.5
		c0.3,0.4,0.6,0.4,1,0.2c2.3-1.2,4.5-2.3,6.8-3.4c0.5-0.2,0.6-0.5,0.5-1c-0.4-1.9,0.4-3.7,2-4.7c1.6-0.9,3.8-0.7,5.2,0.6
		c1.3,1.2,1.6,2.7,1.2,4.4c-0.4,1.6-1.5,2.6-3.1,3.1c-1.4,0.4-2.7,0-3.8-0.9c-0.3-0.3-0.5-0.3-0.9-0.1c-2.5,1.3-4.9,2.5-7.4,3.8
		c-0.3,0.2-0.3,0.5-0.4,0.8C16.6,20.1,16.7,20,16.7,20.1z M28.2,9.5c-1.5,0-2.7,1.2-2.7,2.7c0,1.4,1.2,2.6,2.7,2.6
		c1.5,0,2.7-1.2,2.7-2.6C30.9,10.7,29.7,9.5,28.2,9.5z M28.2,25.4c-1.5,0-2.7,1.2-2.7,2.6c0,1.5,1.2,2.7,2.7,2.7
		c1.5,0,2.6-1.2,2.7-2.6C30.9,26.5,29.7,25.4,28.2,25.4z M15,20.1c0-1.5-1.2-2.7-2.7-2.7c-1.5,0-2.7,1.2-2.7,2.7
		c0,1.5,1.2,2.7,2.7,2.7C13.8,22.8,15,21.6,15,20.1z"/>
</g>
</svg>
