<?xml version="1.0" encoding="utf-8"?>
<!-- Generator: Adobe Illustrator 24.1.2, SVG Export Plug-In . SVG Version: 6.00 Build 0)  -->
<svg version="1.1" id="Layer_1" xmlns="http://www.w3.org/2000/svg" xmlns:xlink="http://www.w3.org/1999/xlink" x="0px" y="0px"
	 viewBox="0 0 40 40" style="enable-background:new 0 0 40 40;" xml:space="preserve">
<style type="text/css">
	.st0{fill:#F68521;}
</style>
<g>
	<path class="st0" d="M4,34.3c7.2,0,14.3,0,21.5,0c-0.3-5-1.1-9.7-4.8-13.3c-3.9-3.8-9.3-3.5-12.8,0.8c-2.5,3-3.4,6.6-3.8,10.4
		C4.1,32.9,4.1,33.5,4,34.3z"/>
	<path class="st0" d="M26,34.3c3.2,0,6.2,0,9.5,0c-0.3-1.8-0.4-3.5-0.9-5.2c-0.8-3.2-2.3-6.1-5.5-7.7c-2.3-1.1-4.6-0.9-6.9,0.5
		C24.9,25.6,25.8,29.8,26,34.3z"/>
	<path class="st0" d="M9.5,12.1c0,3.3,2.4,5.9,5.4,5.8c2.6-0.1,4.9-2.5,4.9-5.5c0-0.9-0.1-1.8-0.5-2.6c-0.9-2.4-3.3-3.8-5.6-3.3
		C11.3,6.9,9.5,9.2,9.5,12.1z"/>
	<path class="st0" d="M21.7,15.5c0,2.6,2,4.7,4.4,4.7c2.5,0,4.5-2.1,4.5-4.7c0-2.5-2-4.7-4.4-4.7C23.7,10.8,21.7,12.9,21.7,15.5z"/>
</g>
<rect x="-165" y="-38" class="st0" width="67" height="33"/>
</svg>
