<?xml version="1.0" encoding="utf-8"?>
<!-- Generator: Adobe Illustrator 24.1.2, SVG Export Plug-In . SVG Version: 6.00 Build 0)  -->
<svg version="1.1" id="Layer_1" xmlns="http://www.w3.org/2000/svg" xmlns:xlink="http://www.w3.org/1999/xlink" x="0px" y="0px"
	 viewBox="0 0 200 50" style="enable-background:new 0 0 200 50;" xml:space="preserve">
<style type="text/css">
	.st0{fill:#16BE45;}
	.st1{fill:#FFFFFF;}
</style>
<path class="st0" d="M192,47H8c-2.8,0-5-2.3-5-5V8c0-2.8,2.3-5,5-5H192c2.8,0,5,2.3,5,5V42C197,44.7,194.7,47,192,47z"/>
<g>
	<path class="st1" d="M32.2,16.7h1.5l2.3,5.8l2.3-5.8h1.5L37,23.6l3.1,7.4L46,16.6h1.7l-6.9,16.3h-1.4l-3.4-8l-3.4,8h-1.4l-6.9-16.3
		H26L31.9,31l3.1-7.4L32.2,16.7z"/>
	<path class="st1" d="M53.3,33.1c-0.9,0-1.6-0.2-2.4-0.5s-1.4-0.8-1.9-1.3c-0.5-0.6-1-1.2-1.2-2c-0.3-0.7-0.4-1.5-0.4-2.4
		c0-1.1,0.3-2.1,0.8-3c0.5-0.9,1.2-1.7,2.1-2.2c0.9-0.6,1.9-0.8,3.1-0.8c1.2,0,2.2,0.3,3.1,0.8c0.9,0.6,1.6,1.3,2.1,2.2
		c0.5,0.9,0.8,1.9,0.8,3c0,0.1,0,0.2,0,0.4s0,0.2,0,0.3H49c0.1,0.9,0.3,1.6,0.7,2.3s0.9,1.2,1.6,1.6c0.6,0.4,1.4,0.6,2.1,0.6
		c0.8,0,1.5-0.2,2.2-0.6c0.7-0.4,1.2-0.9,1.5-1.6l1.4,0.4c-0.2,0.6-0.6,1.1-1.1,1.5c-0.5,0.5-1.1,0.8-1.8,1.1
		C54.8,32.9,54.1,33.1,53.3,33.1z M48.9,26.3h8.8c-0.1-0.9-0.3-1.6-0.7-2.3c-0.4-0.7-0.9-1.2-1.6-1.5S54.1,22,53.3,22
		c-0.8,0-1.5,0.2-2.1,0.6s-1.2,0.9-1.6,1.5C49.2,24.7,49,25.5,48.9,26.3z"/>
	<path class="st1" d="M67.4,33.1c-0.9,0-1.8-0.2-2.6-0.7c-0.8-0.5-1.4-1.1-1.9-1.8v2.3h-1.4V16.1h1.6v7.4c0.5-0.8,1.2-1.5,1.9-2
		c0.7-0.5,1.6-0.7,2.6-0.7c0.8,0,1.6,0.2,2.3,0.5c0.7,0.3,1.2,0.8,1.7,1.4c0.5,0.6,0.8,1.2,1.1,2c0.2,0.7,0.4,1.5,0.4,2.3
		c0,0.8-0.1,1.6-0.4,2.3c-0.3,0.7-0.7,1.4-1.2,1.9c-0.5,0.6-1.1,1-1.8,1.3C69,32.9,68.3,33.1,67.4,33.1z M67.1,31.7
		c0.6,0,1.2-0.1,1.8-0.4s1-0.6,1.4-1.1c0.4-0.5,0.7-1,0.9-1.5c0.2-0.6,0.3-1.2,0.3-1.8c0-0.8-0.2-1.6-0.5-2.4
		c-0.4-0.7-0.9-1.3-1.5-1.8c-0.6-0.4-1.4-0.7-2.2-0.7c-0.6,0-1.2,0.1-1.7,0.4c-0.5,0.3-1,0.6-1.4,1.1c-0.4,0.4-0.7,0.9-1,1.5v3.7
		c0.1,0.4,0.2,0.8,0.5,1.1c0.3,0.4,0.6,0.7,1,0.9c0.4,0.3,0.8,0.5,1.2,0.6S66.7,31.7,67.1,31.7z"/>
	<path class="st1" d="M80.8,24.6c0-1,0.2-2,0.5-2.9s0.8-1.8,1.5-2.6c0.7-0.8,1.5-1.4,2.4-1.9s2.1-0.7,3.3-0.7c1.5,0,2.7,0.3,3.7,1
		c1,0.7,1.8,1.5,2.3,2.6l-1.3,0.8c-0.4-0.7-0.8-1.3-1.3-1.7c-0.5-0.4-1.1-0.7-1.7-0.9c-0.6-0.2-1.2-0.3-1.8-0.3
		c-1,0-1.8,0.2-2.6,0.6c-0.7,0.4-1.4,0.9-1.9,1.6c-0.5,0.6-0.9,1.4-1.2,2.2c-0.3,0.8-0.4,1.6-0.4,2.4c0,0.9,0.2,1.8,0.5,2.6
		s0.7,1.6,1.3,2.2c0.6,0.6,1.2,1.1,1.9,1.5c0.7,0.4,1.5,0.6,2.4,0.6c0.6,0,1.2-0.1,1.9-0.3s1.2-0.5,1.8-1c0.6-0.4,1-1,1.3-1.7
		l1.3,0.7c-0.3,0.8-0.9,1.5-1.6,2.1c-0.7,0.6-1.5,1-2.3,1.3c-0.9,0.3-1.7,0.4-2.5,0.4c-1.1,0-2.1-0.2-3.1-0.7
		c-0.9-0.5-1.7-1.1-2.4-1.9c-0.7-0.8-1.2-1.7-1.6-2.7C81,26.6,80.8,25.6,80.8,24.6z"/>
	<path class="st1" d="M107.3,32.8h-1.6v-6.6c0-1.3-0.2-2.3-0.7-3c-0.5-0.7-1.2-1-2-1c-0.6,0-1.2,0.1-1.7,0.4
		c-0.6,0.3-1.1,0.7-1.5,1.2c-0.4,0.5-0.7,1.1-0.9,1.7v7.3h-1.6V16.1h1.6v7.5c0.5-0.9,1.1-1.6,2-2.1c0.8-0.5,1.8-0.8,2.7-0.8
		c0.7,0,1.3,0.1,1.8,0.4c0.5,0.2,0.9,0.6,1.2,1.1c0.3,0.5,0.5,1,0.7,1.6c0.1,0.6,0.2,1.3,0.2,2.1V32.8z"/>
	<path class="st1" d="M115.8,33.1c-0.9,0-1.6-0.2-2.4-0.5s-1.4-0.8-1.9-1.3c-0.5-0.6-1-1.2-1.2-2c-0.3-0.7-0.4-1.5-0.4-2.4
		c0-1.1,0.3-2.1,0.8-3c0.5-0.9,1.2-1.7,2.1-2.2c0.9-0.6,1.9-0.8,3.1-0.8c1.2,0,2.2,0.3,3.1,0.8c0.9,0.6,1.6,1.3,2.1,2.2
		s0.8,1.9,0.8,3c0,0.1,0,0.2,0,0.4s0,0.2,0,0.3h-10.2c0.1,0.9,0.3,1.6,0.7,2.3s0.9,1.2,1.6,1.6c0.6,0.4,1.4,0.6,2.1,0.6
		c0.8,0,1.5-0.2,2.2-0.6c0.7-0.4,1.2-0.9,1.5-1.6l1.4,0.4c-0.2,0.6-0.6,1.1-1.1,1.5c-0.5,0.5-1.1,0.8-1.8,1.1
		C117.3,32.9,116.6,33.1,115.8,33.1z M111.4,26.3h8.8c-0.1-0.9-0.3-1.6-0.7-2.3c-0.4-0.7-0.9-1.2-1.6-1.5s-1.4-0.6-2.1-0.6
		s-1.5,0.2-2.1,0.6s-1.2,0.9-1.6,1.5C111.7,24.7,111.5,25.5,111.4,26.3z"/>
	<path class="st1" d="M129.3,33.1c-0.9,0-1.7-0.2-2.4-0.5c-0.7-0.3-1.4-0.8-1.9-1.4s-1-1.2-1.3-2c-0.3-0.7-0.4-1.5-0.4-2.4
		c0-1.1,0.3-2.1,0.8-3.1c0.5-0.9,1.2-1.7,2.1-2.2s1.9-0.8,3.1-0.8c1.1,0,2.1,0.3,3,0.8c0.9,0.5,1.5,1.2,1.9,2.1l-1.5,0.5
		c-0.3-0.6-0.8-1.1-1.4-1.4c-0.6-0.3-1.3-0.5-2-0.5c-0.8,0-1.5,0.2-2.2,0.6c-0.7,0.4-1.2,1-1.6,1.7c-0.4,0.7-0.6,1.5-0.6,2.4
		c0,0.9,0.2,1.7,0.6,2.4s0.9,1.3,1.6,1.7s1.4,0.6,2.2,0.6c0.5,0,1-0.1,1.5-0.3c0.5-0.2,0.9-0.4,1.3-0.7c0.4-0.3,0.6-0.7,0.7-1
		l1.5,0.5c-0.2,0.6-0.6,1.1-1.1,1.5c-0.5,0.5-1.1,0.8-1.7,1.1C130.8,32.9,130.1,33.1,129.3,33.1z"/>
	<path class="st1" d="M145.2,32.8l-4.4-6.1l-2.5,2.4v3.7h-1.6V16.1h1.6v11.3l6.8-6.5h1.7l-4.9,4.9l5.1,7H145.2z"/>
	<path class="st1" d="M155,32.8V16.6h1.6v16.3H155z"/>
	<path class="st1" d="M170.4,32.8h-1.6v-6.6c0-1.4-0.2-2.4-0.6-3.1c-0.4-0.6-1.1-1-1.9-1c-0.6,0-1.2,0.1-1.8,0.4
		c-0.6,0.3-1.1,0.7-1.6,1.2c-0.5,0.5-0.8,1.1-1,1.7v7.3h-1.6V20.9h1.4v2.7c0.3-0.6,0.7-1.1,1.3-1.5s1.1-0.8,1.8-1
		c0.7-0.2,1.3-0.4,2-0.4c0.7,0,1.2,0.1,1.7,0.4c0.5,0.2,0.8,0.6,1.1,1c0.3,0.4,0.5,1,0.6,1.6s0.2,1.3,0.2,2.1V32.8z"/>
</g>
</svg>
