<?xml version="1.0" encoding="utf-8"?>
<!-- Generator: Adobe Illustrator 24.1.2, SVG Export Plug-In . SVG Version: 6.00 Build 0)  -->
<svg version="1.1" id="Layer_1" xmlns="http://www.w3.org/2000/svg" xmlns:xlink="http://www.w3.org/1999/xlink" x="0px" y="0px"
	 viewBox="0 0 200 50" style="enable-background:new 0 0 200 50;" xml:space="preserve">
<style type="text/css">
	.st0{fill:#16BE45;}
	.st1{fill:#FFFFFF;}
</style>
<path class="st0" d="M192,47H8c-2.8,0-5-2.3-5-5V8c0-2.8,2.3-5,5-5H192c2.8,0,5,2.3,5,5V42C197,44.7,194.7,47,192,47z"/>
<path class="st1" d="M173.3,13.6c-3.1-3.1-7.1-4.8-11.5-4.8c-9,0-16.2,7.3-16.2,16.2c0,2.9,0.7,5.7,2.2,8.1l-2.3,8.4l8.6-2.3
	c2.4,1.3,5,2,7.8,2h0c8.9,0,16.4-7.3,16.4-16.2C178.2,20.7,176.3,16.7,173.3,13.6z M161.8,38.6c-2.4,0-4.8-0.7-6.9-1.9l-0.5-0.3
	l-5.1,1.3l1.4-5l-0.3-0.5c-1.4-2.2-2.1-4.6-2.1-7.2c0-7.4,6.1-13.5,13.5-13.5c3.6,0,7,1.4,9.5,4s4.1,5.9,4.1,9.5
	C175.4,32.5,169.2,38.6,161.8,38.6z M169.2,28.5c-0.4-0.2-2.4-1.2-2.8-1.3c-0.4-0.1-0.6-0.2-0.9,0.2c-0.3,0.4-1,1.3-1.3,1.6
	c-0.2,0.3-0.5,0.3-0.9,0.1c-2.4-1.2-3.9-2.1-5.5-4.8c-0.4-0.7,0.4-0.7,1.2-2.2c0.1-0.3,0.1-0.5,0-0.7c-0.1-0.2-0.9-2.2-1.3-3
	c-0.3-0.8-0.7-0.7-0.9-0.7c-0.2,0-0.5,0-0.8,0s-0.7,0.1-1.1,0.5c-0.4,0.4-1.4,1.4-1.4,3.4s1.5,3.9,1.7,4.2c0.2,0.3,2.9,4.4,6.9,6.1
	c2.6,1.1,3.6,1.2,4.9,1c0.8-0.1,2.4-1,2.7-1.9c0.3-1,0.3-1.8,0.2-1.9C169.9,28.8,169.6,28.7,169.2,28.5z"/>
<g>
	<path class="st1" d="M29.2,14.7h1.6l2.4,5.9l2.4-5.9h1.6l-2.9,7.1l3.2,7.5l6-14.8h1.8l-7.1,16.7h-1.5L33.1,23l-3.5,8.3h-1.4
		l-7.1-16.7h1.8l6.1,14.8l3.2-7.5L29.2,14.7z"/>
	<path class="st1" d="M57.5,31.3h-1.6v-6.8c0-1.4-0.2-2.4-0.7-3.1c-0.5-0.7-1.2-1-2.1-1c-0.6,0-1.2,0.2-1.8,0.5
		c-0.6,0.3-1.1,0.7-1.6,1.2c-0.4,0.5-0.8,1.1-1,1.8v7.5h-1.6V14.1h1.6v7.7c0.5-0.9,1.2-1.6,2-2.2c0.9-0.5,1.8-0.8,2.8-0.8
		c0.7,0,1.3,0.1,1.8,0.4c0.5,0.3,0.9,0.6,1.2,1.1c0.3,0.5,0.5,1,0.7,1.7c0.1,0.6,0.2,1.3,0.2,2.1V31.3z"/>
	<path class="st1" d="M59.9,27.8c0-0.8,0.2-1.4,0.7-2c0.4-0.6,1-1,1.8-1.3c0.8-0.3,1.7-0.5,2.7-0.5c0.6,0,1.2,0,1.9,0.1
		s1.2,0.2,1.7,0.4v-1c0-1-0.3-1.8-0.9-2.5c-0.6-0.6-1.5-0.9-2.5-0.9c-0.7,0-1.3,0.1-1.9,0.4c-0.6,0.2-1.3,0.6-2,1.1l-0.6-1.1
		c0.8-0.5,1.6-1,2.4-1.2c0.8-0.3,1.6-0.4,2.4-0.4c1.5,0,2.7,0.4,3.6,1.3c0.9,0.9,1.3,2,1.3,3.6v5.6c0,0.2,0,0.4,0.1,0.5
		c0.1,0.1,0.2,0.2,0.4,0.2v1.3c-0.2,0-0.3,0-0.4,0c-0.1,0-0.2,0-0.3,0c-0.4,0-0.7-0.1-0.9-0.4c-0.2-0.2-0.3-0.5-0.3-0.8l0-0.9
		c-0.5,0.7-1.3,1.2-2.1,1.6c-0.9,0.4-1.8,0.6-2.7,0.6c-0.8,0-1.5-0.2-2.1-0.5c-0.6-0.3-1.1-0.8-1.5-1.4
		C60.1,29.1,59.9,28.5,59.9,27.8z M68.1,28.7c0.2-0.2,0.3-0.4,0.4-0.6c0.1-0.2,0.1-0.4,0.1-0.5v-1.8c-0.5-0.2-1.1-0.4-1.7-0.5
		c-0.6-0.1-1.1-0.2-1.7-0.2c-1.1,0-2.1,0.2-2.8,0.7c-0.7,0.4-1.1,1.1-1.1,1.8c0,0.4,0.1,0.9,0.4,1.3c0.2,0.4,0.6,0.7,1,1
		c0.5,0.3,1,0.4,1.6,0.4c0.8,0,1.5-0.1,2.2-0.4C67.2,29.6,67.8,29.2,68.1,28.7z"/>
	<path class="st1" d="M79.5,30.8c-0.1,0-0.3,0.1-0.6,0.3c-0.3,0.1-0.6,0.2-1,0.3c-0.4,0.1-0.8,0.1-1.2,0.1c-0.5,0-0.9-0.1-1.3-0.3
		c-0.4-0.2-0.7-0.4-1-0.8c-0.2-0.4-0.4-0.8-0.4-1.3v-8.8h-1.7v-1.3h1.7v-4.1h1.6v4.1h2.8v1.3h-2.8v8.4c0,0.4,0.2,0.8,0.5,1
		c0.3,0.2,0.6,0.3,1,0.3c0.4,0,0.8-0.1,1.2-0.2c0.4-0.1,0.6-0.3,0.7-0.3L79.5,30.8z"/>
	<path class="st1" d="M85.5,31.5c-1,0-1.9-0.2-2.8-0.5s-1.6-0.8-2.2-1.5l0.7-1.1c0.7,0.6,1.4,1.1,2.1,1.4c0.7,0.3,1.4,0.4,2.2,0.4
		c1,0,1.7-0.2,2.3-0.6c0.6-0.4,0.9-0.9,0.9-1.6c0-0.5-0.1-0.9-0.4-1.1c-0.3-0.3-0.7-0.5-1.2-0.6c-0.5-0.2-1.2-0.3-1.9-0.5
		c-0.8-0.2-1.6-0.5-2.1-0.7c-0.6-0.3-1-0.6-1.3-1c-0.3-0.4-0.4-0.9-0.4-1.6c0-0.8,0.2-1.5,0.6-2c0.4-0.5,0.9-0.9,1.6-1.2
		c0.7-0.3,1.5-0.4,2.3-0.4c0.9,0,1.8,0.1,2.5,0.4c0.7,0.3,1.3,0.7,1.8,1.2l-0.8,1.1c-0.4-0.5-1-0.9-1.6-1.1c-0.6-0.2-1.3-0.4-2-0.4
		c-0.5,0-1,0.1-1.4,0.2c-0.5,0.1-0.8,0.3-1.1,0.7c-0.3,0.3-0.4,0.7-0.4,1.2c0,0.4,0.1,0.8,0.3,1c0.2,0.2,0.5,0.4,1,0.6
		c0.4,0.2,1,0.3,1.6,0.5c0.9,0.2,1.7,0.5,2.4,0.8c0.7,0.3,1.2,0.6,1.6,1c0.4,0.4,0.6,1,0.6,1.7c0,1.1-0.4,2-1.3,2.7
		S86.9,31.5,85.5,31.5z"/>
	<path class="st1" d="M91.9,27.8c0-0.8,0.2-1.4,0.7-2s1-1,1.8-1.3c0.8-0.3,1.7-0.5,2.7-0.5c0.6,0,1.2,0,1.9,0.1
		c0.6,0.1,1.2,0.2,1.7,0.4v-1c0-1-0.3-1.8-0.9-2.5c-0.6-0.6-1.5-0.9-2.5-0.9c-0.7,0-1.3,0.1-1.9,0.4c-0.6,0.2-1.3,0.6-2,1.1
		l-0.6-1.1c0.8-0.5,1.6-1,2.4-1.2c0.8-0.3,1.6-0.4,2.4-0.4c1.5,0,2.7,0.4,3.6,1.3c0.9,0.9,1.3,2,1.3,3.6v5.6c0,0.2,0,0.4,0.1,0.5
		c0.1,0.1,0.2,0.2,0.4,0.2v1.3c-0.2,0-0.3,0-0.4,0c-0.1,0-0.2,0-0.3,0c-0.4,0-0.7-0.1-0.9-0.4c-0.2-0.2-0.3-0.5-0.3-0.8l0-0.9
		c-0.5,0.7-1.3,1.2-2.1,1.6c-0.9,0.4-1.8,0.6-2.7,0.6c-0.8,0-1.5-0.2-2.1-0.5c-0.6-0.3-1.1-0.8-1.5-1.4
		C92.1,29.1,91.9,28.5,91.9,27.8z M100.1,28.7c0.2-0.2,0.3-0.4,0.4-0.6c0.1-0.2,0.1-0.4,0.1-0.5v-1.8c-0.5-0.2-1.1-0.4-1.7-0.5
		c-0.6-0.1-1.1-0.2-1.7-0.2c-1.1,0-2.1,0.2-2.8,0.7c-0.7,0.4-1.1,1.1-1.1,1.8c0,0.4,0.1,0.9,0.4,1.3c0.2,0.4,0.6,0.7,1,1
		s1,0.4,1.6,0.4c0.8,0,1.5-0.1,2.2-0.4C99.2,29.6,99.7,29.2,100.1,28.7z"/>
	<path class="st1" d="M111.9,31.5c-1,0-1.9-0.3-2.7-0.8c-0.8-0.5-1.4-1.2-1.9-2v7.5h-1.6V19.1h1.4v2.4c0.5-0.8,1.1-1.4,2-1.9
		c0.8-0.5,1.7-0.7,2.6-0.7c0.8,0,1.6,0.2,2.3,0.5c0.7,0.4,1.3,0.8,1.8,1.4c0.5,0.6,0.9,1.3,1.2,2c0.3,0.8,0.4,1.5,0.4,2.4
		c0,1.1-0.2,2.2-0.7,3.1c-0.5,1-1.1,1.7-1.9,2.3C114,31.2,113.1,31.5,111.9,31.5z M111.5,30.1c0.7,0,1.3-0.1,1.8-0.4s1-0.6,1.4-1.1
		c0.4-0.5,0.7-1,0.9-1.6c0.2-0.6,0.3-1.2,0.3-1.8c0-0.7-0.1-1.3-0.3-1.9c-0.2-0.6-0.6-1.1-1-1.6c-0.4-0.5-0.9-0.8-1.5-1.1
		c-0.5-0.3-1.1-0.4-1.8-0.4c-0.4,0-0.8,0.1-1.3,0.2c-0.4,0.2-0.9,0.4-1.3,0.7s-0.7,0.6-1,1c-0.3,0.4-0.4,0.7-0.5,1.1v3.7
		c0.3,0.6,0.6,1.1,1,1.6c0.4,0.5,0.9,0.8,1.5,1.1C110.3,30,110.9,30.1,111.5,30.1z"/>
	<path class="st1" d="M126.4,31.5c-1,0-1.9-0.3-2.7-0.8c-0.8-0.5-1.4-1.2-1.9-2v7.5h-1.6V19.1h1.4v2.4c0.5-0.8,1.1-1.4,2-1.9
		c0.8-0.5,1.7-0.7,2.6-0.7c0.8,0,1.6,0.2,2.3,0.5c0.7,0.4,1.3,0.8,1.8,1.4s0.9,1.3,1.2,2c0.3,0.8,0.4,1.5,0.4,2.4
		c0,1.1-0.2,2.2-0.7,3.1c-0.5,1-1.1,1.7-1.9,2.3C128.5,31.2,127.6,31.5,126.4,31.5z M126,30.1c0.7,0,1.3-0.1,1.8-0.4
		c0.5-0.3,1-0.6,1.4-1.1c0.4-0.5,0.7-1,0.9-1.6c0.2-0.6,0.3-1.2,0.3-1.8c0-0.7-0.1-1.3-0.3-1.9c-0.2-0.6-0.6-1.1-1-1.6
		c-0.4-0.5-0.9-0.8-1.5-1.1c-0.5-0.3-1.1-0.4-1.8-0.4c-0.4,0-0.8,0.1-1.3,0.2c-0.4,0.2-0.9,0.4-1.3,0.7c-0.4,0.3-0.7,0.6-1,1
		c-0.3,0.4-0.4,0.7-0.5,1.1v3.7c0.3,0.6,0.6,1.1,1,1.6c0.4,0.5,0.9,0.8,1.5,1.1C124.8,30,125.4,30.1,126,30.1z"/>
</g>
</svg>
